M48
;DRILL file {KiCad 4.0.0-stable} date Sat 14 May 2016 01:26:07 PM EDT
;FORMAT={2:4/ absolute / inch / suppress leading zeros}
FMAT,2
INCH,TZ
T1C0.023
T2C0.025
T3C0.031
T4C0.032
T5C0.039
T6C0.040
T7C0.120
%
G90
G05
M72
T1
X32000Y-48000
X34750Y-32250
X35000Y-31250
X35250Y-30250
X35500Y-29250
X35750Y-28250
X36000Y-27250
X36250Y-26000
X38500Y-14500
X41250Y-35500
X43000Y-27500
X46000Y-14500
X46000Y-27500
X46750Y-39500
X47000Y-38500
X47250Y-35500
X47250Y-37500
X47500Y-36500
X47750Y-34500
X48250Y-35500
X48500Y-28250
X48500Y-31750
X48500Y-33500
X49000Y-28000
X49000Y-31500
X49000Y-34500
X49000Y-36500
X49250Y-37500
X49250Y-39500
X49500Y-27750
X49500Y-31750
X49500Y-34000
X50000Y-31500
X50250Y-48000
X50250Y-49250
X50750Y-16500
X50750Y-18500
X51750Y-15500
X52000Y-47750
X52750Y-31750
X53000Y-37000
X53000Y-47750
X53500Y-31750
X54000Y-47750
X55000Y-21500
X55000Y-47750
X55500Y-38250
X56000Y-36000
X56000Y-44500
X56250Y-47750
X56250Y-50250
X57000Y-28000
X57250Y-18500
X57500Y-25750
X57500Y-26750
X57750Y-25250
X58500Y-37000
X59500Y-31250
X59750Y-21750
X59750Y-24750
X59750Y-25750
X60000Y-22750
X60250Y-23250
X60250Y-24750
X60500Y-22250
X62500Y-32000
X63000Y-42500
X63250Y-40500
X64750Y-20750
X65000Y-31000
X65250Y-23750
X65750Y-41000
X66000Y-47250
X66250Y-31250
X66250Y-46750
X66250Y-49500
X66500Y-46250
X66750Y-45000
X67000Y-42500
X67000Y-44000
X67500Y-43000
X68000Y-42000
X68250Y-46500
X68500Y-47500
X69500Y-28000
X69500Y-31000
T2
X32500Y-38500
X32500Y-39500
X32500Y-40500
X32500Y-41500
X32500Y-42500
X32500Y-43500
X32500Y-44500
X32500Y-45500
X35500Y-38500
X35500Y-39500
X35500Y-40500
X35500Y-41500
X35500Y-42500
X35500Y-43500
X35500Y-44500
X35500Y-45500
X54500Y-38500
X54500Y-39500
X54500Y-40500
X54500Y-41500
X54500Y-42500
X54500Y-43500
X54500Y-44500
X54500Y-45500
X57500Y-38500
X57500Y-39500
X57500Y-40500
X57500Y-41500
X57500Y-42500
X57500Y-43500
X57500Y-44500
X57500Y-45500
T3
X34000Y-48750
X34000Y-49734
T4
X37500Y-36500
X37500Y-37500
X37500Y-38500
X37500Y-39500
X37500Y-40500
X37500Y-41500
X37500Y-42500
X37500Y-43500
X37500Y-44500
X37500Y-45500
X39500Y-17750
X39500Y-18750
X39500Y-19750
X39500Y-20750
X39500Y-21750
X39500Y-22750
X39500Y-23750
X39500Y-24750
X39500Y-25750
X39500Y-26750
X39500Y-32500
X39500Y-36500
X39500Y-37500
X39500Y-38500
X39500Y-39500
X39500Y-40500
X39500Y-41500
X39500Y-42500
X39500Y-43500
X39500Y-44500
X39500Y-45500
X40500Y-32500
X40500Y-49500
X40500Y-50500
X41500Y-49500
X41500Y-50500
X42500Y-17750
X42500Y-18750
X42500Y-19750
X42500Y-20750
X42500Y-21750
X42500Y-22750
X42500Y-23750
X42500Y-24750
X42500Y-25750
X42500Y-26750
X42500Y-36500
X42500Y-37500
X42500Y-38500
X42500Y-39500
X42500Y-40500
X42500Y-41500
X42500Y-42500
X42500Y-43500
X42500Y-44500
X42500Y-45500
X42500Y-49500
X42500Y-50500
X43500Y-49500
X43500Y-50500
X44500Y-49500
X44500Y-50500
X45500Y-32500
X45500Y-33500
X45500Y-34500
X45500Y-35500
X45500Y-36500
X45500Y-37500
X45500Y-38500
X45500Y-39500
X45500Y-40500
X45500Y-41500
X45500Y-42500
X45500Y-43500
X45500Y-44500
X45500Y-45500
X47000Y-17750
X47000Y-18750
X47000Y-19750
X47000Y-20750
X47000Y-21750
X47000Y-22750
X47000Y-23750
X47000Y-24750
X47000Y-25750
X47000Y-26750
X50000Y-17750
X50000Y-18750
X50000Y-19750
X50000Y-20750
X50000Y-21750
X50000Y-22750
X50000Y-23750
X50000Y-24750
X50000Y-25750
X50000Y-26750
X51500Y-32500
X51500Y-33500
X51500Y-34500
X51500Y-35500
X51500Y-36500
X51500Y-37500
X51500Y-38500
X51500Y-39500
X51500Y-40500
X51500Y-41500
X51500Y-42500
X51500Y-43500
X51500Y-44500
X51500Y-45500
X53000Y-17750
X53000Y-18750
X53000Y-19750
X53000Y-20750
X53000Y-21750
X53000Y-22750
X53000Y-23750
X53000Y-24750
X53000Y-25750
X53000Y-26750
X56000Y-17750
X56000Y-18750
X56000Y-19750
X56000Y-20750
X56000Y-21750
X56000Y-22750
X56000Y-23750
X56000Y-24750
X56000Y-25750
X56000Y-26750
X58500Y-15000
X58500Y-16000
X58500Y-17000
X58500Y-20750
X58500Y-21750
X58500Y-22750
X58500Y-23750
X58500Y-24750
X58500Y-25750
X58500Y-26750
X59500Y-36500
X59500Y-37500
X59500Y-38500
X59500Y-39500
X59500Y-40500
X59500Y-41500
X59500Y-42500
X59500Y-43500
X59500Y-44500
X59500Y-45500
X61500Y-15000
X61500Y-16000
X61500Y-17000
X61500Y-20750
X61500Y-21750
X61500Y-22750
X61500Y-23750
X61500Y-24750
X61500Y-25750
X61500Y-26750
X61500Y-36500
X61500Y-37500
X61500Y-38500
X61500Y-39500
X61500Y-40500
X61500Y-41500
X61500Y-42500
X61500Y-43500
X61500Y-44500
X61500Y-45500
X63250Y-20750
X63250Y-21750
X63250Y-22750
X63250Y-23750
X63250Y-24750
X63250Y-25750
X63250Y-26750
X64500Y-36500
X64500Y-37500
X64500Y-38500
X64500Y-39500
X64500Y-40500
X64500Y-41500
X64500Y-42500
X64500Y-43500
X64500Y-44500
X64500Y-45500
X66250Y-20750
X66250Y-21750
X66250Y-22750
X66250Y-23750
X66250Y-24750
X66250Y-25750
X66250Y-26750
X68000Y-19750
X68000Y-20750
X68000Y-21750
X68000Y-22750
X68000Y-23750
X68000Y-24750
X68000Y-25750
X68000Y-26750
X69000Y-36500
X69000Y-37500
X69000Y-38500
X69000Y-39500
X69000Y-40500
X69000Y-41500
X69000Y-42500
X69000Y-43500
X69000Y-44500
X69000Y-45500
X71000Y-19750
X71000Y-20750
X71000Y-21750
X71000Y-22750
X71000Y-23750
X71000Y-24750
X71000Y-25750
X71000Y-26750
X72000Y-36500
X72000Y-37500
X72000Y-38500
X72000Y-39500
X72000Y-40500
X72000Y-41500
X72000Y-42500
X72000Y-43500
X72000Y-44500
X72000Y-45500
X72250Y-16000
X73250Y-16000
T5
X39500Y-15000
X39500Y-34750
X42500Y-15000
X42500Y-34750
X47000Y-15000
X50000Y-15000
X53000Y-16000
X54000Y-32500
X54000Y-33500
X54000Y-34500
X56000Y-16000
X58000Y-32500
X58000Y-33500
X58000Y-34500
X58500Y-19000
X61500Y-19000
X61500Y-34750
X63250Y-19000
X64000Y-16000
X64500Y-34750
X66250Y-19000
X68000Y-16000
X68000Y-18000
X69000Y-34750
X69250Y-16000
X70250Y-16000
X71000Y-18000
X72000Y-34750
X73250Y-19750
X73250Y-23750
T6
X32500Y-15750
X32500Y-16750
X32500Y-17750
X32500Y-18750
X32500Y-19750
X32500Y-20750
X32500Y-21750
X32500Y-22750
X32500Y-23750
X32500Y-24750
X32500Y-25750
X32500Y-26750
X32500Y-27750
X32500Y-28750
X32500Y-29750
X32500Y-30750
X32500Y-31750
X32500Y-32750
X32500Y-33750
X32500Y-34750
X33500Y-15750
X33500Y-16750
X33500Y-17750
X33500Y-18750
X33500Y-19750
X33500Y-20750
X33500Y-21750
X33500Y-22750
X33500Y-23750
X33500Y-24750
X33500Y-25750
X33500Y-26750
X33500Y-27750
X33500Y-28750
X33500Y-29750
X33500Y-30750
X33500Y-31750
X33500Y-32750
X33500Y-33750
X33500Y-34750
T7
X73500Y-28250
X73500Y-50750
T0
M30
