G04 #@! TF.FileFunction,Legend,Top*
%FSLAX46Y46*%
G04 Gerber Fmt 4.6, Leading zero omitted, Abs format (unit mm)*
G04 Created by KiCad (PCBNEW 4.0.0-stable) date Wed 25 May 2016 05:37:34 PM EDT*
%MOMM*%
G01*
G04 APERTURE LIST*
%ADD10C,0.150000*%
%ADD11C,0.254000*%
%ADD12C,0.381000*%
%ADD13C,0.304800*%
%ADD14C,0.285750*%
%ADD15C,0.269240*%
%ADD16C,0.203200*%
G04 APERTURE END LIST*
D10*
D11*
X185667953Y-43669857D02*
X186442048Y-43669857D01*
X186055000Y-44250429D02*
X186055000Y-43089286D01*
X112594571Y-73696286D02*
X113525905Y-75601286D01*
X113525905Y-73696286D02*
X112594571Y-75601286D01*
X113858524Y-73696286D02*
X114656809Y-73696286D01*
X114257666Y-75601286D02*
X114257666Y-73696286D01*
X115122476Y-74875571D02*
X116186857Y-74875571D01*
X116852095Y-75601286D02*
X116852095Y-73696286D01*
X117517333Y-75601286D02*
X117517333Y-73696286D01*
X117849952Y-73696286D01*
X118049524Y-73787000D01*
X118182571Y-73968429D01*
X118249095Y-74149857D01*
X118315619Y-74512714D01*
X118315619Y-74784857D01*
X118249095Y-75147714D01*
X118182571Y-75329143D01*
X118049524Y-75510571D01*
X117849952Y-75601286D01*
X117517333Y-75601286D01*
X118914333Y-74603429D02*
X119380000Y-74603429D01*
X119579571Y-75601286D02*
X118914333Y-75601286D01*
X118914333Y-73696286D01*
X119579571Y-73696286D01*
X121242666Y-75601286D02*
X121242666Y-74331286D01*
X121242666Y-74694143D02*
X121309190Y-74512714D01*
X121375714Y-74422000D01*
X121508761Y-74331286D01*
X121641809Y-74331286D01*
X122639667Y-75510571D02*
X122506619Y-75601286D01*
X122240524Y-75601286D01*
X122107476Y-75510571D01*
X122040952Y-75329143D01*
X122040952Y-74603429D01*
X122107476Y-74422000D01*
X122240524Y-74331286D01*
X122506619Y-74331286D01*
X122639667Y-74422000D01*
X122706190Y-74603429D01*
X122706190Y-74784857D01*
X122040952Y-74966286D01*
X123171857Y-74331286D02*
X123504476Y-75601286D01*
X123837096Y-74331286D01*
X125699762Y-73696286D02*
X125832810Y-73696286D01*
X125965858Y-73787000D01*
X126032381Y-73877714D01*
X126098905Y-74059143D01*
X126165429Y-74422000D01*
X126165429Y-74875571D01*
X126098905Y-75238429D01*
X126032381Y-75419857D01*
X125965858Y-75510571D01*
X125832810Y-75601286D01*
X125699762Y-75601286D01*
X125566715Y-75510571D01*
X125500191Y-75419857D01*
X125433667Y-75238429D01*
X125367143Y-74875571D01*
X125367143Y-74422000D01*
X125433667Y-74059143D01*
X125500191Y-73877714D01*
X125566715Y-73787000D01*
X125699762Y-73696286D01*
X126631095Y-73696286D02*
X127495905Y-73696286D01*
X127030238Y-74422000D01*
X127229810Y-74422000D01*
X127362857Y-74512714D01*
X127429381Y-74603429D01*
X127495905Y-74784857D01*
X127495905Y-75238429D01*
X127429381Y-75419857D01*
X127362857Y-75510571D01*
X127229810Y-75601286D01*
X126830667Y-75601286D01*
X126697619Y-75510571D01*
X126631095Y-75419857D01*
X129159000Y-74875571D02*
X130223381Y-74875571D01*
X131886476Y-73877714D02*
X131953000Y-73787000D01*
X132086048Y-73696286D01*
X132418667Y-73696286D01*
X132551714Y-73787000D01*
X132618238Y-73877714D01*
X132684762Y-74059143D01*
X132684762Y-74240571D01*
X132618238Y-74512714D01*
X131819952Y-75601286D01*
X132684762Y-75601286D01*
X133549571Y-73696286D02*
X133682619Y-73696286D01*
X133815667Y-73787000D01*
X133882190Y-73877714D01*
X133948714Y-74059143D01*
X134015238Y-74422000D01*
X134015238Y-74875571D01*
X133948714Y-75238429D01*
X133882190Y-75419857D01*
X133815667Y-75510571D01*
X133682619Y-75601286D01*
X133549571Y-75601286D01*
X133416524Y-75510571D01*
X133350000Y-75419857D01*
X133283476Y-75238429D01*
X133216952Y-74875571D01*
X133216952Y-74422000D01*
X133283476Y-74059143D01*
X133350000Y-73877714D01*
X133416524Y-73787000D01*
X133549571Y-73696286D01*
X135345714Y-75601286D02*
X134547428Y-75601286D01*
X134946571Y-75601286D02*
X134946571Y-73696286D01*
X134813523Y-73968429D01*
X134680476Y-74149857D01*
X134547428Y-74240571D01*
X136543142Y-73696286D02*
X136277047Y-73696286D01*
X136143999Y-73787000D01*
X136077476Y-73877714D01*
X135944428Y-74149857D01*
X135877904Y-74512714D01*
X135877904Y-75238429D01*
X135944428Y-75419857D01*
X136010952Y-75510571D01*
X136143999Y-75601286D01*
X136410095Y-75601286D01*
X136543142Y-75510571D01*
X136609666Y-75419857D01*
X136676190Y-75238429D01*
X136676190Y-74784857D01*
X136609666Y-74603429D01*
X136543142Y-74512714D01*
X136410095Y-74422000D01*
X136143999Y-74422000D01*
X136010952Y-74512714D01*
X135944428Y-74603429D01*
X135877904Y-74784857D01*
X139071047Y-73787000D02*
X138937999Y-73696286D01*
X138738428Y-73696286D01*
X138538856Y-73787000D01*
X138405809Y-73968429D01*
X138339285Y-74149857D01*
X138272761Y-74512714D01*
X138272761Y-74784857D01*
X138339285Y-75147714D01*
X138405809Y-75329143D01*
X138538856Y-75510571D01*
X138738428Y-75601286D01*
X138871476Y-75601286D01*
X139071047Y-75510571D01*
X139137571Y-75419857D01*
X139137571Y-74784857D01*
X138871476Y-74784857D01*
X139935856Y-75601286D02*
X139802809Y-75510571D01*
X139736285Y-75329143D01*
X139736285Y-73696286D01*
X140468047Y-75601286D02*
X140468047Y-74331286D01*
X140468047Y-73696286D02*
X140401523Y-73787000D01*
X140468047Y-73877714D01*
X140534571Y-73787000D01*
X140468047Y-73696286D01*
X140468047Y-73877714D01*
X140933714Y-74331286D02*
X141465904Y-74331286D01*
X141133285Y-73696286D02*
X141133285Y-75329143D01*
X141199809Y-75510571D01*
X141332856Y-75601286D01*
X141465904Y-75601286D01*
X142530285Y-75510571D02*
X142397238Y-75601286D01*
X142131142Y-75601286D01*
X141998095Y-75510571D01*
X141931571Y-75419857D01*
X141865047Y-75238429D01*
X141865047Y-74694143D01*
X141931571Y-74512714D01*
X141998095Y-74422000D01*
X142131142Y-74331286D01*
X142397238Y-74331286D01*
X142530285Y-74422000D01*
X143129000Y-75601286D02*
X143129000Y-73696286D01*
X143727714Y-75601286D02*
X143727714Y-74603429D01*
X143661191Y-74422000D01*
X143528143Y-74331286D01*
X143328571Y-74331286D01*
X143195524Y-74422000D01*
X143129000Y-74512714D01*
X145324285Y-73696286D02*
X145656904Y-75601286D01*
X145923000Y-74240571D01*
X146189095Y-75601286D01*
X146521714Y-73696286D01*
X147253475Y-75601286D02*
X147120428Y-75510571D01*
X147053904Y-75419857D01*
X146987380Y-75238429D01*
X146987380Y-74694143D01*
X147053904Y-74512714D01*
X147120428Y-74422000D01*
X147253475Y-74331286D01*
X147453047Y-74331286D01*
X147586095Y-74422000D01*
X147652618Y-74512714D01*
X147719142Y-74694143D01*
X147719142Y-75238429D01*
X147652618Y-75419857D01*
X147586095Y-75510571D01*
X147453047Y-75601286D01*
X147253475Y-75601286D01*
X148317856Y-75601286D02*
X148317856Y-74331286D01*
X148317856Y-74694143D02*
X148384380Y-74512714D01*
X148450904Y-74422000D01*
X148583951Y-74331286D01*
X148716999Y-74331286D01*
X149182666Y-75601286D02*
X149182666Y-73696286D01*
X149315714Y-74875571D02*
X149714857Y-75601286D01*
X149714857Y-74331286D02*
X149182666Y-75057000D01*
X150247047Y-75510571D02*
X150380095Y-75601286D01*
X150646190Y-75601286D01*
X150779238Y-75510571D01*
X150845762Y-75329143D01*
X150845762Y-75238429D01*
X150779238Y-75057000D01*
X150646190Y-74966286D01*
X150446619Y-74966286D01*
X150313571Y-74875571D01*
X150247047Y-74694143D01*
X150247047Y-74603429D01*
X150313571Y-74422000D01*
X150446619Y-74331286D01*
X150646190Y-74331286D01*
X150779238Y-74422000D01*
X153307143Y-75601286D02*
X152841476Y-74694143D01*
X152508857Y-75601286D02*
X152508857Y-73696286D01*
X153041048Y-73696286D01*
X153174095Y-73787000D01*
X153240619Y-73877714D01*
X153307143Y-74059143D01*
X153307143Y-74331286D01*
X153240619Y-74512714D01*
X153174095Y-74603429D01*
X153041048Y-74694143D01*
X152508857Y-74694143D01*
X154438048Y-75510571D02*
X154305000Y-75601286D01*
X154038905Y-75601286D01*
X153905857Y-75510571D01*
X153839333Y-75329143D01*
X153839333Y-74603429D01*
X153905857Y-74422000D01*
X154038905Y-74331286D01*
X154305000Y-74331286D01*
X154438048Y-74422000D01*
X154504571Y-74603429D01*
X154504571Y-74784857D01*
X153839333Y-74966286D01*
X155036762Y-75510571D02*
X155169810Y-75601286D01*
X155435905Y-75601286D01*
X155568953Y-75510571D01*
X155635477Y-75329143D01*
X155635477Y-75238429D01*
X155568953Y-75057000D01*
X155435905Y-74966286D01*
X155236334Y-74966286D01*
X155103286Y-74875571D01*
X155036762Y-74694143D01*
X155036762Y-74603429D01*
X155103286Y-74422000D01*
X155236334Y-74331286D01*
X155435905Y-74331286D01*
X155568953Y-74422000D01*
X156234191Y-74331286D02*
X156234191Y-76236286D01*
X156234191Y-74422000D02*
X156367239Y-74331286D01*
X156633334Y-74331286D01*
X156766382Y-74422000D01*
X156832905Y-74512714D01*
X156899429Y-74694143D01*
X156899429Y-75238429D01*
X156832905Y-75419857D01*
X156766382Y-75510571D01*
X156633334Y-75601286D01*
X156367239Y-75601286D01*
X156234191Y-75510571D01*
X157498143Y-75601286D02*
X157498143Y-74331286D01*
X157498143Y-73696286D02*
X157431619Y-73787000D01*
X157498143Y-73877714D01*
X157564667Y-73787000D01*
X157498143Y-73696286D01*
X157498143Y-73877714D01*
X158163381Y-74331286D02*
X158163381Y-75601286D01*
X158163381Y-74512714D02*
X158229905Y-74422000D01*
X158362952Y-74331286D01*
X158562524Y-74331286D01*
X158695572Y-74422000D01*
X158762095Y-74603429D01*
X158762095Y-75601286D01*
X112727619Y-78522286D02*
X112727619Y-76617286D01*
X113326333Y-78522286D02*
X113326333Y-77524429D01*
X113259810Y-77343000D01*
X113126762Y-77252286D01*
X112927190Y-77252286D01*
X112794143Y-77343000D01*
X112727619Y-77433714D01*
X113792000Y-77252286D02*
X114324190Y-77252286D01*
X113991571Y-76617286D02*
X113991571Y-78250143D01*
X114058095Y-78431571D01*
X114191142Y-78522286D01*
X114324190Y-78522286D01*
X114590286Y-77252286D02*
X115122476Y-77252286D01*
X114789857Y-76617286D02*
X114789857Y-78250143D01*
X114856381Y-78431571D01*
X114989428Y-78522286D01*
X115122476Y-78522286D01*
X115588143Y-77252286D02*
X115588143Y-79157286D01*
X115588143Y-77343000D02*
X115721191Y-77252286D01*
X115987286Y-77252286D01*
X116120334Y-77343000D01*
X116186857Y-77433714D01*
X116253381Y-77615143D01*
X116253381Y-78159429D01*
X116186857Y-78340857D01*
X116120334Y-78431571D01*
X115987286Y-78522286D01*
X115721191Y-78522286D01*
X115588143Y-78431571D01*
X116852095Y-78340857D02*
X116918619Y-78431571D01*
X116852095Y-78522286D01*
X116785571Y-78431571D01*
X116852095Y-78340857D01*
X116852095Y-78522286D01*
X116852095Y-77343000D02*
X116918619Y-77433714D01*
X116852095Y-77524429D01*
X116785571Y-77433714D01*
X116852095Y-77343000D01*
X116852095Y-77524429D01*
X118515190Y-76526571D02*
X117317762Y-78975857D01*
X119978714Y-76526571D02*
X118781286Y-78975857D01*
X120311333Y-77252286D02*
X120577429Y-78522286D01*
X120843524Y-77615143D01*
X121109619Y-78522286D01*
X121375714Y-77252286D01*
X121774857Y-77252286D02*
X122040953Y-78522286D01*
X122307048Y-77615143D01*
X122573143Y-78522286D01*
X122839238Y-77252286D01*
X123238381Y-77252286D02*
X123504477Y-78522286D01*
X123770572Y-77615143D01*
X124036667Y-78522286D01*
X124302762Y-77252286D01*
X124834953Y-78340857D02*
X124901477Y-78431571D01*
X124834953Y-78522286D01*
X124768429Y-78431571D01*
X124834953Y-78340857D01*
X124834953Y-78522286D01*
X126098905Y-77252286D02*
X126098905Y-78794429D01*
X126032382Y-78975857D01*
X125965858Y-79066571D01*
X125832810Y-79157286D01*
X125633239Y-79157286D01*
X125500191Y-79066571D01*
X126098905Y-78431571D02*
X125965858Y-78522286D01*
X125699762Y-78522286D01*
X125566715Y-78431571D01*
X125500191Y-78340857D01*
X125433667Y-78159429D01*
X125433667Y-77615143D01*
X125500191Y-77433714D01*
X125566715Y-77343000D01*
X125699762Y-77252286D01*
X125965858Y-77252286D01*
X126098905Y-77343000D01*
X126963714Y-78522286D02*
X126830667Y-78431571D01*
X126764143Y-78250143D01*
X126764143Y-76617286D01*
X127495905Y-78522286D02*
X127495905Y-77252286D01*
X127495905Y-76617286D02*
X127429381Y-76708000D01*
X127495905Y-76798714D01*
X127562429Y-76708000D01*
X127495905Y-76617286D01*
X127495905Y-76798714D01*
X127961572Y-77252286D02*
X128493762Y-77252286D01*
X128161143Y-76617286D02*
X128161143Y-78250143D01*
X128227667Y-78431571D01*
X128360714Y-78522286D01*
X128493762Y-78522286D01*
X129558143Y-78431571D02*
X129425096Y-78522286D01*
X129159000Y-78522286D01*
X129025953Y-78431571D01*
X128959429Y-78340857D01*
X128892905Y-78159429D01*
X128892905Y-77615143D01*
X128959429Y-77433714D01*
X129025953Y-77343000D01*
X129159000Y-77252286D01*
X129425096Y-77252286D01*
X129558143Y-77343000D01*
X130156858Y-78522286D02*
X130156858Y-76617286D01*
X130755572Y-78522286D02*
X130755572Y-77524429D01*
X130689049Y-77343000D01*
X130556001Y-77252286D01*
X130356429Y-77252286D01*
X130223382Y-77343000D01*
X130156858Y-77433714D01*
X131287762Y-77252286D02*
X131553858Y-78522286D01*
X131819953Y-77615143D01*
X132086048Y-78522286D01*
X132352143Y-77252286D01*
X132884334Y-78522286D02*
X132884334Y-77252286D01*
X132884334Y-77615143D02*
X132950858Y-77433714D01*
X133017382Y-77343000D01*
X133150429Y-77252286D01*
X133283477Y-77252286D01*
X133749144Y-78522286D02*
X133749144Y-76617286D01*
X133882192Y-77796571D02*
X134281335Y-78522286D01*
X134281335Y-77252286D02*
X133749144Y-77978000D01*
X134813525Y-78431571D02*
X134946573Y-78522286D01*
X135212668Y-78522286D01*
X135345716Y-78431571D01*
X135412240Y-78250143D01*
X135412240Y-78159429D01*
X135345716Y-77978000D01*
X135212668Y-77887286D01*
X135013097Y-77887286D01*
X134880049Y-77796571D01*
X134813525Y-77615143D01*
X134813525Y-77524429D01*
X134880049Y-77343000D01*
X135013097Y-77252286D01*
X135212668Y-77252286D01*
X135345716Y-77343000D01*
X136010954Y-78340857D02*
X136077478Y-78431571D01*
X136010954Y-78522286D01*
X135944430Y-78431571D01*
X136010954Y-78340857D01*
X136010954Y-78522286D01*
X137274906Y-78431571D02*
X137141859Y-78522286D01*
X136875763Y-78522286D01*
X136742716Y-78431571D01*
X136676192Y-78340857D01*
X136609668Y-78159429D01*
X136609668Y-77615143D01*
X136676192Y-77433714D01*
X136742716Y-77343000D01*
X136875763Y-77252286D01*
X137141859Y-77252286D01*
X137274906Y-77343000D01*
X138073192Y-78522286D02*
X137940145Y-78431571D01*
X137873621Y-78340857D01*
X137807097Y-78159429D01*
X137807097Y-77615143D01*
X137873621Y-77433714D01*
X137940145Y-77343000D01*
X138073192Y-77252286D01*
X138272764Y-77252286D01*
X138405812Y-77343000D01*
X138472335Y-77433714D01*
X138538859Y-77615143D01*
X138538859Y-78159429D01*
X138472335Y-78340857D01*
X138405812Y-78431571D01*
X138272764Y-78522286D01*
X138073192Y-78522286D01*
X139137573Y-78522286D02*
X139137573Y-77252286D01*
X139137573Y-77433714D02*
X139204097Y-77343000D01*
X139337144Y-77252286D01*
X139536716Y-77252286D01*
X139669764Y-77343000D01*
X139736287Y-77524429D01*
X139736287Y-78522286D01*
X139736287Y-77524429D02*
X139802811Y-77343000D01*
X139935859Y-77252286D01*
X140135430Y-77252286D01*
X140268478Y-77343000D01*
X140335002Y-77524429D01*
X140335002Y-78522286D01*
X141998097Y-76526571D02*
X140800669Y-78975857D01*
X142330716Y-78522286D02*
X143062478Y-77252286D01*
X142330716Y-77252286D02*
X143062478Y-78522286D01*
X143395098Y-77252286D02*
X143927288Y-77252286D01*
X143594669Y-76617286D02*
X143594669Y-78250143D01*
X143661193Y-78431571D01*
X143794240Y-78522286D01*
X143927288Y-78522286D01*
X144392955Y-77796571D02*
X145457336Y-77796571D01*
X146122574Y-78522286D02*
X146122574Y-77252286D01*
X146122574Y-76617286D02*
X146056050Y-76708000D01*
X146122574Y-76798714D01*
X146189098Y-76708000D01*
X146122574Y-76617286D01*
X146122574Y-76798714D01*
X147386526Y-78522286D02*
X147386526Y-76617286D01*
X147386526Y-78431571D02*
X147253479Y-78522286D01*
X146987383Y-78522286D01*
X146854336Y-78431571D01*
X146787812Y-78340857D01*
X146721288Y-78159429D01*
X146721288Y-77615143D01*
X146787812Y-77433714D01*
X146854336Y-77343000D01*
X146987383Y-77252286D01*
X147253479Y-77252286D01*
X147386526Y-77343000D01*
X148583955Y-78431571D02*
X148450907Y-78522286D01*
X148184812Y-78522286D01*
X148051764Y-78431571D01*
X147985240Y-78250143D01*
X147985240Y-77524429D01*
X148051764Y-77343000D01*
X148184812Y-77252286D01*
X148450907Y-77252286D01*
X148583955Y-77343000D01*
X148650478Y-77524429D01*
X148650478Y-77705857D01*
X147985240Y-77887286D01*
X88797190Y-84890429D02*
X88797190Y-85979000D01*
X88748810Y-86196714D01*
X88652048Y-86341857D01*
X88506905Y-86414429D01*
X88410143Y-86414429D01*
X89813190Y-86414429D02*
X89232619Y-86414429D01*
X89522905Y-86414429D02*
X89522905Y-84890429D01*
X89426143Y-85108143D01*
X89329381Y-85253286D01*
X89232619Y-85325857D01*
X91603285Y-86269286D02*
X91554904Y-86341857D01*
X91409761Y-86414429D01*
X91312999Y-86414429D01*
X91167857Y-86341857D01*
X91071095Y-86196714D01*
X91022714Y-86051571D01*
X90974333Y-85761286D01*
X90974333Y-85543571D01*
X91022714Y-85253286D01*
X91071095Y-85108143D01*
X91167857Y-84963000D01*
X91312999Y-84890429D01*
X91409761Y-84890429D01*
X91554904Y-84963000D01*
X91603285Y-85035571D01*
X92522523Y-86414429D02*
X92038714Y-86414429D01*
X92038714Y-84890429D01*
X93054714Y-84890429D02*
X93248237Y-84890429D01*
X93344999Y-84963000D01*
X93441761Y-85108143D01*
X93490142Y-85398429D01*
X93490142Y-85906429D01*
X93441761Y-86196714D01*
X93344999Y-86341857D01*
X93248237Y-86414429D01*
X93054714Y-86414429D01*
X92957952Y-86341857D01*
X92861190Y-86196714D01*
X92812809Y-85906429D01*
X92812809Y-85398429D01*
X92861190Y-85108143D01*
X92957952Y-84963000D01*
X93054714Y-84890429D01*
X93877190Y-86341857D02*
X94022333Y-86414429D01*
X94264237Y-86414429D01*
X94360999Y-86341857D01*
X94409380Y-86269286D01*
X94457761Y-86124143D01*
X94457761Y-85979000D01*
X94409380Y-85833857D01*
X94360999Y-85761286D01*
X94264237Y-85688714D01*
X94070714Y-85616143D01*
X93973952Y-85543571D01*
X93925571Y-85471000D01*
X93877190Y-85325857D01*
X93877190Y-85180714D01*
X93925571Y-85035571D01*
X93973952Y-84963000D01*
X94070714Y-84890429D01*
X94312618Y-84890429D01*
X94457761Y-84963000D01*
X94893190Y-85616143D02*
X95231856Y-85616143D01*
X95376999Y-86414429D02*
X94893190Y-86414429D01*
X94893190Y-84890429D01*
X95376999Y-84890429D01*
X95812428Y-86414429D02*
X95812428Y-84890429D01*
X96054333Y-84890429D01*
X96199475Y-84963000D01*
X96296237Y-85108143D01*
X96344618Y-85253286D01*
X96392999Y-85543571D01*
X96392999Y-85761286D01*
X96344618Y-86051571D01*
X96296237Y-86196714D01*
X96199475Y-86341857D01*
X96054333Y-86414429D01*
X95812428Y-86414429D01*
X97941189Y-85616143D02*
X97602523Y-85616143D01*
X97602523Y-86414429D02*
X97602523Y-84890429D01*
X98086332Y-84890429D01*
X98666904Y-84890429D02*
X98860427Y-84890429D01*
X98957189Y-84963000D01*
X99053951Y-85108143D01*
X99102332Y-85398429D01*
X99102332Y-85906429D01*
X99053951Y-86196714D01*
X98957189Y-86341857D01*
X98860427Y-86414429D01*
X98666904Y-86414429D01*
X98570142Y-86341857D01*
X98473380Y-86196714D01*
X98424999Y-85906429D01*
X98424999Y-85398429D01*
X98473380Y-85108143D01*
X98570142Y-84963000D01*
X98666904Y-84890429D01*
X100118332Y-86414429D02*
X99779666Y-85688714D01*
X99537761Y-86414429D02*
X99537761Y-84890429D01*
X99924808Y-84890429D01*
X100021570Y-84963000D01*
X100069951Y-85035571D01*
X100118332Y-85180714D01*
X100118332Y-85398429D01*
X100069951Y-85543571D01*
X100021570Y-85616143D01*
X99924808Y-85688714D01*
X99537761Y-85688714D01*
X101327856Y-85833857D02*
X102101951Y-85833857D01*
X101714903Y-86414429D02*
X101714903Y-85253286D01*
X103069570Y-84890429D02*
X102585761Y-84890429D01*
X102537380Y-85616143D01*
X102585761Y-85543571D01*
X102682523Y-85471000D01*
X102924427Y-85471000D01*
X103021189Y-85543571D01*
X103069570Y-85616143D01*
X103117951Y-85761286D01*
X103117951Y-86124143D01*
X103069570Y-86269286D01*
X103021189Y-86341857D01*
X102924427Y-86414429D01*
X102682523Y-86414429D01*
X102585761Y-86341857D01*
X102537380Y-86269286D01*
X104520999Y-84890429D02*
X104714522Y-84890429D01*
X104811284Y-84963000D01*
X104908046Y-85108143D01*
X104956427Y-85398429D01*
X104956427Y-85906429D01*
X104908046Y-86196714D01*
X104811284Y-86341857D01*
X104714522Y-86414429D01*
X104520999Y-86414429D01*
X104424237Y-86341857D01*
X104327475Y-86196714D01*
X104279094Y-85906429D01*
X104279094Y-85398429D01*
X104327475Y-85108143D01*
X104424237Y-84963000D01*
X104520999Y-84890429D01*
X105391856Y-86414429D02*
X105391856Y-84890429D01*
X105972427Y-86414429D01*
X105972427Y-84890429D01*
X107230332Y-86414429D02*
X107230332Y-84890429D01*
X107617379Y-84890429D01*
X107714141Y-84963000D01*
X107762522Y-85035571D01*
X107810903Y-85180714D01*
X107810903Y-85398429D01*
X107762522Y-85543571D01*
X107714141Y-85616143D01*
X107617379Y-85688714D01*
X107230332Y-85688714D01*
X108246332Y-86414429D02*
X108246332Y-84890429D01*
X108730142Y-86414429D02*
X108730142Y-84890429D01*
X109310713Y-86414429D01*
X109310713Y-84890429D01*
X110520237Y-85035571D02*
X110568618Y-84963000D01*
X110665380Y-84890429D01*
X110907284Y-84890429D01*
X111004046Y-84963000D01*
X111052427Y-85035571D01*
X111100808Y-85180714D01*
X111100808Y-85325857D01*
X111052427Y-85543571D01*
X110471856Y-86414429D01*
X111100808Y-86414429D01*
X111729761Y-84890429D02*
X111826522Y-84890429D01*
X111923284Y-84963000D01*
X111971665Y-85035571D01*
X112020046Y-85180714D01*
X112068427Y-85471000D01*
X112068427Y-85833857D01*
X112020046Y-86124143D01*
X111971665Y-86269286D01*
X111923284Y-86341857D01*
X111826522Y-86414429D01*
X111729761Y-86414429D01*
X111632999Y-86341857D01*
X111584618Y-86269286D01*
X111536237Y-86124143D01*
X111487856Y-85833857D01*
X111487856Y-85471000D01*
X111536237Y-85180714D01*
X111584618Y-85035571D01*
X111632999Y-84963000D01*
X111729761Y-84890429D01*
X158308524Y-42490571D02*
X158356905Y-42418000D01*
X158453667Y-42345429D01*
X158695571Y-42345429D01*
X158792333Y-42418000D01*
X158840714Y-42490571D01*
X158889095Y-42635714D01*
X158889095Y-42780857D01*
X158840714Y-42998571D01*
X158260143Y-43869429D01*
X158889095Y-43869429D01*
X159324524Y-43288857D02*
X160098619Y-43288857D01*
X160485667Y-42345429D02*
X161114619Y-42345429D01*
X160775953Y-42926000D01*
X160921095Y-42926000D01*
X161017857Y-42998571D01*
X161066238Y-43071143D01*
X161114619Y-43216286D01*
X161114619Y-43579143D01*
X161066238Y-43724286D01*
X161017857Y-43796857D01*
X160921095Y-43869429D01*
X160630810Y-43869429D01*
X160534048Y-43796857D01*
X160485667Y-43724286D01*
X162324143Y-43869429D02*
X162324143Y-42345429D01*
X162324143Y-43071143D02*
X162904714Y-43071143D01*
X162904714Y-43869429D02*
X162904714Y-42345429D01*
X163388524Y-43869429D02*
X163388524Y-42345429D01*
X164598048Y-43796857D02*
X164743191Y-43869429D01*
X164985095Y-43869429D01*
X165081857Y-43796857D01*
X165130238Y-43724286D01*
X165178619Y-43579143D01*
X165178619Y-43434000D01*
X165130238Y-43288857D01*
X165081857Y-43216286D01*
X164985095Y-43143714D01*
X164791572Y-43071143D01*
X164694810Y-42998571D01*
X164646429Y-42926000D01*
X164598048Y-42780857D01*
X164598048Y-42635714D01*
X164646429Y-42490571D01*
X164694810Y-42418000D01*
X164791572Y-42345429D01*
X165033476Y-42345429D01*
X165178619Y-42418000D01*
X165614048Y-43869429D02*
X165614048Y-42345429D01*
X166001095Y-42345429D01*
X166097857Y-42418000D01*
X166146238Y-42490571D01*
X166194619Y-42635714D01*
X166194619Y-42853429D01*
X166146238Y-42998571D01*
X166097857Y-43071143D01*
X166001095Y-43143714D01*
X165614048Y-43143714D01*
X166630048Y-43071143D02*
X166968714Y-43071143D01*
X167113857Y-43869429D02*
X166630048Y-43869429D01*
X166630048Y-42345429D01*
X167113857Y-42345429D01*
X167549286Y-43071143D02*
X167887952Y-43071143D01*
X168033095Y-43869429D02*
X167549286Y-43869429D01*
X167549286Y-42345429D01*
X168033095Y-42345429D01*
X168468524Y-43869429D02*
X168468524Y-42345429D01*
X168710429Y-42345429D01*
X168855571Y-42418000D01*
X168952333Y-42563143D01*
X169000714Y-42708286D01*
X169049095Y-42998571D01*
X169049095Y-43216286D01*
X169000714Y-43506571D01*
X168952333Y-43651714D01*
X168855571Y-43796857D01*
X168710429Y-43869429D01*
X168468524Y-43869429D01*
X158889095Y-38789429D02*
X158308524Y-38789429D01*
X158598810Y-38789429D02*
X158598810Y-37265429D01*
X158502048Y-37483143D01*
X158405286Y-37628286D01*
X158308524Y-37700857D01*
X159324524Y-38208857D02*
X160098619Y-38208857D01*
X160534048Y-37410571D02*
X160582429Y-37338000D01*
X160679191Y-37265429D01*
X160921095Y-37265429D01*
X161017857Y-37338000D01*
X161066238Y-37410571D01*
X161114619Y-37555714D01*
X161114619Y-37700857D01*
X161066238Y-37918571D01*
X160485667Y-38789429D01*
X161114619Y-38789429D01*
X162904714Y-38644286D02*
X162856333Y-38716857D01*
X162711190Y-38789429D01*
X162614428Y-38789429D01*
X162469286Y-38716857D01*
X162372524Y-38571714D01*
X162324143Y-38426571D01*
X162275762Y-38136286D01*
X162275762Y-37918571D01*
X162324143Y-37628286D01*
X162372524Y-37483143D01*
X162469286Y-37338000D01*
X162614428Y-37265429D01*
X162711190Y-37265429D01*
X162856333Y-37338000D01*
X162904714Y-37410571D01*
X163533667Y-37265429D02*
X163727190Y-37265429D01*
X163823952Y-37338000D01*
X163920714Y-37483143D01*
X163969095Y-37773429D01*
X163969095Y-38281429D01*
X163920714Y-38571714D01*
X163823952Y-38716857D01*
X163727190Y-38789429D01*
X163533667Y-38789429D01*
X163436905Y-38716857D01*
X163340143Y-38571714D01*
X163291762Y-38281429D01*
X163291762Y-37773429D01*
X163340143Y-37483143D01*
X163436905Y-37338000D01*
X163533667Y-37265429D01*
X164404524Y-38789429D02*
X164404524Y-37265429D01*
X164743190Y-38354000D01*
X165081857Y-37265429D01*
X165081857Y-38789429D01*
X165565667Y-38789429D02*
X165565667Y-37265429D01*
X165952714Y-37265429D01*
X166049476Y-37338000D01*
X166097857Y-37410571D01*
X166146238Y-37555714D01*
X166146238Y-37773429D01*
X166097857Y-37918571D01*
X166049476Y-37991143D01*
X165952714Y-38063714D01*
X165565667Y-38063714D01*
X166533286Y-38354000D02*
X167017095Y-38354000D01*
X166436524Y-38789429D02*
X166775191Y-37265429D01*
X167113857Y-38789429D01*
X167307381Y-37265429D02*
X167887952Y-37265429D01*
X167597667Y-38789429D02*
X167597667Y-37265429D01*
X134372048Y-110308571D02*
X134275286Y-110236000D01*
X134226905Y-110163429D01*
X134178524Y-110018286D01*
X134178524Y-109945714D01*
X134226905Y-109800571D01*
X134275286Y-109728000D01*
X134372048Y-109655429D01*
X134565571Y-109655429D01*
X134662333Y-109728000D01*
X134710714Y-109800571D01*
X134759095Y-109945714D01*
X134759095Y-110018286D01*
X134710714Y-110163429D01*
X134662333Y-110236000D01*
X134565571Y-110308571D01*
X134372048Y-110308571D01*
X134275286Y-110381143D01*
X134226905Y-110453714D01*
X134178524Y-110598857D01*
X134178524Y-110889143D01*
X134226905Y-111034286D01*
X134275286Y-111106857D01*
X134372048Y-111179429D01*
X134565571Y-111179429D01*
X134662333Y-111106857D01*
X134710714Y-111034286D01*
X134759095Y-110889143D01*
X134759095Y-110598857D01*
X134710714Y-110453714D01*
X134662333Y-110381143D01*
X134565571Y-110308571D01*
X135194524Y-111179429D02*
X135194524Y-109655429D01*
X135775095Y-111179429D02*
X135339667Y-110308571D01*
X135775095Y-109655429D02*
X135194524Y-110526286D01*
X134372048Y-107768571D02*
X134275286Y-107696000D01*
X134226905Y-107623429D01*
X134178524Y-107478286D01*
X134178524Y-107405714D01*
X134226905Y-107260571D01*
X134275286Y-107188000D01*
X134372048Y-107115429D01*
X134565571Y-107115429D01*
X134662333Y-107188000D01*
X134710714Y-107260571D01*
X134759095Y-107405714D01*
X134759095Y-107478286D01*
X134710714Y-107623429D01*
X134662333Y-107696000D01*
X134565571Y-107768571D01*
X134372048Y-107768571D01*
X134275286Y-107841143D01*
X134226905Y-107913714D01*
X134178524Y-108058857D01*
X134178524Y-108349143D01*
X134226905Y-108494286D01*
X134275286Y-108566857D01*
X134372048Y-108639429D01*
X134565571Y-108639429D01*
X134662333Y-108566857D01*
X134710714Y-108494286D01*
X134759095Y-108349143D01*
X134759095Y-108058857D01*
X134710714Y-107913714D01*
X134662333Y-107841143D01*
X134565571Y-107768571D01*
X135194524Y-108639429D02*
X135194524Y-107115429D01*
X135775095Y-108639429D02*
X135339667Y-107768571D01*
X135775095Y-107115429D02*
X135194524Y-107986286D01*
X134178524Y-105664000D02*
X134662333Y-105664000D01*
X134081762Y-106099429D02*
X134420429Y-104575429D01*
X134759095Y-106099429D01*
X135629952Y-106099429D02*
X135049381Y-106099429D01*
X135339667Y-106099429D02*
X135339667Y-104575429D01*
X135242905Y-104793143D01*
X135146143Y-104938286D01*
X135049381Y-105010857D01*
X135968619Y-104575429D02*
X136597571Y-104575429D01*
X136258905Y-105156000D01*
X136404047Y-105156000D01*
X136500809Y-105228571D01*
X136549190Y-105301143D01*
X136597571Y-105446286D01*
X136597571Y-105809143D01*
X136549190Y-105954286D01*
X136500809Y-106026857D01*
X136404047Y-106099429D01*
X136113762Y-106099429D01*
X136017000Y-106026857D01*
X135968619Y-105954286D01*
X134178524Y-103124000D02*
X134662333Y-103124000D01*
X134081762Y-103559429D02*
X134420429Y-102035429D01*
X134759095Y-103559429D01*
X135629952Y-103559429D02*
X135049381Y-103559429D01*
X135339667Y-103559429D02*
X135339667Y-102035429D01*
X135242905Y-102253143D01*
X135146143Y-102398286D01*
X135049381Y-102470857D01*
X136500809Y-102543429D02*
X136500809Y-103559429D01*
X136258905Y-101962857D02*
X136017000Y-103051429D01*
X136645952Y-103051429D01*
X134178524Y-100584000D02*
X134662333Y-100584000D01*
X134081762Y-101019429D02*
X134420429Y-99495429D01*
X134759095Y-101019429D01*
X135629952Y-101019429D02*
X135049381Y-101019429D01*
X135339667Y-101019429D02*
X135339667Y-99495429D01*
X135242905Y-99713143D01*
X135146143Y-99858286D01*
X135049381Y-99930857D01*
X136549190Y-99495429D02*
X136065381Y-99495429D01*
X136017000Y-100221143D01*
X136065381Y-100148571D01*
X136162143Y-100076000D01*
X136404047Y-100076000D01*
X136500809Y-100148571D01*
X136549190Y-100221143D01*
X136597571Y-100366286D01*
X136597571Y-100729143D01*
X136549190Y-100874286D01*
X136500809Y-100946857D01*
X136404047Y-101019429D01*
X136162143Y-101019429D01*
X136065381Y-100946857D01*
X136017000Y-100874286D01*
X134178524Y-98044000D02*
X134662333Y-98044000D01*
X134081762Y-98479429D02*
X134420429Y-96955429D01*
X134759095Y-98479429D01*
X135629952Y-98479429D02*
X135049381Y-98479429D01*
X135339667Y-98479429D02*
X135339667Y-96955429D01*
X135242905Y-97173143D01*
X135146143Y-97318286D01*
X135049381Y-97390857D01*
X136500809Y-96955429D02*
X136307286Y-96955429D01*
X136210524Y-97028000D01*
X136162143Y-97100571D01*
X136065381Y-97318286D01*
X136017000Y-97608571D01*
X136017000Y-98189143D01*
X136065381Y-98334286D01*
X136113762Y-98406857D01*
X136210524Y-98479429D01*
X136404047Y-98479429D01*
X136500809Y-98406857D01*
X136549190Y-98334286D01*
X136597571Y-98189143D01*
X136597571Y-97826286D01*
X136549190Y-97681143D01*
X136500809Y-97608571D01*
X136404047Y-97536000D01*
X136210524Y-97536000D01*
X136113762Y-97608571D01*
X136065381Y-97681143D01*
X136017000Y-97826286D01*
X134226905Y-112921143D02*
X134565571Y-112921143D01*
X134710714Y-113719429D02*
X134226905Y-113719429D01*
X134226905Y-112195429D01*
X134710714Y-112195429D01*
X135146143Y-113719429D02*
X135146143Y-112195429D01*
X135726714Y-113719429D01*
X135726714Y-112195429D01*
X136162143Y-113284000D02*
X136645952Y-113284000D01*
X136065381Y-113719429D02*
X136404048Y-112195429D01*
X136742714Y-113719429D01*
X134130143Y-114735429D02*
X134372048Y-116259429D01*
X134565571Y-115170857D01*
X134759095Y-116259429D01*
X135001000Y-114735429D01*
X135968619Y-116259429D02*
X135629953Y-115533714D01*
X135388048Y-116259429D02*
X135388048Y-114735429D01*
X135775095Y-114735429D01*
X135871857Y-114808000D01*
X135920238Y-114880571D01*
X135968619Y-115025714D01*
X135968619Y-115243429D01*
X135920238Y-115388571D01*
X135871857Y-115461143D01*
X135775095Y-115533714D01*
X135388048Y-115533714D01*
X78933524Y-110744000D02*
X79417333Y-110744000D01*
X78836762Y-111179429D02*
X79175429Y-109655429D01*
X79514095Y-111179429D01*
X80288190Y-110163429D02*
X80288190Y-111179429D01*
X80046286Y-109582857D02*
X79804381Y-110671429D01*
X80433333Y-110671429D01*
X78933524Y-108204000D02*
X79417333Y-108204000D01*
X78836762Y-108639429D02*
X79175429Y-107115429D01*
X79514095Y-108639429D01*
X80336571Y-107115429D02*
X79852762Y-107115429D01*
X79804381Y-107841143D01*
X79852762Y-107768571D01*
X79949524Y-107696000D01*
X80191428Y-107696000D01*
X80288190Y-107768571D01*
X80336571Y-107841143D01*
X80384952Y-107986286D01*
X80384952Y-108349143D01*
X80336571Y-108494286D01*
X80288190Y-108566857D01*
X80191428Y-108639429D01*
X79949524Y-108639429D01*
X79852762Y-108566857D01*
X79804381Y-108494286D01*
X78933524Y-105664000D02*
X79417333Y-105664000D01*
X78836762Y-106099429D02*
X79175429Y-104575429D01*
X79514095Y-106099429D01*
X80288190Y-104575429D02*
X80094667Y-104575429D01*
X79997905Y-104648000D01*
X79949524Y-104720571D01*
X79852762Y-104938286D01*
X79804381Y-105228571D01*
X79804381Y-105809143D01*
X79852762Y-105954286D01*
X79901143Y-106026857D01*
X79997905Y-106099429D01*
X80191428Y-106099429D01*
X80288190Y-106026857D01*
X80336571Y-105954286D01*
X80384952Y-105809143D01*
X80384952Y-105446286D01*
X80336571Y-105301143D01*
X80288190Y-105228571D01*
X80191428Y-105156000D01*
X79997905Y-105156000D01*
X79901143Y-105228571D01*
X79852762Y-105301143D01*
X79804381Y-105446286D01*
X78933524Y-103124000D02*
X79417333Y-103124000D01*
X78836762Y-103559429D02*
X79175429Y-102035429D01*
X79514095Y-103559429D01*
X79756000Y-102035429D02*
X80433333Y-102035429D01*
X79997905Y-103559429D01*
X78933524Y-100584000D02*
X79417333Y-100584000D01*
X78836762Y-101019429D02*
X79175429Y-99495429D01*
X79514095Y-101019429D01*
X79997905Y-100148571D02*
X79901143Y-100076000D01*
X79852762Y-100003429D01*
X79804381Y-99858286D01*
X79804381Y-99785714D01*
X79852762Y-99640571D01*
X79901143Y-99568000D01*
X79997905Y-99495429D01*
X80191428Y-99495429D01*
X80288190Y-99568000D01*
X80336571Y-99640571D01*
X80384952Y-99785714D01*
X80384952Y-99858286D01*
X80336571Y-100003429D01*
X80288190Y-100076000D01*
X80191428Y-100148571D01*
X79997905Y-100148571D01*
X79901143Y-100221143D01*
X79852762Y-100293714D01*
X79804381Y-100438857D01*
X79804381Y-100729143D01*
X79852762Y-100874286D01*
X79901143Y-100946857D01*
X79997905Y-101019429D01*
X80191428Y-101019429D01*
X80288190Y-100946857D01*
X80336571Y-100874286D01*
X80384952Y-100729143D01*
X80384952Y-100438857D01*
X80336571Y-100293714D01*
X80288190Y-100221143D01*
X80191428Y-100148571D01*
X78933524Y-98044000D02*
X79417333Y-98044000D01*
X78836762Y-98479429D02*
X79175429Y-96955429D01*
X79514095Y-98479429D01*
X79901143Y-98479429D02*
X80094667Y-98479429D01*
X80191428Y-98406857D01*
X80239809Y-98334286D01*
X80336571Y-98116571D01*
X80384952Y-97826286D01*
X80384952Y-97245714D01*
X80336571Y-97100571D01*
X80288190Y-97028000D01*
X80191428Y-96955429D01*
X79997905Y-96955429D01*
X79901143Y-97028000D01*
X79852762Y-97100571D01*
X79804381Y-97245714D01*
X79804381Y-97608571D01*
X79852762Y-97753714D01*
X79901143Y-97826286D01*
X79997905Y-97898857D01*
X80191428Y-97898857D01*
X80288190Y-97826286D01*
X80336571Y-97753714D01*
X80384952Y-97608571D01*
X102579715Y-122500571D02*
X102628096Y-122428000D01*
X102724858Y-122355429D01*
X102966762Y-122355429D01*
X103063524Y-122428000D01*
X103111905Y-122500571D01*
X103160286Y-122645714D01*
X103160286Y-122790857D01*
X103111905Y-123008571D01*
X102531334Y-123879429D01*
X103160286Y-123879429D01*
X112691334Y-122355429D02*
X113368667Y-122355429D01*
X112933239Y-123879429D01*
X110731905Y-122355429D02*
X110248096Y-122355429D01*
X110199715Y-123081143D01*
X110248096Y-123008571D01*
X110344858Y-122936000D01*
X110586762Y-122936000D01*
X110683524Y-123008571D01*
X110731905Y-123081143D01*
X110780286Y-123226286D01*
X110780286Y-123589143D01*
X110731905Y-123734286D01*
X110683524Y-123806857D01*
X110586762Y-123879429D01*
X110344858Y-123879429D01*
X110248096Y-123806857D01*
X110199715Y-123734286D01*
X108143524Y-122863429D02*
X108143524Y-123879429D01*
X107901620Y-122282857D02*
X107659715Y-123371429D01*
X108288667Y-123371429D01*
X105071334Y-122355429D02*
X105700286Y-122355429D01*
X105361620Y-122936000D01*
X105506762Y-122936000D01*
X105603524Y-123008571D01*
X105651905Y-123081143D01*
X105700286Y-123226286D01*
X105700286Y-123589143D01*
X105651905Y-123734286D01*
X105603524Y-123806857D01*
X105506762Y-123879429D01*
X105216477Y-123879429D01*
X105119715Y-123806857D01*
X105071334Y-123734286D01*
D10*
X176530000Y-86995000D02*
X181610000Y-86995000D01*
X181610000Y-86995000D02*
X181610000Y-89535000D01*
X181610000Y-89535000D02*
X176530000Y-89535000D01*
X176530000Y-89535000D02*
X176530000Y-86995000D01*
X120650000Y-36830000D02*
X125730000Y-36830000D01*
X125730000Y-36830000D02*
X125730000Y-39370000D01*
X125730000Y-39370000D02*
X120650000Y-39370000D01*
X120650000Y-39370000D02*
X120650000Y-36830000D01*
X106680000Y-39370000D02*
X101600000Y-39370000D01*
X101600000Y-39370000D02*
X101600000Y-36830000D01*
X101600000Y-36830000D02*
X106680000Y-36830000D01*
X106680000Y-36830000D02*
X106680000Y-39370000D01*
X162560000Y-89535000D02*
X157480000Y-89535000D01*
X157480000Y-89535000D02*
X157480000Y-86995000D01*
X157480000Y-86995000D02*
X162560000Y-86995000D01*
X162560000Y-86995000D02*
X162560000Y-89535000D01*
X106680000Y-89535000D02*
X101600000Y-89535000D01*
X101600000Y-89535000D02*
X101600000Y-86995000D01*
X101600000Y-86995000D02*
X106680000Y-86995000D01*
X106680000Y-86995000D02*
X106680000Y-89535000D01*
X154940000Y-49530000D02*
X149860000Y-49530000D01*
X149860000Y-49530000D02*
X149860000Y-46990000D01*
X149860000Y-46990000D02*
X154940000Y-46990000D01*
X154940000Y-46990000D02*
X154940000Y-49530000D01*
X140970000Y-41910000D02*
X135890000Y-41910000D01*
X135890000Y-41910000D02*
X135890000Y-39370000D01*
X135890000Y-39370000D02*
X140970000Y-39370000D01*
X140970000Y-39370000D02*
X140970000Y-41910000D01*
X167005000Y-49530000D02*
X161925000Y-49530000D01*
X161925000Y-49530000D02*
X161925000Y-46990000D01*
X161925000Y-46990000D02*
X167005000Y-46990000D01*
X167005000Y-46990000D02*
X167005000Y-49530000D01*
X173990000Y-44450000D02*
X179070000Y-44450000D01*
X179070000Y-44450000D02*
X179070000Y-46990000D01*
X179070000Y-46990000D02*
X173990000Y-46990000D01*
X173990000Y-46990000D02*
X173990000Y-44450000D01*
X170180000Y-41910000D02*
X165100000Y-41910000D01*
X165100000Y-41910000D02*
X165100000Y-39370000D01*
X165100000Y-39370000D02*
X170180000Y-39370000D01*
X170180000Y-39370000D02*
X170180000Y-41910000D01*
X170180000Y-40640000D02*
X171450000Y-40640000D01*
X165100000Y-40640000D02*
X163830000Y-40640000D01*
D12*
X180340000Y-90170000D02*
X180340000Y-91440000D01*
X180340000Y-91440000D02*
X177800000Y-91440000D01*
X177800000Y-91440000D02*
X177800000Y-90170000D01*
X181610000Y-90170000D02*
X181610000Y-118110000D01*
X181610000Y-118110000D02*
X176530000Y-118110000D01*
X176530000Y-118110000D02*
X176530000Y-90170000D01*
X176530000Y-90170000D02*
X181610000Y-90170000D01*
X124460000Y-42545000D02*
X124460000Y-43815000D01*
X124460000Y-43815000D02*
X121920000Y-43815000D01*
X121920000Y-43815000D02*
X121920000Y-42545000D01*
X125730000Y-42545000D02*
X125730000Y-70485000D01*
X125730000Y-70485000D02*
X120650000Y-70485000D01*
X120650000Y-70485000D02*
X120650000Y-42545000D01*
X120650000Y-42545000D02*
X125730000Y-42545000D01*
X105410000Y-42545000D02*
X105410000Y-43815000D01*
X105410000Y-43815000D02*
X102870000Y-43815000D01*
X102870000Y-43815000D02*
X102870000Y-42545000D01*
X106680000Y-42545000D02*
X106680000Y-70485000D01*
X106680000Y-70485000D02*
X101600000Y-70485000D01*
X101600000Y-70485000D02*
X101600000Y-42545000D01*
X101600000Y-42545000D02*
X106680000Y-42545000D01*
X139700000Y-42545000D02*
X139700000Y-43815000D01*
X139700000Y-43815000D02*
X137160000Y-43815000D01*
X137160000Y-43815000D02*
X137160000Y-42545000D01*
X140970000Y-42545000D02*
X140970000Y-70485000D01*
X140970000Y-70485000D02*
X135890000Y-70485000D01*
X135890000Y-70485000D02*
X135890000Y-42545000D01*
X135890000Y-42545000D02*
X140970000Y-42545000D01*
X167005000Y-50165000D02*
X167005000Y-70485000D01*
X161925000Y-70485000D02*
X161925000Y-50165000D01*
X161925000Y-50165000D02*
X167005000Y-50165000D01*
X165735000Y-50165000D02*
X165735000Y-51435000D01*
X165735000Y-51435000D02*
X163195000Y-51435000D01*
X163195000Y-51435000D02*
X163195000Y-50165000D01*
X167005000Y-70485000D02*
X161925000Y-70485000D01*
X105410000Y-90170000D02*
X105410000Y-91440000D01*
X105410000Y-91440000D02*
X102870000Y-91440000D01*
X102870000Y-91440000D02*
X102870000Y-90170000D01*
X106680000Y-90170000D02*
X106680000Y-118110000D01*
X106680000Y-118110000D02*
X101600000Y-118110000D01*
X101600000Y-118110000D02*
X101600000Y-90170000D01*
X101600000Y-90170000D02*
X106680000Y-90170000D01*
X177800000Y-47625000D02*
X177800000Y-47625000D01*
X177800000Y-47625000D02*
X177800000Y-48895000D01*
X177800000Y-48895000D02*
X175260000Y-48895000D01*
X175260000Y-48895000D02*
X175260000Y-47625000D01*
X179070000Y-47625000D02*
X179070000Y-70485000D01*
X179070000Y-70485000D02*
X173990000Y-70485000D01*
X173990000Y-70485000D02*
X173990000Y-47625000D01*
X173990000Y-47625000D02*
X179070000Y-47625000D01*
X154940000Y-50165000D02*
X154940000Y-70485000D01*
X149860000Y-70485000D02*
X149860000Y-50165000D01*
X149860000Y-50165000D02*
X154940000Y-50165000D01*
X153670000Y-50165000D02*
X153670000Y-51435000D01*
X153670000Y-51435000D02*
X151130000Y-51435000D01*
X151130000Y-51435000D02*
X151130000Y-50165000D01*
X154940000Y-70485000D02*
X149860000Y-70485000D01*
X161290000Y-90170000D02*
X161290000Y-91440000D01*
X161290000Y-91440000D02*
X158750000Y-91440000D01*
X158750000Y-91440000D02*
X158750000Y-90170000D01*
X162560000Y-90170000D02*
X162560000Y-118110000D01*
X162560000Y-118110000D02*
X157480000Y-118110000D01*
X157480000Y-118110000D02*
X157480000Y-90170000D01*
X157480000Y-90170000D02*
X162560000Y-90170000D01*
X124460000Y-80010000D02*
X124460000Y-80010000D01*
X124460000Y-80010000D02*
X124460000Y-81280000D01*
X124460000Y-81280000D02*
X121920000Y-81280000D01*
X121920000Y-81280000D02*
X121920000Y-80010000D01*
X129540000Y-80010000D02*
X129540000Y-118110000D01*
X129540000Y-118110000D02*
X116840000Y-118110000D01*
X116840000Y-118110000D02*
X116840000Y-80010000D01*
X116840000Y-80010000D02*
X129540000Y-80010000D01*
D10*
X144780000Y-86360000D02*
X139700000Y-86360000D01*
X139700000Y-86360000D02*
X139700000Y-83820000D01*
X139700000Y-83820000D02*
X144780000Y-83820000D01*
X144780000Y-83820000D02*
X144780000Y-86360000D01*
X144780000Y-85090000D02*
X146050000Y-85090000D01*
X139700000Y-85090000D02*
X138430000Y-85090000D01*
X139700000Y-86360000D02*
X144780000Y-86360000D01*
X144780000Y-86360000D02*
X144780000Y-88900000D01*
X144780000Y-88900000D02*
X139700000Y-88900000D01*
X139700000Y-88900000D02*
X139700000Y-86360000D01*
X139700000Y-87630000D02*
X138430000Y-87630000D01*
X144780000Y-87630000D02*
X146050000Y-87630000D01*
X93980000Y-91440000D02*
X96520000Y-91440000D01*
X96520000Y-91440000D02*
X96520000Y-116840000D01*
X96520000Y-116840000D02*
X93980000Y-116840000D01*
X93980000Y-116840000D02*
X93980000Y-91440000D01*
X93980000Y-93980000D02*
X96520000Y-93980000D01*
X149860000Y-91440000D02*
X152400000Y-91440000D01*
X152400000Y-91440000D02*
X152400000Y-116840000D01*
X152400000Y-116840000D02*
X149860000Y-116840000D01*
X149860000Y-116840000D02*
X149860000Y-91440000D01*
X149860000Y-93980000D02*
X152400000Y-93980000D01*
D12*
X137160000Y-117602000D02*
X137160000Y-95758000D01*
X147320000Y-95758000D02*
X147320000Y-117602000D01*
X147320000Y-95758000D02*
X137160000Y-95758000D01*
X147320000Y-117602000D02*
X137160000Y-117602000D01*
X81280000Y-117602000D02*
X81280000Y-95758000D01*
X91440000Y-95758000D02*
X91440000Y-117602000D01*
X91440000Y-95758000D02*
X81280000Y-95758000D01*
X91440000Y-117602000D02*
X81280000Y-117602000D01*
D10*
X139700000Y-81280000D02*
X144780000Y-81280000D01*
X144780000Y-81280000D02*
X144780000Y-83820000D01*
X144780000Y-83820000D02*
X139700000Y-83820000D01*
X139700000Y-83820000D02*
X139700000Y-81280000D01*
X139700000Y-82550000D02*
X138430000Y-82550000D01*
X144780000Y-82550000D02*
X146050000Y-82550000D01*
X81280000Y-38735000D02*
X81280000Y-89535000D01*
X86360000Y-86995000D02*
X86360000Y-38735000D01*
X81280000Y-38735000D02*
X86360000Y-38735000D01*
X81280000Y-89535000D02*
X83820000Y-89535000D01*
X85090000Y-89815000D02*
X86640000Y-89815000D01*
X83820000Y-89535000D02*
X83820000Y-86995000D01*
X83820000Y-86995000D02*
X86360000Y-86995000D01*
X86640000Y-89815000D02*
X86640000Y-88265000D01*
X89509000Y-125150000D02*
X83211000Y-125150000D01*
X89503000Y-125290000D02*
X83217000Y-125290000D01*
X89490000Y-125430000D02*
X86806000Y-125430000D01*
X85914000Y-125430000D02*
X83230000Y-125430000D01*
X89471000Y-125570000D02*
X87016000Y-125570000D01*
X85704000Y-125570000D02*
X83249000Y-125570000D01*
X89445000Y-125710000D02*
X87149000Y-125710000D01*
X85571000Y-125710000D02*
X83275000Y-125710000D01*
X89413000Y-125850000D02*
X87240000Y-125850000D01*
X85480000Y-125850000D02*
X83307000Y-125850000D01*
X89374000Y-125990000D02*
X87302000Y-125990000D01*
X85418000Y-125990000D02*
X83346000Y-125990000D01*
X89328000Y-126130000D02*
X87341000Y-126130000D01*
X85379000Y-126130000D02*
X83392000Y-126130000D01*
X89275000Y-126270000D02*
X87358000Y-126270000D01*
X85362000Y-126270000D02*
X83445000Y-126270000D01*
X89213000Y-126410000D02*
X87356000Y-126410000D01*
X85364000Y-126410000D02*
X83507000Y-126410000D01*
X89143000Y-126550000D02*
X87334000Y-126550000D01*
X85386000Y-126550000D02*
X83577000Y-126550000D01*
X89064000Y-126690000D02*
X87291000Y-126690000D01*
X85429000Y-126690000D02*
X83656000Y-126690000D01*
X88976000Y-126830000D02*
X87223000Y-126830000D01*
X85497000Y-126830000D02*
X83744000Y-126830000D01*
X88876000Y-126970000D02*
X87124000Y-126970000D01*
X85596000Y-126970000D02*
X83844000Y-126970000D01*
X88764000Y-127110000D02*
X86979000Y-127110000D01*
X85741000Y-127110000D02*
X83956000Y-127110000D01*
X88639000Y-127250000D02*
X86740000Y-127250000D01*
X85980000Y-127250000D02*
X84081000Y-127250000D01*
X88496000Y-127390000D02*
X84224000Y-127390000D01*
X88334000Y-127530000D02*
X84386000Y-127530000D01*
X88146000Y-127670000D02*
X84574000Y-127670000D01*
X87923000Y-127810000D02*
X84797000Y-127810000D01*
X87647000Y-127950000D02*
X85073000Y-127950000D01*
X87272000Y-128090000D02*
X85448000Y-128090000D01*
X87360000Y-126325000D02*
G75*
G03X87360000Y-126325000I-1000000J0D01*
G01*
X89547500Y-125075000D02*
G75*
G03X89547500Y-125075000I-3187500J0D01*
G01*
X174680112Y-42164904D02*
G75*
G03X174665000Y-39140000I2484888J1524904D01*
G01*
X174665000Y-42140000D02*
X174665000Y-39140000D01*
X179682936Y-40640000D02*
G75*
G03X179682936Y-40640000I-2517936J0D01*
G01*
D13*
X104140000Y-81280000D02*
X104140000Y-83820000D01*
X104140000Y-83820000D02*
X99060000Y-83820000D01*
X99060000Y-83820000D02*
X99060000Y-81280000D01*
X99060000Y-81280000D02*
X104140000Y-81280000D01*
X147320000Y-36830000D02*
X149860000Y-36830000D01*
X149860000Y-36830000D02*
X149860000Y-44450000D01*
X149860000Y-44450000D02*
X147320000Y-44450000D01*
X147320000Y-44450000D02*
X147320000Y-36830000D01*
X149860000Y-39370000D02*
X147320000Y-39370000D01*
X154940000Y-36830000D02*
X157480000Y-36830000D01*
X157480000Y-36830000D02*
X157480000Y-44450000D01*
X157480000Y-44450000D02*
X154940000Y-44450000D01*
X154940000Y-44450000D02*
X154940000Y-36830000D01*
X157480000Y-39370000D02*
X154940000Y-39370000D01*
X101600000Y-124460000D02*
X114300000Y-124460000D01*
X114300000Y-124460000D02*
X114300000Y-129540000D01*
X114300000Y-129540000D02*
X101600000Y-129540000D01*
X101600000Y-129540000D02*
X101600000Y-124460000D01*
D10*
X110253780Y-78000860D02*
X110614460Y-79471520D01*
X110614460Y-79471520D02*
X110893860Y-78409800D01*
X110893860Y-78409800D02*
X111203740Y-79481680D01*
X111203740Y-79481680D02*
X111544100Y-78031340D01*
X108833920Y-78691740D02*
X109623860Y-78681580D01*
X109623860Y-78681580D02*
X109634020Y-78691740D01*
X109634020Y-78691740D02*
X109634020Y-78681580D01*
X109674660Y-77970380D02*
X109674660Y-79512160D01*
X108785660Y-77960220D02*
X108785660Y-79529940D01*
X108785660Y-79529940D02*
X108795820Y-79519780D01*
X108234480Y-78061820D02*
X107883960Y-77980540D01*
X107883960Y-77980540D02*
X107563920Y-77970380D01*
X107563920Y-77970380D02*
X107325160Y-78171040D01*
X107325160Y-78171040D02*
X107294680Y-78440280D01*
X107294680Y-78440280D02*
X107535980Y-78681580D01*
X107535980Y-78681580D02*
X107924600Y-78811120D01*
X107924600Y-78811120D02*
X108104940Y-78971140D01*
X108104940Y-78971140D02*
X108145580Y-79270860D01*
X108145580Y-79270860D02*
X107914440Y-79491840D01*
X107914440Y-79491840D02*
X107594400Y-79519780D01*
X107594400Y-79519780D02*
X107243880Y-79410560D01*
X106205020Y-77960220D02*
X105956100Y-77980540D01*
X105956100Y-77980540D02*
X105714800Y-78221840D01*
X105714800Y-78221840D02*
X105625900Y-78712060D01*
X105625900Y-78712060D02*
X105653840Y-79060040D01*
X105653840Y-79060040D02*
X105854500Y-79380080D01*
X105854500Y-79380080D02*
X106105960Y-79502000D01*
X106105960Y-79502000D02*
X106415840Y-79430880D01*
X106415840Y-79430880D02*
X106634280Y-79250540D01*
X106634280Y-79250540D02*
X106705400Y-78790800D01*
X106705400Y-78790800D02*
X106654600Y-78381860D01*
X106654600Y-78381860D02*
X106545380Y-78099920D01*
X106545380Y-78099920D02*
X106184700Y-77970380D01*
X106804460Y-76240640D02*
X106545380Y-76801980D01*
X106545380Y-76801980D02*
X107083860Y-77320140D01*
X107083860Y-77320140D02*
X107604560Y-77050900D01*
X107604560Y-77050900D02*
X107883960Y-77210920D01*
X109324140Y-77190600D02*
X109654340Y-77000100D01*
X109654340Y-77000100D02*
X110093760Y-77330300D01*
X110093760Y-77330300D02*
X110566200Y-76840080D01*
X110566200Y-76840080D02*
X110284260Y-76360020D01*
X110284260Y-76360020D02*
X110474760Y-75890120D01*
X110474760Y-75890120D02*
X111084360Y-75702160D01*
X111084360Y-75702160D02*
X111084360Y-75021440D01*
X111084360Y-75021440D02*
X110525560Y-74881740D01*
X110525560Y-74881740D02*
X110324900Y-74310240D01*
X110324900Y-74310240D02*
X110594140Y-73840340D01*
X110594140Y-73840340D02*
X110124240Y-73329800D01*
X110124240Y-73329800D02*
X109606080Y-73591420D01*
X109606080Y-73591420D02*
X109136180Y-73390760D01*
X109136180Y-73390760D02*
X108966000Y-72849740D01*
X108966000Y-72849740D02*
X108275120Y-72831960D01*
X108275120Y-72831960D02*
X108064300Y-73380600D01*
X108064300Y-73380600D02*
X107645200Y-73550780D01*
X107645200Y-73550780D02*
X107094020Y-73281540D01*
X107094020Y-73281540D02*
X106575860Y-73809860D01*
X106575860Y-73809860D02*
X106824780Y-74350880D01*
X106824780Y-74350880D02*
X106654600Y-74830940D01*
X106654600Y-74830940D02*
X106105960Y-74930000D01*
X106105960Y-74930000D02*
X106095800Y-75631040D01*
X106095800Y-75631040D02*
X106654600Y-75831700D01*
X106654600Y-75831700D02*
X106794300Y-76230480D01*
X108935520Y-76210160D02*
X109235240Y-76060300D01*
X109235240Y-76060300D02*
X109435900Y-75862180D01*
X109435900Y-75862180D02*
X109585760Y-75460860D01*
X109585760Y-75460860D02*
X109585760Y-75062080D01*
X109585760Y-75062080D02*
X109435900Y-74711560D01*
X109435900Y-74711560D02*
X108983780Y-74361040D01*
X108983780Y-74361040D02*
X108534200Y-74310240D01*
X108534200Y-74310240D02*
X108135420Y-74411840D01*
X108135420Y-74411840D02*
X107734100Y-74759820D01*
X107734100Y-74759820D02*
X107584240Y-75211940D01*
X107584240Y-75211940D02*
X107635040Y-75709780D01*
X107635040Y-75709780D02*
X107883960Y-76012040D01*
X107883960Y-76012040D02*
X108234480Y-76210160D01*
X108234480Y-76210160D02*
X107883960Y-77210920D01*
X108935520Y-76210160D02*
X109334300Y-77210920D01*
X187325000Y-52705000D02*
X187325000Y-57785000D01*
X187325000Y-57785000D02*
X184785000Y-57785000D01*
X184785000Y-57785000D02*
X184785000Y-52705000D01*
X184785000Y-52705000D02*
X187325000Y-52705000D01*
X186055000Y-52705000D02*
X186055000Y-51435000D01*
X186055000Y-57785000D02*
X186055000Y-59055000D01*
D13*
X182245000Y-41910000D02*
X182245000Y-39370000D01*
X182245000Y-39370000D02*
X187325000Y-39370000D01*
X187325000Y-39370000D02*
X187325000Y-41910000D01*
X187325000Y-41910000D02*
X182245000Y-41910000D01*
D10*
X148123219Y-121285000D02*
G75*
G03X148123219Y-121285000I-803219J0D01*
G01*
X172553334Y-88622143D02*
X172505715Y-88669762D01*
X172362858Y-88717381D01*
X172267620Y-88717381D01*
X172124762Y-88669762D01*
X172029524Y-88574524D01*
X171981905Y-88479286D01*
X171934286Y-88288810D01*
X171934286Y-88145952D01*
X171981905Y-87955476D01*
X172029524Y-87860238D01*
X172124762Y-87765000D01*
X172267620Y-87717381D01*
X172362858Y-87717381D01*
X172505715Y-87765000D01*
X172553334Y-87812619D01*
X173505715Y-88717381D02*
X172934286Y-88717381D01*
X173220000Y-88717381D02*
X173220000Y-87717381D01*
X173124762Y-87860238D01*
X173029524Y-87955476D01*
X172934286Y-88003095D01*
X177427143Y-87717381D02*
X177522382Y-87717381D01*
X177617620Y-87765000D01*
X177665239Y-87812619D01*
X177712858Y-87907857D01*
X177760477Y-88098333D01*
X177760477Y-88336429D01*
X177712858Y-88526905D01*
X177665239Y-88622143D01*
X177617620Y-88669762D01*
X177522382Y-88717381D01*
X177427143Y-88717381D01*
X177331905Y-88669762D01*
X177284286Y-88622143D01*
X177236667Y-88526905D01*
X177189048Y-88336429D01*
X177189048Y-88098333D01*
X177236667Y-87907857D01*
X177284286Y-87812619D01*
X177331905Y-87765000D01*
X177427143Y-87717381D01*
X178189048Y-88622143D02*
X178236667Y-88669762D01*
X178189048Y-88717381D01*
X178141429Y-88669762D01*
X178189048Y-88622143D01*
X178189048Y-88717381D01*
X179189048Y-88717381D02*
X178617619Y-88717381D01*
X178903333Y-88717381D02*
X178903333Y-87717381D01*
X178808095Y-87860238D01*
X178712857Y-87955476D01*
X178617619Y-88003095D01*
X180046191Y-88050714D02*
X180046191Y-88717381D01*
X179617619Y-88050714D02*
X179617619Y-88574524D01*
X179665238Y-88669762D01*
X179760476Y-88717381D01*
X179903334Y-88717381D01*
X179998572Y-88669762D01*
X180046191Y-88622143D01*
X180855715Y-88193571D02*
X180522381Y-88193571D01*
X180522381Y-88717381D02*
X180522381Y-87717381D01*
X180998572Y-87717381D01*
X116673334Y-38457143D02*
X116625715Y-38504762D01*
X116482858Y-38552381D01*
X116387620Y-38552381D01*
X116244762Y-38504762D01*
X116149524Y-38409524D01*
X116101905Y-38314286D01*
X116054286Y-38123810D01*
X116054286Y-37980952D01*
X116101905Y-37790476D01*
X116149524Y-37695238D01*
X116244762Y-37600000D01*
X116387620Y-37552381D01*
X116482858Y-37552381D01*
X116625715Y-37600000D01*
X116673334Y-37647619D01*
X117054286Y-37647619D02*
X117101905Y-37600000D01*
X117197143Y-37552381D01*
X117435239Y-37552381D01*
X117530477Y-37600000D01*
X117578096Y-37647619D01*
X117625715Y-37742857D01*
X117625715Y-37838095D01*
X117578096Y-37980952D01*
X117006667Y-38552381D01*
X117625715Y-38552381D01*
X121547143Y-37552381D02*
X121642382Y-37552381D01*
X121737620Y-37600000D01*
X121785239Y-37647619D01*
X121832858Y-37742857D01*
X121880477Y-37933333D01*
X121880477Y-38171429D01*
X121832858Y-38361905D01*
X121785239Y-38457143D01*
X121737620Y-38504762D01*
X121642382Y-38552381D01*
X121547143Y-38552381D01*
X121451905Y-38504762D01*
X121404286Y-38457143D01*
X121356667Y-38361905D01*
X121309048Y-38171429D01*
X121309048Y-37933333D01*
X121356667Y-37742857D01*
X121404286Y-37647619D01*
X121451905Y-37600000D01*
X121547143Y-37552381D01*
X122309048Y-38457143D02*
X122356667Y-38504762D01*
X122309048Y-38552381D01*
X122261429Y-38504762D01*
X122309048Y-38457143D01*
X122309048Y-38552381D01*
X123309048Y-38552381D02*
X122737619Y-38552381D01*
X123023333Y-38552381D02*
X123023333Y-37552381D01*
X122928095Y-37695238D01*
X122832857Y-37790476D01*
X122737619Y-37838095D01*
X124166191Y-37885714D02*
X124166191Y-38552381D01*
X123737619Y-37885714D02*
X123737619Y-38409524D01*
X123785238Y-38504762D01*
X123880476Y-38552381D01*
X124023334Y-38552381D01*
X124118572Y-38504762D01*
X124166191Y-38457143D01*
X124975715Y-38028571D02*
X124642381Y-38028571D01*
X124642381Y-38552381D02*
X124642381Y-37552381D01*
X125118572Y-37552381D01*
X97623334Y-38457143D02*
X97575715Y-38504762D01*
X97432858Y-38552381D01*
X97337620Y-38552381D01*
X97194762Y-38504762D01*
X97099524Y-38409524D01*
X97051905Y-38314286D01*
X97004286Y-38123810D01*
X97004286Y-37980952D01*
X97051905Y-37790476D01*
X97099524Y-37695238D01*
X97194762Y-37600000D01*
X97337620Y-37552381D01*
X97432858Y-37552381D01*
X97575715Y-37600000D01*
X97623334Y-37647619D01*
X97956667Y-37552381D02*
X98575715Y-37552381D01*
X98242381Y-37933333D01*
X98385239Y-37933333D01*
X98480477Y-37980952D01*
X98528096Y-38028571D01*
X98575715Y-38123810D01*
X98575715Y-38361905D01*
X98528096Y-38457143D01*
X98480477Y-38504762D01*
X98385239Y-38552381D01*
X98099524Y-38552381D01*
X98004286Y-38504762D01*
X97956667Y-38457143D01*
X102497143Y-37552381D02*
X102592382Y-37552381D01*
X102687620Y-37600000D01*
X102735239Y-37647619D01*
X102782858Y-37742857D01*
X102830477Y-37933333D01*
X102830477Y-38171429D01*
X102782858Y-38361905D01*
X102735239Y-38457143D01*
X102687620Y-38504762D01*
X102592382Y-38552381D01*
X102497143Y-38552381D01*
X102401905Y-38504762D01*
X102354286Y-38457143D01*
X102306667Y-38361905D01*
X102259048Y-38171429D01*
X102259048Y-37933333D01*
X102306667Y-37742857D01*
X102354286Y-37647619D01*
X102401905Y-37600000D01*
X102497143Y-37552381D01*
X103259048Y-38457143D02*
X103306667Y-38504762D01*
X103259048Y-38552381D01*
X103211429Y-38504762D01*
X103259048Y-38457143D01*
X103259048Y-38552381D01*
X104259048Y-38552381D02*
X103687619Y-38552381D01*
X103973333Y-38552381D02*
X103973333Y-37552381D01*
X103878095Y-37695238D01*
X103782857Y-37790476D01*
X103687619Y-37838095D01*
X105116191Y-37885714D02*
X105116191Y-38552381D01*
X104687619Y-37885714D02*
X104687619Y-38409524D01*
X104735238Y-38504762D01*
X104830476Y-38552381D01*
X104973334Y-38552381D01*
X105068572Y-38504762D01*
X105116191Y-38457143D01*
X105925715Y-38028571D02*
X105592381Y-38028571D01*
X105592381Y-38552381D02*
X105592381Y-37552381D01*
X106068572Y-37552381D01*
X153503334Y-88622143D02*
X153455715Y-88669762D01*
X153312858Y-88717381D01*
X153217620Y-88717381D01*
X153074762Y-88669762D01*
X152979524Y-88574524D01*
X152931905Y-88479286D01*
X152884286Y-88288810D01*
X152884286Y-88145952D01*
X152931905Y-87955476D01*
X152979524Y-87860238D01*
X153074762Y-87765000D01*
X153217620Y-87717381D01*
X153312858Y-87717381D01*
X153455715Y-87765000D01*
X153503334Y-87812619D01*
X154360477Y-88050714D02*
X154360477Y-88717381D01*
X154122381Y-87669762D02*
X153884286Y-88384048D01*
X154503334Y-88384048D01*
X158377143Y-87717381D02*
X158472382Y-87717381D01*
X158567620Y-87765000D01*
X158615239Y-87812619D01*
X158662858Y-87907857D01*
X158710477Y-88098333D01*
X158710477Y-88336429D01*
X158662858Y-88526905D01*
X158615239Y-88622143D01*
X158567620Y-88669762D01*
X158472382Y-88717381D01*
X158377143Y-88717381D01*
X158281905Y-88669762D01*
X158234286Y-88622143D01*
X158186667Y-88526905D01*
X158139048Y-88336429D01*
X158139048Y-88098333D01*
X158186667Y-87907857D01*
X158234286Y-87812619D01*
X158281905Y-87765000D01*
X158377143Y-87717381D01*
X159139048Y-88622143D02*
X159186667Y-88669762D01*
X159139048Y-88717381D01*
X159091429Y-88669762D01*
X159139048Y-88622143D01*
X159139048Y-88717381D01*
X160139048Y-88717381D02*
X159567619Y-88717381D01*
X159853333Y-88717381D02*
X159853333Y-87717381D01*
X159758095Y-87860238D01*
X159662857Y-87955476D01*
X159567619Y-88003095D01*
X160996191Y-88050714D02*
X160996191Y-88717381D01*
X160567619Y-88050714D02*
X160567619Y-88574524D01*
X160615238Y-88669762D01*
X160710476Y-88717381D01*
X160853334Y-88717381D01*
X160948572Y-88669762D01*
X160996191Y-88622143D01*
X161805715Y-88193571D02*
X161472381Y-88193571D01*
X161472381Y-88717381D02*
X161472381Y-87717381D01*
X161948572Y-87717381D01*
X97623334Y-88622143D02*
X97575715Y-88669762D01*
X97432858Y-88717381D01*
X97337620Y-88717381D01*
X97194762Y-88669762D01*
X97099524Y-88574524D01*
X97051905Y-88479286D01*
X97004286Y-88288810D01*
X97004286Y-88145952D01*
X97051905Y-87955476D01*
X97099524Y-87860238D01*
X97194762Y-87765000D01*
X97337620Y-87717381D01*
X97432858Y-87717381D01*
X97575715Y-87765000D01*
X97623334Y-87812619D01*
X98528096Y-87717381D02*
X98051905Y-87717381D01*
X98004286Y-88193571D01*
X98051905Y-88145952D01*
X98147143Y-88098333D01*
X98385239Y-88098333D01*
X98480477Y-88145952D01*
X98528096Y-88193571D01*
X98575715Y-88288810D01*
X98575715Y-88526905D01*
X98528096Y-88622143D01*
X98480477Y-88669762D01*
X98385239Y-88717381D01*
X98147143Y-88717381D01*
X98051905Y-88669762D01*
X98004286Y-88622143D01*
X102497143Y-87717381D02*
X102592382Y-87717381D01*
X102687620Y-87765000D01*
X102735239Y-87812619D01*
X102782858Y-87907857D01*
X102830477Y-88098333D01*
X102830477Y-88336429D01*
X102782858Y-88526905D01*
X102735239Y-88622143D01*
X102687620Y-88669762D01*
X102592382Y-88717381D01*
X102497143Y-88717381D01*
X102401905Y-88669762D01*
X102354286Y-88622143D01*
X102306667Y-88526905D01*
X102259048Y-88336429D01*
X102259048Y-88098333D01*
X102306667Y-87907857D01*
X102354286Y-87812619D01*
X102401905Y-87765000D01*
X102497143Y-87717381D01*
X103259048Y-88622143D02*
X103306667Y-88669762D01*
X103259048Y-88717381D01*
X103211429Y-88669762D01*
X103259048Y-88622143D01*
X103259048Y-88717381D01*
X104259048Y-88717381D02*
X103687619Y-88717381D01*
X103973333Y-88717381D02*
X103973333Y-87717381D01*
X103878095Y-87860238D01*
X103782857Y-87955476D01*
X103687619Y-88003095D01*
X105116191Y-88050714D02*
X105116191Y-88717381D01*
X104687619Y-88050714D02*
X104687619Y-88574524D01*
X104735238Y-88669762D01*
X104830476Y-88717381D01*
X104973334Y-88717381D01*
X105068572Y-88669762D01*
X105116191Y-88622143D01*
X105925715Y-88193571D02*
X105592381Y-88193571D01*
X105592381Y-88717381D02*
X105592381Y-87717381D01*
X106068572Y-87717381D01*
X145883334Y-48617143D02*
X145835715Y-48664762D01*
X145692858Y-48712381D01*
X145597620Y-48712381D01*
X145454762Y-48664762D01*
X145359524Y-48569524D01*
X145311905Y-48474286D01*
X145264286Y-48283810D01*
X145264286Y-48140952D01*
X145311905Y-47950476D01*
X145359524Y-47855238D01*
X145454762Y-47760000D01*
X145597620Y-47712381D01*
X145692858Y-47712381D01*
X145835715Y-47760000D01*
X145883334Y-47807619D01*
X146216667Y-47712381D02*
X146883334Y-47712381D01*
X146454762Y-48712381D01*
X150757143Y-47712381D02*
X150852382Y-47712381D01*
X150947620Y-47760000D01*
X150995239Y-47807619D01*
X151042858Y-47902857D01*
X151090477Y-48093333D01*
X151090477Y-48331429D01*
X151042858Y-48521905D01*
X150995239Y-48617143D01*
X150947620Y-48664762D01*
X150852382Y-48712381D01*
X150757143Y-48712381D01*
X150661905Y-48664762D01*
X150614286Y-48617143D01*
X150566667Y-48521905D01*
X150519048Y-48331429D01*
X150519048Y-48093333D01*
X150566667Y-47902857D01*
X150614286Y-47807619D01*
X150661905Y-47760000D01*
X150757143Y-47712381D01*
X151519048Y-48617143D02*
X151566667Y-48664762D01*
X151519048Y-48712381D01*
X151471429Y-48664762D01*
X151519048Y-48617143D01*
X151519048Y-48712381D01*
X152519048Y-48712381D02*
X151947619Y-48712381D01*
X152233333Y-48712381D02*
X152233333Y-47712381D01*
X152138095Y-47855238D01*
X152042857Y-47950476D01*
X151947619Y-47998095D01*
X153376191Y-48045714D02*
X153376191Y-48712381D01*
X152947619Y-48045714D02*
X152947619Y-48569524D01*
X152995238Y-48664762D01*
X153090476Y-48712381D01*
X153233334Y-48712381D01*
X153328572Y-48664762D01*
X153376191Y-48617143D01*
X154185715Y-48188571D02*
X153852381Y-48188571D01*
X153852381Y-48712381D02*
X153852381Y-47712381D01*
X154328572Y-47712381D01*
X131913334Y-40997143D02*
X131865715Y-41044762D01*
X131722858Y-41092381D01*
X131627620Y-41092381D01*
X131484762Y-41044762D01*
X131389524Y-40949524D01*
X131341905Y-40854286D01*
X131294286Y-40663810D01*
X131294286Y-40520952D01*
X131341905Y-40330476D01*
X131389524Y-40235238D01*
X131484762Y-40140000D01*
X131627620Y-40092381D01*
X131722858Y-40092381D01*
X131865715Y-40140000D01*
X131913334Y-40187619D01*
X132484762Y-40520952D02*
X132389524Y-40473333D01*
X132341905Y-40425714D01*
X132294286Y-40330476D01*
X132294286Y-40282857D01*
X132341905Y-40187619D01*
X132389524Y-40140000D01*
X132484762Y-40092381D01*
X132675239Y-40092381D01*
X132770477Y-40140000D01*
X132818096Y-40187619D01*
X132865715Y-40282857D01*
X132865715Y-40330476D01*
X132818096Y-40425714D01*
X132770477Y-40473333D01*
X132675239Y-40520952D01*
X132484762Y-40520952D01*
X132389524Y-40568571D01*
X132341905Y-40616190D01*
X132294286Y-40711429D01*
X132294286Y-40901905D01*
X132341905Y-40997143D01*
X132389524Y-41044762D01*
X132484762Y-41092381D01*
X132675239Y-41092381D01*
X132770477Y-41044762D01*
X132818096Y-40997143D01*
X132865715Y-40901905D01*
X132865715Y-40711429D01*
X132818096Y-40616190D01*
X132770477Y-40568571D01*
X132675239Y-40520952D01*
X136787143Y-40092381D02*
X136882382Y-40092381D01*
X136977620Y-40140000D01*
X137025239Y-40187619D01*
X137072858Y-40282857D01*
X137120477Y-40473333D01*
X137120477Y-40711429D01*
X137072858Y-40901905D01*
X137025239Y-40997143D01*
X136977620Y-41044762D01*
X136882382Y-41092381D01*
X136787143Y-41092381D01*
X136691905Y-41044762D01*
X136644286Y-40997143D01*
X136596667Y-40901905D01*
X136549048Y-40711429D01*
X136549048Y-40473333D01*
X136596667Y-40282857D01*
X136644286Y-40187619D01*
X136691905Y-40140000D01*
X136787143Y-40092381D01*
X137549048Y-40997143D02*
X137596667Y-41044762D01*
X137549048Y-41092381D01*
X137501429Y-41044762D01*
X137549048Y-40997143D01*
X137549048Y-41092381D01*
X138549048Y-41092381D02*
X137977619Y-41092381D01*
X138263333Y-41092381D02*
X138263333Y-40092381D01*
X138168095Y-40235238D01*
X138072857Y-40330476D01*
X137977619Y-40378095D01*
X139406191Y-40425714D02*
X139406191Y-41092381D01*
X138977619Y-40425714D02*
X138977619Y-40949524D01*
X139025238Y-41044762D01*
X139120476Y-41092381D01*
X139263334Y-41092381D01*
X139358572Y-41044762D01*
X139406191Y-40997143D01*
X140215715Y-40568571D02*
X139882381Y-40568571D01*
X139882381Y-41092381D02*
X139882381Y-40092381D01*
X140358572Y-40092381D01*
X158583334Y-49887143D02*
X158535715Y-49934762D01*
X158392858Y-49982381D01*
X158297620Y-49982381D01*
X158154762Y-49934762D01*
X158059524Y-49839524D01*
X158011905Y-49744286D01*
X157964286Y-49553810D01*
X157964286Y-49410952D01*
X158011905Y-49220476D01*
X158059524Y-49125238D01*
X158154762Y-49030000D01*
X158297620Y-48982381D01*
X158392858Y-48982381D01*
X158535715Y-49030000D01*
X158583334Y-49077619D01*
X159059524Y-49982381D02*
X159250000Y-49982381D01*
X159345239Y-49934762D01*
X159392858Y-49887143D01*
X159488096Y-49744286D01*
X159535715Y-49553810D01*
X159535715Y-49172857D01*
X159488096Y-49077619D01*
X159440477Y-49030000D01*
X159345239Y-48982381D01*
X159154762Y-48982381D01*
X159059524Y-49030000D01*
X159011905Y-49077619D01*
X158964286Y-49172857D01*
X158964286Y-49410952D01*
X159011905Y-49506190D01*
X159059524Y-49553810D01*
X159154762Y-49601429D01*
X159345239Y-49601429D01*
X159440477Y-49553810D01*
X159488096Y-49506190D01*
X159535715Y-49410952D01*
X162822143Y-47712381D02*
X162917382Y-47712381D01*
X163012620Y-47760000D01*
X163060239Y-47807619D01*
X163107858Y-47902857D01*
X163155477Y-48093333D01*
X163155477Y-48331429D01*
X163107858Y-48521905D01*
X163060239Y-48617143D01*
X163012620Y-48664762D01*
X162917382Y-48712381D01*
X162822143Y-48712381D01*
X162726905Y-48664762D01*
X162679286Y-48617143D01*
X162631667Y-48521905D01*
X162584048Y-48331429D01*
X162584048Y-48093333D01*
X162631667Y-47902857D01*
X162679286Y-47807619D01*
X162726905Y-47760000D01*
X162822143Y-47712381D01*
X163584048Y-48617143D02*
X163631667Y-48664762D01*
X163584048Y-48712381D01*
X163536429Y-48664762D01*
X163584048Y-48617143D01*
X163584048Y-48712381D01*
X164584048Y-48712381D02*
X164012619Y-48712381D01*
X164298333Y-48712381D02*
X164298333Y-47712381D01*
X164203095Y-47855238D01*
X164107857Y-47950476D01*
X164012619Y-47998095D01*
X165441191Y-48045714D02*
X165441191Y-48712381D01*
X165012619Y-48045714D02*
X165012619Y-48569524D01*
X165060238Y-48664762D01*
X165155476Y-48712381D01*
X165298334Y-48712381D01*
X165393572Y-48664762D01*
X165441191Y-48617143D01*
X166250715Y-48188571D02*
X165917381Y-48188571D01*
X165917381Y-48712381D02*
X165917381Y-47712381D01*
X166393572Y-47712381D01*
X168902143Y-46077143D02*
X168854524Y-46124762D01*
X168711667Y-46172381D01*
X168616429Y-46172381D01*
X168473571Y-46124762D01*
X168378333Y-46029524D01*
X168330714Y-45934286D01*
X168283095Y-45743810D01*
X168283095Y-45600952D01*
X168330714Y-45410476D01*
X168378333Y-45315238D01*
X168473571Y-45220000D01*
X168616429Y-45172381D01*
X168711667Y-45172381D01*
X168854524Y-45220000D01*
X168902143Y-45267619D01*
X169854524Y-46172381D02*
X169283095Y-46172381D01*
X169568809Y-46172381D02*
X169568809Y-45172381D01*
X169473571Y-45315238D01*
X169378333Y-45410476D01*
X169283095Y-45458095D01*
X170473571Y-45172381D02*
X170568810Y-45172381D01*
X170664048Y-45220000D01*
X170711667Y-45267619D01*
X170759286Y-45362857D01*
X170806905Y-45553333D01*
X170806905Y-45791429D01*
X170759286Y-45981905D01*
X170711667Y-46077143D01*
X170664048Y-46124762D01*
X170568810Y-46172381D01*
X170473571Y-46172381D01*
X170378333Y-46124762D01*
X170330714Y-46077143D01*
X170283095Y-45981905D01*
X170235476Y-45791429D01*
X170235476Y-45553333D01*
X170283095Y-45362857D01*
X170330714Y-45267619D01*
X170378333Y-45220000D01*
X170473571Y-45172381D01*
X174887143Y-45172381D02*
X174982382Y-45172381D01*
X175077620Y-45220000D01*
X175125239Y-45267619D01*
X175172858Y-45362857D01*
X175220477Y-45553333D01*
X175220477Y-45791429D01*
X175172858Y-45981905D01*
X175125239Y-46077143D01*
X175077620Y-46124762D01*
X174982382Y-46172381D01*
X174887143Y-46172381D01*
X174791905Y-46124762D01*
X174744286Y-46077143D01*
X174696667Y-45981905D01*
X174649048Y-45791429D01*
X174649048Y-45553333D01*
X174696667Y-45362857D01*
X174744286Y-45267619D01*
X174791905Y-45220000D01*
X174887143Y-45172381D01*
X175649048Y-46077143D02*
X175696667Y-46124762D01*
X175649048Y-46172381D01*
X175601429Y-46124762D01*
X175649048Y-46077143D01*
X175649048Y-46172381D01*
X176649048Y-46172381D02*
X176077619Y-46172381D01*
X176363333Y-46172381D02*
X176363333Y-45172381D01*
X176268095Y-45315238D01*
X176172857Y-45410476D01*
X176077619Y-45458095D01*
X177506191Y-45505714D02*
X177506191Y-46172381D01*
X177077619Y-45505714D02*
X177077619Y-46029524D01*
X177125238Y-46124762D01*
X177220476Y-46172381D01*
X177363334Y-46172381D01*
X177458572Y-46124762D01*
X177506191Y-46077143D01*
X178315715Y-45648571D02*
X177982381Y-45648571D01*
X177982381Y-46172381D02*
X177982381Y-45172381D01*
X178458572Y-45172381D01*
X171283334Y-42997381D02*
X170950000Y-42521190D01*
X170711905Y-42997381D02*
X170711905Y-41997381D01*
X171092858Y-41997381D01*
X171188096Y-42045000D01*
X171235715Y-42092619D01*
X171283334Y-42187857D01*
X171283334Y-42330714D01*
X171235715Y-42425952D01*
X171188096Y-42473571D01*
X171092858Y-42521190D01*
X170711905Y-42521190D01*
X172235715Y-42997381D02*
X171664286Y-42997381D01*
X171950000Y-42997381D02*
X171950000Y-41997381D01*
X171854762Y-42140238D01*
X171759524Y-42235476D01*
X171664286Y-42283095D01*
X166378096Y-40425714D02*
X166378096Y-41092381D01*
X166140000Y-40044762D02*
X165901905Y-40759048D01*
X166520953Y-40759048D01*
X166806667Y-40092381D02*
X167473334Y-40092381D01*
X167044762Y-41092381D01*
X168044762Y-40092381D02*
X168140001Y-40092381D01*
X168235239Y-40140000D01*
X168282858Y-40187619D01*
X168330477Y-40282857D01*
X168378096Y-40473333D01*
X168378096Y-40711429D01*
X168330477Y-40901905D01*
X168282858Y-40997143D01*
X168235239Y-41044762D01*
X168140001Y-41092381D01*
X168044762Y-41092381D01*
X167949524Y-41044762D01*
X167901905Y-40997143D01*
X167854286Y-40901905D01*
X167806667Y-40711429D01*
X167806667Y-40473333D01*
X167854286Y-40282857D01*
X167901905Y-40187619D01*
X167949524Y-40140000D01*
X168044762Y-40092381D01*
X169378096Y-41092381D02*
X169044762Y-40616190D01*
X168806667Y-41092381D02*
X168806667Y-40092381D01*
X169187620Y-40092381D01*
X169282858Y-40140000D01*
X169330477Y-40187619D01*
X169378096Y-40282857D01*
X169378096Y-40425714D01*
X169330477Y-40520952D01*
X169282858Y-40568571D01*
X169187620Y-40616190D01*
X168806667Y-40616190D01*
D14*
X176294143Y-119041333D02*
X176294143Y-120480667D01*
X176348571Y-120650000D01*
X176403000Y-120734667D01*
X176511857Y-120819333D01*
X176729571Y-120819333D01*
X176838429Y-120734667D01*
X176892857Y-120650000D01*
X176947286Y-120480667D01*
X176947286Y-119041333D01*
X178090286Y-120819333D02*
X177437143Y-120819333D01*
X177763715Y-120819333D02*
X177763715Y-119041333D01*
X177654858Y-119295333D01*
X177546000Y-119464667D01*
X177437143Y-119549333D01*
D13*
D14*
X177080333Y-111261070D02*
X177080333Y-110499070D01*
X178858333Y-110988927D01*
X177673000Y-109573785D02*
X178858333Y-109573785D01*
X176995667Y-109845928D02*
X178265667Y-110118071D01*
X178265667Y-109410499D01*
X178858333Y-108430785D02*
X178858333Y-108975071D01*
X177080333Y-108975071D01*
X178773667Y-108104214D02*
X178858333Y-107940928D01*
X178858333Y-107668785D01*
X178773667Y-107559928D01*
X178689000Y-107505499D01*
X178519667Y-107451071D01*
X178350333Y-107451071D01*
X178181000Y-107505499D01*
X178096333Y-107559928D01*
X178011667Y-107668785D01*
X177927000Y-107886499D01*
X177842333Y-107995357D01*
X177757667Y-108049785D01*
X177588333Y-108104214D01*
X177419000Y-108104214D01*
X177249667Y-108049785D01*
X177165000Y-107995357D01*
X177080333Y-107886499D01*
X177080333Y-107614357D01*
X177165000Y-107451071D01*
X177249667Y-107015643D02*
X177165000Y-106961214D01*
X177080333Y-106852357D01*
X177080333Y-106580214D01*
X177165000Y-106471357D01*
X177249667Y-106416928D01*
X177419000Y-106362500D01*
X177588333Y-106362500D01*
X177842333Y-106416928D01*
X178858333Y-107070071D01*
X178858333Y-106362500D01*
X177673000Y-105382786D02*
X178858333Y-105382786D01*
X176995667Y-105654929D02*
X178265667Y-105927072D01*
X178265667Y-105219500D01*
X177080333Y-104239786D02*
X177080333Y-104784072D01*
X177927000Y-104838501D01*
X177842333Y-104784072D01*
X177757667Y-104675215D01*
X177757667Y-104403072D01*
X177842333Y-104294215D01*
X177927000Y-104239786D01*
X178096333Y-104185358D01*
X178519667Y-104185358D01*
X178689000Y-104239786D01*
X178773667Y-104294215D01*
X178858333Y-104403072D01*
X178858333Y-104675215D01*
X178773667Y-104784072D01*
X178689000Y-104838501D01*
D13*
D14*
X120414143Y-71416333D02*
X120414143Y-72855667D01*
X120468571Y-73025000D01*
X120523000Y-73109667D01*
X120631857Y-73194333D01*
X120849571Y-73194333D01*
X120958429Y-73109667D01*
X121012857Y-73025000D01*
X121067286Y-72855667D01*
X121067286Y-71416333D01*
X121557143Y-71585667D02*
X121611572Y-71501000D01*
X121720429Y-71416333D01*
X121992572Y-71416333D01*
X122101429Y-71501000D01*
X122155858Y-71585667D01*
X122210286Y-71755000D01*
X122210286Y-71924333D01*
X122155858Y-72178333D01*
X121502715Y-73194333D01*
X122210286Y-73194333D01*
D13*
D14*
X121200333Y-63636070D02*
X121200333Y-62874070D01*
X122978333Y-63363927D01*
X121793000Y-61948785D02*
X122978333Y-61948785D01*
X121115667Y-62220928D02*
X122385667Y-62493071D01*
X122385667Y-61785499D01*
X122978333Y-60805785D02*
X122978333Y-61350071D01*
X121200333Y-61350071D01*
X122893667Y-60479214D02*
X122978333Y-60315928D01*
X122978333Y-60043785D01*
X122893667Y-59934928D01*
X122809000Y-59880499D01*
X122639667Y-59826071D01*
X122470333Y-59826071D01*
X122301000Y-59880499D01*
X122216333Y-59934928D01*
X122131667Y-60043785D01*
X122047000Y-60261499D01*
X121962333Y-60370357D01*
X121877667Y-60424785D01*
X121708333Y-60479214D01*
X121539000Y-60479214D01*
X121369667Y-60424785D01*
X121285000Y-60370357D01*
X121200333Y-60261499D01*
X121200333Y-59989357D01*
X121285000Y-59826071D01*
X121200333Y-58791928D02*
X121200333Y-59336214D01*
X122047000Y-59390643D01*
X121962333Y-59336214D01*
X121877667Y-59227357D01*
X121877667Y-58955214D01*
X121962333Y-58846357D01*
X122047000Y-58791928D01*
X122216333Y-58737500D01*
X122639667Y-58737500D01*
X122809000Y-58791928D01*
X122893667Y-58846357D01*
X122978333Y-58955214D01*
X122978333Y-59227357D01*
X122893667Y-59336214D01*
X122809000Y-59390643D01*
X121200333Y-58356500D02*
X121200333Y-57594500D01*
X122978333Y-58084357D01*
X121200333Y-57267929D02*
X121200333Y-56560358D01*
X121877667Y-56941358D01*
X121877667Y-56778072D01*
X121962333Y-56669215D01*
X122047000Y-56614786D01*
X122216333Y-56560358D01*
X122639667Y-56560358D01*
X122809000Y-56614786D01*
X122893667Y-56669215D01*
X122978333Y-56778072D01*
X122978333Y-57104644D01*
X122893667Y-57213501D01*
X122809000Y-57267929D01*
D13*
D14*
X101364143Y-71416333D02*
X101364143Y-72855667D01*
X101418571Y-73025000D01*
X101473000Y-73109667D01*
X101581857Y-73194333D01*
X101799571Y-73194333D01*
X101908429Y-73109667D01*
X101962857Y-73025000D01*
X102017286Y-72855667D01*
X102017286Y-71416333D01*
X102452715Y-71416333D02*
X103160286Y-71416333D01*
X102779286Y-72093667D01*
X102942572Y-72093667D01*
X103051429Y-72178333D01*
X103105858Y-72263000D01*
X103160286Y-72432333D01*
X103160286Y-72855667D01*
X103105858Y-73025000D01*
X103051429Y-73109667D01*
X102942572Y-73194333D01*
X102616000Y-73194333D01*
X102507143Y-73109667D01*
X102452715Y-73025000D01*
D13*
D14*
X102150333Y-63636070D02*
X102150333Y-62874070D01*
X103928333Y-63363927D01*
X102743000Y-61948785D02*
X103928333Y-61948785D01*
X102065667Y-62220928D02*
X103335667Y-62493071D01*
X103335667Y-61785499D01*
X103928333Y-60805785D02*
X103928333Y-61350071D01*
X102150333Y-61350071D01*
X103843667Y-60479214D02*
X103928333Y-60315928D01*
X103928333Y-60043785D01*
X103843667Y-59934928D01*
X103759000Y-59880499D01*
X103589667Y-59826071D01*
X103420333Y-59826071D01*
X103251000Y-59880499D01*
X103166333Y-59934928D01*
X103081667Y-60043785D01*
X102997000Y-60261499D01*
X102912333Y-60370357D01*
X102827667Y-60424785D01*
X102658333Y-60479214D01*
X102489000Y-60479214D01*
X102319667Y-60424785D01*
X102235000Y-60370357D01*
X102150333Y-60261499D01*
X102150333Y-59989357D01*
X102235000Y-59826071D01*
X102150333Y-58791928D02*
X102150333Y-59336214D01*
X102997000Y-59390643D01*
X102912333Y-59336214D01*
X102827667Y-59227357D01*
X102827667Y-58955214D01*
X102912333Y-58846357D01*
X102997000Y-58791928D01*
X103166333Y-58737500D01*
X103589667Y-58737500D01*
X103759000Y-58791928D01*
X103843667Y-58846357D01*
X103928333Y-58955214D01*
X103928333Y-59227357D01*
X103843667Y-59336214D01*
X103759000Y-59390643D01*
X102150333Y-58356500D02*
X102150333Y-57594500D01*
X103928333Y-58084357D01*
X102150333Y-57267929D02*
X102150333Y-56560358D01*
X102827667Y-56941358D01*
X102827667Y-56778072D01*
X102912333Y-56669215D01*
X102997000Y-56614786D01*
X103166333Y-56560358D01*
X103589667Y-56560358D01*
X103759000Y-56614786D01*
X103843667Y-56669215D01*
X103928333Y-56778072D01*
X103928333Y-57104644D01*
X103843667Y-57213501D01*
X103759000Y-57267929D01*
D13*
D14*
X135654143Y-71416333D02*
X135654143Y-72855667D01*
X135708571Y-73025000D01*
X135763000Y-73109667D01*
X135871857Y-73194333D01*
X136089571Y-73194333D01*
X136198429Y-73109667D01*
X136252857Y-73025000D01*
X136307286Y-72855667D01*
X136307286Y-71416333D01*
X137341429Y-72009000D02*
X137341429Y-73194333D01*
X137069286Y-71331667D02*
X136797143Y-72601667D01*
X137504715Y-72601667D01*
D13*
D14*
X136440333Y-63636070D02*
X136440333Y-62874070D01*
X138218333Y-63363927D01*
X137033000Y-61948785D02*
X138218333Y-61948785D01*
X136355667Y-62220928D02*
X137625667Y-62493071D01*
X137625667Y-61785499D01*
X138218333Y-60805785D02*
X138218333Y-61350071D01*
X136440333Y-61350071D01*
X138133667Y-60479214D02*
X138218333Y-60315928D01*
X138218333Y-60043785D01*
X138133667Y-59934928D01*
X138049000Y-59880499D01*
X137879667Y-59826071D01*
X137710333Y-59826071D01*
X137541000Y-59880499D01*
X137456333Y-59934928D01*
X137371667Y-60043785D01*
X137287000Y-60261499D01*
X137202333Y-60370357D01*
X137117667Y-60424785D01*
X136948333Y-60479214D01*
X136779000Y-60479214D01*
X136609667Y-60424785D01*
X136525000Y-60370357D01*
X136440333Y-60261499D01*
X136440333Y-59989357D01*
X136525000Y-59826071D01*
X136609667Y-59390643D02*
X136525000Y-59336214D01*
X136440333Y-59227357D01*
X136440333Y-58955214D01*
X136525000Y-58846357D01*
X136609667Y-58791928D01*
X136779000Y-58737500D01*
X136948333Y-58737500D01*
X137202333Y-58791928D01*
X138218333Y-59445071D01*
X138218333Y-58737500D01*
X137033000Y-57757786D02*
X138218333Y-57757786D01*
X136355667Y-58029929D02*
X137625667Y-58302072D01*
X137625667Y-57594500D01*
X136440333Y-56614786D02*
X136440333Y-57159072D01*
X137287000Y-57213501D01*
X137202333Y-57159072D01*
X137117667Y-57050215D01*
X137117667Y-56778072D01*
X137202333Y-56669215D01*
X137287000Y-56614786D01*
X137456333Y-56560358D01*
X137879667Y-56560358D01*
X138049000Y-56614786D01*
X138133667Y-56669215D01*
X138218333Y-56778072D01*
X138218333Y-57050215D01*
X138133667Y-57159072D01*
X138049000Y-57213501D01*
D13*
D14*
X161689143Y-71555429D02*
X161689143Y-72789143D01*
X161743571Y-72934286D01*
X161798000Y-73006857D01*
X161906857Y-73079429D01*
X162124571Y-73079429D01*
X162233429Y-73006857D01*
X162287857Y-72934286D01*
X162342286Y-72789143D01*
X162342286Y-71555429D01*
X163430858Y-71555429D02*
X162886572Y-71555429D01*
X162832143Y-72281143D01*
X162886572Y-72208571D01*
X162995429Y-72136000D01*
X163267572Y-72136000D01*
X163376429Y-72208571D01*
X163430858Y-72281143D01*
X163485286Y-72426286D01*
X163485286Y-72789143D01*
X163430858Y-72934286D01*
X163376429Y-73006857D01*
X163267572Y-73079429D01*
X162995429Y-73079429D01*
X162886572Y-73006857D01*
X162832143Y-72934286D01*
D13*
D14*
X162360429Y-64615784D02*
X162360429Y-63853784D01*
X163884429Y-64343641D01*
X162868429Y-62928499D02*
X163884429Y-62928499D01*
X162287857Y-63200642D02*
X163376429Y-63472785D01*
X163376429Y-62765213D01*
X163884429Y-61785499D02*
X163884429Y-62329785D01*
X162360429Y-62329785D01*
X163811857Y-61458928D02*
X163884429Y-61295642D01*
X163884429Y-61023499D01*
X163811857Y-60914642D01*
X163739286Y-60860213D01*
X163594143Y-60805785D01*
X163449000Y-60805785D01*
X163303857Y-60860213D01*
X163231286Y-60914642D01*
X163158714Y-61023499D01*
X163086143Y-61241213D01*
X163013571Y-61350071D01*
X162941000Y-61404499D01*
X162795857Y-61458928D01*
X162650714Y-61458928D01*
X162505571Y-61404499D01*
X162433000Y-61350071D01*
X162360429Y-61241213D01*
X162360429Y-60969071D01*
X162433000Y-60805785D01*
X162360429Y-60098214D02*
X162360429Y-59989357D01*
X162433000Y-59880500D01*
X162505571Y-59826071D01*
X162650714Y-59771642D01*
X162941000Y-59717214D01*
X163303857Y-59717214D01*
X163594143Y-59771642D01*
X163739286Y-59826071D01*
X163811857Y-59880500D01*
X163884429Y-59989357D01*
X163884429Y-60098214D01*
X163811857Y-60207071D01*
X163739286Y-60261500D01*
X163594143Y-60315928D01*
X163303857Y-60370357D01*
X162941000Y-60370357D01*
X162650714Y-60315928D01*
X162505571Y-60261500D01*
X162433000Y-60207071D01*
X162360429Y-60098214D01*
X162868429Y-58737500D02*
X163884429Y-58737500D01*
X162287857Y-59009643D02*
X163376429Y-59281786D01*
X163376429Y-58574214D01*
D13*
D14*
X101364143Y-119041333D02*
X101364143Y-120480667D01*
X101418571Y-120650000D01*
X101473000Y-120734667D01*
X101581857Y-120819333D01*
X101799571Y-120819333D01*
X101908429Y-120734667D01*
X101962857Y-120650000D01*
X102017286Y-120480667D01*
X102017286Y-119041333D01*
X103051429Y-119041333D02*
X102833715Y-119041333D01*
X102724858Y-119126000D01*
X102670429Y-119210667D01*
X102561572Y-119464667D01*
X102507143Y-119803333D01*
X102507143Y-120480667D01*
X102561572Y-120650000D01*
X102616000Y-120734667D01*
X102724858Y-120819333D01*
X102942572Y-120819333D01*
X103051429Y-120734667D01*
X103105858Y-120650000D01*
X103160286Y-120480667D01*
X103160286Y-120057333D01*
X103105858Y-119888000D01*
X103051429Y-119803333D01*
X102942572Y-119718667D01*
X102724858Y-119718667D01*
X102616000Y-119803333D01*
X102561572Y-119888000D01*
X102507143Y-120057333D01*
D13*
D14*
X102150333Y-111261070D02*
X102150333Y-110499070D01*
X103928333Y-110988927D01*
X102743000Y-109573785D02*
X103928333Y-109573785D01*
X102065667Y-109845928D02*
X103335667Y-110118071D01*
X103335667Y-109410499D01*
X103928333Y-108430785D02*
X103928333Y-108975071D01*
X102150333Y-108975071D01*
X103843667Y-108104214D02*
X103928333Y-107940928D01*
X103928333Y-107668785D01*
X103843667Y-107559928D01*
X103759000Y-107505499D01*
X103589667Y-107451071D01*
X103420333Y-107451071D01*
X103251000Y-107505499D01*
X103166333Y-107559928D01*
X103081667Y-107668785D01*
X102997000Y-107886499D01*
X102912333Y-107995357D01*
X102827667Y-108049785D01*
X102658333Y-108104214D01*
X102489000Y-108104214D01*
X102319667Y-108049785D01*
X102235000Y-107995357D01*
X102150333Y-107886499D01*
X102150333Y-107614357D01*
X102235000Y-107451071D01*
X102150333Y-106471357D02*
X102150333Y-106689071D01*
X102235000Y-106797928D01*
X102319667Y-106852357D01*
X102573667Y-106961214D01*
X102912333Y-107015643D01*
X103589667Y-107015643D01*
X103759000Y-106961214D01*
X103843667Y-106906786D01*
X103928333Y-106797928D01*
X103928333Y-106580214D01*
X103843667Y-106471357D01*
X103759000Y-106416928D01*
X103589667Y-106362500D01*
X103166333Y-106362500D01*
X102997000Y-106416928D01*
X102912333Y-106471357D01*
X102827667Y-106580214D01*
X102827667Y-106797928D01*
X102912333Y-106906786D01*
X102997000Y-106961214D01*
X103166333Y-107015643D01*
X102912333Y-105709357D02*
X102827667Y-105818215D01*
X102743000Y-105872643D01*
X102573667Y-105927072D01*
X102489000Y-105927072D01*
X102319667Y-105872643D01*
X102235000Y-105818215D01*
X102150333Y-105709357D01*
X102150333Y-105491643D01*
X102235000Y-105382786D01*
X102319667Y-105328357D01*
X102489000Y-105273929D01*
X102573667Y-105273929D01*
X102743000Y-105328357D01*
X102827667Y-105382786D01*
X102912333Y-105491643D01*
X102912333Y-105709357D01*
X102997000Y-105818215D01*
X103081667Y-105872643D01*
X103251000Y-105927072D01*
X103589667Y-105927072D01*
X103759000Y-105872643D01*
X103843667Y-105818215D01*
X103928333Y-105709357D01*
X103928333Y-105491643D01*
X103843667Y-105382786D01*
X103759000Y-105328357D01*
X103589667Y-105273929D01*
X103251000Y-105273929D01*
X103081667Y-105328357D01*
X102997000Y-105382786D01*
X102912333Y-105491643D01*
X102912333Y-104620786D02*
X102827667Y-104729644D01*
X102743000Y-104784072D01*
X102573667Y-104838501D01*
X102489000Y-104838501D01*
X102319667Y-104784072D01*
X102235000Y-104729644D01*
X102150333Y-104620786D01*
X102150333Y-104403072D01*
X102235000Y-104294215D01*
X102319667Y-104239786D01*
X102489000Y-104185358D01*
X102573667Y-104185358D01*
X102743000Y-104239786D01*
X102827667Y-104294215D01*
X102912333Y-104403072D01*
X102912333Y-104620786D01*
X102997000Y-104729644D01*
X103081667Y-104784072D01*
X103251000Y-104838501D01*
X103589667Y-104838501D01*
X103759000Y-104784072D01*
X103843667Y-104729644D01*
X103928333Y-104620786D01*
X103928333Y-104403072D01*
X103843667Y-104294215D01*
X103759000Y-104239786D01*
X103589667Y-104185358D01*
X103251000Y-104185358D01*
X103081667Y-104239786D01*
X102997000Y-104294215D01*
X102912333Y-104403072D01*
D13*
D14*
X173754143Y-71555429D02*
X173754143Y-72789143D01*
X173808571Y-72934286D01*
X173863000Y-73006857D01*
X173971857Y-73079429D01*
X174189571Y-73079429D01*
X174298429Y-73006857D01*
X174352857Y-72934286D01*
X174407286Y-72789143D01*
X174407286Y-71555429D01*
X174842715Y-71555429D02*
X175604715Y-71555429D01*
X175114858Y-73079429D01*
D13*
D14*
X174425429Y-63890070D02*
X174425429Y-63128070D01*
X175949429Y-63617927D01*
X174933429Y-62202785D02*
X175949429Y-62202785D01*
X174352857Y-62474928D02*
X175441429Y-62747071D01*
X175441429Y-62039499D01*
X175949429Y-61059785D02*
X175949429Y-61604071D01*
X174425429Y-61604071D01*
X175876857Y-60733214D02*
X175949429Y-60569928D01*
X175949429Y-60297785D01*
X175876857Y-60188928D01*
X175804286Y-60134499D01*
X175659143Y-60080071D01*
X175514000Y-60080071D01*
X175368857Y-60134499D01*
X175296286Y-60188928D01*
X175223714Y-60297785D01*
X175151143Y-60515499D01*
X175078571Y-60624357D01*
X175006000Y-60678785D01*
X174860857Y-60733214D01*
X174715714Y-60733214D01*
X174570571Y-60678785D01*
X174498000Y-60624357D01*
X174425429Y-60515499D01*
X174425429Y-60243357D01*
X174498000Y-60080071D01*
X175949429Y-58991500D02*
X175949429Y-59644643D01*
X175949429Y-59318071D02*
X174425429Y-59318071D01*
X174643143Y-59426928D01*
X174788286Y-59535786D01*
X174860857Y-59644643D01*
X174425429Y-58610500D02*
X174425429Y-57902929D01*
X175006000Y-58283929D01*
X175006000Y-58120643D01*
X175078571Y-58011786D01*
X175151143Y-57957357D01*
X175296286Y-57902929D01*
X175659143Y-57902929D01*
X175804286Y-57957357D01*
X175876857Y-58011786D01*
X175949429Y-58120643D01*
X175949429Y-58447215D01*
X175876857Y-58556072D01*
X175804286Y-58610500D01*
X175078571Y-57249786D02*
X175006000Y-57358644D01*
X174933429Y-57413072D01*
X174788286Y-57467501D01*
X174715714Y-57467501D01*
X174570571Y-57413072D01*
X174498000Y-57358644D01*
X174425429Y-57249786D01*
X174425429Y-57032072D01*
X174498000Y-56923215D01*
X174570571Y-56868786D01*
X174715714Y-56814358D01*
X174788286Y-56814358D01*
X174933429Y-56868786D01*
X175006000Y-56923215D01*
X175078571Y-57032072D01*
X175078571Y-57249786D01*
X175151143Y-57358644D01*
X175223714Y-57413072D01*
X175368857Y-57467501D01*
X175659143Y-57467501D01*
X175804286Y-57413072D01*
X175876857Y-57358644D01*
X175949429Y-57249786D01*
X175949429Y-57032072D01*
X175876857Y-56923215D01*
X175804286Y-56868786D01*
X175659143Y-56814358D01*
X175368857Y-56814358D01*
X175223714Y-56868786D01*
X175151143Y-56923215D01*
X175078571Y-57032072D01*
D13*
D14*
X149624143Y-71555429D02*
X149624143Y-72789143D01*
X149678571Y-72934286D01*
X149733000Y-73006857D01*
X149841857Y-73079429D01*
X150059571Y-73079429D01*
X150168429Y-73006857D01*
X150222857Y-72934286D01*
X150277286Y-72789143D01*
X150277286Y-71555429D01*
X150984858Y-72208571D02*
X150876000Y-72136000D01*
X150821572Y-72063429D01*
X150767143Y-71918286D01*
X150767143Y-71845714D01*
X150821572Y-71700571D01*
X150876000Y-71628000D01*
X150984858Y-71555429D01*
X151202572Y-71555429D01*
X151311429Y-71628000D01*
X151365858Y-71700571D01*
X151420286Y-71845714D01*
X151420286Y-71918286D01*
X151365858Y-72063429D01*
X151311429Y-72136000D01*
X151202572Y-72208571D01*
X150984858Y-72208571D01*
X150876000Y-72281143D01*
X150821572Y-72353714D01*
X150767143Y-72498857D01*
X150767143Y-72789143D01*
X150821572Y-72934286D01*
X150876000Y-73006857D01*
X150984858Y-73079429D01*
X151202572Y-73079429D01*
X151311429Y-73006857D01*
X151365858Y-72934286D01*
X151420286Y-72789143D01*
X151420286Y-72498857D01*
X151365858Y-72353714D01*
X151311429Y-72281143D01*
X151202572Y-72208571D01*
D13*
D14*
X152835429Y-69695784D02*
X152835429Y-68933784D01*
X154359429Y-69423641D01*
X153343429Y-68008499D02*
X154359429Y-68008499D01*
X152762857Y-68280642D02*
X153851429Y-68552785D01*
X153851429Y-67845213D01*
X154359429Y-66865499D02*
X154359429Y-67409785D01*
X152835429Y-67409785D01*
X154286857Y-66538928D02*
X154359429Y-66375642D01*
X154359429Y-66103499D01*
X154286857Y-65994642D01*
X154214286Y-65940213D01*
X154069143Y-65885785D01*
X153924000Y-65885785D01*
X153778857Y-65940213D01*
X153706286Y-65994642D01*
X153633714Y-66103499D01*
X153561143Y-66321213D01*
X153488571Y-66430071D01*
X153416000Y-66484499D01*
X153270857Y-66538928D01*
X153125714Y-66538928D01*
X152980571Y-66484499D01*
X152908000Y-66430071D01*
X152835429Y-66321213D01*
X152835429Y-66049071D01*
X152908000Y-65885785D01*
X152835429Y-65504785D02*
X152835429Y-64797214D01*
X153416000Y-65178214D01*
X153416000Y-65014928D01*
X153488571Y-64906071D01*
X153561143Y-64851642D01*
X153706286Y-64797214D01*
X154069143Y-64797214D01*
X154214286Y-64851642D01*
X154286857Y-64906071D01*
X154359429Y-65014928D01*
X154359429Y-65341500D01*
X154286857Y-65450357D01*
X154214286Y-65504785D01*
X152980571Y-64361786D02*
X152908000Y-64307357D01*
X152835429Y-64198500D01*
X152835429Y-63926357D01*
X152908000Y-63817500D01*
X152980571Y-63763071D01*
X153125714Y-63708643D01*
X153270857Y-63708643D01*
X153488571Y-63763071D01*
X154359429Y-64416214D01*
X154359429Y-63708643D01*
D13*
D14*
X157244143Y-119041333D02*
X157244143Y-120480667D01*
X157298571Y-120650000D01*
X157353000Y-120734667D01*
X157461857Y-120819333D01*
X157679571Y-120819333D01*
X157788429Y-120734667D01*
X157842857Y-120650000D01*
X157897286Y-120480667D01*
X157897286Y-119041333D01*
X158496000Y-120819333D02*
X158713715Y-120819333D01*
X158822572Y-120734667D01*
X158877000Y-120650000D01*
X158985858Y-120396000D01*
X159040286Y-120057333D01*
X159040286Y-119380000D01*
X158985858Y-119210667D01*
X158931429Y-119126000D01*
X158822572Y-119041333D01*
X158604858Y-119041333D01*
X158496000Y-119126000D01*
X158441572Y-119210667D01*
X158387143Y-119380000D01*
X158387143Y-119803333D01*
X158441572Y-119972667D01*
X158496000Y-120057333D01*
X158604858Y-120142000D01*
X158822572Y-120142000D01*
X158931429Y-120057333D01*
X158985858Y-119972667D01*
X159040286Y-119803333D01*
D13*
D14*
X160316333Y-99450070D02*
X160316333Y-98688070D01*
X162094333Y-99177927D01*
X160909000Y-97762785D02*
X162094333Y-97762785D01*
X160231667Y-98034928D02*
X161501667Y-98307071D01*
X161501667Y-97599499D01*
X162094333Y-96619785D02*
X162094333Y-97164071D01*
X160316333Y-97164071D01*
X162009667Y-96293214D02*
X162094333Y-96129928D01*
X162094333Y-95857785D01*
X162009667Y-95748928D01*
X161925000Y-95694499D01*
X161755667Y-95640071D01*
X161586333Y-95640071D01*
X161417000Y-95694499D01*
X161332333Y-95748928D01*
X161247667Y-95857785D01*
X161163000Y-96075499D01*
X161078333Y-96184357D01*
X160993667Y-96238785D01*
X160824333Y-96293214D01*
X160655000Y-96293214D01*
X160485667Y-96238785D01*
X160401000Y-96184357D01*
X160316333Y-96075499D01*
X160316333Y-95803357D01*
X160401000Y-95640071D01*
X160316333Y-94660357D02*
X160316333Y-94878071D01*
X160401000Y-94986928D01*
X160485667Y-95041357D01*
X160739667Y-95150214D01*
X161078333Y-95204643D01*
X161755667Y-95204643D01*
X161925000Y-95150214D01*
X162009667Y-95095786D01*
X162094333Y-94986928D01*
X162094333Y-94769214D01*
X162009667Y-94660357D01*
X161925000Y-94605928D01*
X161755667Y-94551500D01*
X161332333Y-94551500D01*
X161163000Y-94605928D01*
X161078333Y-94660357D01*
X160993667Y-94769214D01*
X160993667Y-94986928D01*
X161078333Y-95095786D01*
X161163000Y-95150214D01*
X161332333Y-95204643D01*
X161078333Y-93898357D02*
X160993667Y-94007215D01*
X160909000Y-94061643D01*
X160739667Y-94116072D01*
X160655000Y-94116072D01*
X160485667Y-94061643D01*
X160401000Y-94007215D01*
X160316333Y-93898357D01*
X160316333Y-93680643D01*
X160401000Y-93571786D01*
X160485667Y-93517357D01*
X160655000Y-93462929D01*
X160739667Y-93462929D01*
X160909000Y-93517357D01*
X160993667Y-93571786D01*
X161078333Y-93680643D01*
X161078333Y-93898357D01*
X161163000Y-94007215D01*
X161247667Y-94061643D01*
X161417000Y-94116072D01*
X161755667Y-94116072D01*
X161925000Y-94061643D01*
X162009667Y-94007215D01*
X162094333Y-93898357D01*
X162094333Y-93680643D01*
X162009667Y-93571786D01*
X161925000Y-93517357D01*
X161755667Y-93462929D01*
X161417000Y-93462929D01*
X161247667Y-93517357D01*
X161163000Y-93571786D01*
X161078333Y-93680643D01*
X161078333Y-92809786D02*
X160993667Y-92918644D01*
X160909000Y-92973072D01*
X160739667Y-93027501D01*
X160655000Y-93027501D01*
X160485667Y-92973072D01*
X160401000Y-92918644D01*
X160316333Y-92809786D01*
X160316333Y-92592072D01*
X160401000Y-92483215D01*
X160485667Y-92428786D01*
X160655000Y-92374358D01*
X160739667Y-92374358D01*
X160909000Y-92428786D01*
X160993667Y-92483215D01*
X161078333Y-92592072D01*
X161078333Y-92809786D01*
X161163000Y-92918644D01*
X161247667Y-92973072D01*
X161417000Y-93027501D01*
X161755667Y-93027501D01*
X161925000Y-92973072D01*
X162009667Y-92918644D01*
X162094333Y-92809786D01*
X162094333Y-92592072D01*
X162009667Y-92483215D01*
X161925000Y-92428786D01*
X161755667Y-92374358D01*
X161417000Y-92374358D01*
X161247667Y-92428786D01*
X161163000Y-92483215D01*
X161078333Y-92592072D01*
D13*
D14*
X116694858Y-119041333D02*
X116694858Y-120480667D01*
X116749286Y-120650000D01*
X116803715Y-120734667D01*
X116912572Y-120819333D01*
X117130286Y-120819333D01*
X117239144Y-120734667D01*
X117293572Y-120650000D01*
X117348001Y-120480667D01*
X117348001Y-119041333D01*
X118491001Y-120819333D02*
X117837858Y-120819333D01*
X118164430Y-120819333D02*
X118164430Y-119041333D01*
X118055573Y-119295333D01*
X117946715Y-119464667D01*
X117837858Y-119549333D01*
X119198572Y-119041333D02*
X119307429Y-119041333D01*
X119416286Y-119126000D01*
X119470715Y-119210667D01*
X119525144Y-119380000D01*
X119579572Y-119718667D01*
X119579572Y-120142000D01*
X119525144Y-120480667D01*
X119470715Y-120650000D01*
X119416286Y-120734667D01*
X119307429Y-120819333D01*
X119198572Y-120819333D01*
X119089715Y-120734667D01*
X119035286Y-120650000D01*
X118980858Y-120480667D01*
X118926429Y-120142000D01*
X118926429Y-119718667D01*
X118980858Y-119380000D01*
X119035286Y-119210667D01*
X119089715Y-119126000D01*
X119198572Y-119041333D01*
D13*
X117940667Y-112733665D02*
X117856000Y-112648999D01*
X117771333Y-112479665D01*
X117771333Y-112056332D01*
X117856000Y-111886999D01*
X117940667Y-111802332D01*
X118110000Y-111717665D01*
X118279333Y-111717665D01*
X118533333Y-111802332D01*
X119549333Y-112818332D01*
X119549333Y-111717665D01*
X118533333Y-110701666D02*
X118448667Y-110870999D01*
X118364000Y-110955666D01*
X118194667Y-111040332D01*
X118110000Y-111040332D01*
X117940667Y-110955666D01*
X117856000Y-110870999D01*
X117771333Y-110701666D01*
X117771333Y-110362999D01*
X117856000Y-110193666D01*
X117940667Y-110108999D01*
X118110000Y-110024332D01*
X118194667Y-110024332D01*
X118364000Y-110108999D01*
X118448667Y-110193666D01*
X118533333Y-110362999D01*
X118533333Y-110701666D01*
X118618000Y-110870999D01*
X118702667Y-110955666D01*
X118872000Y-111040332D01*
X119210667Y-111040332D01*
X119380000Y-110955666D01*
X119464667Y-110870999D01*
X119549333Y-110701666D01*
X119549333Y-110362999D01*
X119464667Y-110193666D01*
X119380000Y-110108999D01*
X119210667Y-110024332D01*
X118872000Y-110024332D01*
X118702667Y-110108999D01*
X118618000Y-110193666D01*
X118533333Y-110362999D01*
X119380000Y-108246333D02*
X119464667Y-108330999D01*
X119549333Y-108584999D01*
X119549333Y-108754333D01*
X119464667Y-109008333D01*
X119295333Y-109177666D01*
X119126000Y-109262333D01*
X118787333Y-109346999D01*
X118533333Y-109346999D01*
X118194667Y-109262333D01*
X118025333Y-109177666D01*
X117856000Y-109008333D01*
X117771333Y-108754333D01*
X117771333Y-108584999D01*
X117856000Y-108330999D01*
X117940667Y-108246333D01*
X117940667Y-107568999D02*
X117856000Y-107484333D01*
X117771333Y-107314999D01*
X117771333Y-106891666D01*
X117856000Y-106722333D01*
X117940667Y-106637666D01*
X118110000Y-106552999D01*
X118279333Y-106552999D01*
X118533333Y-106637666D01*
X119549333Y-107653666D01*
X119549333Y-106552999D01*
X117771333Y-104944333D02*
X117771333Y-105791000D01*
X118618000Y-105875666D01*
X118533333Y-105791000D01*
X118448667Y-105621666D01*
X118448667Y-105198333D01*
X118533333Y-105029000D01*
X118618000Y-104944333D01*
X118787333Y-104859666D01*
X119210667Y-104859666D01*
X119380000Y-104944333D01*
X119464667Y-105029000D01*
X119549333Y-105198333D01*
X119549333Y-105621666D01*
X119464667Y-105791000D01*
X119380000Y-105875666D01*
X117771333Y-103335667D02*
X117771333Y-103674333D01*
X117856000Y-103843667D01*
X117940667Y-103928333D01*
X118194667Y-104097667D01*
X118533333Y-104182333D01*
X119210667Y-104182333D01*
X119380000Y-104097667D01*
X119464667Y-104013000D01*
X119549333Y-103843667D01*
X119549333Y-103505000D01*
X119464667Y-103335667D01*
X119380000Y-103251000D01*
X119210667Y-103166333D01*
X118787333Y-103166333D01*
X118618000Y-103251000D01*
X118533333Y-103335667D01*
X118448667Y-103505000D01*
X118448667Y-103843667D01*
X118533333Y-104013000D01*
X118618000Y-104097667D01*
X118787333Y-104182333D01*
D10*
X134453334Y-85542381D02*
X134120000Y-85066190D01*
X133881905Y-85542381D02*
X133881905Y-84542381D01*
X134262858Y-84542381D01*
X134358096Y-84590000D01*
X134405715Y-84637619D01*
X134453334Y-84732857D01*
X134453334Y-84875714D01*
X134405715Y-84970952D01*
X134358096Y-85018571D01*
X134262858Y-85066190D01*
X133881905Y-85066190D01*
X134786667Y-84542381D02*
X135453334Y-84542381D01*
X135024762Y-85542381D01*
X141549524Y-85542381D02*
X140978095Y-85542381D01*
X141263809Y-85542381D02*
X141263809Y-84542381D01*
X141168571Y-84685238D01*
X141073333Y-84780476D01*
X140978095Y-84828095D01*
X142168571Y-84542381D02*
X142263810Y-84542381D01*
X142359048Y-84590000D01*
X142406667Y-84637619D01*
X142454286Y-84732857D01*
X142501905Y-84923333D01*
X142501905Y-85161429D01*
X142454286Y-85351905D01*
X142406667Y-85447143D01*
X142359048Y-85494762D01*
X142263810Y-85542381D01*
X142168571Y-85542381D01*
X142073333Y-85494762D01*
X142025714Y-85447143D01*
X141978095Y-85351905D01*
X141930476Y-85161429D01*
X141930476Y-84923333D01*
X141978095Y-84732857D01*
X142025714Y-84637619D01*
X142073333Y-84590000D01*
X142168571Y-84542381D01*
X142930476Y-85542381D02*
X142930476Y-84542381D01*
X143501905Y-85542381D02*
X143073333Y-84970952D01*
X143501905Y-84542381D02*
X142930476Y-85113810D01*
X134453334Y-88082381D02*
X134120000Y-87606190D01*
X133881905Y-88082381D02*
X133881905Y-87082381D01*
X134262858Y-87082381D01*
X134358096Y-87130000D01*
X134405715Y-87177619D01*
X134453334Y-87272857D01*
X134453334Y-87415714D01*
X134405715Y-87510952D01*
X134358096Y-87558571D01*
X134262858Y-87606190D01*
X133881905Y-87606190D01*
X134834286Y-87177619D02*
X134881905Y-87130000D01*
X134977143Y-87082381D01*
X135215239Y-87082381D01*
X135310477Y-87130000D01*
X135358096Y-87177619D01*
X135405715Y-87272857D01*
X135405715Y-87368095D01*
X135358096Y-87510952D01*
X134786667Y-88082381D01*
X135405715Y-88082381D01*
X141549524Y-88082381D02*
X140978095Y-88082381D01*
X141263809Y-88082381D02*
X141263809Y-87082381D01*
X141168571Y-87225238D01*
X141073333Y-87320476D01*
X140978095Y-87368095D01*
X142168571Y-87082381D02*
X142263810Y-87082381D01*
X142359048Y-87130000D01*
X142406667Y-87177619D01*
X142454286Y-87272857D01*
X142501905Y-87463333D01*
X142501905Y-87701429D01*
X142454286Y-87891905D01*
X142406667Y-87987143D01*
X142359048Y-88034762D01*
X142263810Y-88082381D01*
X142168571Y-88082381D01*
X142073333Y-88034762D01*
X142025714Y-87987143D01*
X141978095Y-87891905D01*
X141930476Y-87701429D01*
X141930476Y-87463333D01*
X141978095Y-87272857D01*
X142025714Y-87177619D01*
X142073333Y-87130000D01*
X142168571Y-87082381D01*
X142930476Y-88082381D02*
X142930476Y-87082381D01*
X143501905Y-88082381D02*
X143073333Y-87510952D01*
X143501905Y-87082381D02*
X142930476Y-87653810D01*
X94583334Y-118562381D02*
X94250000Y-118086190D01*
X94011905Y-118562381D02*
X94011905Y-117562381D01*
X94392858Y-117562381D01*
X94488096Y-117610000D01*
X94535715Y-117657619D01*
X94583334Y-117752857D01*
X94583334Y-117895714D01*
X94535715Y-117990952D01*
X94488096Y-118038571D01*
X94392858Y-118086190D01*
X94011905Y-118086190D01*
X95011905Y-118562381D02*
X95011905Y-117562381D01*
X95392858Y-117562381D01*
X95488096Y-117610000D01*
X95535715Y-117657619D01*
X95583334Y-117752857D01*
X95583334Y-117895714D01*
X95535715Y-117990952D01*
X95488096Y-118038571D01*
X95392858Y-118086190D01*
X95011905Y-118086190D01*
X96535715Y-118562381D02*
X95964286Y-118562381D01*
X96250000Y-118562381D02*
X96250000Y-117562381D01*
X96154762Y-117705238D01*
X96059524Y-117800476D01*
X95964286Y-117848095D01*
X150463334Y-118562381D02*
X150130000Y-118086190D01*
X149891905Y-118562381D02*
X149891905Y-117562381D01*
X150272858Y-117562381D01*
X150368096Y-117610000D01*
X150415715Y-117657619D01*
X150463334Y-117752857D01*
X150463334Y-117895714D01*
X150415715Y-117990952D01*
X150368096Y-118038571D01*
X150272858Y-118086190D01*
X149891905Y-118086190D01*
X150891905Y-118562381D02*
X150891905Y-117562381D01*
X151272858Y-117562381D01*
X151368096Y-117610000D01*
X151415715Y-117657619D01*
X151463334Y-117752857D01*
X151463334Y-117895714D01*
X151415715Y-117990952D01*
X151368096Y-118038571D01*
X151272858Y-118086190D01*
X150891905Y-118086190D01*
X151844286Y-117657619D02*
X151891905Y-117610000D01*
X151987143Y-117562381D01*
X152225239Y-117562381D01*
X152320477Y-117610000D01*
X152368096Y-117657619D01*
X152415715Y-117752857D01*
X152415715Y-117848095D01*
X152368096Y-117990952D01*
X151796667Y-118562381D01*
X152415715Y-118562381D01*
D13*
X137033000Y-119996857D02*
X137250714Y-120069429D01*
X137613571Y-120069429D01*
X137758714Y-119996857D01*
X137831285Y-119924286D01*
X137903857Y-119779143D01*
X137903857Y-119634000D01*
X137831285Y-119488857D01*
X137758714Y-119416286D01*
X137613571Y-119343714D01*
X137323285Y-119271143D01*
X137178143Y-119198571D01*
X137105571Y-119126000D01*
X137033000Y-118980857D01*
X137033000Y-118835714D01*
X137105571Y-118690571D01*
X137178143Y-118618000D01*
X137323285Y-118545429D01*
X137686143Y-118545429D01*
X137903857Y-118618000D01*
X138411857Y-118545429D02*
X138774714Y-120069429D01*
X139065000Y-118980857D01*
X139355286Y-120069429D01*
X139718143Y-118545429D01*
X141097000Y-120069429D02*
X140226143Y-120069429D01*
X140661571Y-120069429D02*
X140661571Y-118545429D01*
X140516428Y-118763143D01*
X140371286Y-118908286D01*
X140226143Y-118980857D01*
X138321143Y-94669429D02*
X137813143Y-93943714D01*
X137450286Y-94669429D02*
X137450286Y-93145429D01*
X138030858Y-93145429D01*
X138176000Y-93218000D01*
X138248572Y-93290571D01*
X138321143Y-93435714D01*
X138321143Y-93653429D01*
X138248572Y-93798571D01*
X138176000Y-93871143D01*
X138030858Y-93943714D01*
X137450286Y-93943714D01*
X139264572Y-93145429D02*
X139554858Y-93145429D01*
X139700000Y-93218000D01*
X139845143Y-93363143D01*
X139917715Y-93653429D01*
X139917715Y-94161429D01*
X139845143Y-94451714D01*
X139700000Y-94596857D01*
X139554858Y-94669429D01*
X139264572Y-94669429D01*
X139119429Y-94596857D01*
X138974286Y-94451714D01*
X138901715Y-94161429D01*
X138901715Y-93653429D01*
X138974286Y-93363143D01*
X139119429Y-93218000D01*
X139264572Y-93145429D01*
X140570857Y-94669429D02*
X140570857Y-93145429D01*
X141078857Y-94234000D01*
X141586857Y-93145429D01*
X141586857Y-94669429D01*
X143764000Y-93145429D02*
X144054286Y-93145429D01*
X144199428Y-93218000D01*
X144344571Y-93363143D01*
X144417143Y-93653429D01*
X144417143Y-94161429D01*
X144344571Y-94451714D01*
X144199428Y-94596857D01*
X144054286Y-94669429D01*
X143764000Y-94669429D01*
X143618857Y-94596857D01*
X143473714Y-94451714D01*
X143401143Y-94161429D01*
X143401143Y-93653429D01*
X143473714Y-93363143D01*
X143618857Y-93218000D01*
X143764000Y-93145429D01*
X145070285Y-94669429D02*
X145070285Y-93145429D01*
X145650857Y-93145429D01*
X145795999Y-93218000D01*
X145868571Y-93290571D01*
X145941142Y-93435714D01*
X145941142Y-93653429D01*
X145868571Y-93798571D01*
X145795999Y-93871143D01*
X145650857Y-93943714D01*
X145070285Y-93943714D01*
X146376571Y-93145429D02*
X147247428Y-93145429D01*
X146811999Y-94669429D02*
X146811999Y-93145429D01*
X81153000Y-119996857D02*
X81370714Y-120069429D01*
X81733571Y-120069429D01*
X81878714Y-119996857D01*
X81951285Y-119924286D01*
X82023857Y-119779143D01*
X82023857Y-119634000D01*
X81951285Y-119488857D01*
X81878714Y-119416286D01*
X81733571Y-119343714D01*
X81443285Y-119271143D01*
X81298143Y-119198571D01*
X81225571Y-119126000D01*
X81153000Y-118980857D01*
X81153000Y-118835714D01*
X81225571Y-118690571D01*
X81298143Y-118618000D01*
X81443285Y-118545429D01*
X81806143Y-118545429D01*
X82023857Y-118618000D01*
X82531857Y-118545429D02*
X82894714Y-120069429D01*
X83185000Y-118980857D01*
X83475286Y-120069429D01*
X83838143Y-118545429D01*
X84346143Y-118690571D02*
X84418714Y-118618000D01*
X84563857Y-118545429D01*
X84926714Y-118545429D01*
X85071857Y-118618000D01*
X85144428Y-118690571D01*
X85217000Y-118835714D01*
X85217000Y-118980857D01*
X85144428Y-119198571D01*
X84273571Y-120069429D01*
X85217000Y-120069429D01*
X81243715Y-94669429D02*
X81243715Y-93145429D01*
X83058001Y-93072857D02*
X81751715Y-95032286D01*
X83856286Y-93145429D02*
X84146572Y-93145429D01*
X84291714Y-93218000D01*
X84436857Y-93363143D01*
X84509429Y-93653429D01*
X84509429Y-94161429D01*
X84436857Y-94451714D01*
X84291714Y-94596857D01*
X84146572Y-94669429D01*
X83856286Y-94669429D01*
X83711143Y-94596857D01*
X83566000Y-94451714D01*
X83493429Y-94161429D01*
X83493429Y-93653429D01*
X83566000Y-93363143D01*
X83711143Y-93218000D01*
X83856286Y-93145429D01*
X86251143Y-94234000D02*
X86976857Y-94234000D01*
X86106000Y-94669429D02*
X86614000Y-93145429D01*
X87122000Y-94669429D01*
X87630000Y-94669429D02*
X87630000Y-93145429D01*
X87992857Y-93145429D01*
X88210572Y-93218000D01*
X88355714Y-93363143D01*
X88428286Y-93508286D01*
X88500857Y-93798571D01*
X88500857Y-94016286D01*
X88428286Y-94306571D01*
X88355714Y-94451714D01*
X88210572Y-94596857D01*
X87992857Y-94669429D01*
X87630000Y-94669429D01*
X89154000Y-94669429D02*
X89154000Y-93145429D01*
X89516857Y-93145429D01*
X89734572Y-93218000D01*
X89879714Y-93363143D01*
X89952286Y-93508286D01*
X90024857Y-93798571D01*
X90024857Y-94016286D01*
X89952286Y-94306571D01*
X89879714Y-94451714D01*
X89734572Y-94596857D01*
X89516857Y-94669429D01*
X89154000Y-94669429D01*
X91548857Y-94669429D02*
X91040857Y-93943714D01*
X90678000Y-94669429D02*
X90678000Y-93145429D01*
X91258572Y-93145429D01*
X91403714Y-93218000D01*
X91476286Y-93290571D01*
X91548857Y-93435714D01*
X91548857Y-93653429D01*
X91476286Y-93798571D01*
X91403714Y-93871143D01*
X91258572Y-93943714D01*
X90678000Y-93943714D01*
D10*
X134453334Y-82907143D02*
X134405715Y-82954762D01*
X134262858Y-83002381D01*
X134167620Y-83002381D01*
X134024762Y-82954762D01*
X133929524Y-82859524D01*
X133881905Y-82764286D01*
X133834286Y-82573810D01*
X133834286Y-82430952D01*
X133881905Y-82240476D01*
X133929524Y-82145238D01*
X134024762Y-82050000D01*
X134167620Y-82002381D01*
X134262858Y-82002381D01*
X134405715Y-82050000D01*
X134453334Y-82097619D01*
X135310477Y-82002381D02*
X135120000Y-82002381D01*
X135024762Y-82050000D01*
X134977143Y-82097619D01*
X134881905Y-82240476D01*
X134834286Y-82430952D01*
X134834286Y-82811905D01*
X134881905Y-82907143D01*
X134929524Y-82954762D01*
X135024762Y-83002381D01*
X135215239Y-83002381D01*
X135310477Y-82954762D01*
X135358096Y-82907143D01*
X135405715Y-82811905D01*
X135405715Y-82573810D01*
X135358096Y-82478571D01*
X135310477Y-82430952D01*
X135215239Y-82383333D01*
X135024762Y-82383333D01*
X134929524Y-82430952D01*
X134881905Y-82478571D01*
X134834286Y-82573810D01*
X140597143Y-82002381D02*
X140692382Y-82002381D01*
X140787620Y-82050000D01*
X140835239Y-82097619D01*
X140882858Y-82192857D01*
X140930477Y-82383333D01*
X140930477Y-82621429D01*
X140882858Y-82811905D01*
X140835239Y-82907143D01*
X140787620Y-82954762D01*
X140692382Y-83002381D01*
X140597143Y-83002381D01*
X140501905Y-82954762D01*
X140454286Y-82907143D01*
X140406667Y-82811905D01*
X140359048Y-82621429D01*
X140359048Y-82383333D01*
X140406667Y-82192857D01*
X140454286Y-82097619D01*
X140501905Y-82050000D01*
X140597143Y-82002381D01*
X141359048Y-82907143D02*
X141406667Y-82954762D01*
X141359048Y-83002381D01*
X141311429Y-82954762D01*
X141359048Y-82907143D01*
X141359048Y-83002381D01*
X142359048Y-83002381D02*
X141787619Y-83002381D01*
X142073333Y-83002381D02*
X142073333Y-82002381D01*
X141978095Y-82145238D01*
X141882857Y-82240476D01*
X141787619Y-82288095D01*
X143216191Y-82335714D02*
X143216191Y-83002381D01*
X142787619Y-82335714D02*
X142787619Y-82859524D01*
X142835238Y-82954762D01*
X142930476Y-83002381D01*
X143073334Y-83002381D01*
X143168572Y-82954762D01*
X143216191Y-82907143D01*
X144025715Y-82478571D02*
X143692381Y-82478571D01*
X143692381Y-83002381D02*
X143692381Y-82002381D01*
X144168572Y-82002381D01*
X81907143Y-128627143D02*
X81859524Y-128674762D01*
X81716667Y-128722381D01*
X81621429Y-128722381D01*
X81478571Y-128674762D01*
X81383333Y-128579524D01*
X81335714Y-128484286D01*
X81288095Y-128293810D01*
X81288095Y-128150952D01*
X81335714Y-127960476D01*
X81383333Y-127865238D01*
X81478571Y-127770000D01*
X81621429Y-127722381D01*
X81716667Y-127722381D01*
X81859524Y-127770000D01*
X81907143Y-127817619D01*
X82859524Y-128722381D02*
X82288095Y-128722381D01*
X82573809Y-128722381D02*
X82573809Y-127722381D01*
X82478571Y-127865238D01*
X82383333Y-127960476D01*
X82288095Y-128008095D01*
X83811905Y-128722381D02*
X83240476Y-128722381D01*
X83526190Y-128722381D02*
X83526190Y-127722381D01*
X83430952Y-127865238D01*
X83335714Y-127960476D01*
X83240476Y-128008095D01*
X172616905Y-38552381D02*
X172616905Y-37552381D01*
X172855000Y-37552381D01*
X172997858Y-37600000D01*
X173093096Y-37695238D01*
X173140715Y-37790476D01*
X173188334Y-37980952D01*
X173188334Y-38123810D01*
X173140715Y-38314286D01*
X173093096Y-38409524D01*
X172997858Y-38504762D01*
X172855000Y-38552381D01*
X172616905Y-38552381D01*
X174140715Y-38552381D02*
X173569286Y-38552381D01*
X173855000Y-38552381D02*
X173855000Y-37552381D01*
X173759762Y-37695238D01*
X173664524Y-37790476D01*
X173569286Y-37838095D01*
D15*
X97431014Y-81569379D02*
X97431014Y-82848450D01*
X97379730Y-83104264D01*
X97277162Y-83274807D01*
X97123311Y-83360079D01*
X97020743Y-83360079D01*
X98507974Y-83360079D02*
X97892568Y-83360079D01*
X98200271Y-83360079D02*
X98200271Y-81569379D01*
X98097703Y-81825193D01*
X97995136Y-81995736D01*
X97892568Y-82081007D01*
X145691014Y-42707379D02*
X145691014Y-43986450D01*
X145639730Y-44242264D01*
X145537162Y-44412807D01*
X145383311Y-44498079D01*
X145280743Y-44498079D01*
X146152568Y-42877921D02*
X146203852Y-42792650D01*
X146306420Y-42707379D01*
X146562839Y-42707379D01*
X146665406Y-42792650D01*
X146716690Y-42877921D01*
X146767974Y-43048464D01*
X146767974Y-43219007D01*
X146716690Y-43474821D01*
X146101284Y-44498079D01*
X146767974Y-44498079D01*
X153311014Y-42707379D02*
X153311014Y-43986450D01*
X153259730Y-44242264D01*
X153157162Y-44412807D01*
X153003311Y-44498079D01*
X152900743Y-44498079D01*
X153721284Y-42707379D02*
X154387974Y-42707379D01*
X154028987Y-43389550D01*
X154182839Y-43389550D01*
X154285406Y-43474821D01*
X154336690Y-43560093D01*
X154387974Y-43730636D01*
X154387974Y-44156993D01*
X154336690Y-44327536D01*
X154285406Y-44412807D01*
X154182839Y-44498079D01*
X153875136Y-44498079D01*
X153772568Y-44412807D01*
X153721284Y-44327536D01*
D16*
X99991333Y-128348619D02*
X99991333Y-129074333D01*
X99942953Y-129219476D01*
X99846191Y-129316238D01*
X99701048Y-129364619D01*
X99604286Y-129364619D01*
X100910571Y-128687286D02*
X100910571Y-129364619D01*
X100668667Y-128300238D02*
X100426762Y-129025952D01*
X101055714Y-129025952D01*
X104127905Y-121744619D02*
X104127905Y-120728619D01*
X104611715Y-121744619D02*
X104611715Y-120728619D01*
X105192286Y-121744619D01*
X105192286Y-120728619D01*
X105530953Y-120728619D02*
X106111524Y-120728619D01*
X105821239Y-121744619D02*
X105821239Y-120728619D01*
X106450191Y-121212429D02*
X106788857Y-121212429D01*
X106934000Y-121744619D02*
X106450191Y-121744619D01*
X106450191Y-120728619D01*
X106934000Y-120728619D01*
X107950000Y-121744619D02*
X107611334Y-121260810D01*
X107369429Y-121744619D02*
X107369429Y-120728619D01*
X107756476Y-120728619D01*
X107853238Y-120777000D01*
X107901619Y-120825381D01*
X107950000Y-120922143D01*
X107950000Y-121067286D01*
X107901619Y-121164048D01*
X107853238Y-121212429D01*
X107756476Y-121260810D01*
X107369429Y-121260810D01*
X108966000Y-121744619D02*
X108627334Y-121260810D01*
X108385429Y-121744619D02*
X108385429Y-120728619D01*
X108772476Y-120728619D01*
X108869238Y-120777000D01*
X108917619Y-120825381D01*
X108966000Y-120922143D01*
X108966000Y-121067286D01*
X108917619Y-121164048D01*
X108869238Y-121212429D01*
X108772476Y-121260810D01*
X108385429Y-121260810D01*
X109401429Y-120728619D02*
X109401429Y-121551095D01*
X109449810Y-121647857D01*
X109498191Y-121696238D01*
X109594953Y-121744619D01*
X109788476Y-121744619D01*
X109885238Y-121696238D01*
X109933619Y-121647857D01*
X109982000Y-121551095D01*
X109982000Y-120728619D01*
X110465810Y-121744619D02*
X110465810Y-120728619D01*
X110852857Y-120728619D01*
X110949619Y-120777000D01*
X110998000Y-120825381D01*
X111046381Y-120922143D01*
X111046381Y-121067286D01*
X110998000Y-121164048D01*
X110949619Y-121212429D01*
X110852857Y-121260810D01*
X110465810Y-121260810D01*
X111336667Y-120728619D02*
X111917238Y-120728619D01*
X111626953Y-121744619D02*
X111626953Y-120728619D01*
D10*
X185888334Y-63317381D02*
X185555000Y-62841190D01*
X185316905Y-63317381D02*
X185316905Y-62317381D01*
X185697858Y-62317381D01*
X185793096Y-62365000D01*
X185840715Y-62412619D01*
X185888334Y-62507857D01*
X185888334Y-62650714D01*
X185840715Y-62745952D01*
X185793096Y-62793571D01*
X185697858Y-62841190D01*
X185316905Y-62841190D01*
X186745477Y-62650714D02*
X186745477Y-63317381D01*
X186507381Y-62269762D02*
X186269286Y-62984048D01*
X186888334Y-62984048D01*
X185840714Y-56506904D02*
X186507381Y-56506904D01*
X185459762Y-56745000D02*
X186174048Y-56983095D01*
X186174048Y-56364047D01*
X185507381Y-56078333D02*
X185507381Y-55411666D01*
X186507381Y-55840238D01*
X185507381Y-54840238D02*
X185507381Y-54744999D01*
X185555000Y-54649761D01*
X185602619Y-54602142D01*
X185697857Y-54554523D01*
X185888333Y-54506904D01*
X186126429Y-54506904D01*
X186316905Y-54554523D01*
X186412143Y-54602142D01*
X186459762Y-54649761D01*
X186507381Y-54744999D01*
X186507381Y-54840238D01*
X186459762Y-54935476D01*
X186412143Y-54983095D01*
X186316905Y-55030714D01*
X186126429Y-55078333D01*
X185888333Y-55078333D01*
X185697857Y-55030714D01*
X185602619Y-54983095D01*
X185555000Y-54935476D01*
X185507381Y-54840238D01*
X186507381Y-53506904D02*
X186031190Y-53840238D01*
X186507381Y-54078333D02*
X185507381Y-54078333D01*
X185507381Y-53697380D01*
X185555000Y-53602142D01*
X185602619Y-53554523D01*
X185697857Y-53506904D01*
X185840714Y-53506904D01*
X185935952Y-53554523D01*
X185983571Y-53602142D01*
X186031190Y-53697380D01*
X186031190Y-54078333D01*
D15*
X183156014Y-42834379D02*
X183156014Y-44113450D01*
X183104730Y-44369264D01*
X183002162Y-44539807D01*
X182848311Y-44625079D01*
X182745743Y-44625079D01*
X184181690Y-42834379D02*
X183668852Y-42834379D01*
X183617568Y-43687093D01*
X183668852Y-43601821D01*
X183771420Y-43516550D01*
X184027839Y-43516550D01*
X184130406Y-43601821D01*
X184181690Y-43687093D01*
X184232974Y-43857636D01*
X184232974Y-44283993D01*
X184181690Y-44454536D01*
X184130406Y-44539807D01*
X184027839Y-44625079D01*
X183771420Y-44625079D01*
X183668852Y-44539807D01*
X183617568Y-44454536D01*
D10*
X148598095Y-120737381D02*
X149169524Y-120737381D01*
X148883809Y-121737381D02*
X148883809Y-120737381D01*
X149502857Y-121737381D02*
X149502857Y-120737381D01*
X149883810Y-120737381D01*
X149979048Y-120785000D01*
X150026667Y-120832619D01*
X150074286Y-120927857D01*
X150074286Y-121070714D01*
X150026667Y-121165952D01*
X149979048Y-121213571D01*
X149883810Y-121261190D01*
X149502857Y-121261190D01*
X151026667Y-121737381D02*
X150455238Y-121737381D01*
X150740952Y-121737381D02*
X150740952Y-120737381D01*
X150645714Y-120880238D01*
X150550476Y-120975476D01*
X150455238Y-121023095D01*
M02*
