G04 #@! TF.FileFunction,Soldermask,Bot*
%FSLAX46Y46*%
G04 Gerber Fmt 4.6, Leading zero omitted, Abs format (unit mm)*
G04 Created by KiCad (PCBNEW 4.0.0-stable) date Sat 14 May 2016 01:26:04 PM EDT*
%MOMM*%
G01*
G04 APERTURE LIST*
%ADD10C,0.150000*%
%ADD11C,2.506980*%
%ADD12R,2.794000X2.082800*%
%ADD13O,2.794000X2.082800*%
%ADD14R,1.905000X1.905000*%
%ADD15C,1.905000*%
%ADD16C,2.286000*%
%ADD17R,2.286000X7.620000*%
%ADD18R,2.235200X2.235200*%
%ADD19O,2.235200X2.235200*%
%ADD20C,1.808000*%
%ADD21R,1.808000X1.808000*%
%ADD22R,2.408000X2.508000*%
%ADD23C,2.408000*%
%ADD24C,4.572000*%
%ADD25R,2.032000X2.032000*%
%ADD26C,2.032000*%
%ADD27C,0.254000*%
G04 APERTURE END LIST*
D10*
D11*
X175260000Y-88265000D03*
X182880000Y-88265000D03*
X119380000Y-38100000D03*
X127000000Y-38100000D03*
X107950000Y-38100000D03*
X100330000Y-38100000D03*
X163830000Y-88265000D03*
X156210000Y-88265000D03*
X107950000Y-88265000D03*
X100330000Y-88265000D03*
X156210000Y-48260000D03*
X148590000Y-48260000D03*
X142240000Y-40640000D03*
X134620000Y-40640000D03*
X168275000Y-48260000D03*
X160655000Y-48260000D03*
X172720000Y-45720000D03*
X180340000Y-45720000D03*
X172720000Y-40640000D03*
X162560000Y-40640000D03*
D12*
X175260000Y-92710000D03*
D13*
X175260000Y-95250000D03*
X175260000Y-97790000D03*
X175260000Y-100330000D03*
X175260000Y-102870000D03*
X175260000Y-105410000D03*
X175260000Y-107950000D03*
X175260000Y-110490000D03*
X175260000Y-113030000D03*
X175260000Y-115570000D03*
X182880000Y-115570000D03*
X182880000Y-113030000D03*
X182880000Y-110490000D03*
X182880000Y-107950000D03*
X182880000Y-105410000D03*
X182880000Y-102870000D03*
X182880000Y-100330000D03*
X182880000Y-97790000D03*
X182880000Y-95250000D03*
X182880000Y-92710000D03*
D12*
X119380000Y-45085000D03*
D13*
X119380000Y-47625000D03*
X119380000Y-50165000D03*
X119380000Y-52705000D03*
X119380000Y-55245000D03*
X119380000Y-57785000D03*
X119380000Y-60325000D03*
X119380000Y-62865000D03*
X119380000Y-65405000D03*
X119380000Y-67945000D03*
X127000000Y-67945000D03*
X127000000Y-65405000D03*
X127000000Y-62865000D03*
X127000000Y-60325000D03*
X127000000Y-57785000D03*
X127000000Y-55245000D03*
X127000000Y-52705000D03*
X127000000Y-50165000D03*
X127000000Y-47625000D03*
X127000000Y-45085000D03*
D12*
X100330000Y-45085000D03*
D13*
X100330000Y-47625000D03*
X100330000Y-50165000D03*
X100330000Y-52705000D03*
X100330000Y-55245000D03*
X100330000Y-57785000D03*
X100330000Y-60325000D03*
X100330000Y-62865000D03*
X100330000Y-65405000D03*
X100330000Y-67945000D03*
X107950000Y-67945000D03*
X107950000Y-65405000D03*
X107950000Y-62865000D03*
X107950000Y-60325000D03*
X107950000Y-57785000D03*
X107950000Y-55245000D03*
X107950000Y-52705000D03*
X107950000Y-50165000D03*
X107950000Y-47625000D03*
X107950000Y-45085000D03*
D12*
X134620000Y-45085000D03*
D13*
X134620000Y-47625000D03*
X134620000Y-50165000D03*
X134620000Y-52705000D03*
X134620000Y-55245000D03*
X134620000Y-57785000D03*
X134620000Y-60325000D03*
X134620000Y-62865000D03*
X134620000Y-65405000D03*
X134620000Y-67945000D03*
X142240000Y-67945000D03*
X142240000Y-65405000D03*
X142240000Y-62865000D03*
X142240000Y-60325000D03*
X142240000Y-57785000D03*
X142240000Y-55245000D03*
X142240000Y-52705000D03*
X142240000Y-50165000D03*
X142240000Y-47625000D03*
X142240000Y-45085000D03*
D12*
X160655000Y-52705000D03*
D13*
X160655000Y-55245000D03*
X160655000Y-57785000D03*
X160655000Y-60325000D03*
X160655000Y-62865000D03*
X160655000Y-65405000D03*
X160655000Y-67945000D03*
X168275000Y-67945000D03*
X168275000Y-65405000D03*
X168275000Y-62865000D03*
X168275000Y-60325000D03*
X168275000Y-57785000D03*
X168275000Y-55245000D03*
X168275000Y-52705000D03*
D12*
X100330000Y-92710000D03*
D13*
X100330000Y-95250000D03*
X100330000Y-97790000D03*
X100330000Y-100330000D03*
X100330000Y-102870000D03*
X100330000Y-105410000D03*
X100330000Y-107950000D03*
X100330000Y-110490000D03*
X100330000Y-113030000D03*
X100330000Y-115570000D03*
X107950000Y-115570000D03*
X107950000Y-113030000D03*
X107950000Y-110490000D03*
X107950000Y-107950000D03*
X107950000Y-105410000D03*
X107950000Y-102870000D03*
X107950000Y-100330000D03*
X107950000Y-97790000D03*
X107950000Y-95250000D03*
X107950000Y-92710000D03*
D12*
X172720000Y-50165000D03*
D13*
X172720000Y-52705000D03*
X172720000Y-55245000D03*
X172720000Y-57785000D03*
X172720000Y-60325000D03*
X172720000Y-62865000D03*
X172720000Y-65405000D03*
X172720000Y-67945000D03*
X180340000Y-67945000D03*
X180340000Y-65405000D03*
X180340000Y-62865000D03*
X180340000Y-60325000D03*
X180340000Y-57785000D03*
X180340000Y-55245000D03*
X180340000Y-52705000D03*
X180340000Y-50165000D03*
D12*
X148590000Y-52705000D03*
D13*
X148590000Y-55245000D03*
X148590000Y-57785000D03*
X148590000Y-60325000D03*
X148590000Y-62865000D03*
X148590000Y-65405000D03*
X148590000Y-67945000D03*
X156210000Y-67945000D03*
X156210000Y-65405000D03*
X156210000Y-62865000D03*
X156210000Y-60325000D03*
X156210000Y-57785000D03*
X156210000Y-55245000D03*
X156210000Y-52705000D03*
D12*
X156210000Y-92710000D03*
D13*
X156210000Y-95250000D03*
X156210000Y-97790000D03*
X156210000Y-100330000D03*
X156210000Y-102870000D03*
X156210000Y-105410000D03*
X156210000Y-107950000D03*
X156210000Y-110490000D03*
X156210000Y-113030000D03*
X156210000Y-115570000D03*
X163830000Y-115570000D03*
X163830000Y-113030000D03*
X163830000Y-110490000D03*
X163830000Y-107950000D03*
X163830000Y-105410000D03*
X163830000Y-102870000D03*
X163830000Y-100330000D03*
X163830000Y-97790000D03*
X163830000Y-95250000D03*
X163830000Y-92710000D03*
D12*
X115570000Y-82550000D03*
D13*
X115570000Y-85090000D03*
X115570000Y-87630000D03*
X115570000Y-90170000D03*
X115570000Y-92710000D03*
X115570000Y-95250000D03*
X115570000Y-97790000D03*
X115570000Y-100330000D03*
X115570000Y-102870000D03*
X115570000Y-105410000D03*
X115570000Y-107950000D03*
X115570000Y-110490000D03*
X115570000Y-113030000D03*
X115570000Y-115570000D03*
X130810000Y-115570000D03*
X130810000Y-113030000D03*
X130810000Y-110490000D03*
X130810000Y-107950000D03*
X130810000Y-105410000D03*
X130810000Y-102870000D03*
X130810000Y-100330000D03*
X130810000Y-97790000D03*
X130810000Y-95250000D03*
X130810000Y-92710000D03*
X130810000Y-90170000D03*
X130810000Y-87630000D03*
X130810000Y-85090000D03*
X130810000Y-82550000D03*
D11*
X147320000Y-85090000D03*
X137160000Y-85090000D03*
X137160000Y-87630000D03*
X147320000Y-87630000D03*
D14*
X95250000Y-92710000D03*
D15*
X95250000Y-95250000D03*
X95250000Y-97790000D03*
X95250000Y-100330000D03*
X95250000Y-102870000D03*
X95250000Y-105410000D03*
X95250000Y-107950000D03*
X95250000Y-110490000D03*
X95250000Y-113030000D03*
X95250000Y-115570000D03*
D14*
X151130000Y-92710000D03*
D15*
X151130000Y-95250000D03*
X151130000Y-97790000D03*
X151130000Y-100330000D03*
X151130000Y-102870000D03*
X151130000Y-105410000D03*
X151130000Y-107950000D03*
X151130000Y-110490000D03*
X151130000Y-113030000D03*
X151130000Y-115570000D03*
D16*
X138430000Y-97790000D03*
X138430000Y-100330000D03*
X138430000Y-102870000D03*
X138430000Y-105410000D03*
X138430000Y-107950000D03*
X138430000Y-110490000D03*
X138430000Y-113030000D03*
X138430000Y-115570000D03*
X146050000Y-115570000D03*
X146050000Y-113030000D03*
X146050000Y-110490000D03*
X146050000Y-107950000D03*
X146050000Y-105410000D03*
X146050000Y-102870000D03*
X146050000Y-100330000D03*
X146050000Y-97790000D03*
X82550000Y-97790000D03*
X82550000Y-100330000D03*
X82550000Y-102870000D03*
X82550000Y-105410000D03*
X82550000Y-107950000D03*
X82550000Y-110490000D03*
X82550000Y-113030000D03*
X82550000Y-115570000D03*
X90170000Y-115570000D03*
X90170000Y-113030000D03*
X90170000Y-110490000D03*
X90170000Y-107950000D03*
X90170000Y-105410000D03*
X90170000Y-102870000D03*
X90170000Y-100330000D03*
X90170000Y-97790000D03*
D17*
X165100000Y-136906000D03*
X162560000Y-136906000D03*
X160020000Y-136906000D03*
X157480000Y-136906000D03*
X154940000Y-136906000D03*
X152400000Y-136906000D03*
X149860000Y-136906000D03*
X147320000Y-136906000D03*
X144780000Y-136906000D03*
X142240000Y-136906000D03*
X139700000Y-136906000D03*
X137160000Y-136906000D03*
X134620000Y-136906000D03*
X132080000Y-136906000D03*
X129540000Y-136906000D03*
X127000000Y-136906000D03*
X124460000Y-136906000D03*
X121920000Y-136906000D03*
X119380000Y-136906000D03*
X116840000Y-136906000D03*
X114300000Y-136906000D03*
X111760000Y-136906000D03*
X109220000Y-136906000D03*
X106680000Y-136906000D03*
X104140000Y-136906000D03*
X101600000Y-136906000D03*
X99060000Y-136906000D03*
X96520000Y-136906000D03*
X93980000Y-136906000D03*
X91440000Y-136906000D03*
X88900000Y-136906000D03*
D11*
X137160000Y-82550000D03*
X147320000Y-82550000D03*
D18*
X85090000Y-88265000D03*
D19*
X82550000Y-88265000D03*
X85090000Y-85725000D03*
X82550000Y-85725000D03*
X85090000Y-83185000D03*
X82550000Y-83185000D03*
X85090000Y-80645000D03*
X82550000Y-80645000D03*
X85090000Y-78105000D03*
X82550000Y-78105000D03*
X85090000Y-75565000D03*
X82550000Y-75565000D03*
X85090000Y-73025000D03*
X82550000Y-73025000D03*
X85090000Y-70485000D03*
X82550000Y-70485000D03*
X85090000Y-67945000D03*
X82550000Y-67945000D03*
X85090000Y-65405000D03*
X82550000Y-65405000D03*
X85090000Y-62865000D03*
X82550000Y-62865000D03*
X85090000Y-60325000D03*
X82550000Y-60325000D03*
X85090000Y-57785000D03*
X82550000Y-57785000D03*
X85090000Y-55245000D03*
X82550000Y-55245000D03*
X85090000Y-52705000D03*
X82550000Y-52705000D03*
X85090000Y-50165000D03*
X82550000Y-50165000D03*
X85090000Y-47625000D03*
X82550000Y-47625000D03*
X85090000Y-45085000D03*
X82550000Y-45085000D03*
X85090000Y-42545000D03*
X82550000Y-42545000D03*
X85090000Y-40005000D03*
X82550000Y-40005000D03*
D20*
X86360000Y-126325000D03*
D21*
X86360000Y-123825000D03*
D22*
X175895000Y-40640000D03*
D23*
X178435000Y-40640000D03*
D24*
X186690000Y-128905000D03*
X186690000Y-71755000D03*
D14*
X102870000Y-82550000D03*
D15*
X100330000Y-82550000D03*
D14*
X148590000Y-38100000D03*
D15*
X148590000Y-40640000D03*
X148590000Y-43180000D03*
D14*
X156210000Y-38100000D03*
D15*
X156210000Y-40640000D03*
X156210000Y-43180000D03*
D25*
X102870000Y-128270000D03*
D26*
X102870000Y-125730000D03*
X105410000Y-128270000D03*
X105410000Y-125730000D03*
X107950000Y-128270000D03*
X107950000Y-125730000D03*
X110490000Y-128270000D03*
X110490000Y-125730000D03*
X113030000Y-128270000D03*
X113030000Y-125730000D03*
D11*
X186055000Y-50165000D03*
X186055000Y-60325000D03*
D14*
X183515000Y-40640000D03*
D15*
X186055000Y-40640000D03*
D27*
G36*
X167513000Y-140843000D02*
X86487000Y-140843000D01*
X86487000Y-132842000D01*
X167513000Y-132842000D01*
X167513000Y-140843000D01*
X167513000Y-140843000D01*
G37*
X167513000Y-140843000D02*
X86487000Y-140843000D01*
X86487000Y-132842000D01*
X167513000Y-132842000D01*
X167513000Y-140843000D01*
M02*
