G04 #@! TF.FileFunction,Legend,Top*
%FSLAX46Y46*%
G04 Gerber Fmt 4.6, Leading zero omitted, Abs format (unit mm)*
G04 Created by KiCad (PCBNEW 4.0.4-stable) date Mon Aug 14 21:30:09 2017*
%MOMM*%
%LPD*%
G01*
G04 APERTURE LIST*
%ADD10C,0.150000*%
%ADD11C,0.254000*%
G04 APERTURE END LIST*
D10*
D11*
X143570476Y-56968572D02*
X143570476Y-57815238D01*
X142300476Y-57270953D01*
X143147143Y-58843334D02*
X142300476Y-58843334D01*
X143630952Y-58540953D02*
X142723810Y-58238572D01*
X142723810Y-59024762D01*
X142300476Y-60113334D02*
X142300476Y-59508572D01*
X143570476Y-59508572D01*
X142360952Y-60476191D02*
X142300476Y-60657619D01*
X142300476Y-60960000D01*
X142360952Y-61080953D01*
X142421429Y-61141429D01*
X142542381Y-61201905D01*
X142663333Y-61201905D01*
X142784286Y-61141429D01*
X142844762Y-61080953D01*
X142905238Y-60960000D01*
X142965714Y-60718096D01*
X143026190Y-60597143D01*
X143086667Y-60536667D01*
X143207619Y-60476191D01*
X143328571Y-60476191D01*
X143449524Y-60536667D01*
X143510000Y-60597143D01*
X143570476Y-60718096D01*
X143570476Y-61020476D01*
X143510000Y-61201905D01*
X143570476Y-61988096D02*
X143570476Y-62109048D01*
X143510000Y-62230000D01*
X143449524Y-62290477D01*
X143328571Y-62350953D01*
X143086667Y-62411429D01*
X142784286Y-62411429D01*
X142542381Y-62350953D01*
X142421429Y-62290477D01*
X142360952Y-62230000D01*
X142300476Y-62109048D01*
X142300476Y-61988096D01*
X142360952Y-61867143D01*
X142421429Y-61806667D01*
X142542381Y-61746191D01*
X142784286Y-61685715D01*
X143086667Y-61685715D01*
X143328571Y-61746191D01*
X143449524Y-61806667D01*
X143510000Y-61867143D01*
X143570476Y-61988096D01*
X143147143Y-63500001D02*
X142300476Y-63500001D01*
X143630952Y-63197620D02*
X142723810Y-62895239D01*
X142723810Y-63681429D01*
X181216905Y-37374286D02*
X181640238Y-37374286D01*
X181821667Y-38039524D02*
X181216905Y-38039524D01*
X181216905Y-36769524D01*
X181821667Y-36769524D01*
X182245001Y-36769524D02*
X183091667Y-38039524D01*
X183091667Y-36769524D02*
X182245001Y-38039524D01*
X183394048Y-36769524D02*
X184119763Y-36769524D01*
X183756906Y-38039524D02*
X183756906Y-36769524D01*
X186115477Y-38039524D02*
X185510715Y-38039524D01*
X185510715Y-36769524D01*
X186538810Y-37374286D02*
X186962143Y-37374286D01*
X187143572Y-38039524D02*
X186538810Y-38039524D01*
X186538810Y-36769524D01*
X187143572Y-36769524D01*
X187687858Y-38039524D02*
X187687858Y-36769524D01*
X187990239Y-36769524D01*
X188171667Y-36830000D01*
X188292620Y-36950952D01*
X188353096Y-37071905D01*
X188413572Y-37313810D01*
X188413572Y-37495238D01*
X188353096Y-37737143D01*
X188292620Y-37858095D01*
X188171667Y-37979048D01*
X187990239Y-38039524D01*
X187687858Y-38039524D01*
X186327143Y-53642381D02*
X185480476Y-53642381D01*
X186810952Y-53340000D02*
X185903810Y-53037619D01*
X185903810Y-53823809D01*
X186750476Y-54186667D02*
X186750476Y-55033333D01*
X185480476Y-54489048D01*
X186750476Y-55759048D02*
X186750476Y-55880000D01*
X186690000Y-56000952D01*
X186629524Y-56061429D01*
X186508571Y-56121905D01*
X186266667Y-56182381D01*
X185964286Y-56182381D01*
X185722381Y-56121905D01*
X185601429Y-56061429D01*
X185540952Y-56000952D01*
X185480476Y-55880000D01*
X185480476Y-55759048D01*
X185540952Y-55638095D01*
X185601429Y-55577619D01*
X185722381Y-55517143D01*
X185964286Y-55456667D01*
X186266667Y-55456667D01*
X186508571Y-55517143D01*
X186629524Y-55577619D01*
X186690000Y-55638095D01*
X186750476Y-55759048D01*
X185480476Y-57452381D02*
X186085238Y-57029048D01*
X185480476Y-56726667D02*
X186750476Y-56726667D01*
X186750476Y-57210476D01*
X186690000Y-57331429D01*
X186629524Y-57391905D01*
X186508571Y-57452381D01*
X186327143Y-57452381D01*
X186206190Y-57391905D01*
X186145714Y-57331429D01*
X186085238Y-57210476D01*
X186085238Y-56726667D01*
X77863096Y-114874524D02*
X78709762Y-116144524D01*
X78709762Y-114874524D02*
X77863096Y-116144524D01*
X79012143Y-114874524D02*
X79737858Y-114874524D01*
X79375001Y-116144524D02*
X79375001Y-114874524D01*
X80342620Y-115418810D02*
X80221667Y-115358333D01*
X80161191Y-115297857D01*
X80100715Y-115176905D01*
X80100715Y-115116429D01*
X80161191Y-114995476D01*
X80221667Y-114935000D01*
X80342620Y-114874524D01*
X80584524Y-114874524D01*
X80705477Y-114935000D01*
X80765953Y-114995476D01*
X80826429Y-115116429D01*
X80826429Y-115176905D01*
X80765953Y-115297857D01*
X80705477Y-115358333D01*
X80584524Y-115418810D01*
X80342620Y-115418810D01*
X80221667Y-115479286D01*
X80161191Y-115539762D01*
X80100715Y-115660714D01*
X80100715Y-115902619D01*
X80161191Y-116023571D01*
X80221667Y-116084048D01*
X80342620Y-116144524D01*
X80584524Y-116144524D01*
X80705477Y-116084048D01*
X80765953Y-116023571D01*
X80826429Y-115902619D01*
X80826429Y-115660714D01*
X80765953Y-115539762D01*
X80705477Y-115479286D01*
X80584524Y-115418810D01*
X179765476Y-100178810D02*
X179765476Y-101025476D01*
X178495476Y-100481191D01*
X179342143Y-102053572D02*
X178495476Y-102053572D01*
X179825952Y-101751191D02*
X178918810Y-101448810D01*
X178918810Y-102235000D01*
X178495476Y-103323572D02*
X178495476Y-102718810D01*
X179765476Y-102718810D01*
X178555952Y-103686429D02*
X178495476Y-103867857D01*
X178495476Y-104170238D01*
X178555952Y-104291191D01*
X178616429Y-104351667D01*
X178737381Y-104412143D01*
X178858333Y-104412143D01*
X178979286Y-104351667D01*
X179039762Y-104291191D01*
X179100238Y-104170238D01*
X179160714Y-103928334D01*
X179221190Y-103807381D01*
X179281667Y-103746905D01*
X179402619Y-103686429D01*
X179523571Y-103686429D01*
X179644524Y-103746905D01*
X179705000Y-103807381D01*
X179765476Y-103928334D01*
X179765476Y-104230714D01*
X179705000Y-104412143D01*
X179644524Y-104895953D02*
X179705000Y-104956429D01*
X179765476Y-105077381D01*
X179765476Y-105379762D01*
X179705000Y-105500715D01*
X179644524Y-105561191D01*
X179523571Y-105621667D01*
X179402619Y-105621667D01*
X179221190Y-105561191D01*
X178495476Y-104835477D01*
X178495476Y-105621667D01*
X179342143Y-106710239D02*
X178495476Y-106710239D01*
X179825952Y-106407858D02*
X178918810Y-106105477D01*
X178918810Y-106891667D01*
X179765476Y-107980239D02*
X179765476Y-107375477D01*
X179160714Y-107315001D01*
X179221190Y-107375477D01*
X179281667Y-107496429D01*
X179281667Y-107798810D01*
X179221190Y-107919763D01*
X179160714Y-107980239D01*
X179039762Y-108040715D01*
X178737381Y-108040715D01*
X178616429Y-107980239D01*
X178555952Y-107919763D01*
X178495476Y-107798810D01*
X178495476Y-107496429D01*
X178555952Y-107375477D01*
X178616429Y-107315001D01*
X160715476Y-93193810D02*
X160715476Y-94040476D01*
X159445476Y-93496191D01*
X160292143Y-95068572D02*
X159445476Y-95068572D01*
X160775952Y-94766191D02*
X159868810Y-94463810D01*
X159868810Y-95250000D01*
X159445476Y-96338572D02*
X159445476Y-95733810D01*
X160715476Y-95733810D01*
X159505952Y-96701429D02*
X159445476Y-96882857D01*
X159445476Y-97185238D01*
X159505952Y-97306191D01*
X159566429Y-97366667D01*
X159687381Y-97427143D01*
X159808333Y-97427143D01*
X159929286Y-97366667D01*
X159989762Y-97306191D01*
X160050238Y-97185238D01*
X160110714Y-96943334D01*
X160171190Y-96822381D01*
X160231667Y-96761905D01*
X160352619Y-96701429D01*
X160473571Y-96701429D01*
X160594524Y-96761905D01*
X160655000Y-96822381D01*
X160715476Y-96943334D01*
X160715476Y-97245714D01*
X160655000Y-97427143D01*
X160715476Y-98515715D02*
X160715476Y-98273810D01*
X160655000Y-98152858D01*
X160594524Y-98092381D01*
X160413095Y-97971429D01*
X160171190Y-97910953D01*
X159687381Y-97910953D01*
X159566429Y-97971429D01*
X159505952Y-98031905D01*
X159445476Y-98152858D01*
X159445476Y-98394762D01*
X159505952Y-98515715D01*
X159566429Y-98576191D01*
X159687381Y-98636667D01*
X159989762Y-98636667D01*
X160110714Y-98576191D01*
X160171190Y-98515715D01*
X160231667Y-98394762D01*
X160231667Y-98152858D01*
X160171190Y-98031905D01*
X160110714Y-97971429D01*
X159989762Y-97910953D01*
X160171190Y-99362382D02*
X160231667Y-99241429D01*
X160292143Y-99180953D01*
X160413095Y-99120477D01*
X160473571Y-99120477D01*
X160594524Y-99180953D01*
X160655000Y-99241429D01*
X160715476Y-99362382D01*
X160715476Y-99604286D01*
X160655000Y-99725239D01*
X160594524Y-99785715D01*
X160473571Y-99846191D01*
X160413095Y-99846191D01*
X160292143Y-99785715D01*
X160231667Y-99725239D01*
X160171190Y-99604286D01*
X160171190Y-99362382D01*
X160110714Y-99241429D01*
X160050238Y-99180953D01*
X159929286Y-99120477D01*
X159687381Y-99120477D01*
X159566429Y-99180953D01*
X159505952Y-99241429D01*
X159445476Y-99362382D01*
X159445476Y-99604286D01*
X159505952Y-99725239D01*
X159566429Y-99785715D01*
X159687381Y-99846191D01*
X159929286Y-99846191D01*
X160050238Y-99785715D01*
X160110714Y-99725239D01*
X160171190Y-99604286D01*
X160171190Y-100571906D02*
X160231667Y-100450953D01*
X160292143Y-100390477D01*
X160413095Y-100330001D01*
X160473571Y-100330001D01*
X160594524Y-100390477D01*
X160655000Y-100450953D01*
X160715476Y-100571906D01*
X160715476Y-100813810D01*
X160655000Y-100934763D01*
X160594524Y-100995239D01*
X160473571Y-101055715D01*
X160413095Y-101055715D01*
X160292143Y-100995239D01*
X160231667Y-100934763D01*
X160171190Y-100813810D01*
X160171190Y-100571906D01*
X160110714Y-100450953D01*
X160050238Y-100390477D01*
X159929286Y-100330001D01*
X159687381Y-100330001D01*
X159566429Y-100390477D01*
X159505952Y-100450953D01*
X159445476Y-100571906D01*
X159445476Y-100813810D01*
X159505952Y-100934763D01*
X159566429Y-100995239D01*
X159687381Y-101055715D01*
X159929286Y-101055715D01*
X160050238Y-100995239D01*
X160110714Y-100934763D01*
X160171190Y-100813810D01*
X125923524Y-107042857D02*
X125984000Y-107103333D01*
X126044476Y-107224285D01*
X126044476Y-107526666D01*
X125984000Y-107647619D01*
X125923524Y-107708095D01*
X125802571Y-107768571D01*
X125681619Y-107768571D01*
X125500190Y-107708095D01*
X124774476Y-106982381D01*
X124774476Y-107768571D01*
X125500190Y-108494286D02*
X125560667Y-108373333D01*
X125621143Y-108312857D01*
X125742095Y-108252381D01*
X125802571Y-108252381D01*
X125923524Y-108312857D01*
X125984000Y-108373333D01*
X126044476Y-108494286D01*
X126044476Y-108736190D01*
X125984000Y-108857143D01*
X125923524Y-108917619D01*
X125802571Y-108978095D01*
X125742095Y-108978095D01*
X125621143Y-108917619D01*
X125560667Y-108857143D01*
X125500190Y-108736190D01*
X125500190Y-108494286D01*
X125439714Y-108373333D01*
X125379238Y-108312857D01*
X125258286Y-108252381D01*
X125016381Y-108252381D01*
X124895429Y-108312857D01*
X124834952Y-108373333D01*
X124774476Y-108494286D01*
X124774476Y-108736190D01*
X124834952Y-108857143D01*
X124895429Y-108917619D01*
X125016381Y-108978095D01*
X125258286Y-108978095D01*
X125379238Y-108917619D01*
X125439714Y-108857143D01*
X125500190Y-108736190D01*
X124895429Y-110248095D02*
X124834952Y-110187619D01*
X124774476Y-110006190D01*
X124774476Y-109885238D01*
X124834952Y-109703810D01*
X124955905Y-109582857D01*
X125076857Y-109522381D01*
X125318762Y-109461905D01*
X125500190Y-109461905D01*
X125742095Y-109522381D01*
X125863048Y-109582857D01*
X125984000Y-109703810D01*
X126044476Y-109885238D01*
X126044476Y-110006190D01*
X125984000Y-110187619D01*
X125923524Y-110248095D01*
X126044476Y-111336667D02*
X126044476Y-111094762D01*
X125984000Y-110973810D01*
X125923524Y-110913333D01*
X125742095Y-110792381D01*
X125500190Y-110731905D01*
X125016381Y-110731905D01*
X124895429Y-110792381D01*
X124834952Y-110852857D01*
X124774476Y-110973810D01*
X124774476Y-111215714D01*
X124834952Y-111336667D01*
X124895429Y-111397143D01*
X125016381Y-111457619D01*
X125318762Y-111457619D01*
X125439714Y-111397143D01*
X125500190Y-111336667D01*
X125560667Y-111215714D01*
X125560667Y-110973810D01*
X125500190Y-110852857D01*
X125439714Y-110792381D01*
X125318762Y-110731905D01*
X125621143Y-112546191D02*
X124774476Y-112546191D01*
X126104952Y-112243810D02*
X125197810Y-111941429D01*
X125197810Y-112727619D01*
X123885476Y-109099048D02*
X123885476Y-109340952D01*
X123825000Y-109461905D01*
X123704048Y-109582857D01*
X123462143Y-109643333D01*
X123038810Y-109643333D01*
X122796905Y-109582857D01*
X122675952Y-109461905D01*
X122615476Y-109340952D01*
X122615476Y-109099048D01*
X122675952Y-108978095D01*
X122796905Y-108857143D01*
X123038810Y-108796667D01*
X123462143Y-108796667D01*
X123704048Y-108857143D01*
X123825000Y-108978095D01*
X123885476Y-109099048D01*
X122615476Y-110913333D02*
X123220238Y-110490000D01*
X122615476Y-110187619D02*
X123885476Y-110187619D01*
X123885476Y-110671428D01*
X123825000Y-110792381D01*
X123764524Y-110852857D01*
X123643571Y-110913333D01*
X123462143Y-110913333D01*
X123341190Y-110852857D01*
X123280714Y-110792381D01*
X123220238Y-110671428D01*
X123220238Y-110187619D01*
X121605524Y-106438095D02*
X121666000Y-106498571D01*
X121726476Y-106619523D01*
X121726476Y-106921904D01*
X121666000Y-107042857D01*
X121605524Y-107103333D01*
X121484571Y-107163809D01*
X121363619Y-107163809D01*
X121182190Y-107103333D01*
X120456476Y-106377619D01*
X120456476Y-107163809D01*
X121182190Y-107889524D02*
X121242667Y-107768571D01*
X121303143Y-107708095D01*
X121424095Y-107647619D01*
X121484571Y-107647619D01*
X121605524Y-107708095D01*
X121666000Y-107768571D01*
X121726476Y-107889524D01*
X121726476Y-108131428D01*
X121666000Y-108252381D01*
X121605524Y-108312857D01*
X121484571Y-108373333D01*
X121424095Y-108373333D01*
X121303143Y-108312857D01*
X121242667Y-108252381D01*
X121182190Y-108131428D01*
X121182190Y-107889524D01*
X121121714Y-107768571D01*
X121061238Y-107708095D01*
X120940286Y-107647619D01*
X120698381Y-107647619D01*
X120577429Y-107708095D01*
X120516952Y-107768571D01*
X120456476Y-107889524D01*
X120456476Y-108131428D01*
X120516952Y-108252381D01*
X120577429Y-108312857D01*
X120698381Y-108373333D01*
X120940286Y-108373333D01*
X121061238Y-108312857D01*
X121121714Y-108252381D01*
X121182190Y-108131428D01*
X120577429Y-109643333D02*
X120516952Y-109582857D01*
X120456476Y-109401428D01*
X120456476Y-109280476D01*
X120516952Y-109099048D01*
X120637905Y-108978095D01*
X120758857Y-108917619D01*
X121000762Y-108857143D01*
X121182190Y-108857143D01*
X121424095Y-108917619D01*
X121545048Y-108978095D01*
X121666000Y-109099048D01*
X121726476Y-109280476D01*
X121726476Y-109401428D01*
X121666000Y-109582857D01*
X121605524Y-109643333D01*
X121605524Y-110127143D02*
X121666000Y-110187619D01*
X121726476Y-110308571D01*
X121726476Y-110610952D01*
X121666000Y-110731905D01*
X121605524Y-110792381D01*
X121484571Y-110852857D01*
X121363619Y-110852857D01*
X121182190Y-110792381D01*
X120456476Y-110066667D01*
X120456476Y-110852857D01*
X121726476Y-112001905D02*
X121726476Y-111397143D01*
X121121714Y-111336667D01*
X121182190Y-111397143D01*
X121242667Y-111518095D01*
X121242667Y-111820476D01*
X121182190Y-111941429D01*
X121121714Y-112001905D01*
X121000762Y-112062381D01*
X120698381Y-112062381D01*
X120577429Y-112001905D01*
X120516952Y-111941429D01*
X120456476Y-111820476D01*
X120456476Y-111518095D01*
X120516952Y-111397143D01*
X120577429Y-111336667D01*
X121726476Y-113150953D02*
X121726476Y-112909048D01*
X121666000Y-112788096D01*
X121605524Y-112727619D01*
X121424095Y-112606667D01*
X121182190Y-112546191D01*
X120698381Y-112546191D01*
X120577429Y-112606667D01*
X120516952Y-112667143D01*
X120456476Y-112788096D01*
X120456476Y-113030000D01*
X120516952Y-113150953D01*
X120577429Y-113211429D01*
X120698381Y-113271905D01*
X121000762Y-113271905D01*
X121121714Y-113211429D01*
X121182190Y-113150953D01*
X121242667Y-113030000D01*
X121242667Y-112788096D01*
X121182190Y-112667143D01*
X121121714Y-112606667D01*
X121000762Y-112546191D01*
X104835476Y-100178810D02*
X104835476Y-101025476D01*
X103565476Y-100481191D01*
X104412143Y-102053572D02*
X103565476Y-102053572D01*
X104895952Y-101751191D02*
X103988810Y-101448810D01*
X103988810Y-102235000D01*
X103565476Y-103323572D02*
X103565476Y-102718810D01*
X104835476Y-102718810D01*
X103625952Y-103686429D02*
X103565476Y-103867857D01*
X103565476Y-104170238D01*
X103625952Y-104291191D01*
X103686429Y-104351667D01*
X103807381Y-104412143D01*
X103928333Y-104412143D01*
X104049286Y-104351667D01*
X104109762Y-104291191D01*
X104170238Y-104170238D01*
X104230714Y-103928334D01*
X104291190Y-103807381D01*
X104351667Y-103746905D01*
X104472619Y-103686429D01*
X104593571Y-103686429D01*
X104714524Y-103746905D01*
X104775000Y-103807381D01*
X104835476Y-103928334D01*
X104835476Y-104230714D01*
X104775000Y-104412143D01*
X104835476Y-105500715D02*
X104835476Y-105258810D01*
X104775000Y-105137858D01*
X104714524Y-105077381D01*
X104533095Y-104956429D01*
X104291190Y-104895953D01*
X103807381Y-104895953D01*
X103686429Y-104956429D01*
X103625952Y-105016905D01*
X103565476Y-105137858D01*
X103565476Y-105379762D01*
X103625952Y-105500715D01*
X103686429Y-105561191D01*
X103807381Y-105621667D01*
X104109762Y-105621667D01*
X104230714Y-105561191D01*
X104291190Y-105500715D01*
X104351667Y-105379762D01*
X104351667Y-105137858D01*
X104291190Y-105016905D01*
X104230714Y-104956429D01*
X104109762Y-104895953D01*
X104291190Y-106347382D02*
X104351667Y-106226429D01*
X104412143Y-106165953D01*
X104533095Y-106105477D01*
X104593571Y-106105477D01*
X104714524Y-106165953D01*
X104775000Y-106226429D01*
X104835476Y-106347382D01*
X104835476Y-106589286D01*
X104775000Y-106710239D01*
X104714524Y-106770715D01*
X104593571Y-106831191D01*
X104533095Y-106831191D01*
X104412143Y-106770715D01*
X104351667Y-106710239D01*
X104291190Y-106589286D01*
X104291190Y-106347382D01*
X104230714Y-106226429D01*
X104170238Y-106165953D01*
X104049286Y-106105477D01*
X103807381Y-106105477D01*
X103686429Y-106165953D01*
X103625952Y-106226429D01*
X103565476Y-106347382D01*
X103565476Y-106589286D01*
X103625952Y-106710239D01*
X103686429Y-106770715D01*
X103807381Y-106831191D01*
X104049286Y-106831191D01*
X104170238Y-106770715D01*
X104230714Y-106710239D01*
X104291190Y-106589286D01*
X104291190Y-107556906D02*
X104351667Y-107435953D01*
X104412143Y-107375477D01*
X104533095Y-107315001D01*
X104593571Y-107315001D01*
X104714524Y-107375477D01*
X104775000Y-107435953D01*
X104835476Y-107556906D01*
X104835476Y-107798810D01*
X104775000Y-107919763D01*
X104714524Y-107980239D01*
X104593571Y-108040715D01*
X104533095Y-108040715D01*
X104412143Y-107980239D01*
X104351667Y-107919763D01*
X104291190Y-107798810D01*
X104291190Y-107556906D01*
X104230714Y-107435953D01*
X104170238Y-107375477D01*
X104049286Y-107315001D01*
X103807381Y-107315001D01*
X103686429Y-107375477D01*
X103625952Y-107435953D01*
X103565476Y-107556906D01*
X103565476Y-107798810D01*
X103625952Y-107919763D01*
X103686429Y-107980239D01*
X103807381Y-108040715D01*
X104049286Y-108040715D01*
X104170238Y-107980239D01*
X104230714Y-107919763D01*
X104291190Y-107798810D01*
X177860476Y-55093810D02*
X177860476Y-55940476D01*
X176590476Y-55396191D01*
X177437143Y-56968572D02*
X176590476Y-56968572D01*
X177920952Y-56666191D02*
X177013810Y-56363810D01*
X177013810Y-57150000D01*
X176590476Y-58238572D02*
X176590476Y-57633810D01*
X177860476Y-57633810D01*
X176650952Y-58601429D02*
X176590476Y-58782857D01*
X176590476Y-59085238D01*
X176650952Y-59206191D01*
X176711429Y-59266667D01*
X176832381Y-59327143D01*
X176953333Y-59327143D01*
X177074286Y-59266667D01*
X177134762Y-59206191D01*
X177195238Y-59085238D01*
X177255714Y-58843334D01*
X177316190Y-58722381D01*
X177376667Y-58661905D01*
X177497619Y-58601429D01*
X177618571Y-58601429D01*
X177739524Y-58661905D01*
X177800000Y-58722381D01*
X177860476Y-58843334D01*
X177860476Y-59145714D01*
X177800000Y-59327143D01*
X176590476Y-60536667D02*
X176590476Y-59810953D01*
X176590476Y-60173810D02*
X177860476Y-60173810D01*
X177679048Y-60052858D01*
X177558095Y-59931905D01*
X177497619Y-59810953D01*
X177860476Y-60960001D02*
X177860476Y-61746191D01*
X177376667Y-61322858D01*
X177376667Y-61504286D01*
X177316190Y-61625239D01*
X177255714Y-61685715D01*
X177134762Y-61746191D01*
X176832381Y-61746191D01*
X176711429Y-61685715D01*
X176650952Y-61625239D01*
X176590476Y-61504286D01*
X176590476Y-61141429D01*
X176650952Y-61020477D01*
X176711429Y-60960001D01*
X177316190Y-62471906D02*
X177376667Y-62350953D01*
X177437143Y-62290477D01*
X177558095Y-62230001D01*
X177618571Y-62230001D01*
X177739524Y-62290477D01*
X177800000Y-62350953D01*
X177860476Y-62471906D01*
X177860476Y-62713810D01*
X177800000Y-62834763D01*
X177739524Y-62895239D01*
X177618571Y-62955715D01*
X177558095Y-62955715D01*
X177437143Y-62895239D01*
X177376667Y-62834763D01*
X177316190Y-62713810D01*
X177316190Y-62471906D01*
X177255714Y-62350953D01*
X177195238Y-62290477D01*
X177074286Y-62230001D01*
X176832381Y-62230001D01*
X176711429Y-62290477D01*
X176650952Y-62350953D01*
X176590476Y-62471906D01*
X176590476Y-62713810D01*
X176650952Y-62834763D01*
X176711429Y-62895239D01*
X176832381Y-62955715D01*
X177074286Y-62955715D01*
X177195238Y-62895239D01*
X177255714Y-62834763D01*
X177316190Y-62713810D01*
X166430476Y-56968572D02*
X166430476Y-57815238D01*
X165160476Y-57270953D01*
X166007143Y-58843334D02*
X165160476Y-58843334D01*
X166490952Y-58540953D02*
X165583810Y-58238572D01*
X165583810Y-59024762D01*
X165160476Y-60113334D02*
X165160476Y-59508572D01*
X166430476Y-59508572D01*
X165220952Y-60476191D02*
X165160476Y-60657619D01*
X165160476Y-60960000D01*
X165220952Y-61080953D01*
X165281429Y-61141429D01*
X165402381Y-61201905D01*
X165523333Y-61201905D01*
X165644286Y-61141429D01*
X165704762Y-61080953D01*
X165765238Y-60960000D01*
X165825714Y-60718096D01*
X165886190Y-60597143D01*
X165946667Y-60536667D01*
X166067619Y-60476191D01*
X166188571Y-60476191D01*
X166309524Y-60536667D01*
X166370000Y-60597143D01*
X166430476Y-60718096D01*
X166430476Y-61020476D01*
X166370000Y-61201905D01*
X166430476Y-61988096D02*
X166430476Y-62109048D01*
X166370000Y-62230000D01*
X166309524Y-62290477D01*
X166188571Y-62350953D01*
X165946667Y-62411429D01*
X165644286Y-62411429D01*
X165402381Y-62350953D01*
X165281429Y-62290477D01*
X165220952Y-62230000D01*
X165160476Y-62109048D01*
X165160476Y-61988096D01*
X165220952Y-61867143D01*
X165281429Y-61806667D01*
X165402381Y-61746191D01*
X165644286Y-61685715D01*
X165946667Y-61685715D01*
X166188571Y-61746191D01*
X166309524Y-61806667D01*
X166370000Y-61867143D01*
X166430476Y-61988096D01*
X166007143Y-63500001D02*
X165160476Y-63500001D01*
X166490952Y-63197620D02*
X165583810Y-62895239D01*
X165583810Y-63681429D01*
X155000476Y-56968572D02*
X155000476Y-57815238D01*
X153730476Y-57270953D01*
X154577143Y-58843334D02*
X153730476Y-58843334D01*
X155060952Y-58540953D02*
X154153810Y-58238572D01*
X154153810Y-59024762D01*
X153730476Y-60113334D02*
X153730476Y-59508572D01*
X155000476Y-59508572D01*
X153790952Y-60476191D02*
X153730476Y-60657619D01*
X153730476Y-60960000D01*
X153790952Y-61080953D01*
X153851429Y-61141429D01*
X153972381Y-61201905D01*
X154093333Y-61201905D01*
X154214286Y-61141429D01*
X154274762Y-61080953D01*
X154335238Y-60960000D01*
X154395714Y-60718096D01*
X154456190Y-60597143D01*
X154516667Y-60536667D01*
X154637619Y-60476191D01*
X154758571Y-60476191D01*
X154879524Y-60536667D01*
X154940000Y-60597143D01*
X155000476Y-60718096D01*
X155000476Y-61020476D01*
X154940000Y-61201905D01*
X155000476Y-61625239D02*
X155000476Y-62411429D01*
X154516667Y-61988096D01*
X154516667Y-62169524D01*
X154456190Y-62290477D01*
X154395714Y-62350953D01*
X154274762Y-62411429D01*
X153972381Y-62411429D01*
X153851429Y-62350953D01*
X153790952Y-62290477D01*
X153730476Y-62169524D01*
X153730476Y-61806667D01*
X153790952Y-61685715D01*
X153851429Y-61625239D01*
X154879524Y-62895239D02*
X154940000Y-62955715D01*
X155000476Y-63076667D01*
X155000476Y-63379048D01*
X154940000Y-63500001D01*
X154879524Y-63560477D01*
X154758571Y-63620953D01*
X154637619Y-63620953D01*
X154456190Y-63560477D01*
X153730476Y-62834763D01*
X153730476Y-63620953D01*
X130870476Y-52553810D02*
X130870476Y-53400476D01*
X129600476Y-52856191D01*
X130447143Y-54428572D02*
X129600476Y-54428572D01*
X130930952Y-54126191D02*
X130023810Y-53823810D01*
X130023810Y-54610000D01*
X129600476Y-55698572D02*
X129600476Y-55093810D01*
X130870476Y-55093810D01*
X129660952Y-56061429D02*
X129600476Y-56242857D01*
X129600476Y-56545238D01*
X129660952Y-56666191D01*
X129721429Y-56726667D01*
X129842381Y-56787143D01*
X129963333Y-56787143D01*
X130084286Y-56726667D01*
X130144762Y-56666191D01*
X130205238Y-56545238D01*
X130265714Y-56303334D01*
X130326190Y-56182381D01*
X130386667Y-56121905D01*
X130507619Y-56061429D01*
X130628571Y-56061429D01*
X130749524Y-56121905D01*
X130810000Y-56182381D01*
X130870476Y-56303334D01*
X130870476Y-56605714D01*
X130810000Y-56787143D01*
X130749524Y-57270953D02*
X130810000Y-57331429D01*
X130870476Y-57452381D01*
X130870476Y-57754762D01*
X130810000Y-57875715D01*
X130749524Y-57936191D01*
X130628571Y-57996667D01*
X130507619Y-57996667D01*
X130326190Y-57936191D01*
X129600476Y-57210477D01*
X129600476Y-57996667D01*
X130447143Y-59085239D02*
X129600476Y-59085239D01*
X130930952Y-58782858D02*
X130023810Y-58480477D01*
X130023810Y-59266667D01*
X130870476Y-60355239D02*
X130870476Y-59750477D01*
X130265714Y-59690001D01*
X130326190Y-59750477D01*
X130386667Y-59871429D01*
X130386667Y-60173810D01*
X130326190Y-60294763D01*
X130265714Y-60355239D01*
X130144762Y-60415715D01*
X129842381Y-60415715D01*
X129721429Y-60355239D01*
X129660952Y-60294763D01*
X129600476Y-60173810D01*
X129600476Y-59871429D01*
X129660952Y-59750477D01*
X129721429Y-59690001D01*
X117535476Y-51283810D02*
X117535476Y-52130476D01*
X116265476Y-51586191D01*
X117112143Y-53158572D02*
X116265476Y-53158572D01*
X117595952Y-52856191D02*
X116688810Y-52553810D01*
X116688810Y-53340000D01*
X116265476Y-54428572D02*
X116265476Y-53823810D01*
X117535476Y-53823810D01*
X116325952Y-54791429D02*
X116265476Y-54972857D01*
X116265476Y-55275238D01*
X116325952Y-55396191D01*
X116386429Y-55456667D01*
X116507381Y-55517143D01*
X116628333Y-55517143D01*
X116749286Y-55456667D01*
X116809762Y-55396191D01*
X116870238Y-55275238D01*
X116930714Y-55033334D01*
X116991190Y-54912381D01*
X117051667Y-54851905D01*
X117172619Y-54791429D01*
X117293571Y-54791429D01*
X117414524Y-54851905D01*
X117475000Y-54912381D01*
X117535476Y-55033334D01*
X117535476Y-55335714D01*
X117475000Y-55517143D01*
X117535476Y-56666191D02*
X117535476Y-56061429D01*
X116930714Y-56000953D01*
X116991190Y-56061429D01*
X117051667Y-56182381D01*
X117051667Y-56484762D01*
X116991190Y-56605715D01*
X116930714Y-56666191D01*
X116809762Y-56726667D01*
X116507381Y-56726667D01*
X116386429Y-56666191D01*
X116325952Y-56605715D01*
X116265476Y-56484762D01*
X116265476Y-56182381D01*
X116325952Y-56061429D01*
X116386429Y-56000953D01*
X117535476Y-57150001D02*
X117535476Y-57996667D01*
X116265476Y-57452382D01*
X117535476Y-58359525D02*
X117535476Y-59145715D01*
X117051667Y-58722382D01*
X117051667Y-58903810D01*
X116991190Y-59024763D01*
X116930714Y-59085239D01*
X116809762Y-59145715D01*
X116507381Y-59145715D01*
X116386429Y-59085239D01*
X116325952Y-59024763D01*
X116265476Y-58903810D01*
X116265476Y-58540953D01*
X116325952Y-58420001D01*
X116386429Y-58359525D01*
X104200476Y-52553810D02*
X104200476Y-53400476D01*
X102930476Y-52856191D01*
X103777143Y-54428572D02*
X102930476Y-54428572D01*
X104260952Y-54126191D02*
X103353810Y-53823810D01*
X103353810Y-54610000D01*
X102930476Y-55698572D02*
X102930476Y-55093810D01*
X104200476Y-55093810D01*
X102990952Y-56061429D02*
X102930476Y-56242857D01*
X102930476Y-56545238D01*
X102990952Y-56666191D01*
X103051429Y-56726667D01*
X103172381Y-56787143D01*
X103293333Y-56787143D01*
X103414286Y-56726667D01*
X103474762Y-56666191D01*
X103535238Y-56545238D01*
X103595714Y-56303334D01*
X103656190Y-56182381D01*
X103716667Y-56121905D01*
X103837619Y-56061429D01*
X103958571Y-56061429D01*
X104079524Y-56121905D01*
X104140000Y-56182381D01*
X104200476Y-56303334D01*
X104200476Y-56605714D01*
X104140000Y-56787143D01*
X104200476Y-57936191D02*
X104200476Y-57331429D01*
X103595714Y-57270953D01*
X103656190Y-57331429D01*
X103716667Y-57452381D01*
X103716667Y-57754762D01*
X103656190Y-57875715D01*
X103595714Y-57936191D01*
X103474762Y-57996667D01*
X103172381Y-57996667D01*
X103051429Y-57936191D01*
X102990952Y-57875715D01*
X102930476Y-57754762D01*
X102930476Y-57452381D01*
X102990952Y-57331429D01*
X103051429Y-57270953D01*
X104200476Y-58420001D02*
X104200476Y-59266667D01*
X102930476Y-58722382D01*
X104200476Y-59629525D02*
X104200476Y-60415715D01*
X103716667Y-59992382D01*
X103716667Y-60173810D01*
X103656190Y-60294763D01*
X103595714Y-60355239D01*
X103474762Y-60415715D01*
X103172381Y-60415715D01*
X103051429Y-60355239D01*
X102990952Y-60294763D01*
X102930476Y-60173810D01*
X102930476Y-59810953D01*
X102990952Y-59690001D01*
X103051429Y-59629525D01*
X182934429Y-42526857D02*
X184095572Y-42526857D01*
X183515001Y-43107429D02*
X183515001Y-41946286D01*
X108802714Y-74095429D02*
X109818714Y-75619429D01*
X109818714Y-74095429D02*
X108802714Y-75619429D01*
X110181572Y-74095429D02*
X111052429Y-74095429D01*
X110617000Y-75619429D02*
X110617000Y-74095429D01*
X111560429Y-75038857D02*
X112721572Y-75038857D01*
X113447286Y-75619429D02*
X113447286Y-74095429D01*
X114173000Y-75619429D02*
X114173000Y-74095429D01*
X114535857Y-74095429D01*
X114753572Y-74168000D01*
X114898714Y-74313143D01*
X114971286Y-74458286D01*
X115043857Y-74748571D01*
X115043857Y-74966286D01*
X114971286Y-75256571D01*
X114898714Y-75401714D01*
X114753572Y-75546857D01*
X114535857Y-75619429D01*
X114173000Y-75619429D01*
X115697000Y-74821143D02*
X116205000Y-74821143D01*
X116422714Y-75619429D02*
X115697000Y-75619429D01*
X115697000Y-74095429D01*
X116422714Y-74095429D01*
X118237000Y-75619429D02*
X118237000Y-74603429D01*
X118237000Y-74893714D02*
X118309572Y-74748571D01*
X118382143Y-74676000D01*
X118527286Y-74603429D01*
X118672429Y-74603429D01*
X119761001Y-75546857D02*
X119615858Y-75619429D01*
X119325572Y-75619429D01*
X119180429Y-75546857D01*
X119107858Y-75401714D01*
X119107858Y-74821143D01*
X119180429Y-74676000D01*
X119325572Y-74603429D01*
X119615858Y-74603429D01*
X119761001Y-74676000D01*
X119833572Y-74821143D01*
X119833572Y-74966286D01*
X119107858Y-75111429D01*
X120341572Y-74603429D02*
X120704429Y-75619429D01*
X121067287Y-74603429D01*
X123099287Y-74095429D02*
X123244430Y-74095429D01*
X123389573Y-74168000D01*
X123462144Y-74240571D01*
X123534715Y-74385714D01*
X123607287Y-74676000D01*
X123607287Y-75038857D01*
X123534715Y-75329143D01*
X123462144Y-75474286D01*
X123389573Y-75546857D01*
X123244430Y-75619429D01*
X123099287Y-75619429D01*
X122954144Y-75546857D01*
X122881573Y-75474286D01*
X122809001Y-75329143D01*
X122736430Y-75038857D01*
X122736430Y-74676000D01*
X122809001Y-74385714D01*
X122881573Y-74240571D01*
X122954144Y-74168000D01*
X123099287Y-74095429D01*
X124913573Y-74603429D02*
X124913573Y-75619429D01*
X124550716Y-74022857D02*
X124187859Y-75111429D01*
X125131287Y-75111429D01*
X127308431Y-76200000D02*
X127235859Y-76127429D01*
X127090716Y-75909714D01*
X127018145Y-75764571D01*
X126945574Y-75546857D01*
X126873002Y-75184000D01*
X126873002Y-74893714D01*
X126945574Y-74530857D01*
X127018145Y-74313143D01*
X127090716Y-74168000D01*
X127235859Y-73950286D01*
X127308431Y-73877714D01*
X128542145Y-75546857D02*
X128397002Y-75619429D01*
X128106716Y-75619429D01*
X127961574Y-75546857D01*
X127889002Y-75474286D01*
X127816431Y-75329143D01*
X127816431Y-74893714D01*
X127889002Y-74748571D01*
X127961574Y-74676000D01*
X128106716Y-74603429D01*
X128397002Y-74603429D01*
X128542145Y-74676000D01*
X129050145Y-76200000D02*
X129122717Y-76127429D01*
X129267860Y-75909714D01*
X129340431Y-75764571D01*
X129413002Y-75546857D01*
X129485574Y-75184000D01*
X129485574Y-74893714D01*
X129413002Y-74530857D01*
X129340431Y-74313143D01*
X129267860Y-74168000D01*
X129122717Y-73950286D01*
X129050145Y-73877714D01*
X131299860Y-74240571D02*
X131372431Y-74168000D01*
X131517574Y-74095429D01*
X131880431Y-74095429D01*
X132025574Y-74168000D01*
X132098145Y-74240571D01*
X132170717Y-74385714D01*
X132170717Y-74530857D01*
X132098145Y-74748571D01*
X131227288Y-75619429D01*
X132170717Y-75619429D01*
X133114146Y-74095429D02*
X133259289Y-74095429D01*
X133404432Y-74168000D01*
X133477003Y-74240571D01*
X133549574Y-74385714D01*
X133622146Y-74676000D01*
X133622146Y-75038857D01*
X133549574Y-75329143D01*
X133477003Y-75474286D01*
X133404432Y-75546857D01*
X133259289Y-75619429D01*
X133114146Y-75619429D01*
X132969003Y-75546857D01*
X132896432Y-75474286D01*
X132823860Y-75329143D01*
X132751289Y-75038857D01*
X132751289Y-74676000D01*
X132823860Y-74385714D01*
X132896432Y-74240571D01*
X132969003Y-74168000D01*
X133114146Y-74095429D01*
X135073575Y-75619429D02*
X134202718Y-75619429D01*
X134638146Y-75619429D02*
X134638146Y-74095429D01*
X134493003Y-74313143D01*
X134347861Y-74458286D01*
X134202718Y-74530857D01*
X135581575Y-74095429D02*
X136597575Y-74095429D01*
X135944432Y-75619429D01*
X138121576Y-74095429D02*
X138992433Y-74095429D01*
X138557004Y-75619429D02*
X138557004Y-74095429D01*
X139500433Y-75619429D02*
X139500433Y-74095429D01*
X140153576Y-75619429D02*
X140153576Y-74821143D01*
X140081005Y-74676000D01*
X139935862Y-74603429D01*
X139718147Y-74603429D01*
X139573005Y-74676000D01*
X139500433Y-74748571D01*
X141459862Y-75546857D02*
X141314719Y-75619429D01*
X141024433Y-75619429D01*
X140879290Y-75546857D01*
X140806719Y-75401714D01*
X140806719Y-74821143D01*
X140879290Y-74676000D01*
X141024433Y-74603429D01*
X141314719Y-74603429D01*
X141459862Y-74676000D01*
X141532433Y-74821143D01*
X141532433Y-74966286D01*
X140806719Y-75111429D01*
X144145005Y-74168000D02*
X143999862Y-74095429D01*
X143782148Y-74095429D01*
X143564433Y-74168000D01*
X143419291Y-74313143D01*
X143346719Y-74458286D01*
X143274148Y-74748571D01*
X143274148Y-74966286D01*
X143346719Y-75256571D01*
X143419291Y-75401714D01*
X143564433Y-75546857D01*
X143782148Y-75619429D01*
X143927291Y-75619429D01*
X144145005Y-75546857D01*
X144217576Y-75474286D01*
X144217576Y-74966286D01*
X143927291Y-74966286D01*
X145088433Y-75619429D02*
X144943291Y-75546857D01*
X144870719Y-75401714D01*
X144870719Y-74095429D01*
X145669005Y-75619429D02*
X145669005Y-74603429D01*
X145669005Y-74095429D02*
X145596434Y-74168000D01*
X145669005Y-74240571D01*
X145741577Y-74168000D01*
X145669005Y-74095429D01*
X145669005Y-74240571D01*
X146177005Y-74603429D02*
X146757576Y-74603429D01*
X146394719Y-74095429D02*
X146394719Y-75401714D01*
X146467291Y-75546857D01*
X146612433Y-75619429D01*
X146757576Y-75619429D01*
X147918719Y-75546857D02*
X147773576Y-75619429D01*
X147483290Y-75619429D01*
X147338148Y-75546857D01*
X147265576Y-75474286D01*
X147193005Y-75329143D01*
X147193005Y-74893714D01*
X147265576Y-74748571D01*
X147338148Y-74676000D01*
X147483290Y-74603429D01*
X147773576Y-74603429D01*
X147918719Y-74676000D01*
X148571862Y-75619429D02*
X148571862Y-74095429D01*
X149225005Y-75619429D02*
X149225005Y-74821143D01*
X149152434Y-74676000D01*
X149007291Y-74603429D01*
X148789576Y-74603429D01*
X148644434Y-74676000D01*
X148571862Y-74748571D01*
X150966719Y-74095429D02*
X151329576Y-75619429D01*
X151619862Y-74530857D01*
X151910148Y-75619429D01*
X152273005Y-74095429D01*
X153071290Y-75619429D02*
X152926148Y-75546857D01*
X152853576Y-75474286D01*
X152781005Y-75329143D01*
X152781005Y-74893714D01*
X152853576Y-74748571D01*
X152926148Y-74676000D01*
X153071290Y-74603429D01*
X153289005Y-74603429D01*
X153434148Y-74676000D01*
X153506719Y-74748571D01*
X153579290Y-74893714D01*
X153579290Y-75329143D01*
X153506719Y-75474286D01*
X153434148Y-75546857D01*
X153289005Y-75619429D01*
X153071290Y-75619429D01*
X154232433Y-75619429D02*
X154232433Y-74603429D01*
X154232433Y-74893714D02*
X154305005Y-74748571D01*
X154377576Y-74676000D01*
X154522719Y-74603429D01*
X154667862Y-74603429D01*
X155175862Y-75619429D02*
X155175862Y-74095429D01*
X155321005Y-75038857D02*
X155756434Y-75619429D01*
X155756434Y-74603429D02*
X155175862Y-75184000D01*
X156337005Y-75546857D02*
X156482148Y-75619429D01*
X156772433Y-75619429D01*
X156917576Y-75546857D01*
X156990148Y-75401714D01*
X156990148Y-75329143D01*
X156917576Y-75184000D01*
X156772433Y-75111429D01*
X156554719Y-75111429D01*
X156409576Y-75038857D01*
X156337005Y-74893714D01*
X156337005Y-74821143D01*
X156409576Y-74676000D01*
X156554719Y-74603429D01*
X156772433Y-74603429D01*
X156917576Y-74676000D01*
X108947857Y-78159429D02*
X108947857Y-76635429D01*
X109601000Y-78159429D02*
X109601000Y-77361143D01*
X109528429Y-77216000D01*
X109383286Y-77143429D01*
X109165571Y-77143429D01*
X109020429Y-77216000D01*
X108947857Y-77288571D01*
X110109000Y-77143429D02*
X110689571Y-77143429D01*
X110326714Y-76635429D02*
X110326714Y-77941714D01*
X110399286Y-78086857D01*
X110544428Y-78159429D01*
X110689571Y-78159429D01*
X110979857Y-77143429D02*
X111560428Y-77143429D01*
X111197571Y-76635429D02*
X111197571Y-77941714D01*
X111270143Y-78086857D01*
X111415285Y-78159429D01*
X111560428Y-78159429D01*
X112068428Y-77143429D02*
X112068428Y-78667429D01*
X112068428Y-77216000D02*
X112213571Y-77143429D01*
X112503857Y-77143429D01*
X112649000Y-77216000D01*
X112721571Y-77288571D01*
X112794142Y-77433714D01*
X112794142Y-77869143D01*
X112721571Y-78014286D01*
X112649000Y-78086857D01*
X112503857Y-78159429D01*
X112213571Y-78159429D01*
X112068428Y-78086857D01*
X113447285Y-78014286D02*
X113519857Y-78086857D01*
X113447285Y-78159429D01*
X113374714Y-78086857D01*
X113447285Y-78014286D01*
X113447285Y-78159429D01*
X113447285Y-77216000D02*
X113519857Y-77288571D01*
X113447285Y-77361143D01*
X113374714Y-77288571D01*
X113447285Y-77216000D01*
X113447285Y-77361143D01*
X115261571Y-76562857D02*
X113955285Y-78522286D01*
X116858142Y-76562857D02*
X115551856Y-78522286D01*
X117220998Y-77143429D02*
X117511284Y-78159429D01*
X117801570Y-77433714D01*
X118091855Y-78159429D01*
X118382141Y-77143429D01*
X118817569Y-77143429D02*
X119107855Y-78159429D01*
X119398141Y-77433714D01*
X119688426Y-78159429D01*
X119978712Y-77143429D01*
X120414140Y-77143429D02*
X120704426Y-78159429D01*
X120994712Y-77433714D01*
X121284997Y-78159429D01*
X121575283Y-77143429D01*
X122155854Y-78014286D02*
X122228426Y-78086857D01*
X122155854Y-78159429D01*
X122083283Y-78086857D01*
X122155854Y-78014286D01*
X122155854Y-78159429D01*
X123534711Y-77143429D02*
X123534711Y-78377143D01*
X123462140Y-78522286D01*
X123389568Y-78594857D01*
X123244425Y-78667429D01*
X123026711Y-78667429D01*
X122881568Y-78594857D01*
X123534711Y-78086857D02*
X123389568Y-78159429D01*
X123099282Y-78159429D01*
X122954140Y-78086857D01*
X122881568Y-78014286D01*
X122808997Y-77869143D01*
X122808997Y-77433714D01*
X122881568Y-77288571D01*
X122954140Y-77216000D01*
X123099282Y-77143429D01*
X123389568Y-77143429D01*
X123534711Y-77216000D01*
X124478139Y-78159429D02*
X124332997Y-78086857D01*
X124260425Y-77941714D01*
X124260425Y-76635429D01*
X125058711Y-78159429D02*
X125058711Y-77143429D01*
X125058711Y-76635429D02*
X124986140Y-76708000D01*
X125058711Y-76780571D01*
X125131283Y-76708000D01*
X125058711Y-76635429D01*
X125058711Y-76780571D01*
X125566711Y-77143429D02*
X126147282Y-77143429D01*
X125784425Y-76635429D02*
X125784425Y-77941714D01*
X125856997Y-78086857D01*
X126002139Y-78159429D01*
X126147282Y-78159429D01*
X127308425Y-78086857D02*
X127163282Y-78159429D01*
X126872996Y-78159429D01*
X126727854Y-78086857D01*
X126655282Y-78014286D01*
X126582711Y-77869143D01*
X126582711Y-77433714D01*
X126655282Y-77288571D01*
X126727854Y-77216000D01*
X126872996Y-77143429D01*
X127163282Y-77143429D01*
X127308425Y-77216000D01*
X127961568Y-78159429D02*
X127961568Y-76635429D01*
X128614711Y-78159429D02*
X128614711Y-77361143D01*
X128542140Y-77216000D01*
X128396997Y-77143429D01*
X128179282Y-77143429D01*
X128034140Y-77216000D01*
X127961568Y-77288571D01*
X129195282Y-77143429D02*
X129485568Y-78159429D01*
X129775854Y-77433714D01*
X130066139Y-78159429D01*
X130356425Y-77143429D01*
X130936996Y-78159429D02*
X130936996Y-77143429D01*
X130936996Y-77433714D02*
X131009568Y-77288571D01*
X131082139Y-77216000D01*
X131227282Y-77143429D01*
X131372425Y-77143429D01*
X131880425Y-78159429D02*
X131880425Y-76635429D01*
X132025568Y-77578857D02*
X132460997Y-78159429D01*
X132460997Y-77143429D02*
X131880425Y-77724000D01*
X133041568Y-78086857D02*
X133186711Y-78159429D01*
X133476996Y-78159429D01*
X133622139Y-78086857D01*
X133694711Y-77941714D01*
X133694711Y-77869143D01*
X133622139Y-77724000D01*
X133476996Y-77651429D01*
X133259282Y-77651429D01*
X133114139Y-77578857D01*
X133041568Y-77433714D01*
X133041568Y-77361143D01*
X133114139Y-77216000D01*
X133259282Y-77143429D01*
X133476996Y-77143429D01*
X133622139Y-77216000D01*
X134347853Y-78014286D02*
X134420425Y-78086857D01*
X134347853Y-78159429D01*
X134275282Y-78086857D01*
X134347853Y-78014286D01*
X134347853Y-78159429D01*
X135726710Y-78086857D02*
X135581567Y-78159429D01*
X135291281Y-78159429D01*
X135146139Y-78086857D01*
X135073567Y-78014286D01*
X135000996Y-77869143D01*
X135000996Y-77433714D01*
X135073567Y-77288571D01*
X135146139Y-77216000D01*
X135291281Y-77143429D01*
X135581567Y-77143429D01*
X135726710Y-77216000D01*
X136597567Y-78159429D02*
X136452425Y-78086857D01*
X136379853Y-78014286D01*
X136307282Y-77869143D01*
X136307282Y-77433714D01*
X136379853Y-77288571D01*
X136452425Y-77216000D01*
X136597567Y-77143429D01*
X136815282Y-77143429D01*
X136960425Y-77216000D01*
X137032996Y-77288571D01*
X137105567Y-77433714D01*
X137105567Y-77869143D01*
X137032996Y-78014286D01*
X136960425Y-78086857D01*
X136815282Y-78159429D01*
X136597567Y-78159429D01*
X137758710Y-78159429D02*
X137758710Y-77143429D01*
X137758710Y-77288571D02*
X137831282Y-77216000D01*
X137976424Y-77143429D01*
X138194139Y-77143429D01*
X138339282Y-77216000D01*
X138411853Y-77361143D01*
X138411853Y-78159429D01*
X138411853Y-77361143D02*
X138484424Y-77216000D01*
X138629567Y-77143429D01*
X138847282Y-77143429D01*
X138992424Y-77216000D01*
X139064996Y-77361143D01*
X139064996Y-78159429D01*
X140879282Y-76562857D02*
X139572996Y-78522286D01*
X141242138Y-78159429D02*
X142040424Y-77143429D01*
X141242138Y-77143429D02*
X142040424Y-78159429D01*
X142403281Y-77143429D02*
X142983852Y-77143429D01*
X142620995Y-76635429D02*
X142620995Y-77941714D01*
X142693567Y-78086857D01*
X142838709Y-78159429D01*
X142983852Y-78159429D01*
X143491852Y-77578857D02*
X144652995Y-77578857D01*
X145378709Y-78159429D02*
X145378709Y-77143429D01*
X145378709Y-76635429D02*
X145306138Y-76708000D01*
X145378709Y-76780571D01*
X145451281Y-76708000D01*
X145378709Y-76635429D01*
X145378709Y-76780571D01*
X146757566Y-78159429D02*
X146757566Y-76635429D01*
X146757566Y-78086857D02*
X146612423Y-78159429D01*
X146322137Y-78159429D01*
X146176995Y-78086857D01*
X146104423Y-78014286D01*
X146031852Y-77869143D01*
X146031852Y-77433714D01*
X146104423Y-77288571D01*
X146176995Y-77216000D01*
X146322137Y-77143429D01*
X146612423Y-77143429D01*
X146757566Y-77216000D01*
X148063852Y-78086857D02*
X147918709Y-78159429D01*
X147628423Y-78159429D01*
X147483280Y-78086857D01*
X147410709Y-77941714D01*
X147410709Y-77361143D01*
X147483280Y-77216000D01*
X147628423Y-77143429D01*
X147918709Y-77143429D01*
X148063852Y-77216000D01*
X148136423Y-77361143D01*
X148136423Y-77506286D01*
X147410709Y-77651429D01*
X93617143Y-84394524D02*
X93012381Y-84394524D01*
X92951905Y-84999286D01*
X93012381Y-84938810D01*
X93133333Y-84878333D01*
X93435714Y-84878333D01*
X93556667Y-84938810D01*
X93617143Y-84999286D01*
X93677619Y-85120238D01*
X93677619Y-85422619D01*
X93617143Y-85543571D01*
X93556667Y-85604048D01*
X93435714Y-85664524D01*
X93133333Y-85664524D01*
X93012381Y-85604048D01*
X92951905Y-85543571D01*
X94040476Y-84394524D02*
X94463810Y-85664524D01*
X94887143Y-84394524D01*
X96520000Y-84394524D02*
X96761904Y-84394524D01*
X96882857Y-84455000D01*
X97003809Y-84575952D01*
X97064285Y-84817857D01*
X97064285Y-85241190D01*
X97003809Y-85483095D01*
X96882857Y-85604048D01*
X96761904Y-85664524D01*
X96520000Y-85664524D01*
X96399047Y-85604048D01*
X96278095Y-85483095D01*
X96217619Y-85241190D01*
X96217619Y-84817857D01*
X96278095Y-84575952D01*
X96399047Y-84455000D01*
X96520000Y-84394524D01*
X97608571Y-85664524D02*
X97608571Y-84394524D01*
X98334285Y-85664524D01*
X98334285Y-84394524D01*
X99906666Y-85664524D02*
X99906666Y-84394524D01*
X100511428Y-85664524D02*
X100511428Y-84394524D01*
X100813809Y-84394524D01*
X100995237Y-84455000D01*
X101116190Y-84575952D01*
X101176666Y-84696905D01*
X101237142Y-84938810D01*
X101237142Y-85120238D01*
X101176666Y-85362143D01*
X101116190Y-85483095D01*
X100995237Y-85604048D01*
X100813809Y-85664524D01*
X100511428Y-85664524D01*
X101781428Y-84999286D02*
X102204761Y-84999286D01*
X102386190Y-85664524D02*
X101781428Y-85664524D01*
X101781428Y-84394524D01*
X102386190Y-84394524D01*
X103898095Y-85664524D02*
X103898095Y-84394524D01*
X104381904Y-84394524D01*
X104502857Y-84455000D01*
X104563333Y-84515476D01*
X104623809Y-84636429D01*
X104623809Y-84817857D01*
X104563333Y-84938810D01*
X104502857Y-84999286D01*
X104381904Y-85059762D01*
X103898095Y-85059762D01*
X105168095Y-85664524D02*
X105168095Y-84394524D01*
X105772857Y-85664524D02*
X105772857Y-84394524D01*
X106498571Y-85664524D01*
X106498571Y-84394524D01*
X108010476Y-84515476D02*
X108070952Y-84455000D01*
X108191904Y-84394524D01*
X108494285Y-84394524D01*
X108615238Y-84455000D01*
X108675714Y-84515476D01*
X108736190Y-84636429D01*
X108736190Y-84757381D01*
X108675714Y-84938810D01*
X107950000Y-85664524D01*
X108736190Y-85664524D01*
X109522381Y-84394524D02*
X109643333Y-84394524D01*
X109764285Y-84455000D01*
X109824762Y-84515476D01*
X109885238Y-84636429D01*
X109945714Y-84878333D01*
X109945714Y-85180714D01*
X109885238Y-85422619D01*
X109824762Y-85543571D01*
X109764285Y-85604048D01*
X109643333Y-85664524D01*
X109522381Y-85664524D01*
X109401428Y-85604048D01*
X109340952Y-85543571D01*
X109280476Y-85422619D01*
X109220000Y-85180714D01*
X109220000Y-84878333D01*
X109280476Y-84636429D01*
X109340952Y-84515476D01*
X109401428Y-84455000D01*
X109522381Y-84394524D01*
X148831905Y-41970476D02*
X148892381Y-41910000D01*
X149013333Y-41849524D01*
X149315714Y-41849524D01*
X149436667Y-41910000D01*
X149497143Y-41970476D01*
X149557619Y-42091429D01*
X149557619Y-42212381D01*
X149497143Y-42393810D01*
X148771429Y-43119524D01*
X149557619Y-43119524D01*
X150101905Y-42635714D02*
X151069524Y-42635714D01*
X151553334Y-41849524D02*
X152339524Y-41849524D01*
X151916191Y-42333333D01*
X152097619Y-42333333D01*
X152218572Y-42393810D01*
X152279048Y-42454286D01*
X152339524Y-42575238D01*
X152339524Y-42877619D01*
X152279048Y-42998571D01*
X152218572Y-43059048D01*
X152097619Y-43119524D01*
X151734762Y-43119524D01*
X151613810Y-43059048D01*
X151553334Y-42998571D01*
X153851429Y-43119524D02*
X153851429Y-41849524D01*
X153851429Y-42454286D02*
X154577143Y-42454286D01*
X154577143Y-43119524D02*
X154577143Y-41849524D01*
X155181905Y-43119524D02*
X155181905Y-41849524D01*
X156693810Y-43059048D02*
X156875238Y-43119524D01*
X157177619Y-43119524D01*
X157298572Y-43059048D01*
X157359048Y-42998571D01*
X157419524Y-42877619D01*
X157419524Y-42756667D01*
X157359048Y-42635714D01*
X157298572Y-42575238D01*
X157177619Y-42514762D01*
X156935715Y-42454286D01*
X156814762Y-42393810D01*
X156754286Y-42333333D01*
X156693810Y-42212381D01*
X156693810Y-42091429D01*
X156754286Y-41970476D01*
X156814762Y-41910000D01*
X156935715Y-41849524D01*
X157238095Y-41849524D01*
X157419524Y-41910000D01*
X157963810Y-43119524D02*
X157963810Y-41849524D01*
X158447619Y-41849524D01*
X158568572Y-41910000D01*
X158629048Y-41970476D01*
X158689524Y-42091429D01*
X158689524Y-42272857D01*
X158629048Y-42393810D01*
X158568572Y-42454286D01*
X158447619Y-42514762D01*
X157963810Y-42514762D01*
X159233810Y-42454286D02*
X159657143Y-42454286D01*
X159838572Y-43119524D02*
X159233810Y-43119524D01*
X159233810Y-41849524D01*
X159838572Y-41849524D01*
X160382858Y-42454286D02*
X160806191Y-42454286D01*
X160987620Y-43119524D02*
X160382858Y-43119524D01*
X160382858Y-41849524D01*
X160987620Y-41849524D01*
X161531906Y-43119524D02*
X161531906Y-41849524D01*
X161834287Y-41849524D01*
X162015715Y-41910000D01*
X162136668Y-42030952D01*
X162197144Y-42151905D01*
X162257620Y-42393810D01*
X162257620Y-42575238D01*
X162197144Y-42817143D01*
X162136668Y-42938095D01*
X162015715Y-43059048D01*
X161834287Y-43119524D01*
X161531906Y-43119524D01*
X149557619Y-38039524D02*
X148831905Y-38039524D01*
X149194762Y-38039524D02*
X149194762Y-36769524D01*
X149073810Y-36950952D01*
X148952857Y-37071905D01*
X148831905Y-37132381D01*
X150101905Y-37555714D02*
X151069524Y-37555714D01*
X151613810Y-36890476D02*
X151674286Y-36830000D01*
X151795238Y-36769524D01*
X152097619Y-36769524D01*
X152218572Y-36830000D01*
X152279048Y-36890476D01*
X152339524Y-37011429D01*
X152339524Y-37132381D01*
X152279048Y-37313810D01*
X151553334Y-38039524D01*
X152339524Y-38039524D01*
X154577143Y-37918571D02*
X154516667Y-37979048D01*
X154335238Y-38039524D01*
X154214286Y-38039524D01*
X154032858Y-37979048D01*
X153911905Y-37858095D01*
X153851429Y-37737143D01*
X153790953Y-37495238D01*
X153790953Y-37313810D01*
X153851429Y-37071905D01*
X153911905Y-36950952D01*
X154032858Y-36830000D01*
X154214286Y-36769524D01*
X154335238Y-36769524D01*
X154516667Y-36830000D01*
X154577143Y-36890476D01*
X155363334Y-36769524D02*
X155605238Y-36769524D01*
X155726191Y-36830000D01*
X155847143Y-36950952D01*
X155907619Y-37192857D01*
X155907619Y-37616190D01*
X155847143Y-37858095D01*
X155726191Y-37979048D01*
X155605238Y-38039524D01*
X155363334Y-38039524D01*
X155242381Y-37979048D01*
X155121429Y-37858095D01*
X155060953Y-37616190D01*
X155060953Y-37192857D01*
X155121429Y-36950952D01*
X155242381Y-36830000D01*
X155363334Y-36769524D01*
X156451905Y-38039524D02*
X156451905Y-36769524D01*
X156875238Y-37676667D01*
X157298572Y-36769524D01*
X157298572Y-38039524D01*
X157903334Y-38039524D02*
X157903334Y-36769524D01*
X158387143Y-36769524D01*
X158508096Y-36830000D01*
X158568572Y-36890476D01*
X158629048Y-37011429D01*
X158629048Y-37192857D01*
X158568572Y-37313810D01*
X158508096Y-37374286D01*
X158387143Y-37434762D01*
X157903334Y-37434762D01*
X159112858Y-37676667D02*
X159717620Y-37676667D01*
X158991905Y-38039524D02*
X159415239Y-36769524D01*
X159838572Y-38039524D01*
X160080476Y-36769524D02*
X160806191Y-36769524D01*
X160443334Y-38039524D02*
X160443334Y-36769524D01*
X133833810Y-110338810D02*
X133712857Y-110278333D01*
X133652381Y-110217857D01*
X133591905Y-110096905D01*
X133591905Y-110036429D01*
X133652381Y-109915476D01*
X133712857Y-109855000D01*
X133833810Y-109794524D01*
X134075714Y-109794524D01*
X134196667Y-109855000D01*
X134257143Y-109915476D01*
X134317619Y-110036429D01*
X134317619Y-110096905D01*
X134257143Y-110217857D01*
X134196667Y-110278333D01*
X134075714Y-110338810D01*
X133833810Y-110338810D01*
X133712857Y-110399286D01*
X133652381Y-110459762D01*
X133591905Y-110580714D01*
X133591905Y-110822619D01*
X133652381Y-110943571D01*
X133712857Y-111004048D01*
X133833810Y-111064524D01*
X134075714Y-111064524D01*
X134196667Y-111004048D01*
X134257143Y-110943571D01*
X134317619Y-110822619D01*
X134317619Y-110580714D01*
X134257143Y-110459762D01*
X134196667Y-110399286D01*
X134075714Y-110338810D01*
X134861905Y-111064524D02*
X134861905Y-109794524D01*
X135587619Y-111064524D02*
X135043334Y-110338810D01*
X135587619Y-109794524D02*
X134861905Y-110520238D01*
X133833810Y-107798810D02*
X133712857Y-107738333D01*
X133652381Y-107677857D01*
X133591905Y-107556905D01*
X133591905Y-107496429D01*
X133652381Y-107375476D01*
X133712857Y-107315000D01*
X133833810Y-107254524D01*
X134075714Y-107254524D01*
X134196667Y-107315000D01*
X134257143Y-107375476D01*
X134317619Y-107496429D01*
X134317619Y-107556905D01*
X134257143Y-107677857D01*
X134196667Y-107738333D01*
X134075714Y-107798810D01*
X133833810Y-107798810D01*
X133712857Y-107859286D01*
X133652381Y-107919762D01*
X133591905Y-108040714D01*
X133591905Y-108282619D01*
X133652381Y-108403571D01*
X133712857Y-108464048D01*
X133833810Y-108524524D01*
X134075714Y-108524524D01*
X134196667Y-108464048D01*
X134257143Y-108403571D01*
X134317619Y-108282619D01*
X134317619Y-108040714D01*
X134257143Y-107919762D01*
X134196667Y-107859286D01*
X134075714Y-107798810D01*
X134861905Y-108524524D02*
X134861905Y-107254524D01*
X135587619Y-108524524D02*
X135043334Y-107798810D01*
X135587619Y-107254524D02*
X134861905Y-107980238D01*
X133591905Y-105621667D02*
X134196667Y-105621667D01*
X133470952Y-105984524D02*
X133894286Y-104714524D01*
X134317619Y-105984524D01*
X135406190Y-105984524D02*
X134680476Y-105984524D01*
X135043333Y-105984524D02*
X135043333Y-104714524D01*
X134922381Y-104895952D01*
X134801428Y-105016905D01*
X134680476Y-105077381D01*
X135829524Y-104714524D02*
X136615714Y-104714524D01*
X136192381Y-105198333D01*
X136373809Y-105198333D01*
X136494762Y-105258810D01*
X136555238Y-105319286D01*
X136615714Y-105440238D01*
X136615714Y-105742619D01*
X136555238Y-105863571D01*
X136494762Y-105924048D01*
X136373809Y-105984524D01*
X136010952Y-105984524D01*
X135890000Y-105924048D01*
X135829524Y-105863571D01*
X133591905Y-103081667D02*
X134196667Y-103081667D01*
X133470952Y-103444524D02*
X133894286Y-102174524D01*
X134317619Y-103444524D01*
X135406190Y-103444524D02*
X134680476Y-103444524D01*
X135043333Y-103444524D02*
X135043333Y-102174524D01*
X134922381Y-102355952D01*
X134801428Y-102476905D01*
X134680476Y-102537381D01*
X136494762Y-102597857D02*
X136494762Y-103444524D01*
X136192381Y-102114048D02*
X135890000Y-103021190D01*
X136676190Y-103021190D01*
X133591905Y-100541667D02*
X134196667Y-100541667D01*
X133470952Y-100904524D02*
X133894286Y-99634524D01*
X134317619Y-100904524D01*
X135406190Y-100904524D02*
X134680476Y-100904524D01*
X135043333Y-100904524D02*
X135043333Y-99634524D01*
X134922381Y-99815952D01*
X134801428Y-99936905D01*
X134680476Y-99997381D01*
X136555238Y-99634524D02*
X135950476Y-99634524D01*
X135890000Y-100239286D01*
X135950476Y-100178810D01*
X136071428Y-100118333D01*
X136373809Y-100118333D01*
X136494762Y-100178810D01*
X136555238Y-100239286D01*
X136615714Y-100360238D01*
X136615714Y-100662619D01*
X136555238Y-100783571D01*
X136494762Y-100844048D01*
X136373809Y-100904524D01*
X136071428Y-100904524D01*
X135950476Y-100844048D01*
X135890000Y-100783571D01*
X133591905Y-98001667D02*
X134196667Y-98001667D01*
X133470952Y-98364524D02*
X133894286Y-97094524D01*
X134317619Y-98364524D01*
X135406190Y-98364524D02*
X134680476Y-98364524D01*
X135043333Y-98364524D02*
X135043333Y-97094524D01*
X134922381Y-97275952D01*
X134801428Y-97396905D01*
X134680476Y-97457381D01*
X136494762Y-97094524D02*
X136252857Y-97094524D01*
X136131905Y-97155000D01*
X136071428Y-97215476D01*
X135950476Y-97396905D01*
X135890000Y-97638810D01*
X135890000Y-98122619D01*
X135950476Y-98243571D01*
X136010952Y-98304048D01*
X136131905Y-98364524D01*
X136373809Y-98364524D01*
X136494762Y-98304048D01*
X136555238Y-98243571D01*
X136615714Y-98122619D01*
X136615714Y-97820238D01*
X136555238Y-97699286D01*
X136494762Y-97638810D01*
X136373809Y-97578333D01*
X136131905Y-97578333D01*
X136010952Y-97638810D01*
X135950476Y-97699286D01*
X135890000Y-97820238D01*
X133652381Y-112939286D02*
X134075714Y-112939286D01*
X134257143Y-113604524D02*
X133652381Y-113604524D01*
X133652381Y-112334524D01*
X134257143Y-112334524D01*
X134801429Y-113604524D02*
X134801429Y-112334524D01*
X135527143Y-113604524D01*
X135527143Y-112334524D01*
X136071429Y-113241667D02*
X136676191Y-113241667D01*
X135950476Y-113604524D02*
X136373810Y-112334524D01*
X136797143Y-113604524D01*
X133531429Y-114874524D02*
X133833810Y-116144524D01*
X134075714Y-115237381D01*
X134317619Y-116144524D01*
X134620000Y-114874524D01*
X135829524Y-116144524D02*
X135406191Y-115539762D01*
X135103810Y-116144524D02*
X135103810Y-114874524D01*
X135587619Y-114874524D01*
X135708572Y-114935000D01*
X135769048Y-114995476D01*
X135829524Y-115116429D01*
X135829524Y-115297857D01*
X135769048Y-115418810D01*
X135708572Y-115479286D01*
X135587619Y-115539762D01*
X135103810Y-115539762D01*
X78981905Y-110701667D02*
X79586667Y-110701667D01*
X78860952Y-111064524D02*
X79284286Y-109794524D01*
X79707619Y-111064524D01*
X80675238Y-110217857D02*
X80675238Y-111064524D01*
X80372857Y-109734048D02*
X80070476Y-110641190D01*
X80856666Y-110641190D01*
X78981905Y-108161667D02*
X79586667Y-108161667D01*
X78860952Y-108524524D02*
X79284286Y-107254524D01*
X79707619Y-108524524D01*
X80735714Y-107254524D02*
X80130952Y-107254524D01*
X80070476Y-107859286D01*
X80130952Y-107798810D01*
X80251904Y-107738333D01*
X80554285Y-107738333D01*
X80675238Y-107798810D01*
X80735714Y-107859286D01*
X80796190Y-107980238D01*
X80796190Y-108282619D01*
X80735714Y-108403571D01*
X80675238Y-108464048D01*
X80554285Y-108524524D01*
X80251904Y-108524524D01*
X80130952Y-108464048D01*
X80070476Y-108403571D01*
X78981905Y-105621667D02*
X79586667Y-105621667D01*
X78860952Y-105984524D02*
X79284286Y-104714524D01*
X79707619Y-105984524D01*
X80675238Y-104714524D02*
X80433333Y-104714524D01*
X80312381Y-104775000D01*
X80251904Y-104835476D01*
X80130952Y-105016905D01*
X80070476Y-105258810D01*
X80070476Y-105742619D01*
X80130952Y-105863571D01*
X80191428Y-105924048D01*
X80312381Y-105984524D01*
X80554285Y-105984524D01*
X80675238Y-105924048D01*
X80735714Y-105863571D01*
X80796190Y-105742619D01*
X80796190Y-105440238D01*
X80735714Y-105319286D01*
X80675238Y-105258810D01*
X80554285Y-105198333D01*
X80312381Y-105198333D01*
X80191428Y-105258810D01*
X80130952Y-105319286D01*
X80070476Y-105440238D01*
X78981905Y-103081667D02*
X79586667Y-103081667D01*
X78860952Y-103444524D02*
X79284286Y-102174524D01*
X79707619Y-103444524D01*
X80010000Y-102174524D02*
X80856666Y-102174524D01*
X80312381Y-103444524D01*
X78981905Y-100541667D02*
X79586667Y-100541667D01*
X78860952Y-100904524D02*
X79284286Y-99634524D01*
X79707619Y-100904524D01*
X80312381Y-100178810D02*
X80191428Y-100118333D01*
X80130952Y-100057857D01*
X80070476Y-99936905D01*
X80070476Y-99876429D01*
X80130952Y-99755476D01*
X80191428Y-99695000D01*
X80312381Y-99634524D01*
X80554285Y-99634524D01*
X80675238Y-99695000D01*
X80735714Y-99755476D01*
X80796190Y-99876429D01*
X80796190Y-99936905D01*
X80735714Y-100057857D01*
X80675238Y-100118333D01*
X80554285Y-100178810D01*
X80312381Y-100178810D01*
X80191428Y-100239286D01*
X80130952Y-100299762D01*
X80070476Y-100420714D01*
X80070476Y-100662619D01*
X80130952Y-100783571D01*
X80191428Y-100844048D01*
X80312381Y-100904524D01*
X80554285Y-100904524D01*
X80675238Y-100844048D01*
X80735714Y-100783571D01*
X80796190Y-100662619D01*
X80796190Y-100420714D01*
X80735714Y-100299762D01*
X80675238Y-100239286D01*
X80554285Y-100178810D01*
X78981905Y-98001667D02*
X79586667Y-98001667D01*
X78860952Y-98364524D02*
X79284286Y-97094524D01*
X79707619Y-98364524D01*
X80191428Y-98364524D02*
X80433333Y-98364524D01*
X80554285Y-98304048D01*
X80614761Y-98243571D01*
X80735714Y-98062143D01*
X80796190Y-97820238D01*
X80796190Y-97336429D01*
X80735714Y-97215476D01*
X80675238Y-97155000D01*
X80554285Y-97094524D01*
X80312381Y-97094524D01*
X80191428Y-97155000D01*
X80130952Y-97215476D01*
X80070476Y-97336429D01*
X80070476Y-97638810D01*
X80130952Y-97759762D01*
X80191428Y-97820238D01*
X80312381Y-97880714D01*
X80554285Y-97880714D01*
X80675238Y-97820238D01*
X80735714Y-97759762D01*
X80796190Y-97638810D01*
X102507143Y-122615476D02*
X102567619Y-122555000D01*
X102688571Y-122494524D01*
X102990952Y-122494524D01*
X103111905Y-122555000D01*
X103172381Y-122615476D01*
X103232857Y-122736429D01*
X103232857Y-122857381D01*
X103172381Y-123038810D01*
X102446667Y-123764524D01*
X103232857Y-123764524D01*
X112606667Y-122494524D02*
X113453333Y-122494524D01*
X112909048Y-123764524D01*
X110792381Y-122494524D02*
X110187619Y-122494524D01*
X110127143Y-123099286D01*
X110187619Y-123038810D01*
X110308571Y-122978333D01*
X110610952Y-122978333D01*
X110731905Y-123038810D01*
X110792381Y-123099286D01*
X110852857Y-123220238D01*
X110852857Y-123522619D01*
X110792381Y-123643571D01*
X110731905Y-123704048D01*
X110610952Y-123764524D01*
X110308571Y-123764524D01*
X110187619Y-123704048D01*
X110127143Y-123643571D01*
X108191905Y-122917857D02*
X108191905Y-123764524D01*
X107889524Y-122434048D02*
X107587143Y-123341190D01*
X108373333Y-123341190D01*
X104986667Y-122494524D02*
X105772857Y-122494524D01*
X105349524Y-122978333D01*
X105530952Y-122978333D01*
X105651905Y-123038810D01*
X105712381Y-123099286D01*
X105772857Y-123220238D01*
X105772857Y-123522619D01*
X105712381Y-123643571D01*
X105651905Y-123704048D01*
X105530952Y-123764524D01*
X105168095Y-123764524D01*
X105047143Y-123704048D01*
X104986667Y-123643571D01*
X99695000Y-69850000D02*
X99695000Y-68961000D01*
X107315000Y-69850000D02*
X107315000Y-68961000D01*
X99695000Y-69850000D02*
X107315000Y-69850000D01*
X107315000Y-43180000D02*
X107315000Y-44069000D01*
X99695000Y-43180000D02*
X99695000Y-44069000D01*
X104775000Y-43180000D02*
X107315000Y-43180000D01*
X102235000Y-43180000D02*
X99695000Y-43180000D01*
X103505000Y-44450000D02*
G75*
G03X104775000Y-43180000I0J1270000D01*
G01*
X102235000Y-43180000D02*
G75*
G03X103505000Y-44450000I1270000J0D01*
G01*
X126365000Y-69850000D02*
X126365000Y-68961000D01*
X133985000Y-69850000D02*
X133985000Y-68961000D01*
X126365000Y-69850000D02*
X133985000Y-69850000D01*
X133985000Y-43180000D02*
X133985000Y-44069000D01*
X126365000Y-43180000D02*
X126365000Y-44069000D01*
X131445000Y-43180000D02*
X133985000Y-43180000D01*
X128905000Y-43180000D02*
X126365000Y-43180000D01*
X130175000Y-44450000D02*
G75*
G03X131445000Y-43180000I0J1270000D01*
G01*
X128905000Y-43180000D02*
G75*
G03X130175000Y-44450000I1270000J0D01*
G01*
X101600000Y-124460000D02*
X114300000Y-124460000D01*
X114300000Y-124460000D02*
X114300000Y-129540000D01*
X114300000Y-129540000D02*
X101600000Y-129540000D01*
X101600000Y-129540000D02*
X101600000Y-124460000D01*
X145415000Y-36195000D02*
X147955000Y-36195000D01*
X147955000Y-36195000D02*
X147955000Y-43815000D01*
X147955000Y-43815000D02*
X145415000Y-43815000D01*
X145415000Y-43815000D02*
X145415000Y-36195000D01*
X147955000Y-38735000D02*
X145415000Y-38735000D01*
X137795000Y-36195000D02*
X140335000Y-36195000D01*
X140335000Y-36195000D02*
X140335000Y-43815000D01*
X140335000Y-43815000D02*
X137795000Y-43815000D01*
X137795000Y-43815000D02*
X137795000Y-36195000D01*
X140335000Y-38735000D02*
X137795000Y-38735000D01*
X187325000Y-38735000D02*
X187325000Y-41275000D01*
X187325000Y-41275000D02*
X182245000Y-41275000D01*
X182245000Y-41275000D02*
X182245000Y-38735000D01*
X182245000Y-38735000D02*
X187325000Y-38735000D01*
X104140000Y-81280000D02*
X104140000Y-83820000D01*
X104140000Y-83820000D02*
X99060000Y-83820000D01*
X99060000Y-83820000D02*
X99060000Y-81280000D01*
X99060000Y-81280000D02*
X104140000Y-81280000D01*
X180284888Y-38480096D02*
G75*
G03X180300000Y-41505000I-2484888J-1524904D01*
G01*
X180300000Y-38505000D02*
X180300000Y-41505000D01*
D10*
X89509000Y-125150000D02*
X83211000Y-125150000D01*
X89503000Y-125290000D02*
X83217000Y-125290000D01*
X89490000Y-125430000D02*
X86806000Y-125430000D01*
X85914000Y-125430000D02*
X83230000Y-125430000D01*
X89471000Y-125570000D02*
X87016000Y-125570000D01*
X85704000Y-125570000D02*
X83249000Y-125570000D01*
X89445000Y-125710000D02*
X87149000Y-125710000D01*
X85571000Y-125710000D02*
X83275000Y-125710000D01*
X89413000Y-125850000D02*
X87240000Y-125850000D01*
X85480000Y-125850000D02*
X83307000Y-125850000D01*
X89374000Y-125990000D02*
X87302000Y-125990000D01*
X85418000Y-125990000D02*
X83346000Y-125990000D01*
X89328000Y-126130000D02*
X87341000Y-126130000D01*
X85379000Y-126130000D02*
X83392000Y-126130000D01*
X89275000Y-126270000D02*
X87358000Y-126270000D01*
X85362000Y-126270000D02*
X83445000Y-126270000D01*
X89213000Y-126410000D02*
X87356000Y-126410000D01*
X85364000Y-126410000D02*
X83507000Y-126410000D01*
X89143000Y-126550000D02*
X87334000Y-126550000D01*
X85386000Y-126550000D02*
X83577000Y-126550000D01*
X89064000Y-126690000D02*
X87291000Y-126690000D01*
X85429000Y-126690000D02*
X83656000Y-126690000D01*
X88976000Y-126830000D02*
X87223000Y-126830000D01*
X85497000Y-126830000D02*
X83744000Y-126830000D01*
X88876000Y-126970000D02*
X87124000Y-126970000D01*
X85596000Y-126970000D02*
X83844000Y-126970000D01*
X88764000Y-127110000D02*
X86979000Y-127110000D01*
X85741000Y-127110000D02*
X83956000Y-127110000D01*
X88639000Y-127250000D02*
X86740000Y-127250000D01*
X85980000Y-127250000D02*
X84081000Y-127250000D01*
X88496000Y-127390000D02*
X84224000Y-127390000D01*
X88334000Y-127530000D02*
X84386000Y-127530000D01*
X88146000Y-127670000D02*
X84574000Y-127670000D01*
X87923000Y-127810000D02*
X84797000Y-127810000D01*
X87647000Y-127950000D02*
X85073000Y-127950000D01*
X87272000Y-128090000D02*
X85448000Y-128090000D01*
X87360000Y-126325000D02*
G75*
G03X87360000Y-126325000I-1000000J0D01*
G01*
D11*
X89547500Y-125075000D02*
G75*
G03X89547500Y-125075000I-3187500J0D01*
G01*
X88900000Y-88773000D02*
X88646000Y-88646000D01*
X88900000Y-88519000D02*
X88138000Y-88519000D01*
X88900000Y-87884000D02*
X88646000Y-87884000D01*
X88773000Y-88011000D02*
X88138000Y-88011000D01*
X88900000Y-88265000D02*
X87630000Y-88265000D01*
X87630000Y-88265000D02*
X88900000Y-87630000D01*
X88900000Y-87630000D02*
X88900000Y-88900000D01*
X88900000Y-88900000D02*
X87630000Y-88265000D01*
X81280000Y-38735000D02*
X81280000Y-89535000D01*
X86360000Y-89535000D02*
X86360000Y-38735000D01*
X81280000Y-38735000D02*
X86360000Y-38735000D01*
X86360000Y-89535000D02*
X81280000Y-89535000D01*
X113030000Y-69850000D02*
X113030000Y-68961000D01*
X120650000Y-69850000D02*
X120650000Y-68961000D01*
X113030000Y-69850000D02*
X120650000Y-69850000D01*
X120650000Y-43180000D02*
X120650000Y-44069000D01*
X113030000Y-43180000D02*
X113030000Y-44069000D01*
X118110000Y-43180000D02*
X120650000Y-43180000D01*
X115570000Y-43180000D02*
X113030000Y-43180000D01*
X116840000Y-44450000D02*
G75*
G03X118110000Y-43180000I0J1270000D01*
G01*
X115570000Y-43180000D02*
G75*
G03X116840000Y-44450000I1270000J0D01*
G01*
X150495000Y-68961000D02*
X150495000Y-69850000D01*
X150495000Y-69850000D02*
X158115000Y-69850000D01*
X158115000Y-69850000D02*
X158115000Y-68961000D01*
X158115000Y-50800000D02*
X158115000Y-51689000D01*
X150495000Y-50800000D02*
X150495000Y-51689000D01*
X155575000Y-50800000D02*
X158115000Y-50800000D01*
X153035000Y-50800000D02*
X150495000Y-50800000D01*
X154305000Y-52070000D02*
G75*
G03X155575000Y-50800000I0J1270000D01*
G01*
X153035000Y-50800000D02*
G75*
G03X154305000Y-52070000I1270000J0D01*
G01*
X161925000Y-68961000D02*
X161925000Y-69850000D01*
X161925000Y-69850000D02*
X169545000Y-69850000D01*
X169545000Y-69850000D02*
X169545000Y-68961000D01*
X169545000Y-50800000D02*
X169545000Y-51689000D01*
X161925000Y-50800000D02*
X161925000Y-51689000D01*
X167005000Y-50800000D02*
X169545000Y-50800000D01*
X164465000Y-50800000D02*
X161925000Y-50800000D01*
X165735000Y-52070000D02*
G75*
G03X167005000Y-50800000I0J1270000D01*
G01*
X164465000Y-50800000D02*
G75*
G03X165735000Y-52070000I1270000J0D01*
G01*
X173355000Y-69850000D02*
X173355000Y-68961000D01*
X173355000Y-69850000D02*
X180975000Y-69850000D01*
X180975000Y-69850000D02*
X180975000Y-68961000D01*
X180975000Y-48260000D02*
X180975000Y-49149000D01*
X173355000Y-48260000D02*
X173355000Y-49149000D01*
X178435000Y-48260000D02*
X180975000Y-48260000D01*
X175895000Y-48260000D02*
X173355000Y-48260000D01*
X175895000Y-48260000D02*
G75*
G03X177165000Y-49530000I1270000J0D01*
G01*
X177165000Y-49530000D02*
G75*
G03X178435000Y-48260000I0J1270000D01*
G01*
X100330000Y-117475000D02*
X100330000Y-116586000D01*
X107950000Y-117475000D02*
X107950000Y-116586000D01*
X100330000Y-117475000D02*
X107950000Y-117475000D01*
X107950000Y-90805000D02*
X107950000Y-91694000D01*
X100330000Y-90805000D02*
X100330000Y-91694000D01*
X105410000Y-90805000D02*
X107950000Y-90805000D01*
X102870000Y-90805000D02*
X100330000Y-90805000D01*
X104140000Y-92075000D02*
G75*
G03X105410000Y-90805000I0J1270000D01*
G01*
X102870000Y-90805000D02*
G75*
G03X104140000Y-92075000I1270000J0D01*
G01*
X130810000Y-117475000D02*
X130810000Y-116586000D01*
X115570000Y-117475000D02*
X115570000Y-116586000D01*
X130810000Y-117475000D02*
X115570000Y-117475000D01*
X130810000Y-80645000D02*
X130810000Y-81534000D01*
X115570000Y-80645000D02*
X115570000Y-81534000D01*
X124460000Y-80645000D02*
X130810000Y-80645000D01*
X121920000Y-80645000D02*
X115570000Y-80645000D01*
X123190000Y-81915000D02*
G75*
G03X124460000Y-80645000I0J1270000D01*
G01*
X121920000Y-80645000D02*
G75*
G03X123190000Y-81915000I1270000J0D01*
G01*
X156210000Y-117475000D02*
X156210000Y-116586000D01*
X163830000Y-117475000D02*
X163830000Y-116586000D01*
X156210000Y-117475000D02*
X163830000Y-117475000D01*
X163830000Y-90805000D02*
X163830000Y-91694000D01*
X156210000Y-90805000D02*
X156210000Y-91694000D01*
X161290000Y-90805000D02*
X163830000Y-90805000D01*
X158750000Y-90805000D02*
X156210000Y-90805000D01*
X160020000Y-92075000D02*
G75*
G03X161290000Y-90805000I0J1270000D01*
G01*
X158750000Y-90805000D02*
G75*
G03X160020000Y-92075000I1270000J0D01*
G01*
X175260000Y-117475000D02*
X175260000Y-116586000D01*
X182880000Y-117475000D02*
X182880000Y-116586000D01*
X175260000Y-117475000D02*
X182880000Y-117475000D01*
X182880000Y-90805000D02*
X182880000Y-91694000D01*
X175260000Y-90805000D02*
X175260000Y-91694000D01*
X180340000Y-90805000D02*
X182880000Y-90805000D01*
X177800000Y-90805000D02*
X175260000Y-90805000D01*
X179070000Y-92075000D02*
G75*
G03X180340000Y-90805000I0J1270000D01*
G01*
X177800000Y-90805000D02*
G75*
G03X179070000Y-92075000I1270000J0D01*
G01*
X138430000Y-95885000D02*
X146050000Y-95885000D01*
X138430000Y-117475000D02*
X138430000Y-116586000D01*
X138430000Y-117475000D02*
X146050000Y-117475000D01*
X146050000Y-117475000D02*
X146050000Y-116586000D01*
X146050000Y-95885000D02*
X146050000Y-96774000D01*
X138430000Y-95885000D02*
X138430000Y-96774000D01*
X82550000Y-95885000D02*
X90170000Y-95885000D01*
X82550000Y-117475000D02*
X82550000Y-116586000D01*
X82550000Y-117475000D02*
X90170000Y-117475000D01*
X90170000Y-117475000D02*
X90170000Y-116586000D01*
X90170000Y-95885000D02*
X90170000Y-96774000D01*
X82550000Y-95885000D02*
X82550000Y-96774000D01*
X93980000Y-91440000D02*
X96520000Y-91440000D01*
X96520000Y-91440000D02*
X96520000Y-116840000D01*
X96520000Y-116840000D02*
X93980000Y-116840000D01*
X93980000Y-116840000D02*
X93980000Y-91440000D01*
X93980000Y-93980000D02*
X96520000Y-93980000D01*
X149860000Y-91440000D02*
X152400000Y-91440000D01*
X152400000Y-91440000D02*
X152400000Y-116840000D01*
X152400000Y-116840000D02*
X149860000Y-116840000D01*
X149860000Y-116840000D02*
X149860000Y-91440000D01*
X149860000Y-93980000D02*
X152400000Y-93980000D01*
X106045000Y-38735000D02*
X100965000Y-38735000D01*
X100965000Y-38735000D02*
X100965000Y-36195000D01*
X100965000Y-36195000D02*
X106045000Y-36195000D01*
X106045000Y-36195000D02*
X106045000Y-38735000D01*
X119380000Y-38735000D02*
X114300000Y-38735000D01*
X114300000Y-38735000D02*
X114300000Y-36195000D01*
X114300000Y-36195000D02*
X119380000Y-36195000D01*
X119380000Y-36195000D02*
X119380000Y-38735000D01*
X132715000Y-38735000D02*
X127635000Y-38735000D01*
X127635000Y-38735000D02*
X127635000Y-36195000D01*
X127635000Y-36195000D02*
X132715000Y-36195000D01*
X132715000Y-36195000D02*
X132715000Y-38735000D01*
X145415000Y-49530000D02*
X140335000Y-49530000D01*
X140335000Y-49530000D02*
X140335000Y-46990000D01*
X140335000Y-46990000D02*
X145415000Y-46990000D01*
X145415000Y-46990000D02*
X145415000Y-49530000D01*
X156845000Y-49530000D02*
X151765000Y-49530000D01*
X151765000Y-49530000D02*
X151765000Y-46990000D01*
X151765000Y-46990000D02*
X156845000Y-46990000D01*
X156845000Y-46990000D02*
X156845000Y-49530000D01*
X168275000Y-49530000D02*
X163195000Y-49530000D01*
X163195000Y-49530000D02*
X163195000Y-46990000D01*
X163195000Y-46990000D02*
X168275000Y-46990000D01*
X168275000Y-46990000D02*
X168275000Y-49530000D01*
X174625000Y-44450000D02*
X179705000Y-44450000D01*
X179705000Y-44450000D02*
X179705000Y-46990000D01*
X179705000Y-46990000D02*
X174625000Y-46990000D01*
X174625000Y-46990000D02*
X174625000Y-44450000D01*
X139700000Y-81280000D02*
X144780000Y-81280000D01*
X144780000Y-81280000D02*
X144780000Y-83820000D01*
X144780000Y-83820000D02*
X139700000Y-83820000D01*
X139700000Y-83820000D02*
X139700000Y-81280000D01*
X139700000Y-82550000D02*
X138430000Y-82550000D01*
X144780000Y-82550000D02*
X146050000Y-82550000D01*
X106680000Y-89535000D02*
X101600000Y-89535000D01*
X101600000Y-89535000D02*
X101600000Y-86995000D01*
X101600000Y-86995000D02*
X106680000Y-86995000D01*
X106680000Y-86995000D02*
X106680000Y-89535000D01*
X162560000Y-89535000D02*
X157480000Y-89535000D01*
X157480000Y-89535000D02*
X157480000Y-86995000D01*
X157480000Y-86995000D02*
X162560000Y-86995000D01*
X162560000Y-86995000D02*
X162560000Y-89535000D01*
X169545000Y-41275000D02*
X164465000Y-41275000D01*
X164465000Y-41275000D02*
X164465000Y-38735000D01*
X164465000Y-38735000D02*
X169545000Y-38735000D01*
X169545000Y-38735000D02*
X169545000Y-41275000D01*
X169545000Y-40005000D02*
X170815000Y-40005000D01*
X164465000Y-40005000D02*
X163195000Y-40005000D01*
X187325000Y-52705000D02*
X187325000Y-57785000D01*
X187325000Y-57785000D02*
X184785000Y-57785000D01*
X184785000Y-57785000D02*
X184785000Y-52705000D01*
X184785000Y-52705000D02*
X187325000Y-52705000D01*
X186055000Y-52705000D02*
X186055000Y-51435000D01*
X186055000Y-57785000D02*
X186055000Y-59055000D01*
X144780000Y-86360000D02*
X139700000Y-86360000D01*
X139700000Y-86360000D02*
X139700000Y-83820000D01*
X139700000Y-83820000D02*
X144780000Y-83820000D01*
X144780000Y-83820000D02*
X144780000Y-86360000D01*
X144780000Y-85090000D02*
X146050000Y-85090000D01*
X139700000Y-85090000D02*
X138430000Y-85090000D01*
X139700000Y-86360000D02*
X144780000Y-86360000D01*
X144780000Y-86360000D02*
X144780000Y-88900000D01*
X144780000Y-88900000D02*
X139700000Y-88900000D01*
X139700000Y-88900000D02*
X139700000Y-86360000D01*
X139700000Y-87630000D02*
X138430000Y-87630000D01*
X144780000Y-87630000D02*
X146050000Y-87630000D01*
X139065000Y-68961000D02*
X139065000Y-69850000D01*
X139065000Y-69850000D02*
X146685000Y-69850000D01*
X146685000Y-69850000D02*
X146685000Y-68961000D01*
X146685000Y-50800000D02*
X146685000Y-51689000D01*
X139065000Y-50800000D02*
X139065000Y-51689000D01*
X144145000Y-50800000D02*
X146685000Y-50800000D01*
X141605000Y-50800000D02*
X139065000Y-50800000D01*
X142875000Y-52070000D02*
G75*
G03X144145000Y-50800000I0J1270000D01*
G01*
X141605000Y-50800000D02*
G75*
G03X142875000Y-52070000I1270000J0D01*
G01*
X176530000Y-86995000D02*
X181610000Y-86995000D01*
X181610000Y-86995000D02*
X181610000Y-89535000D01*
X181610000Y-89535000D02*
X176530000Y-89535000D01*
X176530000Y-89535000D02*
X176530000Y-86995000D01*
X99362381Y-71059524D02*
X99362381Y-72087619D01*
X99422857Y-72208571D01*
X99483333Y-72269048D01*
X99604286Y-72329524D01*
X99846190Y-72329524D01*
X99967143Y-72269048D01*
X100027619Y-72208571D01*
X100088095Y-72087619D01*
X100088095Y-71059524D01*
X101358095Y-72329524D02*
X100632381Y-72329524D01*
X100995238Y-72329524D02*
X100995238Y-71059524D01*
X100874286Y-71240952D01*
X100753333Y-71361905D01*
X100632381Y-71422381D01*
X126032381Y-71059524D02*
X126032381Y-72087619D01*
X126092857Y-72208571D01*
X126153333Y-72269048D01*
X126274286Y-72329524D01*
X126516190Y-72329524D01*
X126637143Y-72269048D01*
X126697619Y-72208571D01*
X126758095Y-72087619D01*
X126758095Y-71059524D01*
X127241905Y-71059524D02*
X128028095Y-71059524D01*
X127604762Y-71543333D01*
X127786190Y-71543333D01*
X127907143Y-71603810D01*
X127967619Y-71664286D01*
X128028095Y-71785238D01*
X128028095Y-72087619D01*
X127967619Y-72208571D01*
X127907143Y-72269048D01*
X127786190Y-72329524D01*
X127423333Y-72329524D01*
X127302381Y-72269048D01*
X127241905Y-72208571D01*
X99271667Y-128209524D02*
X99271667Y-129116667D01*
X99211191Y-129298095D01*
X99090239Y-129419048D01*
X98908810Y-129479524D01*
X98787858Y-129479524D01*
X100481191Y-128209524D02*
X99876429Y-128209524D01*
X99815953Y-128814286D01*
X99876429Y-128753810D01*
X99997381Y-128693333D01*
X100299762Y-128693333D01*
X100420715Y-128753810D01*
X100481191Y-128814286D01*
X100541667Y-128935238D01*
X100541667Y-129237619D01*
X100481191Y-129358571D01*
X100420715Y-129419048D01*
X100299762Y-129479524D01*
X99997381Y-129479524D01*
X99876429Y-129419048D01*
X99815953Y-129358571D01*
X103172381Y-121859524D02*
X103172381Y-120589524D01*
X103777143Y-121859524D02*
X103777143Y-120589524D01*
X104502857Y-121859524D01*
X104502857Y-120589524D01*
X104926190Y-120589524D02*
X105651905Y-120589524D01*
X105289048Y-121859524D02*
X105289048Y-120589524D01*
X106075238Y-121194286D02*
X106498571Y-121194286D01*
X106680000Y-121859524D02*
X106075238Y-121859524D01*
X106075238Y-120589524D01*
X106680000Y-120589524D01*
X107950000Y-121859524D02*
X107526667Y-121254762D01*
X107224286Y-121859524D02*
X107224286Y-120589524D01*
X107708095Y-120589524D01*
X107829048Y-120650000D01*
X107889524Y-120710476D01*
X107950000Y-120831429D01*
X107950000Y-121012857D01*
X107889524Y-121133810D01*
X107829048Y-121194286D01*
X107708095Y-121254762D01*
X107224286Y-121254762D01*
X109220000Y-121859524D02*
X108796667Y-121254762D01*
X108494286Y-121859524D02*
X108494286Y-120589524D01*
X108978095Y-120589524D01*
X109099048Y-120650000D01*
X109159524Y-120710476D01*
X109220000Y-120831429D01*
X109220000Y-121012857D01*
X109159524Y-121133810D01*
X109099048Y-121194286D01*
X108978095Y-121254762D01*
X108494286Y-121254762D01*
X109764286Y-120589524D02*
X109764286Y-121617619D01*
X109824762Y-121738571D01*
X109885238Y-121799048D01*
X110006191Y-121859524D01*
X110248095Y-121859524D01*
X110369048Y-121799048D01*
X110429524Y-121738571D01*
X110490000Y-121617619D01*
X110490000Y-120589524D01*
X111094762Y-121859524D02*
X111094762Y-120589524D01*
X111578571Y-120589524D01*
X111699524Y-120650000D01*
X111760000Y-120710476D01*
X111820476Y-120831429D01*
X111820476Y-121012857D01*
X111760000Y-121133810D01*
X111699524Y-121194286D01*
X111578571Y-121254762D01*
X111094762Y-121254762D01*
X112183333Y-120589524D02*
X112909048Y-120589524D01*
X112546191Y-121859524D02*
X112546191Y-120589524D01*
X143721667Y-42484524D02*
X143721667Y-43391667D01*
X143661191Y-43573095D01*
X143540239Y-43694048D01*
X143358810Y-43754524D01*
X143237858Y-43754524D01*
X144265953Y-42605476D02*
X144326429Y-42545000D01*
X144447381Y-42484524D01*
X144749762Y-42484524D01*
X144870715Y-42545000D01*
X144931191Y-42605476D01*
X144991667Y-42726429D01*
X144991667Y-42847381D01*
X144931191Y-43028810D01*
X144205477Y-43754524D01*
X144991667Y-43754524D01*
X136101667Y-42484524D02*
X136101667Y-43391667D01*
X136041191Y-43573095D01*
X135920239Y-43694048D01*
X135738810Y-43754524D01*
X135617858Y-43754524D01*
X137371667Y-43754524D02*
X136645953Y-43754524D01*
X137008810Y-43754524D02*
X137008810Y-42484524D01*
X136887858Y-42665952D01*
X136766905Y-42786905D01*
X136645953Y-42847381D01*
X185631667Y-41849524D02*
X185631667Y-42756667D01*
X185571191Y-42938095D01*
X185450239Y-43059048D01*
X185268810Y-43119524D01*
X185147858Y-43119524D01*
X186115477Y-41849524D02*
X186901667Y-41849524D01*
X186478334Y-42333333D01*
X186659762Y-42333333D01*
X186780715Y-42393810D01*
X186841191Y-42454286D01*
X186901667Y-42575238D01*
X186901667Y-42877619D01*
X186841191Y-42998571D01*
X186780715Y-43059048D01*
X186659762Y-43119524D01*
X186296905Y-43119524D01*
X186175953Y-43059048D01*
X186115477Y-42998571D01*
X96731667Y-81854524D02*
X96731667Y-82761667D01*
X96671191Y-82943095D01*
X96550239Y-83064048D01*
X96368810Y-83124524D01*
X96247858Y-83124524D01*
X97880715Y-82277857D02*
X97880715Y-83124524D01*
X97578334Y-81794048D02*
X97275953Y-82701190D01*
X98062143Y-82701190D01*
X173052619Y-38039524D02*
X173052619Y-36769524D01*
X173355000Y-36769524D01*
X173536428Y-36830000D01*
X173657381Y-36950952D01*
X173717857Y-37071905D01*
X173778333Y-37313810D01*
X173778333Y-37495238D01*
X173717857Y-37737143D01*
X173657381Y-37858095D01*
X173536428Y-37979048D01*
X173355000Y-38039524D01*
X173052619Y-38039524D01*
X174987857Y-38039524D02*
X174262143Y-38039524D01*
X174625000Y-38039524D02*
X174625000Y-36769524D01*
X174504048Y-36950952D01*
X174383095Y-37071905D01*
X174262143Y-37132381D01*
X110157381Y-111064524D02*
X110883096Y-111064524D01*
X110520239Y-112334524D02*
X110520239Y-111064524D01*
X111306429Y-112334524D02*
X111306429Y-111064524D01*
X111790238Y-111064524D01*
X111911191Y-111125000D01*
X111971667Y-111185476D01*
X112032143Y-111306429D01*
X112032143Y-111487857D01*
X111971667Y-111608810D01*
X111911191Y-111669286D01*
X111790238Y-111729762D01*
X111306429Y-111729762D01*
X113241667Y-112334524D02*
X112515953Y-112334524D01*
X112878810Y-112334524D02*
X112878810Y-111064524D01*
X112757858Y-111245952D01*
X112636905Y-111366905D01*
X112515953Y-111427381D01*
X110157381Y-117414524D02*
X110883096Y-117414524D01*
X110520239Y-118684524D02*
X110520239Y-117414524D01*
X111306429Y-118684524D02*
X111306429Y-117414524D01*
X111790238Y-117414524D01*
X111911191Y-117475000D01*
X111971667Y-117535476D01*
X112032143Y-117656429D01*
X112032143Y-117837857D01*
X111971667Y-117958810D01*
X111911191Y-118019286D01*
X111790238Y-118079762D01*
X111306429Y-118079762D01*
X112455477Y-117414524D02*
X113241667Y-117414524D01*
X112818334Y-117898333D01*
X112999762Y-117898333D01*
X113120715Y-117958810D01*
X113181191Y-118019286D01*
X113241667Y-118140238D01*
X113241667Y-118442619D01*
X113181191Y-118563571D01*
X113120715Y-118624048D01*
X112999762Y-118684524D01*
X112636905Y-118684524D01*
X112515953Y-118624048D01*
X112455477Y-118563571D01*
X130477381Y-123129524D02*
X131203096Y-123129524D01*
X130840239Y-124399524D02*
X130840239Y-123129524D01*
X131626429Y-124399524D02*
X131626429Y-123129524D01*
X132110238Y-123129524D01*
X132231191Y-123190000D01*
X132291667Y-123250476D01*
X132352143Y-123371429D01*
X132352143Y-123552857D01*
X132291667Y-123673810D01*
X132231191Y-123734286D01*
X132110238Y-123794762D01*
X131626429Y-123794762D01*
X132835953Y-123250476D02*
X132896429Y-123190000D01*
X133017381Y-123129524D01*
X133319762Y-123129524D01*
X133440715Y-123190000D01*
X133501191Y-123250476D01*
X133561667Y-123371429D01*
X133561667Y-123492381D01*
X133501191Y-123673810D01*
X132775477Y-124399524D01*
X133561667Y-124399524D01*
X80463571Y-129358571D02*
X80403095Y-129419048D01*
X80221666Y-129479524D01*
X80100714Y-129479524D01*
X79919286Y-129419048D01*
X79798333Y-129298095D01*
X79737857Y-129177143D01*
X79677381Y-128935238D01*
X79677381Y-128753810D01*
X79737857Y-128511905D01*
X79798333Y-128390952D01*
X79919286Y-128270000D01*
X80100714Y-128209524D01*
X80221666Y-128209524D01*
X80403095Y-128270000D01*
X80463571Y-128330476D01*
X81673095Y-129479524D02*
X80947381Y-129479524D01*
X81310238Y-129479524D02*
X81310238Y-128209524D01*
X81189286Y-128390952D01*
X81068333Y-128511905D01*
X80947381Y-128572381D01*
X82156905Y-128330476D02*
X82217381Y-128270000D01*
X82338333Y-128209524D01*
X82640714Y-128209524D01*
X82761667Y-128270000D01*
X82822143Y-128330476D01*
X82882619Y-128451429D01*
X82882619Y-128572381D01*
X82822143Y-128753810D01*
X82096429Y-129479524D01*
X82882619Y-129479524D01*
X112697381Y-71059524D02*
X112697381Y-72087619D01*
X112757857Y-72208571D01*
X112818333Y-72269048D01*
X112939286Y-72329524D01*
X113181190Y-72329524D01*
X113302143Y-72269048D01*
X113362619Y-72208571D01*
X113423095Y-72087619D01*
X113423095Y-71059524D01*
X113967381Y-71180476D02*
X114027857Y-71120000D01*
X114148809Y-71059524D01*
X114451190Y-71059524D01*
X114572143Y-71120000D01*
X114632619Y-71180476D01*
X114693095Y-71301429D01*
X114693095Y-71422381D01*
X114632619Y-71603810D01*
X113906905Y-72329524D01*
X114693095Y-72329524D01*
X150162381Y-71059524D02*
X150162381Y-72087619D01*
X150222857Y-72208571D01*
X150283333Y-72269048D01*
X150404286Y-72329524D01*
X150646190Y-72329524D01*
X150767143Y-72269048D01*
X150827619Y-72208571D01*
X150888095Y-72087619D01*
X150888095Y-71059524D01*
X152097619Y-71059524D02*
X151492857Y-71059524D01*
X151432381Y-71664286D01*
X151492857Y-71603810D01*
X151613809Y-71543333D01*
X151916190Y-71543333D01*
X152037143Y-71603810D01*
X152097619Y-71664286D01*
X152158095Y-71785238D01*
X152158095Y-72087619D01*
X152097619Y-72208571D01*
X152037143Y-72269048D01*
X151916190Y-72329524D01*
X151613809Y-72329524D01*
X151492857Y-72269048D01*
X151432381Y-72208571D01*
X161592381Y-71059524D02*
X161592381Y-72087619D01*
X161652857Y-72208571D01*
X161713333Y-72269048D01*
X161834286Y-72329524D01*
X162076190Y-72329524D01*
X162197143Y-72269048D01*
X162257619Y-72208571D01*
X162318095Y-72087619D01*
X162318095Y-71059524D01*
X163467143Y-71059524D02*
X163225238Y-71059524D01*
X163104286Y-71120000D01*
X163043809Y-71180476D01*
X162922857Y-71361905D01*
X162862381Y-71603810D01*
X162862381Y-72087619D01*
X162922857Y-72208571D01*
X162983333Y-72269048D01*
X163104286Y-72329524D01*
X163346190Y-72329524D01*
X163467143Y-72269048D01*
X163527619Y-72208571D01*
X163588095Y-72087619D01*
X163588095Y-71785238D01*
X163527619Y-71664286D01*
X163467143Y-71603810D01*
X163346190Y-71543333D01*
X163104286Y-71543333D01*
X162983333Y-71603810D01*
X162922857Y-71664286D01*
X162862381Y-71785238D01*
X173022381Y-71059524D02*
X173022381Y-72087619D01*
X173082857Y-72208571D01*
X173143333Y-72269048D01*
X173264286Y-72329524D01*
X173506190Y-72329524D01*
X173627143Y-72269048D01*
X173687619Y-72208571D01*
X173748095Y-72087619D01*
X173748095Y-71059524D01*
X174231905Y-71059524D02*
X175078571Y-71059524D01*
X174534286Y-72329524D01*
X99997381Y-118684524D02*
X99997381Y-119712619D01*
X100057857Y-119833571D01*
X100118333Y-119894048D01*
X100239286Y-119954524D01*
X100481190Y-119954524D01*
X100602143Y-119894048D01*
X100662619Y-119833571D01*
X100723095Y-119712619D01*
X100723095Y-118684524D01*
X101509286Y-119228810D02*
X101388333Y-119168333D01*
X101327857Y-119107857D01*
X101267381Y-118986905D01*
X101267381Y-118926429D01*
X101327857Y-118805476D01*
X101388333Y-118745000D01*
X101509286Y-118684524D01*
X101751190Y-118684524D01*
X101872143Y-118745000D01*
X101932619Y-118805476D01*
X101993095Y-118926429D01*
X101993095Y-118986905D01*
X101932619Y-119107857D01*
X101872143Y-119168333D01*
X101751190Y-119228810D01*
X101509286Y-119228810D01*
X101388333Y-119289286D01*
X101327857Y-119349762D01*
X101267381Y-119470714D01*
X101267381Y-119712619D01*
X101327857Y-119833571D01*
X101388333Y-119894048D01*
X101509286Y-119954524D01*
X101751190Y-119954524D01*
X101872143Y-119894048D01*
X101932619Y-119833571D01*
X101993095Y-119712619D01*
X101993095Y-119470714D01*
X101932619Y-119349762D01*
X101872143Y-119289286D01*
X101751190Y-119228810D01*
X115237381Y-118684524D02*
X115237381Y-119712619D01*
X115297857Y-119833571D01*
X115358333Y-119894048D01*
X115479286Y-119954524D01*
X115721190Y-119954524D01*
X115842143Y-119894048D01*
X115902619Y-119833571D01*
X115963095Y-119712619D01*
X115963095Y-118684524D01*
X116628333Y-119954524D02*
X116870238Y-119954524D01*
X116991190Y-119894048D01*
X117051666Y-119833571D01*
X117172619Y-119652143D01*
X117233095Y-119410238D01*
X117233095Y-118926429D01*
X117172619Y-118805476D01*
X117112143Y-118745000D01*
X116991190Y-118684524D01*
X116749286Y-118684524D01*
X116628333Y-118745000D01*
X116567857Y-118805476D01*
X116507381Y-118926429D01*
X116507381Y-119228810D01*
X116567857Y-119349762D01*
X116628333Y-119410238D01*
X116749286Y-119470714D01*
X116991190Y-119470714D01*
X117112143Y-119410238D01*
X117172619Y-119349762D01*
X117233095Y-119228810D01*
X155272619Y-118684524D02*
X155272619Y-119712619D01*
X155333095Y-119833571D01*
X155393571Y-119894048D01*
X155514524Y-119954524D01*
X155756428Y-119954524D01*
X155877381Y-119894048D01*
X155937857Y-119833571D01*
X155998333Y-119712619D01*
X155998333Y-118684524D01*
X157268333Y-119954524D02*
X156542619Y-119954524D01*
X156905476Y-119954524D02*
X156905476Y-118684524D01*
X156784524Y-118865952D01*
X156663571Y-118986905D01*
X156542619Y-119047381D01*
X158054524Y-118684524D02*
X158175476Y-118684524D01*
X158296428Y-118745000D01*
X158356905Y-118805476D01*
X158417381Y-118926429D01*
X158477857Y-119168333D01*
X158477857Y-119470714D01*
X158417381Y-119712619D01*
X158356905Y-119833571D01*
X158296428Y-119894048D01*
X158175476Y-119954524D01*
X158054524Y-119954524D01*
X157933571Y-119894048D01*
X157873095Y-119833571D01*
X157812619Y-119712619D01*
X157752143Y-119470714D01*
X157752143Y-119168333D01*
X157812619Y-118926429D01*
X157873095Y-118805476D01*
X157933571Y-118745000D01*
X158054524Y-118684524D01*
X174322619Y-118684524D02*
X174322619Y-119712619D01*
X174383095Y-119833571D01*
X174443571Y-119894048D01*
X174564524Y-119954524D01*
X174806428Y-119954524D01*
X174927381Y-119894048D01*
X174987857Y-119833571D01*
X175048333Y-119712619D01*
X175048333Y-118684524D01*
X176318333Y-119954524D02*
X175592619Y-119954524D01*
X175955476Y-119954524D02*
X175955476Y-118684524D01*
X175834524Y-118865952D01*
X175713571Y-118986905D01*
X175592619Y-119047381D01*
X177527857Y-119954524D02*
X176802143Y-119954524D01*
X177165000Y-119954524D02*
X177165000Y-118684524D01*
X177044048Y-118865952D01*
X176923095Y-118986905D01*
X176802143Y-119047381D01*
X137371667Y-119894048D02*
X137553095Y-119954524D01*
X137855476Y-119954524D01*
X137976429Y-119894048D01*
X138036905Y-119833571D01*
X138097381Y-119712619D01*
X138097381Y-119591667D01*
X138036905Y-119470714D01*
X137976429Y-119410238D01*
X137855476Y-119349762D01*
X137613572Y-119289286D01*
X137492619Y-119228810D01*
X137432143Y-119168333D01*
X137371667Y-119047381D01*
X137371667Y-118926429D01*
X137432143Y-118805476D01*
X137492619Y-118745000D01*
X137613572Y-118684524D01*
X137915952Y-118684524D01*
X138097381Y-118745000D01*
X138520715Y-118684524D02*
X138823096Y-119954524D01*
X139065000Y-119047381D01*
X139306905Y-119954524D01*
X139609286Y-118684524D01*
X140032620Y-118805476D02*
X140093096Y-118745000D01*
X140214048Y-118684524D01*
X140516429Y-118684524D01*
X140637382Y-118745000D01*
X140697858Y-118805476D01*
X140758334Y-118926429D01*
X140758334Y-119047381D01*
X140697858Y-119228810D01*
X139972144Y-119954524D01*
X140758334Y-119954524D01*
X138974286Y-94554524D02*
X138550953Y-93949762D01*
X138248572Y-94554524D02*
X138248572Y-93284524D01*
X138732381Y-93284524D01*
X138853334Y-93345000D01*
X138913810Y-93405476D01*
X138974286Y-93526429D01*
X138974286Y-93707857D01*
X138913810Y-93828810D01*
X138853334Y-93889286D01*
X138732381Y-93949762D01*
X138248572Y-93949762D01*
X139760477Y-93284524D02*
X140002381Y-93284524D01*
X140123334Y-93345000D01*
X140244286Y-93465952D01*
X140304762Y-93707857D01*
X140304762Y-94131190D01*
X140244286Y-94373095D01*
X140123334Y-94494048D01*
X140002381Y-94554524D01*
X139760477Y-94554524D01*
X139639524Y-94494048D01*
X139518572Y-94373095D01*
X139458096Y-94131190D01*
X139458096Y-93707857D01*
X139518572Y-93465952D01*
X139639524Y-93345000D01*
X139760477Y-93284524D01*
X140849048Y-94554524D02*
X140849048Y-93284524D01*
X141272381Y-94191667D01*
X141695715Y-93284524D01*
X141695715Y-94554524D01*
X143510001Y-93284524D02*
X143751905Y-93284524D01*
X143872858Y-93345000D01*
X143993810Y-93465952D01*
X144054286Y-93707857D01*
X144054286Y-94131190D01*
X143993810Y-94373095D01*
X143872858Y-94494048D01*
X143751905Y-94554524D01*
X143510001Y-94554524D01*
X143389048Y-94494048D01*
X143268096Y-94373095D01*
X143207620Y-94131190D01*
X143207620Y-93707857D01*
X143268096Y-93465952D01*
X143389048Y-93345000D01*
X143510001Y-93284524D01*
X144598572Y-94554524D02*
X144598572Y-93284524D01*
X145082381Y-93284524D01*
X145203334Y-93345000D01*
X145263810Y-93405476D01*
X145324286Y-93526429D01*
X145324286Y-93707857D01*
X145263810Y-93828810D01*
X145203334Y-93889286D01*
X145082381Y-93949762D01*
X144598572Y-93949762D01*
X145687143Y-93284524D02*
X146412858Y-93284524D01*
X146050001Y-94554524D02*
X146050001Y-93284524D01*
X81491667Y-119894048D02*
X81673095Y-119954524D01*
X81975476Y-119954524D01*
X82096429Y-119894048D01*
X82156905Y-119833571D01*
X82217381Y-119712619D01*
X82217381Y-119591667D01*
X82156905Y-119470714D01*
X82096429Y-119410238D01*
X81975476Y-119349762D01*
X81733572Y-119289286D01*
X81612619Y-119228810D01*
X81552143Y-119168333D01*
X81491667Y-119047381D01*
X81491667Y-118926429D01*
X81552143Y-118805476D01*
X81612619Y-118745000D01*
X81733572Y-118684524D01*
X82035952Y-118684524D01*
X82217381Y-118745000D01*
X82640715Y-118684524D02*
X82943096Y-119954524D01*
X83185000Y-119047381D01*
X83426905Y-119954524D01*
X83729286Y-118684524D01*
X84878334Y-119954524D02*
X84152620Y-119954524D01*
X84515477Y-119954524D02*
X84515477Y-118684524D01*
X84394525Y-118865952D01*
X84273572Y-118986905D01*
X84152620Y-119047381D01*
X82096429Y-94554524D02*
X82096429Y-93284524D01*
X83608334Y-93224048D02*
X82519762Y-94856905D01*
X84273572Y-93284524D02*
X84515476Y-93284524D01*
X84636429Y-93345000D01*
X84757381Y-93465952D01*
X84817857Y-93707857D01*
X84817857Y-94131190D01*
X84757381Y-94373095D01*
X84636429Y-94494048D01*
X84515476Y-94554524D01*
X84273572Y-94554524D01*
X84152619Y-94494048D01*
X84031667Y-94373095D01*
X83971191Y-94131190D01*
X83971191Y-93707857D01*
X84031667Y-93465952D01*
X84152619Y-93345000D01*
X84273572Y-93284524D01*
X86269286Y-94191667D02*
X86874048Y-94191667D01*
X86148333Y-94554524D02*
X86571667Y-93284524D01*
X86995000Y-94554524D01*
X87418333Y-94554524D02*
X87418333Y-93284524D01*
X87720714Y-93284524D01*
X87902142Y-93345000D01*
X88023095Y-93465952D01*
X88083571Y-93586905D01*
X88144047Y-93828810D01*
X88144047Y-94010238D01*
X88083571Y-94252143D01*
X88023095Y-94373095D01*
X87902142Y-94494048D01*
X87720714Y-94554524D01*
X87418333Y-94554524D01*
X88688333Y-94554524D02*
X88688333Y-93284524D01*
X88990714Y-93284524D01*
X89172142Y-93345000D01*
X89293095Y-93465952D01*
X89353571Y-93586905D01*
X89414047Y-93828810D01*
X89414047Y-94010238D01*
X89353571Y-94252143D01*
X89293095Y-94373095D01*
X89172142Y-94494048D01*
X88990714Y-94554524D01*
X88688333Y-94554524D01*
X90684047Y-94554524D02*
X90260714Y-93949762D01*
X89958333Y-94554524D02*
X89958333Y-93284524D01*
X90442142Y-93284524D01*
X90563095Y-93345000D01*
X90623571Y-93405476D01*
X90684047Y-93526429D01*
X90684047Y-93707857D01*
X90623571Y-93828810D01*
X90563095Y-93889286D01*
X90442142Y-93949762D01*
X89958333Y-93949762D01*
X94403333Y-119954524D02*
X93980000Y-119349762D01*
X93677619Y-119954524D02*
X93677619Y-118684524D01*
X94161428Y-118684524D01*
X94282381Y-118745000D01*
X94342857Y-118805476D01*
X94403333Y-118926429D01*
X94403333Y-119107857D01*
X94342857Y-119228810D01*
X94282381Y-119289286D01*
X94161428Y-119349762D01*
X93677619Y-119349762D01*
X94947619Y-119954524D02*
X94947619Y-118684524D01*
X95431428Y-118684524D01*
X95552381Y-118745000D01*
X95612857Y-118805476D01*
X95673333Y-118926429D01*
X95673333Y-119107857D01*
X95612857Y-119228810D01*
X95552381Y-119289286D01*
X95431428Y-119349762D01*
X94947619Y-119349762D01*
X96882857Y-119954524D02*
X96157143Y-119954524D01*
X96520000Y-119954524D02*
X96520000Y-118684524D01*
X96399048Y-118865952D01*
X96278095Y-118986905D01*
X96157143Y-119047381D01*
X150283333Y-119954524D02*
X149860000Y-119349762D01*
X149557619Y-119954524D02*
X149557619Y-118684524D01*
X150041428Y-118684524D01*
X150162381Y-118745000D01*
X150222857Y-118805476D01*
X150283333Y-118926429D01*
X150283333Y-119107857D01*
X150222857Y-119228810D01*
X150162381Y-119289286D01*
X150041428Y-119349762D01*
X149557619Y-119349762D01*
X150827619Y-119954524D02*
X150827619Y-118684524D01*
X151311428Y-118684524D01*
X151432381Y-118745000D01*
X151492857Y-118805476D01*
X151553333Y-118926429D01*
X151553333Y-119107857D01*
X151492857Y-119228810D01*
X151432381Y-119289286D01*
X151311428Y-119349762D01*
X150827619Y-119349762D01*
X152037143Y-118805476D02*
X152097619Y-118745000D01*
X152218571Y-118684524D01*
X152520952Y-118684524D01*
X152641905Y-118745000D01*
X152702381Y-118805476D01*
X152762857Y-118926429D01*
X152762857Y-119047381D01*
X152702381Y-119228810D01*
X151976667Y-119954524D01*
X152762857Y-119954524D01*
X103293333Y-40458571D02*
X103232857Y-40519048D01*
X103051428Y-40579524D01*
X102930476Y-40579524D01*
X102749048Y-40519048D01*
X102628095Y-40398095D01*
X102567619Y-40277143D01*
X102507143Y-40035238D01*
X102507143Y-39853810D01*
X102567619Y-39611905D01*
X102628095Y-39490952D01*
X102749048Y-39370000D01*
X102930476Y-39309524D01*
X103051428Y-39309524D01*
X103232857Y-39370000D01*
X103293333Y-39430476D01*
X104502857Y-40579524D02*
X103777143Y-40579524D01*
X104140000Y-40579524D02*
X104140000Y-39309524D01*
X104019048Y-39490952D01*
X103898095Y-39611905D01*
X103777143Y-39672381D01*
X103898095Y-37918571D02*
X103837619Y-37979048D01*
X103656190Y-38039524D01*
X103535238Y-38039524D01*
X103353810Y-37979048D01*
X103232857Y-37858095D01*
X103172381Y-37737143D01*
X103111905Y-37495238D01*
X103111905Y-37313810D01*
X103172381Y-37071905D01*
X103232857Y-36950952D01*
X103353810Y-36830000D01*
X103535238Y-36769524D01*
X103656190Y-36769524D01*
X103837619Y-36830000D01*
X103898095Y-36890476D01*
X116628333Y-40458571D02*
X116567857Y-40519048D01*
X116386428Y-40579524D01*
X116265476Y-40579524D01*
X116084048Y-40519048D01*
X115963095Y-40398095D01*
X115902619Y-40277143D01*
X115842143Y-40035238D01*
X115842143Y-39853810D01*
X115902619Y-39611905D01*
X115963095Y-39490952D01*
X116084048Y-39370000D01*
X116265476Y-39309524D01*
X116386428Y-39309524D01*
X116567857Y-39370000D01*
X116628333Y-39430476D01*
X117112143Y-39430476D02*
X117172619Y-39370000D01*
X117293571Y-39309524D01*
X117595952Y-39309524D01*
X117716905Y-39370000D01*
X117777381Y-39430476D01*
X117837857Y-39551429D01*
X117837857Y-39672381D01*
X117777381Y-39853810D01*
X117051667Y-40579524D01*
X117837857Y-40579524D01*
X117233095Y-37918571D02*
X117172619Y-37979048D01*
X116991190Y-38039524D01*
X116870238Y-38039524D01*
X116688810Y-37979048D01*
X116567857Y-37858095D01*
X116507381Y-37737143D01*
X116446905Y-37495238D01*
X116446905Y-37313810D01*
X116507381Y-37071905D01*
X116567857Y-36950952D01*
X116688810Y-36830000D01*
X116870238Y-36769524D01*
X116991190Y-36769524D01*
X117172619Y-36830000D01*
X117233095Y-36890476D01*
X129963333Y-40458571D02*
X129902857Y-40519048D01*
X129721428Y-40579524D01*
X129600476Y-40579524D01*
X129419048Y-40519048D01*
X129298095Y-40398095D01*
X129237619Y-40277143D01*
X129177143Y-40035238D01*
X129177143Y-39853810D01*
X129237619Y-39611905D01*
X129298095Y-39490952D01*
X129419048Y-39370000D01*
X129600476Y-39309524D01*
X129721428Y-39309524D01*
X129902857Y-39370000D01*
X129963333Y-39430476D01*
X130386667Y-39309524D02*
X131172857Y-39309524D01*
X130749524Y-39793333D01*
X130930952Y-39793333D01*
X131051905Y-39853810D01*
X131112381Y-39914286D01*
X131172857Y-40035238D01*
X131172857Y-40337619D01*
X131112381Y-40458571D01*
X131051905Y-40519048D01*
X130930952Y-40579524D01*
X130568095Y-40579524D01*
X130447143Y-40519048D01*
X130386667Y-40458571D01*
X130568095Y-37918571D02*
X130507619Y-37979048D01*
X130326190Y-38039524D01*
X130205238Y-38039524D01*
X130023810Y-37979048D01*
X129902857Y-37858095D01*
X129842381Y-37737143D01*
X129781905Y-37495238D01*
X129781905Y-37313810D01*
X129842381Y-37071905D01*
X129902857Y-36950952D01*
X130023810Y-36830000D01*
X130205238Y-36769524D01*
X130326190Y-36769524D01*
X130507619Y-36830000D01*
X130568095Y-36890476D01*
X142663333Y-46173571D02*
X142602857Y-46234048D01*
X142421428Y-46294524D01*
X142300476Y-46294524D01*
X142119048Y-46234048D01*
X141998095Y-46113095D01*
X141937619Y-45992143D01*
X141877143Y-45750238D01*
X141877143Y-45568810D01*
X141937619Y-45326905D01*
X141998095Y-45205952D01*
X142119048Y-45085000D01*
X142300476Y-45024524D01*
X142421428Y-45024524D01*
X142602857Y-45085000D01*
X142663333Y-45145476D01*
X143751905Y-45447857D02*
X143751905Y-46294524D01*
X143449524Y-44964048D02*
X143147143Y-45871190D01*
X143933333Y-45871190D01*
X143268095Y-48713571D02*
X143207619Y-48774048D01*
X143026190Y-48834524D01*
X142905238Y-48834524D01*
X142723810Y-48774048D01*
X142602857Y-48653095D01*
X142542381Y-48532143D01*
X142481905Y-48290238D01*
X142481905Y-48108810D01*
X142542381Y-47866905D01*
X142602857Y-47745952D01*
X142723810Y-47625000D01*
X142905238Y-47564524D01*
X143026190Y-47564524D01*
X143207619Y-47625000D01*
X143268095Y-47685476D01*
X154093333Y-46173571D02*
X154032857Y-46234048D01*
X153851428Y-46294524D01*
X153730476Y-46294524D01*
X153549048Y-46234048D01*
X153428095Y-46113095D01*
X153367619Y-45992143D01*
X153307143Y-45750238D01*
X153307143Y-45568810D01*
X153367619Y-45326905D01*
X153428095Y-45205952D01*
X153549048Y-45085000D01*
X153730476Y-45024524D01*
X153851428Y-45024524D01*
X154032857Y-45085000D01*
X154093333Y-45145476D01*
X155242381Y-45024524D02*
X154637619Y-45024524D01*
X154577143Y-45629286D01*
X154637619Y-45568810D01*
X154758571Y-45508333D01*
X155060952Y-45508333D01*
X155181905Y-45568810D01*
X155242381Y-45629286D01*
X155302857Y-45750238D01*
X155302857Y-46052619D01*
X155242381Y-46173571D01*
X155181905Y-46234048D01*
X155060952Y-46294524D01*
X154758571Y-46294524D01*
X154637619Y-46234048D01*
X154577143Y-46173571D01*
X154698095Y-48713571D02*
X154637619Y-48774048D01*
X154456190Y-48834524D01*
X154335238Y-48834524D01*
X154153810Y-48774048D01*
X154032857Y-48653095D01*
X153972381Y-48532143D01*
X153911905Y-48290238D01*
X153911905Y-48108810D01*
X153972381Y-47866905D01*
X154032857Y-47745952D01*
X154153810Y-47625000D01*
X154335238Y-47564524D01*
X154456190Y-47564524D01*
X154637619Y-47625000D01*
X154698095Y-47685476D01*
X165523333Y-46173571D02*
X165462857Y-46234048D01*
X165281428Y-46294524D01*
X165160476Y-46294524D01*
X164979048Y-46234048D01*
X164858095Y-46113095D01*
X164797619Y-45992143D01*
X164737143Y-45750238D01*
X164737143Y-45568810D01*
X164797619Y-45326905D01*
X164858095Y-45205952D01*
X164979048Y-45085000D01*
X165160476Y-45024524D01*
X165281428Y-45024524D01*
X165462857Y-45085000D01*
X165523333Y-45145476D01*
X166611905Y-45024524D02*
X166370000Y-45024524D01*
X166249048Y-45085000D01*
X166188571Y-45145476D01*
X166067619Y-45326905D01*
X166007143Y-45568810D01*
X166007143Y-46052619D01*
X166067619Y-46173571D01*
X166128095Y-46234048D01*
X166249048Y-46294524D01*
X166490952Y-46294524D01*
X166611905Y-46234048D01*
X166672381Y-46173571D01*
X166732857Y-46052619D01*
X166732857Y-45750238D01*
X166672381Y-45629286D01*
X166611905Y-45568810D01*
X166490952Y-45508333D01*
X166249048Y-45508333D01*
X166128095Y-45568810D01*
X166067619Y-45629286D01*
X166007143Y-45750238D01*
X166128095Y-48713571D02*
X166067619Y-48774048D01*
X165886190Y-48834524D01*
X165765238Y-48834524D01*
X165583810Y-48774048D01*
X165462857Y-48653095D01*
X165402381Y-48532143D01*
X165341905Y-48290238D01*
X165341905Y-48108810D01*
X165402381Y-47866905D01*
X165462857Y-47745952D01*
X165583810Y-47625000D01*
X165765238Y-47564524D01*
X165886190Y-47564524D01*
X166067619Y-47625000D01*
X166128095Y-47685476D01*
X170603333Y-46173571D02*
X170542857Y-46234048D01*
X170361428Y-46294524D01*
X170240476Y-46294524D01*
X170059048Y-46234048D01*
X169938095Y-46113095D01*
X169877619Y-45992143D01*
X169817143Y-45750238D01*
X169817143Y-45568810D01*
X169877619Y-45326905D01*
X169938095Y-45205952D01*
X170059048Y-45085000D01*
X170240476Y-45024524D01*
X170361428Y-45024524D01*
X170542857Y-45085000D01*
X170603333Y-45145476D01*
X171026667Y-45024524D02*
X171873333Y-45024524D01*
X171329048Y-46294524D01*
X177558095Y-46173571D02*
X177497619Y-46234048D01*
X177316190Y-46294524D01*
X177195238Y-46294524D01*
X177013810Y-46234048D01*
X176892857Y-46113095D01*
X176832381Y-45992143D01*
X176771905Y-45750238D01*
X176771905Y-45568810D01*
X176832381Y-45326905D01*
X176892857Y-45205952D01*
X177013810Y-45085000D01*
X177195238Y-45024524D01*
X177316190Y-45024524D01*
X177497619Y-45085000D01*
X177558095Y-45145476D01*
X134154333Y-83003571D02*
X134093857Y-83064048D01*
X133912428Y-83124524D01*
X133791476Y-83124524D01*
X133610048Y-83064048D01*
X133489095Y-82943095D01*
X133428619Y-82822143D01*
X133368143Y-82580238D01*
X133368143Y-82398810D01*
X133428619Y-82156905D01*
X133489095Y-82035952D01*
X133610048Y-81915000D01*
X133791476Y-81854524D01*
X133912428Y-81854524D01*
X134093857Y-81915000D01*
X134154333Y-81975476D01*
X134759095Y-83124524D02*
X135001000Y-83124524D01*
X135121952Y-83064048D01*
X135182428Y-83003571D01*
X135303381Y-82822143D01*
X135363857Y-82580238D01*
X135363857Y-82096429D01*
X135303381Y-81975476D01*
X135242905Y-81915000D01*
X135121952Y-81854524D01*
X134880048Y-81854524D01*
X134759095Y-81915000D01*
X134698619Y-81975476D01*
X134638143Y-82096429D01*
X134638143Y-82398810D01*
X134698619Y-82519762D01*
X134759095Y-82580238D01*
X134880048Y-82640714D01*
X135121952Y-82640714D01*
X135242905Y-82580238D01*
X135303381Y-82519762D01*
X135363857Y-82398810D01*
X142633095Y-83003571D02*
X142572619Y-83064048D01*
X142391190Y-83124524D01*
X142270238Y-83124524D01*
X142088810Y-83064048D01*
X141967857Y-82943095D01*
X141907381Y-82822143D01*
X141846905Y-82580238D01*
X141846905Y-82398810D01*
X141907381Y-82156905D01*
X141967857Y-82035952D01*
X142088810Y-81915000D01*
X142270238Y-81854524D01*
X142391190Y-81854524D01*
X142572619Y-81915000D01*
X142633095Y-81975476D01*
X96943333Y-88718571D02*
X96882857Y-88779048D01*
X96701428Y-88839524D01*
X96580476Y-88839524D01*
X96399048Y-88779048D01*
X96278095Y-88658095D01*
X96217619Y-88537143D01*
X96157143Y-88295238D01*
X96157143Y-88113810D01*
X96217619Y-87871905D01*
X96278095Y-87750952D01*
X96399048Y-87630000D01*
X96580476Y-87569524D01*
X96701428Y-87569524D01*
X96882857Y-87630000D01*
X96943333Y-87690476D01*
X97669048Y-88113810D02*
X97548095Y-88053333D01*
X97487619Y-87992857D01*
X97427143Y-87871905D01*
X97427143Y-87811429D01*
X97487619Y-87690476D01*
X97548095Y-87630000D01*
X97669048Y-87569524D01*
X97910952Y-87569524D01*
X98031905Y-87630000D01*
X98092381Y-87690476D01*
X98152857Y-87811429D01*
X98152857Y-87871905D01*
X98092381Y-87992857D01*
X98031905Y-88053333D01*
X97910952Y-88113810D01*
X97669048Y-88113810D01*
X97548095Y-88174286D01*
X97487619Y-88234762D01*
X97427143Y-88355714D01*
X97427143Y-88597619D01*
X97487619Y-88718571D01*
X97548095Y-88779048D01*
X97669048Y-88839524D01*
X97910952Y-88839524D01*
X98031905Y-88779048D01*
X98092381Y-88718571D01*
X98152857Y-88597619D01*
X98152857Y-88355714D01*
X98092381Y-88234762D01*
X98031905Y-88174286D01*
X97910952Y-88113810D01*
X104533095Y-88718571D02*
X104472619Y-88779048D01*
X104291190Y-88839524D01*
X104170238Y-88839524D01*
X103988810Y-88779048D01*
X103867857Y-88658095D01*
X103807381Y-88537143D01*
X103746905Y-88295238D01*
X103746905Y-88113810D01*
X103807381Y-87871905D01*
X103867857Y-87750952D01*
X103988810Y-87630000D01*
X104170238Y-87569524D01*
X104291190Y-87569524D01*
X104472619Y-87630000D01*
X104533095Y-87690476D01*
X159203571Y-86178571D02*
X159143095Y-86239048D01*
X158961666Y-86299524D01*
X158840714Y-86299524D01*
X158659286Y-86239048D01*
X158538333Y-86118095D01*
X158477857Y-85997143D01*
X158417381Y-85755238D01*
X158417381Y-85573810D01*
X158477857Y-85331905D01*
X158538333Y-85210952D01*
X158659286Y-85090000D01*
X158840714Y-85029524D01*
X158961666Y-85029524D01*
X159143095Y-85090000D01*
X159203571Y-85150476D01*
X160413095Y-86299524D02*
X159687381Y-86299524D01*
X160050238Y-86299524D02*
X160050238Y-85029524D01*
X159929286Y-85210952D01*
X159808333Y-85331905D01*
X159687381Y-85392381D01*
X161199286Y-85029524D02*
X161320238Y-85029524D01*
X161441190Y-85090000D01*
X161501667Y-85150476D01*
X161562143Y-85271429D01*
X161622619Y-85513333D01*
X161622619Y-85815714D01*
X161562143Y-86057619D01*
X161501667Y-86178571D01*
X161441190Y-86239048D01*
X161320238Y-86299524D01*
X161199286Y-86299524D01*
X161078333Y-86239048D01*
X161017857Y-86178571D01*
X160957381Y-86057619D01*
X160896905Y-85815714D01*
X160896905Y-85513333D01*
X160957381Y-85271429D01*
X161017857Y-85150476D01*
X161078333Y-85090000D01*
X161199286Y-85029524D01*
X160413095Y-88718571D02*
X160352619Y-88779048D01*
X160171190Y-88839524D01*
X160050238Y-88839524D01*
X159868810Y-88779048D01*
X159747857Y-88658095D01*
X159687381Y-88537143D01*
X159626905Y-88295238D01*
X159626905Y-88113810D01*
X159687381Y-87871905D01*
X159747857Y-87750952D01*
X159868810Y-87630000D01*
X160050238Y-87569524D01*
X160171190Y-87569524D01*
X160352619Y-87630000D01*
X160413095Y-87690476D01*
X166793333Y-38039524D02*
X166370000Y-37434762D01*
X166067619Y-38039524D02*
X166067619Y-36769524D01*
X166551428Y-36769524D01*
X166672381Y-36830000D01*
X166732857Y-36890476D01*
X166793333Y-37011429D01*
X166793333Y-37192857D01*
X166732857Y-37313810D01*
X166672381Y-37374286D01*
X166551428Y-37434762D01*
X166067619Y-37434762D01*
X168002857Y-38039524D02*
X167277143Y-38039524D01*
X167640000Y-38039524D02*
X167640000Y-36769524D01*
X167519048Y-36950952D01*
X167398095Y-37071905D01*
X167277143Y-37132381D01*
X165402381Y-39732857D02*
X165402381Y-40579524D01*
X165100000Y-39249048D02*
X164797619Y-40156190D01*
X165583809Y-40156190D01*
X165946667Y-39309524D02*
X166793333Y-39309524D01*
X166249048Y-40579524D01*
X167519048Y-39309524D02*
X167640000Y-39309524D01*
X167760952Y-39370000D01*
X167821429Y-39430476D01*
X167881905Y-39551429D01*
X167942381Y-39793333D01*
X167942381Y-40095714D01*
X167881905Y-40337619D01*
X167821429Y-40458571D01*
X167760952Y-40519048D01*
X167640000Y-40579524D01*
X167519048Y-40579524D01*
X167398095Y-40519048D01*
X167337619Y-40458571D01*
X167277143Y-40337619D01*
X167216667Y-40095714D01*
X167216667Y-39793333D01*
X167277143Y-39551429D01*
X167337619Y-39430476D01*
X167398095Y-39370000D01*
X167519048Y-39309524D01*
X169212381Y-40579524D02*
X168789048Y-39974762D01*
X168486667Y-40579524D02*
X168486667Y-39309524D01*
X168970476Y-39309524D01*
X169091429Y-39370000D01*
X169151905Y-39430476D01*
X169212381Y-39551429D01*
X169212381Y-39732857D01*
X169151905Y-39853810D01*
X169091429Y-39914286D01*
X168970476Y-39974762D01*
X168486667Y-39974762D01*
X185843333Y-64074524D02*
X185420000Y-63469762D01*
X185117619Y-64074524D02*
X185117619Y-62804524D01*
X185601428Y-62804524D01*
X185722381Y-62865000D01*
X185782857Y-62925476D01*
X185843333Y-63046429D01*
X185843333Y-63227857D01*
X185782857Y-63348810D01*
X185722381Y-63409286D01*
X185601428Y-63469762D01*
X185117619Y-63469762D01*
X186327143Y-62925476D02*
X186387619Y-62865000D01*
X186508571Y-62804524D01*
X186810952Y-62804524D01*
X186931905Y-62865000D01*
X186992381Y-62925476D01*
X187052857Y-63046429D01*
X187052857Y-63167381D01*
X186992381Y-63348810D01*
X186266667Y-64074524D01*
X187052857Y-64074524D01*
X134154333Y-85664524D02*
X133731000Y-85059762D01*
X133428619Y-85664524D02*
X133428619Y-84394524D01*
X133912428Y-84394524D01*
X134033381Y-84455000D01*
X134093857Y-84515476D01*
X134154333Y-84636429D01*
X134154333Y-84817857D01*
X134093857Y-84938810D01*
X134033381Y-84999286D01*
X133912428Y-85059762D01*
X133428619Y-85059762D01*
X134577667Y-84394524D02*
X135363857Y-84394524D01*
X134940524Y-84878333D01*
X135121952Y-84878333D01*
X135242905Y-84938810D01*
X135303381Y-84999286D01*
X135363857Y-85120238D01*
X135363857Y-85422619D01*
X135303381Y-85543571D01*
X135242905Y-85604048D01*
X135121952Y-85664524D01*
X134759095Y-85664524D01*
X134638143Y-85604048D01*
X134577667Y-85543571D01*
X141363095Y-85664524D02*
X140637381Y-85664524D01*
X141000238Y-85664524D02*
X141000238Y-84394524D01*
X140879286Y-84575952D01*
X140758333Y-84696905D01*
X140637381Y-84757381D01*
X142149286Y-84394524D02*
X142270238Y-84394524D01*
X142391190Y-84455000D01*
X142451667Y-84515476D01*
X142512143Y-84636429D01*
X142572619Y-84878333D01*
X142572619Y-85180714D01*
X142512143Y-85422619D01*
X142451667Y-85543571D01*
X142391190Y-85604048D01*
X142270238Y-85664524D01*
X142149286Y-85664524D01*
X142028333Y-85604048D01*
X141967857Y-85543571D01*
X141907381Y-85422619D01*
X141846905Y-85180714D01*
X141846905Y-84878333D01*
X141907381Y-84636429D01*
X141967857Y-84515476D01*
X142028333Y-84455000D01*
X142149286Y-84394524D01*
X143116905Y-85664524D02*
X143116905Y-84394524D01*
X143842619Y-85664524D02*
X143298334Y-84938810D01*
X143842619Y-84394524D02*
X143116905Y-85120238D01*
X134154333Y-88204524D02*
X133731000Y-87599762D01*
X133428619Y-88204524D02*
X133428619Y-86934524D01*
X133912428Y-86934524D01*
X134033381Y-86995000D01*
X134093857Y-87055476D01*
X134154333Y-87176429D01*
X134154333Y-87357857D01*
X134093857Y-87478810D01*
X134033381Y-87539286D01*
X133912428Y-87599762D01*
X133428619Y-87599762D01*
X135242905Y-87357857D02*
X135242905Y-88204524D01*
X134940524Y-86874048D02*
X134638143Y-87781190D01*
X135424333Y-87781190D01*
X141363095Y-88204524D02*
X140637381Y-88204524D01*
X141000238Y-88204524D02*
X141000238Y-86934524D01*
X140879286Y-87115952D01*
X140758333Y-87236905D01*
X140637381Y-87297381D01*
X142149286Y-86934524D02*
X142270238Y-86934524D01*
X142391190Y-86995000D01*
X142451667Y-87055476D01*
X142512143Y-87176429D01*
X142572619Y-87418333D01*
X142572619Y-87720714D01*
X142512143Y-87962619D01*
X142451667Y-88083571D01*
X142391190Y-88144048D01*
X142270238Y-88204524D01*
X142149286Y-88204524D01*
X142028333Y-88144048D01*
X141967857Y-88083571D01*
X141907381Y-87962619D01*
X141846905Y-87720714D01*
X141846905Y-87418333D01*
X141907381Y-87176429D01*
X141967857Y-87055476D01*
X142028333Y-86995000D01*
X142149286Y-86934524D01*
X143116905Y-88204524D02*
X143116905Y-86934524D01*
X143842619Y-88204524D02*
X143298334Y-87478810D01*
X143842619Y-86934524D02*
X143116905Y-87660238D01*
X138732381Y-71059524D02*
X138732381Y-72087619D01*
X138792857Y-72208571D01*
X138853333Y-72269048D01*
X138974286Y-72329524D01*
X139216190Y-72329524D01*
X139337143Y-72269048D01*
X139397619Y-72208571D01*
X139458095Y-72087619D01*
X139458095Y-71059524D01*
X140607143Y-71482857D02*
X140607143Y-72329524D01*
X140304762Y-70999048D02*
X140002381Y-71906190D01*
X140788571Y-71906190D01*
X178253571Y-86178571D02*
X178193095Y-86239048D01*
X178011666Y-86299524D01*
X177890714Y-86299524D01*
X177709286Y-86239048D01*
X177588333Y-86118095D01*
X177527857Y-85997143D01*
X177467381Y-85755238D01*
X177467381Y-85573810D01*
X177527857Y-85331905D01*
X177588333Y-85210952D01*
X177709286Y-85090000D01*
X177890714Y-85029524D01*
X178011666Y-85029524D01*
X178193095Y-85090000D01*
X178253571Y-85150476D01*
X179463095Y-86299524D02*
X178737381Y-86299524D01*
X179100238Y-86299524D02*
X179100238Y-85029524D01*
X178979286Y-85210952D01*
X178858333Y-85331905D01*
X178737381Y-85392381D01*
X180672619Y-86299524D02*
X179946905Y-86299524D01*
X180309762Y-86299524D02*
X180309762Y-85029524D01*
X180188810Y-85210952D01*
X180067857Y-85331905D01*
X179946905Y-85392381D01*
X179463095Y-88718571D02*
X179402619Y-88779048D01*
X179221190Y-88839524D01*
X179100238Y-88839524D01*
X178918810Y-88779048D01*
X178797857Y-88658095D01*
X178737381Y-88537143D01*
X178676905Y-88295238D01*
X178676905Y-88113810D01*
X178737381Y-87871905D01*
X178797857Y-87750952D01*
X178918810Y-87630000D01*
X179100238Y-87569524D01*
X179221190Y-87569524D01*
X179402619Y-87630000D01*
X179463095Y-87690476D01*
M02*
