M48
;DRILL file {KiCad 4.0.4-stable} date Mon Aug 14 21:30:06 2017
;FORMAT={-:-/ absolute / inch / decimal}
FMAT,2
INCH,TZ
T1C0.023
T2C0.025
T3C0.031
T4C0.032
T5C0.039
T6C0.040
T7C0.120
%
G90
G05
M72
T1
X3.2Y-4.8
X3.475Y-3.225
X3.5Y-3.125
X3.525Y-3.025
X3.55Y-2.925
X3.575Y-2.825
X3.6Y-2.725
X3.625Y-2.6
X3.8Y-1.475
X3.85Y-4.5
X4.075Y-2.8
X4.125Y-1.45
X4.125Y-1.775
X4.125Y-3.55
X4.575Y-2.375
X4.6Y-2.475
X4.625Y-2.575
X4.65Y-2.8
X4.675Y-3.95
X4.7Y-3.85
X4.725Y-3.55
X4.725Y-3.75
X4.75Y-3.65
X4.775Y-3.45
X4.825Y-3.55
X4.85Y-2.825
X4.85Y-3.175
X4.85Y-3.35
X4.9Y-2.8
X4.9Y-3.15
X4.9Y-3.45
X4.9Y-3.65
X4.925Y-3.75
X4.925Y-3.95
X4.95Y-2.775
X4.95Y-3.175
X4.95Y-3.4
X5.Y-3.15
X5.025Y-4.8
X5.025Y-4.925
X5.05Y-2.75
X5.275Y-2.825
X5.275Y-3.175
X5.3Y-3.7
X5.3Y-4.775
X5.35Y-2.775
X5.35Y-3.175
X5.375Y-2.025
X5.4Y-2.825
X5.4Y-4.775
X5.5Y-4.775
X5.55Y-2.825
X5.55Y-3.9
X5.6Y-2.225
X5.6Y-2.55
X5.6Y-3.6
X5.6Y-4.45
X5.625Y-2.175
X5.625Y-4.775
X5.625Y-5.025
X5.675Y-1.625
X5.675Y-2.
X5.7Y-2.825
X5.725Y-4.775
X5.85Y-2.775
X5.85Y-3.7
X5.875Y-4.775
X6.025Y-1.7
X6.025Y-3.125
X6.125Y-1.875
X6.125Y-2.075
X6.15Y-2.775
X6.3Y-2.775
X6.3Y-4.25
X6.325Y-4.05
X6.5Y-3.1
X6.525Y-2.225
X6.55Y-2.175
X6.55Y-3.225
X6.575Y-4.1
X6.6Y-1.975
X6.6Y-4.725
X6.625Y-4.675
X6.625Y-4.95
X6.65Y-4.625
X6.675Y-4.5
X6.7Y-4.25
X6.7Y-4.4
X6.75Y-3.125
X6.75Y-4.3
X6.8Y-4.2
X6.825Y-4.65
X6.85Y-4.75
X6.95Y-2.525
X7.025Y-2.725
X7.075Y-2.775
T2
X4.4Y-4.3
X4.4Y-4.55
X5.2Y-4.775
T3
X3.25Y-3.85
X3.25Y-3.95
X3.25Y-4.05
X3.25Y-4.15
X3.25Y-4.25
X3.25Y-4.35
X3.25Y-4.45
X3.25Y-4.55
X3.4Y-4.875
X3.4Y-4.9734
X3.55Y-3.85
X3.55Y-3.95
X3.55Y-4.05
X3.55Y-4.15
X3.55Y-4.25
X3.55Y-4.35
X3.55Y-4.45
X3.55Y-4.55
X3.925Y-1.775
X3.925Y-1.875
X3.925Y-1.975
X3.925Y-2.075
X3.925Y-2.175
X3.925Y-2.275
X3.925Y-2.375
X3.925Y-2.475
X3.925Y-2.575
X3.925Y-2.675
X3.95Y-3.65
X3.95Y-3.75
X3.95Y-3.85
X3.95Y-3.95
X3.95Y-4.05
X3.95Y-4.15
X3.95Y-4.25
X3.95Y-4.35
X3.95Y-4.45
X3.95Y-4.55
X4.225Y-1.775
X4.225Y-1.875
X4.225Y-1.975
X4.225Y-2.075
X4.225Y-2.175
X4.225Y-2.275
X4.225Y-2.375
X4.225Y-2.475
X4.225Y-2.575
X4.225Y-2.675
X4.25Y-3.65
X4.25Y-3.75
X4.25Y-3.85
X4.25Y-3.95
X4.25Y-4.05
X4.25Y-4.15
X4.25Y-4.25
X4.25Y-4.35
X4.25Y-4.45
X4.25Y-4.55
X4.45Y-1.775
X4.45Y-1.875
X4.45Y-1.975
X4.45Y-2.075
X4.45Y-2.175
X4.45Y-2.275
X4.45Y-2.375
X4.45Y-2.475
X4.45Y-2.575
X4.45Y-2.675
X4.55Y-3.25
X4.55Y-3.35
X4.55Y-3.45
X4.55Y-3.55
X4.55Y-3.65
X4.55Y-3.75
X4.55Y-3.85
X4.55Y-3.95
X4.55Y-4.05
X4.55Y-4.15
X4.55Y-4.25
X4.55Y-4.35
X4.55Y-4.45
X4.55Y-4.55
X4.75Y-1.775
X4.75Y-1.875
X4.75Y-1.975
X4.75Y-2.075
X4.75Y-2.175
X4.75Y-2.275
X4.75Y-2.375
X4.75Y-2.475
X4.75Y-2.575
X4.75Y-2.675
X4.975Y-1.775
X4.975Y-1.875
X4.975Y-1.975
X4.975Y-2.075
X4.975Y-2.175
X4.975Y-2.275
X4.975Y-2.375
X4.975Y-2.475
X4.975Y-2.575
X4.975Y-2.675
X5.15Y-3.25
X5.15Y-3.35
X5.15Y-3.45
X5.15Y-3.55
X5.15Y-3.65
X5.15Y-3.75
X5.15Y-3.85
X5.15Y-3.95
X5.15Y-4.05
X5.15Y-4.15
X5.15Y-4.25
X5.15Y-4.35
X5.15Y-4.45
X5.15Y-4.55
X5.275Y-1.775
X5.275Y-1.875
X5.275Y-1.975
X5.275Y-2.075
X5.275Y-2.175
X5.275Y-2.275
X5.275Y-2.375
X5.275Y-2.475
X5.275Y-2.575
X5.275Y-2.675
X5.45Y-3.85
X5.45Y-3.95
X5.45Y-4.05
X5.45Y-4.15
X5.45Y-4.25
X5.45Y-4.35
X5.45Y-4.45
X5.45Y-4.55
X5.475Y-2.075
X5.475Y-2.175
X5.475Y-2.275
X5.475Y-2.375
X5.475Y-2.475
X5.475Y-2.575
X5.475Y-2.675
X5.75Y-3.85
X5.75Y-3.95
X5.75Y-4.05
X5.75Y-4.15
X5.75Y-4.25
X5.75Y-4.35
X5.75Y-4.45
X5.75Y-4.55
X5.775Y-2.075
X5.775Y-2.175
X5.775Y-2.275
X5.775Y-2.375
X5.775Y-2.475
X5.775Y-2.575
X5.775Y-2.675
X5.925Y-2.075
X5.925Y-2.175
X5.925Y-2.275
X5.925Y-2.375
X5.925Y-2.475
X5.925Y-2.575
X5.925Y-2.675
X6.15Y-3.65
X6.15Y-3.75
X6.15Y-3.85
X6.15Y-3.95
X6.15Y-4.05
X6.15Y-4.15
X6.15Y-4.25
X6.15Y-4.35
X6.15Y-4.45
X6.15Y-4.55
X6.225Y-2.075
X6.225Y-2.175
X6.225Y-2.275
X6.225Y-2.375
X6.225Y-2.475
X6.225Y-2.575
X6.225Y-2.675
X6.375Y-2.075
X6.375Y-2.175
X6.375Y-2.275
X6.375Y-2.375
X6.375Y-2.475
X6.375Y-2.575
X6.375Y-2.675
X6.45Y-3.65
X6.45Y-3.75
X6.45Y-3.85
X6.45Y-3.95
X6.45Y-4.05
X6.45Y-4.15
X6.45Y-4.25
X6.45Y-4.35
X6.45Y-4.45
X6.45Y-4.55
X6.675Y-2.075
X6.675Y-2.175
X6.675Y-2.275
X6.675Y-2.375
X6.675Y-2.475
X6.675Y-2.575
X6.675Y-2.675
X6.825Y-1.975
X6.825Y-2.075
X6.825Y-2.175
X6.825Y-2.275
X6.825Y-2.375
X6.825Y-2.475
X6.825Y-2.575
X6.825Y-2.675
X6.9Y-3.65
X6.9Y-3.75
X6.9Y-3.85
X6.9Y-3.95
X6.9Y-4.05
X6.9Y-4.15
X6.9Y-4.25
X6.9Y-4.35
X6.9Y-4.45
X6.9Y-4.55
X7.125Y-1.975
X7.125Y-2.075
X7.125Y-2.175
X7.125Y-2.275
X7.125Y-2.375
X7.125Y-2.475
X7.125Y-2.575
X7.125Y-2.675
X7.2Y-3.65
X7.2Y-3.75
X7.2Y-3.85
X7.2Y-3.95
X7.2Y-4.05
X7.2Y-4.15
X7.2Y-4.25
X7.2Y-4.35
X7.2Y-4.45
X7.2Y-4.55
T4
X3.75Y-3.65
X3.75Y-3.75
X3.75Y-3.85
X3.75Y-3.95
X3.75Y-4.05
X3.75Y-4.15
X3.75Y-4.25
X3.75Y-4.35
X3.75Y-4.45
X3.75Y-4.55
X3.95Y-3.25
X4.05Y-3.25
X4.05Y-4.95
X4.05Y-5.05
X4.15Y-4.95
X4.15Y-5.05
X4.25Y-4.95
X4.25Y-5.05
X4.35Y-4.95
X4.35Y-5.05
X4.45Y-4.95
X4.45Y-5.05
X5.475Y-1.475
X5.475Y-1.575
X5.475Y-1.675
X5.775Y-1.475
X5.775Y-1.575
X5.775Y-1.675
X5.95Y-3.65
X5.95Y-3.75
X5.95Y-3.85
X5.95Y-3.95
X5.95Y-4.05
X5.95Y-4.15
X5.95Y-4.25
X5.95Y-4.35
X5.95Y-4.45
X5.95Y-4.55
X7.225Y-1.575
X7.325Y-1.575
T5
X3.925Y-1.475
X3.95Y-3.475
X4.225Y-1.475
X4.25Y-3.475
X4.45Y-1.475
X4.75Y-1.475
X4.975Y-1.475
X5.275Y-1.475
X5.4Y-3.25
X5.4Y-3.35
X5.4Y-3.45
X5.475Y-1.9
X5.775Y-1.9
X5.8Y-3.25
X5.8Y-3.35
X5.8Y-3.45
X5.925Y-1.9
X6.15Y-3.475
X6.225Y-1.9
X6.375Y-1.575
X6.375Y-1.9
X6.45Y-3.475
X6.675Y-1.9
X6.775Y-1.575
X6.825Y-1.8
X6.9Y-3.475
X6.95Y-1.575
X7.05Y-1.575
X7.125Y-1.8
X7.2Y-3.475
X7.325Y-1.975
X7.325Y-2.375
T6
X3.25Y-1.575
X3.25Y-1.675
X3.25Y-1.775
X3.25Y-1.875
X3.25Y-1.975
X3.25Y-2.075
X3.25Y-2.175
X3.25Y-2.275
X3.25Y-2.375
X3.25Y-2.475
X3.25Y-2.575
X3.25Y-2.675
X3.25Y-2.775
X3.25Y-2.875
X3.25Y-2.975
X3.25Y-3.075
X3.25Y-3.175
X3.25Y-3.275
X3.25Y-3.375
X3.25Y-3.475
X3.35Y-1.575
X3.35Y-1.675
X3.35Y-1.775
X3.35Y-1.875
X3.35Y-1.975
X3.35Y-2.075
X3.35Y-2.175
X3.35Y-2.275
X3.35Y-2.375
X3.35Y-2.475
X3.35Y-2.575
X3.35Y-2.675
X3.35Y-2.775
X3.35Y-2.875
X3.35Y-2.975
X3.35Y-3.075
X3.35Y-3.175
X3.35Y-3.275
X3.35Y-3.375
X3.35Y-3.475
T7
X7.35Y-2.825
X7.35Y-5.05
T0
M30
