G04 #@! TF.FileFunction,Copper,L1,Top,Signal*
%FSLAX46Y46*%
G04 Gerber Fmt 4.6, Leading zero omitted, Abs format (unit mm)*
G04 Created by KiCad (PCBNEW 4.0.0-stable) date Sat 14 May 2016 01:26:04 PM EDT*
%MOMM*%
G01*
G04 APERTURE LIST*
%ADD10C,0.150000*%
%ADD11C,1.998980*%
%ADD12R,2.286000X1.574800*%
%ADD13O,2.286000X1.574800*%
%ADD14R,1.397000X1.397000*%
%ADD15C,1.397000*%
%ADD16C,1.778000*%
%ADD17R,1.778000X7.112000*%
%ADD18R,1.727200X1.727200*%
%ADD19O,1.727200X1.727200*%
%ADD20C,1.300000*%
%ADD21R,1.300000X1.300000*%
%ADD22R,1.900000X2.000000*%
%ADD23C,1.900000*%
%ADD24C,4.064000*%
%ADD25R,1.524000X1.524000*%
%ADD26C,1.524000*%
%ADD27C,0.889000*%
%ADD28C,0.304800*%
%ADD29C,1.270000*%
%ADD30C,0.609600*%
%ADD31C,0.406400*%
G04 APERTURE END LIST*
D10*
D11*
X175260000Y-88265000D03*
X182880000Y-88265000D03*
X119380000Y-38100000D03*
X127000000Y-38100000D03*
X107950000Y-38100000D03*
X100330000Y-38100000D03*
X163830000Y-88265000D03*
X156210000Y-88265000D03*
X107950000Y-88265000D03*
X100330000Y-88265000D03*
X156210000Y-48260000D03*
X148590000Y-48260000D03*
X142240000Y-40640000D03*
X134620000Y-40640000D03*
X168275000Y-48260000D03*
X160655000Y-48260000D03*
X172720000Y-45720000D03*
X180340000Y-45720000D03*
X172720000Y-40640000D03*
X162560000Y-40640000D03*
D12*
X175260000Y-92710000D03*
D13*
X175260000Y-95250000D03*
X175260000Y-97790000D03*
X175260000Y-100330000D03*
X175260000Y-102870000D03*
X175260000Y-105410000D03*
X175260000Y-107950000D03*
X175260000Y-110490000D03*
X175260000Y-113030000D03*
X175260000Y-115570000D03*
X182880000Y-115570000D03*
X182880000Y-113030000D03*
X182880000Y-110490000D03*
X182880000Y-107950000D03*
X182880000Y-105410000D03*
X182880000Y-102870000D03*
X182880000Y-100330000D03*
X182880000Y-97790000D03*
X182880000Y-95250000D03*
X182880000Y-92710000D03*
D12*
X119380000Y-45085000D03*
D13*
X119380000Y-47625000D03*
X119380000Y-50165000D03*
X119380000Y-52705000D03*
X119380000Y-55245000D03*
X119380000Y-57785000D03*
X119380000Y-60325000D03*
X119380000Y-62865000D03*
X119380000Y-65405000D03*
X119380000Y-67945000D03*
X127000000Y-67945000D03*
X127000000Y-65405000D03*
X127000000Y-62865000D03*
X127000000Y-60325000D03*
X127000000Y-57785000D03*
X127000000Y-55245000D03*
X127000000Y-52705000D03*
X127000000Y-50165000D03*
X127000000Y-47625000D03*
X127000000Y-45085000D03*
D12*
X100330000Y-45085000D03*
D13*
X100330000Y-47625000D03*
X100330000Y-50165000D03*
X100330000Y-52705000D03*
X100330000Y-55245000D03*
X100330000Y-57785000D03*
X100330000Y-60325000D03*
X100330000Y-62865000D03*
X100330000Y-65405000D03*
X100330000Y-67945000D03*
X107950000Y-67945000D03*
X107950000Y-65405000D03*
X107950000Y-62865000D03*
X107950000Y-60325000D03*
X107950000Y-57785000D03*
X107950000Y-55245000D03*
X107950000Y-52705000D03*
X107950000Y-50165000D03*
X107950000Y-47625000D03*
X107950000Y-45085000D03*
D12*
X134620000Y-45085000D03*
D13*
X134620000Y-47625000D03*
X134620000Y-50165000D03*
X134620000Y-52705000D03*
X134620000Y-55245000D03*
X134620000Y-57785000D03*
X134620000Y-60325000D03*
X134620000Y-62865000D03*
X134620000Y-65405000D03*
X134620000Y-67945000D03*
X142240000Y-67945000D03*
X142240000Y-65405000D03*
X142240000Y-62865000D03*
X142240000Y-60325000D03*
X142240000Y-57785000D03*
X142240000Y-55245000D03*
X142240000Y-52705000D03*
X142240000Y-50165000D03*
X142240000Y-47625000D03*
X142240000Y-45085000D03*
D12*
X160655000Y-52705000D03*
D13*
X160655000Y-55245000D03*
X160655000Y-57785000D03*
X160655000Y-60325000D03*
X160655000Y-62865000D03*
X160655000Y-65405000D03*
X160655000Y-67945000D03*
X168275000Y-67945000D03*
X168275000Y-65405000D03*
X168275000Y-62865000D03*
X168275000Y-60325000D03*
X168275000Y-57785000D03*
X168275000Y-55245000D03*
X168275000Y-52705000D03*
D12*
X100330000Y-92710000D03*
D13*
X100330000Y-95250000D03*
X100330000Y-97790000D03*
X100330000Y-100330000D03*
X100330000Y-102870000D03*
X100330000Y-105410000D03*
X100330000Y-107950000D03*
X100330000Y-110490000D03*
X100330000Y-113030000D03*
X100330000Y-115570000D03*
X107950000Y-115570000D03*
X107950000Y-113030000D03*
X107950000Y-110490000D03*
X107950000Y-107950000D03*
X107950000Y-105410000D03*
X107950000Y-102870000D03*
X107950000Y-100330000D03*
X107950000Y-97790000D03*
X107950000Y-95250000D03*
X107950000Y-92710000D03*
D12*
X172720000Y-50165000D03*
D13*
X172720000Y-52705000D03*
X172720000Y-55245000D03*
X172720000Y-57785000D03*
X172720000Y-60325000D03*
X172720000Y-62865000D03*
X172720000Y-65405000D03*
X172720000Y-67945000D03*
X180340000Y-67945000D03*
X180340000Y-65405000D03*
X180340000Y-62865000D03*
X180340000Y-60325000D03*
X180340000Y-57785000D03*
X180340000Y-55245000D03*
X180340000Y-52705000D03*
X180340000Y-50165000D03*
D12*
X148590000Y-52705000D03*
D13*
X148590000Y-55245000D03*
X148590000Y-57785000D03*
X148590000Y-60325000D03*
X148590000Y-62865000D03*
X148590000Y-65405000D03*
X148590000Y-67945000D03*
X156210000Y-67945000D03*
X156210000Y-65405000D03*
X156210000Y-62865000D03*
X156210000Y-60325000D03*
X156210000Y-57785000D03*
X156210000Y-55245000D03*
X156210000Y-52705000D03*
D12*
X156210000Y-92710000D03*
D13*
X156210000Y-95250000D03*
X156210000Y-97790000D03*
X156210000Y-100330000D03*
X156210000Y-102870000D03*
X156210000Y-105410000D03*
X156210000Y-107950000D03*
X156210000Y-110490000D03*
X156210000Y-113030000D03*
X156210000Y-115570000D03*
X163830000Y-115570000D03*
X163830000Y-113030000D03*
X163830000Y-110490000D03*
X163830000Y-107950000D03*
X163830000Y-105410000D03*
X163830000Y-102870000D03*
X163830000Y-100330000D03*
X163830000Y-97790000D03*
X163830000Y-95250000D03*
X163830000Y-92710000D03*
D12*
X115570000Y-82550000D03*
D13*
X115570000Y-85090000D03*
X115570000Y-87630000D03*
X115570000Y-90170000D03*
X115570000Y-92710000D03*
X115570000Y-95250000D03*
X115570000Y-97790000D03*
X115570000Y-100330000D03*
X115570000Y-102870000D03*
X115570000Y-105410000D03*
X115570000Y-107950000D03*
X115570000Y-110490000D03*
X115570000Y-113030000D03*
X115570000Y-115570000D03*
X130810000Y-115570000D03*
X130810000Y-113030000D03*
X130810000Y-110490000D03*
X130810000Y-107950000D03*
X130810000Y-105410000D03*
X130810000Y-102870000D03*
X130810000Y-100330000D03*
X130810000Y-97790000D03*
X130810000Y-95250000D03*
X130810000Y-92710000D03*
X130810000Y-90170000D03*
X130810000Y-87630000D03*
X130810000Y-85090000D03*
X130810000Y-82550000D03*
D11*
X147320000Y-85090000D03*
X137160000Y-85090000D03*
X137160000Y-87630000D03*
X147320000Y-87630000D03*
D14*
X95250000Y-92710000D03*
D15*
X95250000Y-95250000D03*
X95250000Y-97790000D03*
X95250000Y-100330000D03*
X95250000Y-102870000D03*
X95250000Y-105410000D03*
X95250000Y-107950000D03*
X95250000Y-110490000D03*
X95250000Y-113030000D03*
X95250000Y-115570000D03*
D14*
X151130000Y-92710000D03*
D15*
X151130000Y-95250000D03*
X151130000Y-97790000D03*
X151130000Y-100330000D03*
X151130000Y-102870000D03*
X151130000Y-105410000D03*
X151130000Y-107950000D03*
X151130000Y-110490000D03*
X151130000Y-113030000D03*
X151130000Y-115570000D03*
D16*
X138430000Y-97790000D03*
X138430000Y-100330000D03*
X138430000Y-102870000D03*
X138430000Y-105410000D03*
X138430000Y-107950000D03*
X138430000Y-110490000D03*
X138430000Y-113030000D03*
X138430000Y-115570000D03*
X146050000Y-115570000D03*
X146050000Y-113030000D03*
X146050000Y-110490000D03*
X146050000Y-107950000D03*
X146050000Y-105410000D03*
X146050000Y-102870000D03*
X146050000Y-100330000D03*
X146050000Y-97790000D03*
X82550000Y-97790000D03*
X82550000Y-100330000D03*
X82550000Y-102870000D03*
X82550000Y-105410000D03*
X82550000Y-107950000D03*
X82550000Y-110490000D03*
X82550000Y-113030000D03*
X82550000Y-115570000D03*
X90170000Y-115570000D03*
X90170000Y-113030000D03*
X90170000Y-110490000D03*
X90170000Y-107950000D03*
X90170000Y-105410000D03*
X90170000Y-102870000D03*
X90170000Y-100330000D03*
X90170000Y-97790000D03*
D17*
X165100000Y-136906000D03*
X162560000Y-136906000D03*
X160020000Y-136906000D03*
X157480000Y-136906000D03*
X154940000Y-136906000D03*
X152400000Y-136906000D03*
X149860000Y-136906000D03*
X147320000Y-136906000D03*
X144780000Y-136906000D03*
X142240000Y-136906000D03*
X139700000Y-136906000D03*
X137160000Y-136906000D03*
X134620000Y-136906000D03*
X132080000Y-136906000D03*
X129540000Y-136906000D03*
X127000000Y-136906000D03*
X124460000Y-136906000D03*
X121920000Y-136906000D03*
X119380000Y-136906000D03*
X116840000Y-136906000D03*
X114300000Y-136906000D03*
X111760000Y-136906000D03*
X109220000Y-136906000D03*
X106680000Y-136906000D03*
X104140000Y-136906000D03*
X101600000Y-136906000D03*
X99060000Y-136906000D03*
X96520000Y-136906000D03*
X93980000Y-136906000D03*
X91440000Y-136906000D03*
X88900000Y-136906000D03*
D11*
X137160000Y-82550000D03*
X147320000Y-82550000D03*
D18*
X85090000Y-88265000D03*
D19*
X82550000Y-88265000D03*
X85090000Y-85725000D03*
X82550000Y-85725000D03*
X85090000Y-83185000D03*
X82550000Y-83185000D03*
X85090000Y-80645000D03*
X82550000Y-80645000D03*
X85090000Y-78105000D03*
X82550000Y-78105000D03*
X85090000Y-75565000D03*
X82550000Y-75565000D03*
X85090000Y-73025000D03*
X82550000Y-73025000D03*
X85090000Y-70485000D03*
X82550000Y-70485000D03*
X85090000Y-67945000D03*
X82550000Y-67945000D03*
X85090000Y-65405000D03*
X82550000Y-65405000D03*
X85090000Y-62865000D03*
X82550000Y-62865000D03*
X85090000Y-60325000D03*
X82550000Y-60325000D03*
X85090000Y-57785000D03*
X82550000Y-57785000D03*
X85090000Y-55245000D03*
X82550000Y-55245000D03*
X85090000Y-52705000D03*
X82550000Y-52705000D03*
X85090000Y-50165000D03*
X82550000Y-50165000D03*
X85090000Y-47625000D03*
X82550000Y-47625000D03*
X85090000Y-45085000D03*
X82550000Y-45085000D03*
X85090000Y-42545000D03*
X82550000Y-42545000D03*
X85090000Y-40005000D03*
X82550000Y-40005000D03*
D20*
X86360000Y-126325000D03*
D21*
X86360000Y-123825000D03*
D22*
X175895000Y-40640000D03*
D23*
X178435000Y-40640000D03*
D24*
X186690000Y-128905000D03*
X186690000Y-71755000D03*
D14*
X102870000Y-82550000D03*
D15*
X100330000Y-82550000D03*
D14*
X148590000Y-38100000D03*
D15*
X148590000Y-40640000D03*
X148590000Y-43180000D03*
D14*
X156210000Y-38100000D03*
D15*
X156210000Y-40640000D03*
X156210000Y-43180000D03*
D25*
X102870000Y-128270000D03*
D26*
X102870000Y-125730000D03*
X105410000Y-128270000D03*
X105410000Y-125730000D03*
X107950000Y-128270000D03*
X107950000Y-125730000D03*
X110490000Y-128270000D03*
X110490000Y-125730000D03*
X113030000Y-128270000D03*
X113030000Y-125730000D03*
D11*
X186055000Y-50165000D03*
X186055000Y-60325000D03*
D14*
X183515000Y-40640000D03*
D15*
X186055000Y-40640000D03*
D27*
X134620000Y-121285000D03*
X135890000Y-80645000D03*
X146050000Y-65405000D03*
X137160000Y-121285000D03*
X140970000Y-97155000D03*
X109220000Y-69850000D03*
X116840000Y-69850000D03*
X116840000Y-36830000D03*
X127000000Y-80010000D03*
X168275000Y-79375000D03*
X97790000Y-36830000D03*
X165100000Y-78740000D03*
X151765000Y-55245000D03*
X151765000Y-65405000D03*
X152400000Y-57785000D03*
X151765000Y-62865000D03*
X144780000Y-71120000D03*
X145415000Y-46990000D03*
X123190000Y-80645000D03*
X123190000Y-71755000D03*
X125095000Y-100330000D03*
X125095000Y-95250000D03*
X123190000Y-85090000D03*
X124460000Y-80010000D03*
X124460000Y-71120000D03*
X153035000Y-59055000D03*
X153035000Y-62865000D03*
X118745000Y-100330000D03*
X125730000Y-80645000D03*
X125730000Y-70485000D03*
X119380000Y-97790000D03*
X88900000Y-79375000D03*
X89535000Y-76835000D03*
X90170000Y-74295000D03*
X90805000Y-71755000D03*
X91440000Y-69215000D03*
X92075000Y-66040000D03*
X88265000Y-81915000D03*
X81280000Y-121920000D03*
X167005000Y-104140000D03*
X167640000Y-120015000D03*
X168275000Y-118745000D03*
X168910000Y-117475000D03*
X169545000Y-114300000D03*
X170180000Y-107950000D03*
X170180000Y-111760000D03*
X171450000Y-109220000D03*
X172720000Y-106680000D03*
X139700000Y-121285000D03*
X142875000Y-127635000D03*
X142875000Y-121285000D03*
X142240000Y-91440000D03*
X142240000Y-113030000D03*
X125730000Y-86360000D03*
X127635000Y-125095000D03*
X127635000Y-121920000D03*
X124460000Y-87630000D03*
X160655000Y-102870000D03*
X160020000Y-107950000D03*
X124460000Y-92710000D03*
X104775000Y-90170000D03*
X122555000Y-90170000D03*
X121285000Y-87630000D03*
X120015000Y-90170000D03*
X120650000Y-92710000D03*
X120015000Y-95250000D03*
X146050000Y-67945000D03*
X165735000Y-60325000D03*
X153670000Y-56515000D03*
X139700000Y-54610000D03*
X164465000Y-52705000D03*
X128905000Y-46990000D03*
X128905000Y-41910000D03*
X131445000Y-39370000D03*
X173990000Y-120650000D03*
X173355000Y-118110000D03*
X158750000Y-81280000D03*
X168275000Y-125730000D03*
X146685000Y-64135000D03*
X133985000Y-80645000D03*
X132080000Y-121285000D03*
X148590000Y-93980000D03*
X134620000Y-93980000D03*
X176530000Y-71120000D03*
X176530000Y-78740000D03*
X151130000Y-79375000D03*
D28*
X85090000Y-42545000D02*
X88265000Y-42545000D01*
X130810000Y-50165000D02*
X134620000Y-50165000D01*
X130175000Y-49530000D02*
X130810000Y-50165000D01*
X130175000Y-41275000D02*
X130175000Y-49530000D01*
X129540000Y-40640000D02*
X130175000Y-41275000D01*
X90170000Y-40640000D02*
X129540000Y-40640000D01*
X88265000Y-42545000D02*
X90170000Y-40640000D01*
X89535000Y-40005000D02*
X130175000Y-40005000D01*
X82550000Y-42545000D02*
X83820000Y-41275000D01*
X131445000Y-47625000D02*
X134620000Y-47625000D01*
X130810000Y-46990000D02*
X131445000Y-47625000D01*
X130810000Y-40640000D02*
X130810000Y-46990000D01*
X130175000Y-40005000D02*
X130810000Y-40640000D01*
X88265000Y-41275000D02*
X89535000Y-40005000D01*
X83820000Y-41275000D02*
X88265000Y-41275000D01*
X85090000Y-57785000D02*
X91440000Y-57785000D01*
X133350000Y-60325000D02*
X134620000Y-60325000D01*
X132080000Y-59055000D02*
X133350000Y-60325000D01*
X123190000Y-59055000D02*
X132080000Y-59055000D01*
X122555000Y-58420000D02*
X123190000Y-59055000D01*
X122555000Y-43815000D02*
X122555000Y-58420000D01*
X121920000Y-43180000D02*
X122555000Y-43815000D01*
X92710000Y-43180000D02*
X121920000Y-43180000D01*
X92075000Y-43815000D02*
X92710000Y-43180000D01*
X92075000Y-57150000D02*
X92075000Y-43815000D01*
X91440000Y-57785000D02*
X92075000Y-57150000D01*
X121285000Y-43815000D02*
X121920000Y-44450000D01*
X92201998Y-60325000D02*
X92710000Y-59816998D01*
X92710000Y-59816998D02*
X92710000Y-44450000D01*
X92710000Y-44450000D02*
X93345000Y-43815000D01*
X93345000Y-43815000D02*
X121285000Y-43815000D01*
X85090000Y-60325000D02*
X92201998Y-60325000D01*
X133350000Y-62865000D02*
X134620000Y-62865000D01*
X132080000Y-61595000D02*
X133350000Y-62865000D01*
X122555000Y-61595000D02*
X132080000Y-61595000D01*
X121920000Y-60960000D02*
X122555000Y-61595000D01*
X121920000Y-44450000D02*
X121920000Y-60960000D01*
X135255000Y-83820000D02*
X135255000Y-81280000D01*
X135255000Y-92710000D02*
X135890000Y-93345000D01*
X135890000Y-93345000D02*
X135890000Y-94615000D01*
X135890000Y-94615000D02*
X135255000Y-95250000D01*
X135255000Y-95250000D02*
X135255000Y-120650000D01*
X135255000Y-120650000D02*
X134620000Y-121285000D01*
X135255000Y-83820000D02*
X135255000Y-92710000D01*
X135255000Y-81280000D02*
X135890000Y-80645000D01*
X172720000Y-50165000D02*
X146050000Y-50165000D01*
X145415000Y-64770000D02*
X146050000Y-65405000D01*
X145415000Y-50800000D02*
X145415000Y-64770000D01*
X146050000Y-50165000D02*
X145415000Y-50800000D01*
X135890000Y-116840000D02*
X135890000Y-107315000D01*
X137160000Y-121285000D02*
X137160000Y-121285000D01*
X135890000Y-116840000D02*
X135890000Y-117475000D01*
X135890000Y-117475000D02*
X135890000Y-120015000D01*
X135890000Y-120015000D02*
X137160000Y-121285000D01*
X140335000Y-97790000D02*
X140970000Y-97155000D01*
X140335000Y-106045000D02*
X140335000Y-97790000D01*
X139700000Y-106680000D02*
X140335000Y-106045000D01*
X136525000Y-106680000D02*
X139700000Y-106680000D01*
X135890000Y-107315000D02*
X136525000Y-106680000D01*
X86995000Y-88265000D02*
X88265000Y-88265000D01*
X88900000Y-87630000D02*
X98425000Y-78105000D01*
X116840000Y-69850000D02*
X116840000Y-67310000D01*
X98425000Y-78105000D02*
X98425000Y-70485000D01*
X98425000Y-70485000D02*
X99060000Y-69850000D01*
X99060000Y-69850000D02*
X109220000Y-69850000D01*
X134620000Y-65405000D02*
X133350000Y-65405000D01*
X132080000Y-66675000D02*
X133350000Y-65405000D01*
X117475000Y-66675000D02*
X132080000Y-66675000D01*
X116840000Y-67310000D02*
X117475000Y-66675000D01*
X86995000Y-88265000D02*
X85090000Y-88265000D01*
X88265000Y-88265000D02*
X88900000Y-87630000D01*
X181610000Y-48260000D02*
X182245000Y-48895000D01*
X181610000Y-48260000D02*
X170815000Y-48260000D01*
X170815000Y-48260000D02*
X170180000Y-47625000D01*
X170180000Y-47625000D02*
X170180000Y-36830000D01*
X170180000Y-36830000D02*
X169545000Y-36195000D01*
X117475000Y-36195000D02*
X116840000Y-36830000D01*
X169545000Y-36195000D02*
X117475000Y-36195000D01*
X181610000Y-57785000D02*
X180340000Y-57785000D01*
X182245000Y-57150000D02*
X181610000Y-57785000D01*
X182245000Y-48895000D02*
X182245000Y-57150000D01*
X163195000Y-80010000D02*
X163830000Y-80645000D01*
X150495000Y-80645000D02*
X151765000Y-80645000D01*
X151765000Y-80645000D02*
X153035000Y-79375000D01*
X153035000Y-79375000D02*
X162560000Y-79375000D01*
X162560000Y-79375000D02*
X163195000Y-80010000D01*
X127635000Y-79375000D02*
X149225000Y-79375000D01*
X127000000Y-80010000D02*
X127635000Y-79375000D01*
X149225000Y-79375000D02*
X150495000Y-80645000D01*
X167640000Y-79375000D02*
X168275000Y-79375000D01*
X166370000Y-80645000D02*
X167640000Y-79375000D01*
X163830000Y-80645000D02*
X166370000Y-80645000D01*
X182245000Y-47625000D02*
X182880000Y-48260000D01*
X170180000Y-35560000D02*
X170815000Y-36195000D01*
X170815000Y-36195000D02*
X170815000Y-46990000D01*
X170815000Y-46990000D02*
X171450000Y-47625000D01*
X171450000Y-47625000D02*
X182245000Y-47625000D01*
X99060000Y-35560000D02*
X115570000Y-35560000D01*
X97790000Y-36830000D02*
X99060000Y-35560000D01*
X115570000Y-35560000D02*
X170180000Y-35560000D01*
X182245000Y-65405000D02*
X180340000Y-65405000D01*
X182880000Y-64770000D02*
X182245000Y-65405000D01*
X182880000Y-48260000D02*
X182880000Y-64770000D01*
X163830000Y-78105000D02*
X164465000Y-78105000D01*
X164465000Y-78105000D02*
X165100000Y-78740000D01*
X151130000Y-78105000D02*
X149225000Y-78105000D01*
X109855000Y-67945000D02*
X110490000Y-68580000D01*
X110490000Y-68580000D02*
X110490000Y-77470000D01*
X110490000Y-77470000D02*
X111125000Y-78105000D01*
X111125000Y-78105000D02*
X149225000Y-78105000D01*
X107950000Y-67945000D02*
X109855000Y-67945000D01*
X151130000Y-78105000D02*
X163830000Y-78105000D01*
X148590000Y-57785000D02*
X150495000Y-57785000D01*
X151130000Y-55880000D02*
X151765000Y-55245000D01*
X151130000Y-57150000D02*
X151130000Y-55880000D01*
X150495000Y-57785000D02*
X151130000Y-57150000D01*
X148590000Y-65405000D02*
X151765000Y-65405000D01*
X151765000Y-58420000D02*
X152400000Y-57785000D01*
X151765000Y-62865000D02*
X151765000Y-58420000D01*
X85090000Y-45085000D02*
X90170000Y-45085000D01*
X133350000Y-55245000D02*
X134620000Y-55245000D01*
X132080000Y-53975000D02*
X133350000Y-55245000D01*
X124460000Y-53975000D02*
X132080000Y-53975000D01*
X123825000Y-53340000D02*
X124460000Y-53975000D01*
X123825000Y-42545000D02*
X123825000Y-53340000D01*
X123190000Y-41910000D02*
X123825000Y-42545000D01*
X91440000Y-41910000D02*
X123190000Y-41910000D01*
X90805000Y-42545000D02*
X91440000Y-41910000D01*
X90805000Y-44450000D02*
X90805000Y-42545000D01*
X90170000Y-45085000D02*
X90805000Y-44450000D01*
X148590000Y-43180000D02*
X153035000Y-43180000D01*
X157480000Y-38100000D02*
X156210000Y-38100000D01*
X158115000Y-38735000D02*
X157480000Y-38100000D01*
X158115000Y-41275000D02*
X158115000Y-38735000D01*
X157480000Y-41910000D02*
X158115000Y-41275000D01*
X154305000Y-41910000D02*
X157480000Y-41910000D01*
X153035000Y-43180000D02*
X154305000Y-41910000D01*
X144780000Y-47625000D02*
X145415000Y-46990000D01*
X144780000Y-71120000D02*
X144780000Y-47625000D01*
X115570000Y-105410000D02*
X117475000Y-105410000D01*
X118110000Y-106045000D02*
X117475000Y-105410000D01*
X89535000Y-117475000D02*
X88900000Y-118110000D01*
X88900000Y-136906000D02*
X88900000Y-118110000D01*
X118110000Y-115570000D02*
X118110000Y-116840000D01*
X118110000Y-115570000D02*
X118110000Y-106045000D01*
X117475000Y-117475000D02*
X95250000Y-117475000D01*
X118110000Y-116840000D02*
X117475000Y-117475000D01*
X95250000Y-117475000D02*
X89535000Y-117475000D01*
X85090000Y-47625000D02*
X90805000Y-47625000D01*
X133350000Y-57785000D02*
X134620000Y-57785000D01*
X132080000Y-56515000D02*
X133350000Y-57785000D01*
X123825000Y-56515000D02*
X132080000Y-56515000D01*
X123190000Y-55880000D02*
X123825000Y-56515000D01*
X123190000Y-43180000D02*
X123190000Y-55880000D01*
X122555000Y-42545000D02*
X123190000Y-43180000D01*
X92075000Y-42545000D02*
X122555000Y-42545000D01*
X91440000Y-43180000D02*
X92075000Y-42545000D01*
X91440000Y-46990000D02*
X91440000Y-43180000D01*
X90805000Y-47625000D02*
X91440000Y-46990000D01*
X122555000Y-82550000D02*
X122555000Y-82550000D01*
X117475000Y-83185000D02*
X118110000Y-82550000D01*
X123825000Y-72390000D02*
X123190000Y-71755000D01*
X116840000Y-102870000D02*
X115570000Y-102870000D01*
X117475000Y-102235000D02*
X117475000Y-83185000D01*
X116840000Y-102870000D02*
X117475000Y-102235000D01*
X123190000Y-81915000D02*
X123190000Y-80645000D01*
X122555000Y-82550000D02*
X123190000Y-81915000D01*
X118110000Y-82550000D02*
X122555000Y-82550000D01*
X123825000Y-72390000D02*
X123825000Y-72390000D01*
X142240000Y-60325000D02*
X140970000Y-60325000D01*
X139700000Y-72390000D02*
X123825000Y-72390000D01*
X140335000Y-71755000D02*
X139700000Y-72390000D01*
X140335000Y-60960000D02*
X140335000Y-71755000D01*
X140970000Y-60325000D02*
X140335000Y-60960000D01*
X115570000Y-102870000D02*
X118110000Y-102870000D01*
X97790000Y-118110000D02*
X92075000Y-118110000D01*
X118745000Y-117475000D02*
X118110000Y-118110000D01*
X118110000Y-118110000D02*
X97790000Y-118110000D01*
X118745000Y-116840000D02*
X118745000Y-103505000D01*
X118745000Y-116840000D02*
X118745000Y-117475000D01*
X91440000Y-118745000D02*
X91440000Y-136906000D01*
X92075000Y-118110000D02*
X91440000Y-118745000D01*
X118745000Y-103505000D02*
X118110000Y-102870000D01*
X124460000Y-123190000D02*
X123825000Y-123825000D01*
X124460000Y-116840000D02*
X124460000Y-123190000D01*
X125095000Y-100330000D02*
X124460000Y-100965000D01*
X124460000Y-116840000D02*
X124460000Y-100965000D01*
X114300000Y-124460000D02*
X114300000Y-136906000D01*
X114935000Y-123825000D02*
X114300000Y-124460000D01*
X123825000Y-123825000D02*
X114935000Y-123825000D01*
X125095000Y-123825000D02*
X124460000Y-124460000D01*
X125095000Y-116840000D02*
X125095000Y-123825000D01*
X126365000Y-100330000D02*
X126365000Y-96520000D01*
X126365000Y-96520000D02*
X125095000Y-95250000D01*
X125095000Y-101600000D02*
X126365000Y-100330000D01*
X125095000Y-116840000D02*
X125095000Y-101600000D01*
X116840000Y-125095000D02*
X116840000Y-136906000D01*
X117475000Y-124460000D02*
X116840000Y-125095000D01*
X124460000Y-124460000D02*
X117475000Y-124460000D01*
X123825000Y-89535000D02*
X123825000Y-88900000D01*
X125095000Y-125095000D02*
X120015000Y-125095000D01*
X120015000Y-125095000D02*
X119380000Y-125730000D01*
X119380000Y-136906000D02*
X119380000Y-125730000D01*
X127000000Y-95885000D02*
X125730000Y-94615000D01*
X125730000Y-116840000D02*
X125730000Y-102235000D01*
X125730000Y-102235000D02*
X127000000Y-100965000D01*
X127000000Y-100965000D02*
X127000000Y-95885000D01*
X123825000Y-90805000D02*
X123825000Y-89535000D01*
X125730000Y-92710000D02*
X123825000Y-90805000D01*
X125730000Y-94615000D02*
X125730000Y-92710000D01*
X125730000Y-116840000D02*
X125730000Y-124460000D01*
X125730000Y-124460000D02*
X125095000Y-125095000D01*
X123190000Y-88265000D02*
X123190000Y-85090000D01*
X123825000Y-88900000D02*
X123190000Y-88265000D01*
X82550000Y-45085000D02*
X83820000Y-43815000D01*
X133350000Y-52705000D02*
X134620000Y-52705000D01*
X132080000Y-51435000D02*
X133350000Y-52705000D01*
X125095000Y-51435000D02*
X132080000Y-51435000D01*
X124460000Y-50800000D02*
X125095000Y-51435000D01*
X124460000Y-41910000D02*
X124460000Y-50800000D01*
X123825000Y-41275000D02*
X124460000Y-41910000D01*
X90805000Y-41275000D02*
X123825000Y-41275000D01*
X90170000Y-41910000D02*
X90805000Y-41275000D01*
X90170000Y-43180000D02*
X90170000Y-41910000D01*
X89535000Y-43815000D02*
X90170000Y-43180000D01*
X83820000Y-43815000D02*
X89535000Y-43815000D01*
X118110000Y-84455000D02*
X118110000Y-83820000D01*
X124460000Y-71120000D02*
X125095000Y-71755000D01*
X125095000Y-71755000D02*
X139191998Y-71755000D01*
X139191998Y-71755000D02*
X139700000Y-71246998D01*
X139700000Y-71246998D02*
X139700000Y-55880000D01*
X139700000Y-55880000D02*
X140335000Y-55245000D01*
X140335000Y-55245000D02*
X142240000Y-55245000D01*
X124460000Y-82550000D02*
X124460000Y-80010000D01*
X123825000Y-83185000D02*
X124460000Y-82550000D01*
X118745000Y-83185000D02*
X123825000Y-83185000D01*
X118110000Y-83820000D02*
X118745000Y-83185000D01*
X153035000Y-62865000D02*
X153035000Y-59055000D01*
X118110000Y-84455000D02*
X118110000Y-84455000D01*
X118745000Y-100330000D02*
X118110000Y-99695000D01*
X118110000Y-99695000D02*
X118110000Y-84455000D01*
X94615000Y-118745000D02*
X93980000Y-119380000D01*
X93980000Y-136906000D02*
X93980000Y-119380000D01*
X119380000Y-118110000D02*
X118745000Y-118745000D01*
X118745000Y-118745000D02*
X100330000Y-118745000D01*
X119380000Y-116840000D02*
X119380000Y-100965000D01*
X119380000Y-116840000D02*
X119380000Y-118110000D01*
X100330000Y-118745000D02*
X94615000Y-118745000D01*
X119380000Y-100965000D02*
X118745000Y-100330000D01*
X118745000Y-84455000D02*
X119380000Y-83820000D01*
X125730000Y-70485000D02*
X126365000Y-71120000D01*
X126365000Y-71120000D02*
X133985000Y-71120000D01*
X125730000Y-83185000D02*
X125730000Y-80645000D01*
X125095000Y-83820000D02*
X125730000Y-83185000D01*
X119380000Y-83820000D02*
X125095000Y-83820000D01*
X118745000Y-84455000D02*
X118745000Y-84455000D01*
X118745000Y-97155000D02*
X119380000Y-97790000D01*
X118745000Y-97155000D02*
X118745000Y-84455000D01*
X133985000Y-71120000D02*
X137795000Y-71120000D01*
X137795000Y-71120000D02*
X138430000Y-70485000D01*
X138430000Y-70485000D02*
X138430000Y-38735000D01*
X138430000Y-38735000D02*
X139065000Y-38100000D01*
X139065000Y-38100000D02*
X148590000Y-38100000D01*
X133985000Y-71120000D02*
X133858002Y-71120000D01*
X97155000Y-119380000D02*
X96520000Y-120015000D01*
X120015000Y-98425000D02*
X119380000Y-97790000D01*
X102870000Y-119380000D02*
X97155000Y-119380000D01*
X120015000Y-116840000D02*
X120015000Y-118745000D01*
X120015000Y-116840000D02*
X120015000Y-98425000D01*
X119380000Y-119380000D02*
X102870000Y-119380000D01*
X120015000Y-118745000D02*
X119380000Y-119380000D01*
X96520000Y-136906000D02*
X96520000Y-120015000D01*
X83820000Y-79375000D02*
X82550000Y-80645000D01*
X88900000Y-79375000D02*
X83820000Y-79375000D01*
X83820000Y-76835000D02*
X82550000Y-78105000D01*
X89535000Y-76835000D02*
X83820000Y-76835000D01*
X83820000Y-74295000D02*
X82550000Y-75565000D01*
X90170000Y-74295000D02*
X83820000Y-74295000D01*
X83820000Y-71755000D02*
X82550000Y-73025000D01*
X90805000Y-71755000D02*
X83820000Y-71755000D01*
X83820000Y-69215000D02*
X82550000Y-70485000D01*
X91440000Y-69215000D02*
X83820000Y-69215000D01*
X83820000Y-66675000D02*
X82550000Y-67945000D01*
X91440000Y-66675000D02*
X83820000Y-66675000D01*
X92075000Y-66040000D02*
X91440000Y-66675000D01*
X83820000Y-81915000D02*
X82550000Y-83185000D01*
X88265000Y-81915000D02*
X83820000Y-81915000D01*
X80645000Y-93980000D02*
X80645000Y-121285000D01*
X80645000Y-121285000D02*
X81280000Y-121920000D01*
X78740000Y-86360000D02*
X78740000Y-92075000D01*
X86360000Y-50165000D02*
X86995000Y-50800000D01*
X86995000Y-50800000D02*
X86995000Y-53340000D01*
X86995000Y-53340000D02*
X86360000Y-53975000D01*
X86360000Y-53975000D02*
X80645000Y-53975000D01*
X80645000Y-53975000D02*
X80010000Y-54610000D01*
X80010000Y-54610000D02*
X80010000Y-63500000D01*
X80010000Y-63500000D02*
X78740000Y-64770000D01*
X78740000Y-64770000D02*
X78740000Y-86360000D01*
X85090000Y-50165000D02*
X86360000Y-50165000D01*
X78740000Y-92075000D02*
X80010000Y-93345000D01*
X80010000Y-93345000D02*
X80645000Y-93980000D01*
X167005000Y-104140000D02*
X167640000Y-103505000D01*
X167640000Y-103505000D02*
X167640000Y-95885000D01*
X173990000Y-95250000D02*
X175260000Y-95250000D01*
X168275000Y-95250000D02*
X173990000Y-95250000D01*
X167640000Y-95885000D02*
X168275000Y-95250000D01*
X166370000Y-116840000D02*
X165735000Y-117475000D01*
X167005000Y-104140000D02*
X166370000Y-104775000D01*
X166370000Y-104775000D02*
X166370000Y-116840000D01*
X146050000Y-127000000D02*
X145415000Y-127635000D01*
X145415000Y-127635000D02*
X145415000Y-127635000D01*
X145415000Y-127635000D02*
X144780000Y-128270000D01*
X144780000Y-128270000D02*
X144780000Y-136906000D01*
X151130000Y-127000000D02*
X146050000Y-127000000D01*
X161925000Y-127000000D02*
X151130000Y-127000000D01*
X162560000Y-126365000D02*
X161925000Y-127000000D01*
X162560000Y-118110000D02*
X162560000Y-126365000D01*
X163195000Y-117475000D02*
X162560000Y-118110000D01*
X165735000Y-117475000D02*
X163195000Y-117475000D01*
X167005000Y-104140000D02*
X167005000Y-104140000D01*
X167005000Y-106045000D02*
X168275000Y-104775000D01*
X167005000Y-106045000D02*
X167005000Y-109855000D01*
X167005000Y-109855000D02*
X167005000Y-111760000D01*
X167640000Y-120015000D02*
X167005000Y-119380000D01*
X167005000Y-113665000D02*
X167005000Y-119380000D01*
X167005000Y-111760000D02*
X167005000Y-113665000D01*
X173990000Y-97790000D02*
X175260000Y-97790000D01*
X168910000Y-97790000D02*
X173990000Y-97790000D01*
X168275000Y-98425000D02*
X168910000Y-97790000D01*
X168275000Y-104775000D02*
X168275000Y-98425000D01*
X153670000Y-127635000D02*
X162560000Y-127635000D01*
X147955000Y-127635000D02*
X147320000Y-128270000D01*
X147320000Y-136906000D02*
X147320000Y-128270000D01*
X153670000Y-127635000D02*
X147955000Y-127635000D01*
X163830000Y-120015000D02*
X167640000Y-120015000D01*
X163195000Y-120650000D02*
X163830000Y-120015000D01*
X163195000Y-127000000D02*
X163195000Y-120650000D01*
X162560000Y-127635000D02*
X163195000Y-127000000D01*
X167640000Y-106680000D02*
X168910000Y-105410000D01*
X175260000Y-100330000D02*
X173990000Y-100330000D01*
X167640000Y-118110000D02*
X168275000Y-118745000D01*
X167640000Y-114173002D02*
X167640000Y-118110000D01*
X167640000Y-106680000D02*
X167640000Y-114173002D01*
X169545000Y-100330000D02*
X173990000Y-100330000D01*
X168910000Y-100965000D02*
X169545000Y-100330000D01*
X168910000Y-105410000D02*
X168910000Y-100965000D01*
X156210000Y-128270000D02*
X163195000Y-128270000D01*
X150495000Y-128270000D02*
X149860000Y-128905000D01*
X149860000Y-136906000D02*
X149860000Y-128905000D01*
X168910000Y-119380000D02*
X168275000Y-118745000D01*
X168910000Y-120650000D02*
X168910000Y-119380000D01*
X156210000Y-128270000D02*
X150495000Y-128270000D01*
X168275000Y-121285000D02*
X168910000Y-120650000D01*
X164465000Y-121285000D02*
X168275000Y-121285000D01*
X163830000Y-121920000D02*
X164465000Y-121285000D01*
X163830000Y-127635000D02*
X163830000Y-121920000D01*
X163195000Y-128270000D02*
X163830000Y-127635000D01*
X168275000Y-107315000D02*
X169545000Y-106045000D01*
X168275000Y-107315000D02*
X168275000Y-116840000D01*
X168910000Y-117475000D02*
X168275000Y-116840000D01*
X172720000Y-102870000D02*
X175260000Y-102870000D01*
X170180000Y-102870000D02*
X172720000Y-102870000D01*
X169545000Y-103505000D02*
X170180000Y-102870000D01*
X169545000Y-106045000D02*
X169545000Y-103505000D01*
X158750000Y-128905000D02*
X163830000Y-128905000D01*
X153035000Y-128905000D02*
X152400000Y-129540000D01*
X152400000Y-136906000D02*
X152400000Y-129540000D01*
X169545000Y-118110000D02*
X168910000Y-117475000D01*
X169545000Y-121285000D02*
X169545000Y-118110000D01*
X158750000Y-128905000D02*
X153035000Y-128905000D01*
X168910000Y-121920000D02*
X169545000Y-121285000D01*
X165100000Y-121920000D02*
X168910000Y-121920000D01*
X164465000Y-122555000D02*
X165100000Y-121920000D01*
X164465000Y-128270000D02*
X164465000Y-122555000D01*
X163830000Y-128905000D02*
X164465000Y-128270000D01*
X168910000Y-107950000D02*
X170180000Y-106680000D01*
X169545000Y-114300000D02*
X168910000Y-113665000D01*
X168910000Y-107950000D02*
X168910000Y-113665000D01*
X170815000Y-105410000D02*
X175260000Y-105410000D01*
X170180000Y-106045000D02*
X170815000Y-105410000D01*
X170180000Y-106680000D02*
X170180000Y-106045000D01*
X161290000Y-129540000D02*
X164465000Y-129540000D01*
X155575000Y-129540000D02*
X154940000Y-130175000D01*
X154940000Y-136906000D02*
X154940000Y-130175000D01*
X170180000Y-121920000D02*
X170180000Y-114935000D01*
X170180000Y-114935000D02*
X169545000Y-114300000D01*
X161290000Y-129540000D02*
X155575000Y-129540000D01*
X169545000Y-122555000D02*
X170180000Y-121920000D01*
X165735000Y-122555000D02*
X169545000Y-122555000D01*
X165100000Y-123190000D02*
X165735000Y-122555000D01*
X165100000Y-128905000D02*
X165100000Y-123190000D01*
X164465000Y-129540000D02*
X165100000Y-128905000D01*
X163830000Y-130175000D02*
X165100000Y-130175000D01*
X158115000Y-130175000D02*
X157480000Y-130810000D01*
X157480000Y-136906000D02*
X157480000Y-130810000D01*
X170815000Y-112395000D02*
X170180000Y-111760000D01*
X170815000Y-122555000D02*
X170815000Y-112395000D01*
X163830000Y-130175000D02*
X158115000Y-130175000D01*
X170180000Y-123190000D02*
X170815000Y-122555000D01*
X166370000Y-123190000D02*
X170180000Y-123190000D01*
X165735000Y-123825000D02*
X166370000Y-123190000D01*
X165735000Y-129540000D02*
X165735000Y-123825000D01*
X165100000Y-130175000D02*
X165735000Y-129540000D01*
X170180000Y-107950000D02*
X170180000Y-111760000D01*
X160655000Y-130810000D02*
X165735000Y-130810000D01*
X160655000Y-130810000D02*
X160020000Y-131445000D01*
X160020000Y-136906000D02*
X160020000Y-131445000D01*
X171450000Y-109855000D02*
X171450000Y-111760000D01*
X171450000Y-109855000D02*
X171450000Y-109220000D01*
X171450000Y-123190000D02*
X171450000Y-111760000D01*
X170815000Y-123825000D02*
X171450000Y-123190000D01*
X167005000Y-123825000D02*
X170815000Y-123825000D01*
X166370000Y-124460000D02*
X167005000Y-123825000D01*
X166370000Y-130175000D02*
X166370000Y-124460000D01*
X165735000Y-130810000D02*
X166370000Y-130175000D01*
X163195000Y-131445000D02*
X166370000Y-131445000D01*
X163195000Y-131445000D02*
X162560000Y-132080000D01*
X162560000Y-136906000D02*
X162560000Y-132080000D01*
X172646041Y-113030000D02*
X172085000Y-113665000D01*
X172646041Y-113030000D02*
X172720000Y-113030000D01*
X172085000Y-123825000D02*
X172085000Y-113665000D01*
X171450000Y-124460000D02*
X172085000Y-123825000D01*
X167640000Y-124460000D02*
X171450000Y-124460000D01*
X167005000Y-125095000D02*
X167640000Y-124460000D01*
X167005000Y-130810000D02*
X167005000Y-125095000D01*
X166370000Y-131445000D02*
X167005000Y-130810000D01*
X175260000Y-113030000D02*
X172720000Y-113030000D01*
X172720000Y-106680000D02*
X172720000Y-113030000D01*
D29*
X100330000Y-82550000D02*
X96520000Y-82550000D01*
X81280000Y-65405000D02*
X82550000Y-65405000D01*
X80010000Y-91440000D02*
X81280000Y-91440000D01*
X80010000Y-65405000D02*
X80010000Y-91440000D01*
X81280000Y-65405000D02*
X80010000Y-65405000D01*
X81280000Y-91440000D02*
X87630000Y-91440000D01*
X87630000Y-91440000D02*
X96520000Y-82550000D01*
X134620000Y-40640000D02*
X134620000Y-45085000D01*
D28*
X178435000Y-40640000D02*
X178435000Y-43180000D01*
X172720000Y-44450000D02*
X172720000Y-45720000D01*
X173355000Y-43815000D02*
X172720000Y-44450000D01*
X177800000Y-43815000D02*
X173355000Y-43815000D01*
X178435000Y-43180000D02*
X177800000Y-43815000D01*
D29*
X168275000Y-48260000D02*
X168275000Y-45085000D01*
X168275000Y-45085000D02*
X156210000Y-45085000D01*
X163830000Y-88265000D02*
X175260000Y-88265000D01*
X102870000Y-82550000D02*
X102870000Y-85725000D01*
X102870000Y-85725000D02*
X107950000Y-85725000D01*
X95885000Y-85725000D02*
X102870000Y-85725000D01*
X86360000Y-97790000D02*
X86360000Y-95250000D01*
X86360000Y-95250000D02*
X95885000Y-85725000D01*
X107950000Y-85725000D02*
X107950000Y-88265000D01*
D30*
X82550000Y-97790000D02*
X86360000Y-97790000D01*
D29*
X86360000Y-100330000D02*
X86360000Y-97790000D01*
X107950000Y-88265000D02*
X107950000Y-92710000D01*
X142240000Y-40640000D02*
X142240000Y-45085000D01*
X156210000Y-48260000D02*
X156210000Y-45085000D01*
X156210000Y-45085000D02*
X152400000Y-45085000D01*
X152400000Y-45085000D02*
X142240000Y-45085000D01*
X119380000Y-38100000D02*
X118745000Y-38735000D01*
X118745000Y-38735000D02*
X108585000Y-38735000D01*
X108585000Y-38735000D02*
X107950000Y-38100000D01*
D28*
X85090000Y-52705000D02*
X83820000Y-51435000D01*
X107950000Y-36830000D02*
X107950000Y-38100000D01*
X107315000Y-36195000D02*
X107950000Y-36830000D01*
X99695000Y-36195000D02*
X107315000Y-36195000D01*
X97790000Y-38100000D02*
X99695000Y-36195000D01*
X80645000Y-38100000D02*
X97790000Y-38100000D01*
X80010000Y-38735000D02*
X80645000Y-38100000D01*
X80010000Y-50800000D02*
X80010000Y-38735000D01*
X80645000Y-51435000D02*
X80010000Y-50800000D01*
X83820000Y-51435000D02*
X80645000Y-51435000D01*
D31*
X163830000Y-105410000D02*
X165100000Y-105410000D01*
X165100000Y-100330000D02*
X163830000Y-100330000D01*
X165735000Y-100965000D02*
X165100000Y-100330000D01*
X165735000Y-104775000D02*
X165735000Y-100965000D01*
X165100000Y-105410000D02*
X165735000Y-104775000D01*
D29*
X142875000Y-82550000D02*
X143510000Y-82550000D01*
X137160000Y-82550000D02*
X142875000Y-82550000D01*
X143510000Y-85090000D02*
X147320000Y-85090000D01*
X143510000Y-82550000D02*
X143510000Y-85090000D01*
X147320000Y-85090000D02*
X163830000Y-85090000D01*
X163830000Y-86360000D02*
X163830000Y-88265000D01*
X163830000Y-85090000D02*
X163830000Y-86360000D01*
D30*
X82550000Y-110490000D02*
X86360000Y-110490000D01*
X82550000Y-107950000D02*
X86360000Y-107950000D01*
X82550000Y-105410000D02*
X86360000Y-105410000D01*
X82550000Y-102870000D02*
X86360000Y-102870000D01*
X82550000Y-100330000D02*
X86360000Y-100330000D01*
D29*
X86360000Y-123825000D02*
X86360000Y-110490000D01*
X86360000Y-110490000D02*
X86360000Y-107950000D01*
X86360000Y-107950000D02*
X86360000Y-105410000D01*
X86360000Y-105410000D02*
X86360000Y-102870000D01*
X86360000Y-102870000D02*
X86360000Y-100330000D01*
D30*
X138430000Y-105410000D02*
X138430000Y-102870000D01*
X138430000Y-102870000D02*
X138430000Y-100330000D01*
X138430000Y-100330000D02*
X138430000Y-97790000D01*
X138430000Y-97790000D02*
X138430000Y-88900000D01*
X138430000Y-88900000D02*
X137160000Y-87630000D01*
D29*
X163830000Y-88265000D02*
X163830000Y-92710000D01*
D28*
X160655000Y-55245000D02*
X159385000Y-55245000D01*
X149860000Y-55245000D02*
X148590000Y-55245000D01*
X151130000Y-53975000D02*
X149860000Y-55245000D01*
X158115000Y-53975000D02*
X151130000Y-53975000D01*
X159385000Y-55245000D02*
X158115000Y-53975000D01*
X170180000Y-71120000D02*
X170180000Y-60960000D01*
X170180000Y-71120000D02*
X169545000Y-71755000D01*
X169545000Y-71755000D02*
X158750000Y-71755000D01*
X158750000Y-71755000D02*
X158115000Y-71120000D01*
X158115000Y-71120000D02*
X158115000Y-68580000D01*
X158115000Y-68580000D02*
X157480000Y-67945000D01*
X156210000Y-67945000D02*
X157480000Y-67945000D01*
X169545000Y-60325000D02*
X168275000Y-60325000D01*
X170180000Y-60960000D02*
X169545000Y-60325000D01*
X138430000Y-115570000D02*
X139700000Y-115570000D01*
X140335000Y-120650000D02*
X139700000Y-121285000D01*
X140335000Y-116205000D02*
X140335000Y-120650000D01*
X139700000Y-115570000D02*
X140335000Y-116205000D01*
X142240000Y-120650000D02*
X142875000Y-121285000D01*
X142240000Y-113030000D02*
X142240000Y-113665000D01*
X142240000Y-120650000D02*
X142240000Y-113665000D01*
X139700000Y-128270000D02*
X139700000Y-136906000D01*
X140335000Y-127635000D02*
X139700000Y-128270000D01*
X142875000Y-127635000D02*
X140335000Y-127635000D01*
X142240000Y-113030000D02*
X142240000Y-91440000D01*
X125730000Y-86995000D02*
X125730000Y-86360000D01*
X128143002Y-94488002D02*
X127000000Y-93345000D01*
X127000000Y-93345000D02*
X127000000Y-91440000D01*
X127000000Y-91440000D02*
X125730000Y-90170000D01*
X125730000Y-90170000D02*
X125730000Y-86995000D01*
X128143002Y-98425000D02*
X128143002Y-94488002D01*
X130175000Y-123190000D02*
X129540000Y-123190000D01*
X127635000Y-125095000D02*
X127635000Y-125095000D01*
X129540000Y-123190000D02*
X127635000Y-125095000D01*
X127000000Y-125730000D02*
X127635000Y-125095000D01*
X124460000Y-136906000D02*
X124460000Y-128905000D01*
X124460000Y-127000000D02*
X124460000Y-128905000D01*
X125095000Y-126365000D02*
X124460000Y-127000000D01*
X126365000Y-126365000D02*
X125095000Y-126365000D01*
X127000000Y-125730000D02*
X126365000Y-126365000D01*
X127000000Y-116840000D02*
X127000000Y-103505000D01*
X127635000Y-121920000D02*
X127000000Y-121285000D01*
X127000000Y-121285000D02*
X127000000Y-116840000D01*
X128143002Y-102361998D02*
X128143002Y-98425000D01*
X127000000Y-103505000D02*
X128143002Y-102361998D01*
X130175000Y-123190000D02*
X130175000Y-123190000D01*
X141605000Y-122555000D02*
X140970000Y-123190000D01*
X140970000Y-123190000D02*
X130175000Y-123190000D01*
X140970000Y-112395000D02*
X141605000Y-111760000D01*
X141605000Y-114300000D02*
X141605000Y-120650000D01*
X140970000Y-113665000D02*
X141605000Y-114300000D01*
X140970000Y-112395000D02*
X140970000Y-113665000D01*
X138430000Y-107950000D02*
X140970000Y-107950000D01*
X141605000Y-108585000D02*
X140970000Y-107950000D01*
X141605000Y-111760000D02*
X141605000Y-108585000D01*
X141605000Y-120650000D02*
X141605000Y-122555000D01*
X138430000Y-107950000D02*
X139065000Y-107950000D01*
X128143002Y-98425000D02*
X128143002Y-97916998D01*
X132080000Y-122555000D02*
X128905000Y-122555000D01*
X140970000Y-120015000D02*
X140970000Y-121920000D01*
X139700000Y-110490000D02*
X140335000Y-111125000D01*
X140335000Y-111125000D02*
X140335000Y-114300000D01*
X140335000Y-114300000D02*
X140970000Y-114935000D01*
X140970000Y-114935000D02*
X140970000Y-120015000D01*
X138430000Y-110490000D02*
X139700000Y-110490000D01*
X140335000Y-122555000D02*
X132080000Y-122555000D01*
X140970000Y-121920000D02*
X140335000Y-122555000D01*
X128905000Y-122555000D02*
X126365000Y-125095000D01*
X126365000Y-117475000D02*
X126365000Y-122555000D01*
X126365000Y-122555000D02*
X126365000Y-125095000D01*
X126365000Y-125095000D02*
X126365000Y-125095000D01*
X127635000Y-95250000D02*
X126365000Y-93980000D01*
X126365000Y-93980000D02*
X126365000Y-92075000D01*
X126365000Y-92075000D02*
X124460000Y-90170000D01*
X124460000Y-90170000D02*
X124460000Y-87630000D01*
X127635000Y-101600000D02*
X127635000Y-97155000D01*
X126365000Y-102870000D02*
X127635000Y-101600000D01*
X126365000Y-116840000D02*
X126365000Y-102870000D01*
X127635000Y-97155000D02*
X127635000Y-95250000D01*
X126365000Y-116840000D02*
X126365000Y-117475000D01*
X121920000Y-126365000D02*
X121920000Y-136906000D01*
X122555000Y-125730000D02*
X121920000Y-126365000D01*
X125730000Y-125730000D02*
X122555000Y-125730000D01*
X126365000Y-125095000D02*
X125730000Y-125730000D01*
X154940000Y-92710000D02*
X154305000Y-92710000D01*
X156210000Y-92710000D02*
X154940000Y-92710000D01*
X153035000Y-87630000D02*
X147320000Y-87630000D01*
X153670000Y-88265000D02*
X153035000Y-87630000D01*
X153670000Y-92075000D02*
X153670000Y-88265000D01*
X154305000Y-92710000D02*
X153670000Y-92075000D01*
X144145000Y-94615000D02*
X144145000Y-88265000D01*
X144780000Y-87630000D02*
X147320000Y-87630000D01*
X144145000Y-88265000D02*
X144780000Y-87630000D01*
X146050000Y-113030000D02*
X144780000Y-113030000D01*
X144145000Y-112395000D02*
X144145000Y-94615000D01*
X144780000Y-113030000D02*
X144145000Y-112395000D01*
X137160000Y-85090000D02*
X141605000Y-85090000D01*
X143510000Y-86995000D02*
X141605000Y-85090000D01*
X143510000Y-113665000D02*
X143510000Y-86995000D01*
X143510000Y-113665000D02*
X145415000Y-115570000D01*
X146050000Y-115570000D02*
X145415000Y-115570000D01*
X146050000Y-115570000D02*
X145415000Y-115570000D01*
X151130000Y-105410000D02*
X153035000Y-105410000D01*
X154305000Y-110490000D02*
X156210000Y-110490000D01*
X153670000Y-109855000D02*
X154305000Y-110490000D01*
X153670000Y-106045000D02*
X153670000Y-109855000D01*
X153035000Y-105410000D02*
X153670000Y-106045000D01*
X151130000Y-102870000D02*
X151765000Y-102870000D01*
X151765000Y-102870000D02*
X154305000Y-105410000D01*
X154305000Y-105410000D02*
X156210000Y-105410000D01*
X90170000Y-107950000D02*
X95250000Y-107950000D01*
X90170000Y-110490000D02*
X95250000Y-110490000D01*
X95250000Y-110490000D02*
X96520000Y-110490000D01*
X96520000Y-110490000D02*
X97790000Y-109220000D01*
X97790000Y-109220000D02*
X104775000Y-109220000D01*
X104775000Y-109220000D02*
X106045000Y-107950000D01*
X106045000Y-107950000D02*
X107950000Y-107950000D01*
X151130000Y-110490000D02*
X151765000Y-110490000D01*
X151765000Y-110490000D02*
X154305000Y-113030000D01*
X154305000Y-113030000D02*
X156210000Y-113030000D01*
X90170000Y-97790000D02*
X95250000Y-97790000D01*
X95250000Y-97790000D02*
X100330000Y-97790000D01*
X90170000Y-100330000D02*
X95250000Y-100330000D01*
X95250000Y-100330000D02*
X96520000Y-100330000D01*
X96520000Y-100330000D02*
X99060000Y-102870000D01*
X99060000Y-102870000D02*
X100330000Y-102870000D01*
X90170000Y-102870000D02*
X95250000Y-102870000D01*
X95250000Y-102870000D02*
X96520000Y-102870000D01*
X96520000Y-102870000D02*
X97155000Y-102870000D01*
X97155000Y-102870000D02*
X97790000Y-103505000D01*
X97790000Y-103505000D02*
X97790000Y-107315000D01*
X97790000Y-107315000D02*
X98425000Y-107950000D01*
X98425000Y-107950000D02*
X100330000Y-107950000D01*
X90170000Y-105410000D02*
X95250000Y-105410000D01*
X143510000Y-126365000D02*
X137795000Y-126365000D01*
X161925000Y-125730000D02*
X161290000Y-126365000D01*
X161290000Y-126365000D02*
X143510000Y-126365000D01*
X163830000Y-97790000D02*
X162560000Y-97790000D01*
X161925000Y-98425000D02*
X162560000Y-97790000D01*
X161925000Y-124460000D02*
X161925000Y-98425000D01*
X161925000Y-124460000D02*
X161925000Y-125730000D01*
X137160000Y-127000000D02*
X137160000Y-136906000D01*
X137795000Y-126365000D02*
X137160000Y-127000000D01*
X140970000Y-125730000D02*
X135255000Y-125730000D01*
X161290000Y-125095000D02*
X160655000Y-125730000D01*
X160655000Y-125730000D02*
X140970000Y-125730000D01*
X161290000Y-103505000D02*
X160655000Y-102870000D01*
X161290000Y-123825000D02*
X161290000Y-103505000D01*
X161290000Y-123825000D02*
X161290000Y-125095000D01*
X134620000Y-126365000D02*
X134620000Y-136906000D01*
X135255000Y-125730000D02*
X134620000Y-126365000D01*
X138430000Y-125095000D02*
X132715000Y-125095000D01*
X160655000Y-124460000D02*
X160020000Y-125095000D01*
X160020000Y-125095000D02*
X138430000Y-125095000D01*
X160660422Y-123190084D02*
X160655000Y-124460000D01*
X132080000Y-125730000D02*
X132080000Y-136906000D01*
X132715000Y-125095000D02*
X132080000Y-125730000D01*
X160655000Y-108585000D02*
X160020000Y-107950000D01*
X160660424Y-123195471D02*
X160660422Y-123190084D01*
X160660422Y-123190084D02*
X160655000Y-108585000D01*
X135890000Y-124460000D02*
X131445000Y-124460000D01*
X160020000Y-123825000D02*
X159385000Y-124460000D01*
X159385000Y-124460000D02*
X135890000Y-124460000D01*
X156210000Y-97790000D02*
X158115000Y-97790000D01*
X158750000Y-98425000D02*
X158115000Y-97790000D01*
X158750000Y-108585000D02*
X158750000Y-98425000D01*
X160020000Y-109855000D02*
X158750000Y-108585000D01*
X160020000Y-121920000D02*
X160020000Y-109855000D01*
X160020000Y-121920000D02*
X160020000Y-123825000D01*
X129540000Y-126365000D02*
X129540000Y-136906000D01*
X131445000Y-124460000D02*
X129540000Y-126365000D01*
X133350000Y-123825000D02*
X130810000Y-123825000D01*
X159385000Y-123190000D02*
X158750000Y-123825000D01*
X158750000Y-123825000D02*
X133350000Y-123825000D01*
X156210000Y-102870000D02*
X157480000Y-102870000D01*
X158115000Y-103505000D02*
X157480000Y-102870000D01*
X158115000Y-109220000D02*
X158115000Y-103505000D01*
X159385000Y-110490000D02*
X158115000Y-109220000D01*
X159385000Y-121285000D02*
X159385000Y-110490000D01*
X159385000Y-121285000D02*
X159385000Y-123190000D01*
X127000000Y-127635000D02*
X127000000Y-136906000D01*
X130810000Y-123825000D02*
X127000000Y-127635000D01*
X112395000Y-123190000D02*
X123190000Y-123190000D01*
X111760000Y-136906000D02*
X111760000Y-123825000D01*
X123825000Y-116840000D02*
X123825000Y-122555000D01*
X123825000Y-93345000D02*
X124460000Y-92710000D01*
X123825000Y-116840000D02*
X123825000Y-93345000D01*
X123190000Y-123190000D02*
X123825000Y-122555000D01*
X111760000Y-123825000D02*
X112395000Y-123190000D01*
X104775000Y-90170000D02*
X105410000Y-90805000D01*
X105410000Y-90805000D02*
X105410000Y-97790000D01*
X105410000Y-97790000D02*
X105410000Y-98425000D01*
X105410000Y-98425000D02*
X103505000Y-100330000D01*
X100330000Y-100330000D02*
X103505000Y-100330000D01*
X123190000Y-121920000D02*
X122555000Y-122555000D01*
X123190000Y-116840000D02*
X123190000Y-121920000D01*
X122555000Y-90170000D02*
X123190000Y-90805000D01*
X123190000Y-90805000D02*
X123190000Y-116840000D01*
X109220000Y-123190000D02*
X109220000Y-136906000D01*
X109855000Y-122555000D02*
X109220000Y-123190000D01*
X122555000Y-122555000D02*
X109855000Y-122555000D01*
X121920000Y-90805000D02*
X121285000Y-90170000D01*
X121920000Y-121920000D02*
X107315000Y-121920000D01*
X107315000Y-121920000D02*
X106680000Y-122555000D01*
X106680000Y-136906000D02*
X106680000Y-122555000D01*
X122555000Y-116840000D02*
X122555000Y-121285000D01*
X122555000Y-91440000D02*
X121920000Y-90805000D01*
X122555000Y-116840000D02*
X122555000Y-91440000D01*
X122555000Y-121285000D02*
X121920000Y-121920000D01*
X121285000Y-90170000D02*
X121285000Y-87630000D01*
X115570000Y-87630000D02*
X111760000Y-87630000D01*
X104775000Y-105410000D02*
X100330000Y-105410000D01*
X105410000Y-104775000D02*
X104775000Y-105410000D01*
X105410000Y-99695000D02*
X105410000Y-104775000D01*
X106045000Y-99060000D02*
X105410000Y-99695000D01*
X110490000Y-99060000D02*
X106045000Y-99060000D01*
X111125000Y-98425000D02*
X110490000Y-99060000D01*
X111125000Y-88265000D02*
X111125000Y-98425000D01*
X111760000Y-87630000D02*
X111125000Y-88265000D01*
X121285000Y-121285000D02*
X104775000Y-121285000D01*
X104775000Y-121285000D02*
X104140000Y-121920000D01*
X104140000Y-136906000D02*
X104140000Y-121920000D01*
X121920000Y-116840000D02*
X121920000Y-120650000D01*
X121920000Y-116840000D02*
X121920000Y-92075000D01*
X121920000Y-120650000D02*
X121285000Y-121285000D01*
X121920000Y-92075000D02*
X120015000Y-90170000D01*
X115570000Y-90170000D02*
X112395000Y-90170000D01*
X111125000Y-100330000D02*
X107950000Y-100330000D01*
X111760000Y-99695000D02*
X111125000Y-100330000D01*
X111760000Y-90805000D02*
X111760000Y-99695000D01*
X112395000Y-90170000D02*
X111760000Y-90805000D01*
X102235000Y-120650000D02*
X101600000Y-121285000D01*
X101600000Y-136906000D02*
X101600000Y-121285000D01*
X121285000Y-116840000D02*
X121285000Y-120015000D01*
X121285000Y-116840000D02*
X121285000Y-93345000D01*
X120650000Y-120650000D02*
X107950000Y-120650000D01*
X121285000Y-120015000D02*
X120650000Y-120650000D01*
X107950000Y-120650000D02*
X102235000Y-120650000D01*
X121285000Y-93345000D02*
X120650000Y-92710000D01*
X115570000Y-92710000D02*
X113030000Y-92710000D01*
X111760000Y-105410000D02*
X107950000Y-105410000D01*
X112395000Y-104775000D02*
X111760000Y-105410000D01*
X112395000Y-93345000D02*
X112395000Y-104775000D01*
X113030000Y-92710000D02*
X112395000Y-93345000D01*
X99695000Y-120015000D02*
X99060000Y-120650000D01*
X99060000Y-136906000D02*
X99060000Y-120650000D01*
X120650000Y-119380000D02*
X120015000Y-120015000D01*
X120015000Y-120015000D02*
X105410000Y-120015000D01*
X120650000Y-116840000D02*
X120650000Y-95885000D01*
X120650000Y-116840000D02*
X120650000Y-119380000D01*
X105410000Y-120015000D02*
X99695000Y-120015000D01*
X120650000Y-95885000D02*
X120015000Y-95250000D01*
X115570000Y-95250000D02*
X113665000Y-95250000D01*
X112395000Y-110490000D02*
X107950000Y-110490000D01*
X113030000Y-109855000D02*
X112395000Y-110490000D01*
X113030000Y-95885000D02*
X113030000Y-109855000D01*
X113665000Y-95250000D02*
X113030000Y-95885000D01*
X165100000Y-66675000D02*
X165735000Y-66040000D01*
X165735000Y-66040000D02*
X165735000Y-60960000D01*
X165735000Y-60960000D02*
X165735000Y-60325000D01*
X159385000Y-66675000D02*
X147320000Y-66675000D01*
X147320000Y-66675000D02*
X146050000Y-67945000D01*
X159385000Y-66675000D02*
X165100000Y-66675000D01*
X160655000Y-52705000D02*
X162560000Y-52705000D01*
X163195000Y-53340000D02*
X162560000Y-52705000D01*
X163195000Y-55880000D02*
X163195000Y-53340000D01*
X162560000Y-56515000D02*
X163195000Y-55880000D01*
X162560000Y-56515000D02*
X153670000Y-56515000D01*
X175260000Y-71755000D02*
X175260000Y-60960000D01*
X146685000Y-72390000D02*
X174625000Y-72390000D01*
X175260000Y-71755000D02*
X174625000Y-72390000D01*
X174625000Y-60325000D02*
X172720000Y-60325000D01*
X175260000Y-60960000D02*
X174625000Y-60325000D01*
X154940000Y-39370000D02*
X156210000Y-40640000D01*
X146685000Y-39370000D02*
X154940000Y-39370000D01*
X146050000Y-38735000D02*
X146685000Y-39370000D01*
X139700000Y-38735000D02*
X146050000Y-38735000D01*
X139065000Y-39370000D02*
X139700000Y-38735000D01*
X139065000Y-53975000D02*
X139065000Y-39370000D01*
X139700000Y-54610000D02*
X139065000Y-53975000D01*
X146685000Y-72390000D02*
X144145000Y-72390000D01*
X143510000Y-57785000D02*
X142240000Y-57785000D01*
X144145000Y-58420000D02*
X143510000Y-57785000D01*
X144145000Y-69976998D02*
X144145000Y-58420000D01*
X143510000Y-70611998D02*
X144145000Y-69976998D01*
X143510000Y-71755000D02*
X143510000Y-70611998D01*
X144145000Y-72390000D02*
X143510000Y-71755000D01*
X146685000Y-72390000D02*
X147320000Y-72390000D01*
X164465000Y-52705000D02*
X164465000Y-54610000D01*
X164465000Y-54610000D02*
X165100000Y-55245000D01*
X165100000Y-55245000D02*
X168275000Y-55245000D01*
X158750000Y-36830000D02*
X161925000Y-36830000D01*
X131445000Y-39370000D02*
X131445000Y-37465000D01*
X128905000Y-46990000D02*
X128905000Y-41910000D01*
X132080000Y-36830000D02*
X158750000Y-36830000D01*
X131445000Y-37465000D02*
X132080000Y-36830000D01*
X162560000Y-37465000D02*
X162560000Y-40640000D01*
X161925000Y-36830000D02*
X162560000Y-37465000D01*
X172720000Y-40640000D02*
X175895000Y-40640000D01*
X186055000Y-50165000D02*
X186055000Y-46990000D01*
X186055000Y-46990000D02*
X186055000Y-40640000D01*
X180340000Y-116205000D02*
X180975000Y-115570000D01*
X182880000Y-115570000D02*
X180975000Y-115570000D01*
X177165000Y-118110000D02*
X175895000Y-118110000D01*
X177800000Y-117475000D02*
X177165000Y-118110000D01*
X177800000Y-94615000D02*
X177800000Y-117475000D01*
X177165000Y-93980000D02*
X177800000Y-94615000D01*
X173355000Y-93980000D02*
X177165000Y-93980000D01*
X172720000Y-93980000D02*
X173355000Y-93980000D01*
X168275000Y-93980000D02*
X172720000Y-93980000D01*
X165735000Y-96520000D02*
X168275000Y-93980000D01*
X153670000Y-96520000D02*
X165735000Y-96520000D01*
X153670000Y-96520000D02*
X152400000Y-95250000D01*
X179705000Y-120650000D02*
X180340000Y-120015000D01*
X173990000Y-120650000D02*
X179705000Y-120650000D01*
X175895000Y-118110000D02*
X173355000Y-118110000D01*
X180340000Y-120015000D02*
X180340000Y-116205000D01*
X151130000Y-95250000D02*
X152400000Y-95250000D01*
X85090000Y-85725000D02*
X89535000Y-85725000D01*
X89535000Y-85725000D02*
X97790000Y-77470000D01*
X97790000Y-77470000D02*
X97155000Y-78105000D01*
X97790000Y-64770000D02*
X97790000Y-77470000D01*
X98425000Y-64135000D02*
X97790000Y-64770000D01*
X105410000Y-64135000D02*
X98425000Y-64135000D01*
X106680000Y-65405000D02*
X105410000Y-64135000D01*
X107950000Y-65405000D02*
X106680000Y-65405000D01*
X116205000Y-65405000D02*
X119380000Y-65405000D01*
X116205000Y-65405000D02*
X115570000Y-66040000D01*
X116205000Y-73025000D02*
X115570000Y-72390000D01*
X189230000Y-115570000D02*
X182880000Y-115570000D01*
X189865000Y-80645000D02*
X182245000Y-73025000D01*
X189865000Y-114935000D02*
X189865000Y-80645000D01*
X189230000Y-115570000D02*
X189865000Y-114935000D01*
X182245000Y-73025000D02*
X120650000Y-73025000D01*
X120650000Y-73025000D02*
X116205000Y-73025000D01*
X115570000Y-66040000D02*
X115570000Y-72390000D01*
X116205000Y-65405000D02*
X116205000Y-65405000D01*
X179070000Y-85090000D02*
X179070000Y-81915000D01*
X178435000Y-119380000D02*
X179070000Y-118745000D01*
X168910000Y-125095000D02*
X172085000Y-125095000D01*
X172085000Y-125095000D02*
X172720000Y-124460000D01*
X172720000Y-124460000D02*
X172720000Y-120015000D01*
X172720000Y-120015000D02*
X173355000Y-119380000D01*
X173355000Y-119380000D02*
X178435000Y-119380000D01*
X168275000Y-125730000D02*
X168910000Y-125095000D01*
X179070000Y-118745000D02*
X179070000Y-85090000D01*
X162560000Y-81280000D02*
X158750000Y-81280000D01*
X163195000Y-81280000D02*
X162560000Y-81280000D01*
X167005000Y-81280000D02*
X163195000Y-81280000D01*
X167640000Y-81280000D02*
X167005000Y-81280000D01*
X178435000Y-81280000D02*
X167640000Y-81280000D01*
X179070000Y-81915000D02*
X178435000Y-81280000D01*
X168275000Y-125730000D02*
X168275000Y-125730000D01*
X164465000Y-63500000D02*
X164465000Y-59690000D01*
X163830000Y-64135000D02*
X164465000Y-63500000D01*
X158750000Y-64135000D02*
X146685000Y-64135000D01*
X158750000Y-64135000D02*
X163830000Y-64135000D01*
X171450000Y-52705000D02*
X172720000Y-52705000D01*
X170815000Y-53340000D02*
X171450000Y-52705000D01*
X170815000Y-58420000D02*
X170815000Y-53340000D01*
X170180000Y-59055000D02*
X170815000Y-58420000D01*
X165100000Y-59055000D02*
X170180000Y-59055000D01*
X164465000Y-59690000D02*
X165100000Y-59055000D01*
X134620000Y-81280000D02*
X133985000Y-80645000D01*
X134620000Y-83820000D02*
X134620000Y-93980000D01*
X134620000Y-83820000D02*
X134620000Y-81280000D01*
X134620000Y-93980000D02*
X134620000Y-118745000D01*
X134620000Y-118745000D02*
X132080000Y-121285000D01*
X175260000Y-92710000D02*
X167005000Y-92710000D01*
X148590000Y-93980000D02*
X165735000Y-93980000D01*
X165735000Y-93980000D02*
X167005000Y-92710000D01*
X96520000Y-77470000D02*
X90805000Y-83185000D01*
X106680000Y-62865000D02*
X105410000Y-61595000D01*
X105410000Y-61595000D02*
X97790000Y-61595000D01*
X97790000Y-61595000D02*
X97155000Y-62230000D01*
X97155000Y-62230000D02*
X97155000Y-76835000D01*
X107950000Y-62865000D02*
X106680000Y-62865000D01*
X97155000Y-76835000D02*
X96520000Y-77470000D01*
X90805000Y-83185000D02*
X85090000Y-83185000D01*
X119380000Y-62865000D02*
X115570000Y-62865000D01*
X115570000Y-73660000D02*
X114935000Y-73025000D01*
X114935000Y-73025000D02*
X114935000Y-63500000D01*
X114935000Y-63500000D02*
X115570000Y-62865000D01*
X188595000Y-113030000D02*
X182880000Y-113030000D01*
X181610000Y-73660000D02*
X120650000Y-73660000D01*
X189230000Y-81280000D02*
X181610000Y-73660000D01*
X189230000Y-112395000D02*
X189230000Y-81280000D01*
X188595000Y-113030000D02*
X189230000Y-112395000D01*
X120650000Y-73660000D02*
X115570000Y-73660000D01*
X89535000Y-80645000D02*
X92075000Y-80645000D01*
X85090000Y-80645000D02*
X89535000Y-80645000D01*
X106680000Y-60325000D02*
X107950000Y-60325000D01*
X106680000Y-60325000D02*
X105410000Y-59055000D01*
X105410000Y-59055000D02*
X97155000Y-59055000D01*
X97155000Y-59055000D02*
X96520000Y-59690000D01*
X96520000Y-59690000D02*
X96520000Y-76200000D01*
X96520000Y-76200000D02*
X95885000Y-76835000D01*
X92075000Y-80645000D02*
X95885000Y-76835000D01*
X114935000Y-60325000D02*
X119380000Y-60325000D01*
X114935000Y-60325000D02*
X114300000Y-60960000D01*
X114935000Y-74295000D02*
X114300000Y-73660000D01*
X187960000Y-110490000D02*
X182880000Y-110490000D01*
X180975000Y-74295000D02*
X120650000Y-74295000D01*
X188595000Y-81915000D02*
X180975000Y-74295000D01*
X188595000Y-109855000D02*
X188595000Y-81915000D01*
X187960000Y-110490000D02*
X188595000Y-109855000D01*
X120650000Y-74295000D02*
X114935000Y-74295000D01*
X114300000Y-60960000D02*
X114300000Y-73660000D01*
X114935000Y-60325000D02*
X114935000Y-60325000D01*
X89535000Y-78105000D02*
X93345000Y-78105000D01*
X85090000Y-78105000D02*
X89535000Y-78105000D01*
X106680000Y-57785000D02*
X105410000Y-56515000D01*
X105410000Y-56515000D02*
X96520000Y-56515000D01*
X96520000Y-56515000D02*
X95885000Y-57150000D01*
X95885000Y-57150000D02*
X95885000Y-75565000D01*
X106680000Y-57785000D02*
X107950000Y-57785000D01*
X95885000Y-75565000D02*
X95250000Y-76200000D01*
X93345000Y-78105000D02*
X95250000Y-76200000D01*
X119380000Y-57785000D02*
X114300000Y-57785000D01*
X114300000Y-74930000D02*
X113665000Y-74295000D01*
X113665000Y-74295000D02*
X113665000Y-58420000D01*
X113665000Y-58420000D02*
X114300000Y-57785000D01*
X187325000Y-107950000D02*
X182880000Y-107950000D01*
X180340000Y-74930000D02*
X121285000Y-74930000D01*
X187960000Y-82550000D02*
X180340000Y-74930000D01*
X187960000Y-107315000D02*
X187960000Y-82550000D01*
X187325000Y-107950000D02*
X187960000Y-107315000D01*
X121285000Y-74930000D02*
X114300000Y-74930000D01*
X119380000Y-55245000D02*
X113665000Y-55245000D01*
X113665000Y-75565000D02*
X113030000Y-74930000D01*
X113030000Y-55880000D02*
X113665000Y-55245000D01*
X113030000Y-74930000D02*
X113030000Y-55880000D01*
X186690000Y-105410000D02*
X182880000Y-105410000D01*
X179705000Y-75565000D02*
X124460000Y-75565000D01*
X187325000Y-83185000D02*
X179705000Y-75565000D01*
X187325000Y-104775000D02*
X187325000Y-83185000D01*
X186690000Y-105410000D02*
X187325000Y-104775000D01*
X124460000Y-75565000D02*
X113665000Y-75565000D01*
X107950000Y-55245000D02*
X106680000Y-55245000D01*
X94615000Y-75565000D02*
X85090000Y-75565000D01*
X95250000Y-74930000D02*
X94615000Y-75565000D01*
X95250000Y-54610000D02*
X95250000Y-74930000D01*
X95885000Y-53975000D02*
X95250000Y-54610000D01*
X105410000Y-53975000D02*
X95885000Y-53975000D01*
X106680000Y-55245000D02*
X105410000Y-53975000D01*
X119380000Y-52705000D02*
X113030000Y-52705000D01*
X113030000Y-76200000D02*
X112395000Y-75565000D01*
X112395000Y-75565000D02*
X112395000Y-53340000D01*
X112395000Y-53340000D02*
X113030000Y-52705000D01*
X186055000Y-102870000D02*
X182880000Y-102870000D01*
X179070000Y-76200000D02*
X123190000Y-76200000D01*
X186690000Y-83820000D02*
X179070000Y-76200000D01*
X186690000Y-102235000D02*
X186690000Y-83820000D01*
X186055000Y-102870000D02*
X186690000Y-102235000D01*
X123190000Y-76200000D02*
X113030000Y-76200000D01*
X107950000Y-52705000D02*
X106680000Y-52705000D01*
X93980000Y-73025000D02*
X85090000Y-73025000D01*
X94615000Y-72390000D02*
X93980000Y-73025000D01*
X94615000Y-52070000D02*
X94615000Y-72390000D01*
X95250000Y-51435000D02*
X94615000Y-52070000D01*
X105410000Y-51435000D02*
X95250000Y-51435000D01*
X106680000Y-52705000D02*
X105410000Y-51435000D01*
X119380000Y-50165000D02*
X112395000Y-50165000D01*
X112395000Y-76835000D02*
X111760000Y-76200000D01*
X111760000Y-50800000D02*
X112395000Y-50165000D01*
X111760000Y-76200000D02*
X111760000Y-50800000D01*
X185420000Y-100330000D02*
X182880000Y-100330000D01*
X178435000Y-76835000D02*
X123825000Y-76835000D01*
X186055000Y-84455000D02*
X178435000Y-76835000D01*
X186055000Y-99695000D02*
X186055000Y-84455000D01*
X185420000Y-100330000D02*
X186055000Y-99695000D01*
X123825000Y-76835000D02*
X112395000Y-76835000D01*
X107950000Y-50165000D02*
X106680000Y-50165000D01*
X93345000Y-70485000D02*
X85090000Y-70485000D01*
X93980000Y-69850000D02*
X93345000Y-70485000D01*
X93980000Y-49530000D02*
X93980000Y-69850000D01*
X94615000Y-48895000D02*
X93980000Y-49530000D01*
X105410000Y-48895000D02*
X94615000Y-48895000D01*
X106680000Y-50165000D02*
X105410000Y-48895000D01*
X111125000Y-48260000D02*
X111760000Y-47625000D01*
X111073528Y-76896625D02*
X111125000Y-48260000D01*
X111073528Y-76896625D02*
X111760000Y-77470000D01*
X111760000Y-77470000D02*
X113665000Y-77470000D01*
X182880000Y-97790000D02*
X184785000Y-97790000D01*
X177800000Y-77470000D02*
X113665000Y-77470000D01*
X185420000Y-85090000D02*
X177800000Y-77470000D01*
X185420000Y-97155000D02*
X185420000Y-85090000D01*
X184785000Y-97790000D02*
X185420000Y-97155000D01*
X111760000Y-47625000D02*
X119380000Y-47625000D01*
X107950000Y-47625000D02*
X106680000Y-47625000D01*
X92710000Y-67945000D02*
X85090000Y-67945000D01*
X93345000Y-67310000D02*
X92710000Y-67945000D01*
X93345000Y-46990000D02*
X93345000Y-67310000D01*
X93980000Y-46355000D02*
X93345000Y-46990000D01*
X105410000Y-46355000D02*
X93980000Y-46355000D01*
X106680000Y-47625000D02*
X105410000Y-46355000D01*
X180340000Y-81280000D02*
X177800000Y-78740000D01*
X180340000Y-81280000D02*
X180340000Y-94615000D01*
X180340000Y-94615000D02*
X180975000Y-95250000D01*
X182880000Y-95250000D02*
X180975000Y-95250000D01*
X177800000Y-78740000D02*
X176530000Y-78740000D01*
X176530000Y-62865000D02*
X176530000Y-58420000D01*
X176530000Y-62865000D02*
X176530000Y-71120000D01*
X175895000Y-57785000D02*
X172720000Y-57785000D01*
X176530000Y-58420000D02*
X175895000Y-57785000D01*
X148590000Y-52705000D02*
X146685000Y-52705000D01*
X146685000Y-62865000D02*
X148590000Y-62865000D01*
X146050000Y-62230000D02*
X146685000Y-62865000D01*
X146050000Y-53340000D02*
X146050000Y-62230000D01*
X146685000Y-52705000D02*
X146050000Y-53340000D01*
X151765000Y-78740000D02*
X163195000Y-78740000D01*
X163195000Y-78740000D02*
X164465000Y-80010000D01*
X164465000Y-80010000D02*
X165735000Y-80010000D01*
X165735000Y-80010000D02*
X167640000Y-78105000D01*
X167640000Y-78105000D02*
X175895000Y-78105000D01*
X175895000Y-78105000D02*
X176530000Y-78740000D01*
X151765000Y-78740000D02*
X151130000Y-79375000D01*
X136525000Y-78740000D02*
X150495000Y-78740000D01*
X150495000Y-78740000D02*
X151130000Y-79375000D01*
X107950000Y-95250000D02*
X109855000Y-95250000D01*
X111125000Y-78740000D02*
X136525000Y-78740000D01*
X110490000Y-79375000D02*
X111125000Y-78740000D01*
X110490000Y-94615000D02*
X110490000Y-79375000D01*
X109855000Y-95250000D02*
X110490000Y-94615000D01*
M02*
